<svg width="136" height="202" viewBox="0 0 136 202" fill="none" xmlns="http://www.w3.org/2000/svg">
    <rect width="136" height="202" fill="#F4F5F6" />
    <path
        d="M63.064 98.6162H61.2886V100.5H60.7407V96.2344H63.3599V96.6973H61.2886V98.1562H63.064V98.6162ZM66.3833 100.5L66.3511 100.063C66.2456 100.22 66.1138 100.342 65.9556 100.43C65.7974 100.516 65.6147 100.559 65.4077 100.559C65.2417 100.559 65.0913 100.533 64.9565 100.482C64.8218 100.43 64.7065 100.349 64.6108 100.239C64.5151 100.13 64.4409 99.9912 64.3882 99.8232C64.3374 99.6533 64.312 99.4502 64.312 99.2139V97.3301H64.854V99.2197C64.854 99.3916 64.8677 99.5342 64.895 99.6475C64.9224 99.7607 64.9634 99.8506 65.0181 99.917C65.0728 99.9854 65.1392 100.033 65.2173 100.061C65.2974 100.088 65.3892 100.102 65.4927 100.102C65.6138 100.102 65.7222 100.088 65.8179 100.061C65.9136 100.031 65.9966 99.9912 66.0669 99.9404C66.1255 99.8994 66.1763 99.8506 66.2192 99.7939C66.2642 99.7354 66.3013 99.6719 66.3306 99.6035V97.3301H66.8755V100.5H66.3833ZM67.8979 100.5V97.3301H68.3843L68.4224 97.7988C68.4692 97.7324 68.52 97.6719 68.5747 97.6172C68.6313 97.5605 68.6909 97.5117 68.7534 97.4707C68.8472 97.4082 68.9487 97.3604 69.0581 97.3271C69.1694 97.292 69.2866 97.2734 69.4097 97.2715C69.5757 97.2715 69.7261 97.2949 69.8608 97.3418C69.9976 97.3887 70.1138 97.4619 70.2095 97.5615C70.3052 97.6611 70.3784 97.7881 70.4292 97.9424C70.4819 98.0947 70.5083 98.2764 70.5083 98.4873V100.5H69.9663V98.499C69.9663 98.3584 69.9507 98.2393 69.9194 98.1416C69.8882 98.0439 69.8423 97.9648 69.7817 97.9043C69.7192 97.8438 69.6431 97.7998 69.5532 97.7725C69.4653 97.7451 69.3638 97.7314 69.2485 97.7314C69.1489 97.7314 69.0562 97.7461 68.9702 97.7754C68.8843 97.8027 68.8052 97.8408 68.7329 97.8896C68.6743 97.9326 68.6196 97.9824 68.5688 98.0391C68.52 98.0957 68.4771 98.1582 68.4399 98.2266V100.5H67.8979ZM72.8521 100.119C72.9497 100.119 73.0444 100.104 73.1362 100.072C73.23 100.041 73.313 99.9971 73.3853 99.9404C73.4575 99.8857 73.5151 99.8213 73.5581 99.7471C73.603 99.6709 73.6265 99.5889 73.6284 99.501H74.1411C74.1392 99.6416 74.1021 99.7764 74.0298 99.9053C73.9595 100.032 73.8647 100.144 73.7456 100.239C73.6265 100.337 73.4897 100.415 73.3354 100.474C73.1812 100.53 73.02 100.559 72.8521 100.559C72.6118 100.559 72.4019 100.516 72.2222 100.43C72.0425 100.344 71.8931 100.228 71.7739 100.081C71.6528 99.9365 71.562 99.7695 71.5015 99.5801C71.4409 99.3887 71.4106 99.1875 71.4106 98.9766V98.8535C71.4106 98.6445 71.4409 98.4443 71.5015 98.2529C71.562 98.0615 71.6528 97.8926 71.7739 97.7461C71.8931 97.6016 72.0425 97.4863 72.2222 97.4004C72.4019 97.3145 72.6118 97.2715 72.8521 97.2715C73.0396 97.2715 73.2114 97.3018 73.3677 97.3623C73.5259 97.4209 73.6626 97.501 73.7778 97.6025C73.8911 97.7061 73.98 97.8281 74.0444 97.9688C74.1089 98.1094 74.1411 98.2598 74.1411 98.4199H73.6284C73.6265 98.3242 73.605 98.2344 73.564 98.1504C73.5249 98.0645 73.4712 97.9893 73.4028 97.9248C73.3345 97.8604 73.2524 97.8096 73.1567 97.7725C73.063 97.7354 72.9614 97.7168 72.8521 97.7168C72.6841 97.7168 72.5425 97.751 72.4272 97.8193C72.314 97.8857 72.2222 97.9727 72.1519 98.0801C72.0815 98.1895 72.0308 98.3115 71.9995 98.4463C71.9702 98.5811 71.9556 98.7168 71.9556 98.8535V98.9766C71.9556 99.1152 71.9702 99.2529 71.9995 99.3896C72.0308 99.5244 72.0815 99.6455 72.1519 99.7529C72.2202 99.8623 72.311 99.9512 72.4243 100.02C72.5396 100.086 72.6821 100.119 72.8521 100.119ZM76.3882 96.5625V97.3301H77.5952V97.749H76.3882V99.4717C76.3882 99.5947 76.4038 99.6963 76.4351 99.7764C76.4663 99.8564 76.5093 99.9199 76.564 99.9668C76.6187 100.016 76.6812 100.05 76.7515 100.069C76.8237 100.089 76.8999 100.099 76.98 100.099C77.0386 100.099 77.0991 100.096 77.1616 100.09C77.2241 100.082 77.2856 100.073 77.3462 100.063C77.4048 100.054 77.4595 100.044 77.5103 100.034C77.563 100.022 77.606 100.013 77.6392 100.005L77.7153 100.389C77.6704 100.416 77.6157 100.44 77.5513 100.462C77.4868 100.481 77.4165 100.498 77.3403 100.512C77.2642 100.527 77.1831 100.539 77.0972 100.547C77.0132 100.555 76.9292 100.559 76.8452 100.559C76.7046 100.559 76.5728 100.539 76.4497 100.5C76.3286 100.459 76.2231 100.395 76.1333 100.307C76.0435 100.221 75.9722 100.109 75.9194 99.9727C75.8687 99.834 75.8433 99.667 75.8433 99.4717V97.749H75.0112V97.3301H75.8433V96.5625H76.3882ZM78.7935 97.3301H80.4136V100.031H81.4478V100.5H78.7935V100.031H79.8716V97.8018H78.7935V97.3301ZM79.8013 96.498C79.8013 96.4512 79.8081 96.4072 79.8218 96.3662C79.8374 96.3252 79.8608 96.29 79.8921 96.2607C79.9175 96.2354 79.9497 96.2158 79.9888 96.2021C80.0298 96.1865 80.0757 96.1787 80.1265 96.1787C80.1772 96.1787 80.2222 96.1865 80.2612 96.2021C80.3003 96.2158 80.3325 96.2354 80.3579 96.2607C80.3892 96.2881 80.4126 96.3223 80.4282 96.3633C80.4438 96.4043 80.4517 96.4492 80.4517 96.498C80.4517 96.5859 80.4243 96.6592 80.3696 96.7178C80.3149 96.7764 80.2339 96.8057 80.1265 96.8057C80.0171 96.8057 79.9351 96.7764 79.8804 96.7178C79.8276 96.6592 79.8013 96.5859 79.8013 96.498ZM82.1597 98.8857C82.1597 98.6572 82.1929 98.4453 82.2593 98.25C82.3257 98.0527 82.4214 97.8818 82.5464 97.7373C82.6694 97.5928 82.8198 97.4795 82.9976 97.3975C83.1753 97.3135 83.3755 97.2715 83.5981 97.2715C83.8228 97.2715 84.0239 97.3135 84.2017 97.3975C84.3813 97.4795 84.5337 97.5928 84.6587 97.7373C84.7817 97.8818 84.8765 98.0527 84.9429 98.25C85.0093 98.4453 85.0425 98.6572 85.0425 98.8857V98.9502C85.0425 99.1787 85.0093 99.3906 84.9429 99.5859C84.8765 99.7812 84.7817 99.9512 84.6587 100.096C84.5337 100.24 84.3823 100.354 84.2046 100.436C84.0269 100.518 83.8267 100.559 83.604 100.559C83.3794 100.559 83.1772 100.518 82.9976 100.436C82.8198 100.354 82.6694 100.24 82.5464 100.096C82.4214 99.9512 82.3257 99.7812 82.2593 99.5859C82.1929 99.3906 82.1597 99.1787 82.1597 98.9502V98.8857ZM82.7017 98.9502C82.7017 99.1064 82.7202 99.2559 82.7573 99.3984C82.7944 99.5391 82.8511 99.6631 82.9272 99.7705C83.0015 99.8779 83.0952 99.9629 83.2085 100.025C83.3218 100.088 83.4536 100.119 83.604 100.119C83.7524 100.119 83.8823 100.088 83.9937 100.025C84.1069 99.9629 84.2017 99.8779 84.2778 99.7705C84.3521 99.6631 84.4077 99.5391 84.4448 99.3984C84.4819 99.2559 84.5005 99.1064 84.5005 98.9502V98.8857C84.5005 98.7314 84.481 98.584 84.4419 98.4434C84.4048 98.3008 84.3491 98.1758 84.2749 98.0684C84.1987 97.9609 84.104 97.876 83.9907 97.8135C83.8794 97.749 83.7485 97.7168 83.5981 97.7168C83.4478 97.7168 83.3169 97.749 83.2056 97.8135C83.0942 97.876 83.0015 97.9609 82.9272 98.0684C82.8511 98.1758 82.7944 98.3008 82.7573 98.4434C82.7202 98.584 82.7017 98.7314 82.7017 98.8857V98.9502ZM85.9155 100.5V97.3301H86.4019L86.4399 97.7988C86.4868 97.7324 86.5376 97.6719 86.5923 97.6172C86.6489 97.5605 86.7085 97.5117 86.771 97.4707C86.8647 97.4082 86.9663 97.3604 87.0757 97.3271C87.187 97.292 87.3042 97.2734 87.4272 97.2715C87.5933 97.2715 87.7437 97.2949 87.8784 97.3418C88.0151 97.3887 88.1313 97.4619 88.2271 97.5615C88.3228 97.6611 88.396 97.7881 88.4468 97.9424C88.4995 98.0947 88.5259 98.2764 88.5259 98.4873V100.5H87.9839V98.499C87.9839 98.3584 87.9683 98.2393 87.937 98.1416C87.9058 98.0439 87.8599 97.9648 87.7993 97.9043C87.7368 97.8438 87.6606 97.7998 87.5708 97.7725C87.4829 97.7451 87.3813 97.7314 87.2661 97.7314C87.1665 97.7314 87.0737 97.7461 86.9878 97.7754C86.9019 97.8027 86.8228 97.8408 86.7505 97.8896C86.6919 97.9326 86.6372 97.9824 86.5864 98.0391C86.5376 98.0957 86.4946 98.1582 86.4575 98.2266V100.5H85.9155ZM70.6606 105.217C70.6353 105.414 70.5845 105.596 70.5083 105.762C70.4321 105.926 70.3335 106.066 70.2124 106.184C70.0894 106.303 69.9438 106.396 69.7759 106.462C69.6099 106.526 69.4243 106.559 69.2192 106.559C69.0435 106.559 68.8833 106.534 68.7388 106.485C68.5962 106.435 68.4692 106.365 68.3579 106.277C68.2446 106.189 68.147 106.086 68.0649 105.967C67.9849 105.848 67.9185 105.718 67.8657 105.577C67.811 105.437 67.77 105.289 67.7427 105.135C67.7173 104.98 67.7036 104.824 67.7017 104.666V104.071C67.7036 103.913 67.7173 103.757 67.7427 103.603C67.77 103.448 67.811 103.301 67.8657 103.16C67.9185 103.02 67.9849 102.89 68.0649 102.771C68.147 102.649 68.2446 102.545 68.3579 102.457C68.4692 102.369 68.5962 102.301 68.7388 102.252C68.8813 102.201 69.0415 102.176 69.2192 102.176C69.4321 102.176 69.6226 102.209 69.7905 102.275C69.9585 102.34 70.103 102.432 70.2241 102.551C70.3452 102.672 70.4419 102.816 70.5142 102.984C70.5884 103.152 70.6372 103.338 70.6606 103.541H70.1187C70.1011 103.412 70.0708 103.292 70.0278 103.181C69.9849 103.069 69.9272 102.972 69.855 102.888C69.7827 102.804 69.6938 102.738 69.5884 102.691C69.4849 102.643 69.3618 102.618 69.2192 102.618C69.0903 102.618 68.9761 102.64 68.8765 102.683C68.7788 102.724 68.6948 102.78 68.6245 102.853C68.5522 102.925 68.4917 103.009 68.4429 103.104C68.396 103.2 68.3579 103.302 68.3286 103.409C68.2993 103.517 68.2778 103.627 68.2642 103.74C68.2524 103.852 68.2466 103.96 68.2466 104.065V104.666C68.2466 104.771 68.2524 104.881 68.2642 104.994C68.2778 105.105 68.2993 105.215 68.3286 105.322C68.3579 105.432 68.396 105.534 68.4429 105.63C68.4897 105.726 68.5493 105.81 68.6216 105.882C68.6938 105.956 68.7788 106.015 68.8765 106.058C68.9741 106.099 69.0884 106.119 69.2192 106.119C69.3618 106.119 69.4849 106.097 69.5884 106.052C69.6938 106.007 69.7827 105.943 69.855 105.861C69.9272 105.781 69.9849 105.687 70.0278 105.577C70.0708 105.466 70.1011 105.346 70.1187 105.217H70.6606ZM73.5845 106.5C73.563 106.459 73.5454 106.408 73.5317 106.348C73.52 106.285 73.5112 106.221 73.5054 106.154C73.4507 106.209 73.3892 106.261 73.3208 106.31C73.2544 106.358 73.1812 106.401 73.1011 106.438C73.019 106.476 72.9321 106.505 72.8403 106.526C72.7485 106.548 72.6509 106.559 72.5474 106.559C72.3794 106.559 72.2271 106.534 72.0903 106.485C71.9556 106.437 71.8413 106.37 71.7476 106.286C71.6519 106.204 71.5776 106.106 71.5249 105.993C71.4741 105.878 71.4487 105.754 71.4487 105.621C71.4487 105.447 71.4829 105.295 71.5513 105.164C71.6216 105.033 71.7202 104.924 71.8472 104.836C71.9741 104.75 72.1265 104.686 72.3042 104.643C72.4839 104.6 72.6841 104.578 72.9048 104.578H73.4966V104.329C73.4966 104.233 73.479 104.147 73.4438 104.071C73.4087 103.995 73.3589 103.93 73.2944 103.875C73.23 103.822 73.1509 103.781 73.0571 103.752C72.9653 103.723 72.8618 103.708 72.7466 103.708C72.6392 103.708 72.5425 103.722 72.4565 103.749C72.3726 103.776 72.3013 103.812 72.2427 103.857C72.1841 103.902 72.1382 103.956 72.105 104.019C72.0737 104.079 72.0581 104.143 72.0581 104.209H71.5132C71.5151 104.094 71.5444 103.98 71.6011 103.869C71.6597 103.758 71.7437 103.657 71.853 103.567C71.9604 103.479 72.0913 103.408 72.2456 103.354C72.4019 103.299 72.5786 103.271 72.7759 103.271C72.9556 103.271 73.1226 103.294 73.2769 103.339C73.4312 103.382 73.5649 103.447 73.6782 103.535C73.7896 103.625 73.8774 103.736 73.9419 103.869C74.0063 104.002 74.0386 104.157 74.0386 104.335V105.809C74.0386 105.914 74.0483 106.026 74.0679 106.146C74.0874 106.263 74.1147 106.365 74.1499 106.453V106.5H73.5845ZM72.6265 106.087C72.7319 106.087 72.8306 106.073 72.9224 106.046C73.0142 106.019 73.0981 105.982 73.1743 105.938C73.2485 105.893 73.313 105.842 73.3677 105.785C73.4224 105.727 73.4653 105.666 73.4966 105.604V104.962H72.9927C72.8052 104.962 72.6411 104.979 72.5005 105.012C72.3618 105.043 72.2515 105.092 72.1694 105.158C72.1108 105.205 72.0659 105.261 72.0347 105.325C72.0054 105.39 71.9907 105.463 71.9907 105.545C71.9907 105.623 72.0034 105.695 72.0288 105.762C72.0562 105.828 72.0962 105.885 72.1489 105.932C72.2017 105.98 72.2681 106.019 72.3481 106.046C72.4282 106.073 72.521 106.087 72.6265 106.087ZM75.1899 102H76.8101V106.031H77.8442V106.5H75.1899V106.031H76.2681V102.472H75.1899V102ZM78.7935 102H80.4136V106.031H81.4478V106.5H78.7935V106.031H79.8716V102.472H78.7935V102Z"
        fill="#A5A8AB" />
    <path
        d="M101.403 184.571H99.0361V187.083H98.3057V181.395H101.798V182.013H99.0361V183.958H101.403V184.571ZM103.157 182.856H105.317V186.458H106.696V187.083H103.157V186.458H104.595V183.485H103.157V182.856ZM104.501 181.747C104.501 181.684 104.51 181.626 104.528 181.571C104.549 181.516 104.58 181.47 104.622 181.431C104.656 181.397 104.699 181.371 104.751 181.352C104.806 181.332 104.867 181.321 104.935 181.321C105.002 181.321 105.062 181.332 105.114 181.352C105.166 181.371 105.209 181.397 105.243 181.431C105.285 181.467 105.316 181.513 105.337 181.567C105.358 181.622 105.368 181.682 105.368 181.747C105.368 181.864 105.332 181.962 105.259 182.04C105.186 182.118 105.078 182.157 104.935 182.157C104.789 182.157 104.679 182.118 104.606 182.04C104.536 181.962 104.501 181.864 104.501 181.747ZM107.849 187.083V182.856H108.497L108.548 183.481C108.61 183.393 108.678 183.312 108.751 183.239C108.826 183.164 108.906 183.099 108.989 183.044C109.114 182.961 109.25 182.897 109.396 182.852C109.544 182.806 109.7 182.781 109.864 182.778C110.086 182.778 110.286 182.809 110.466 182.872C110.648 182.934 110.803 183.032 110.931 183.165C111.058 183.298 111.156 183.467 111.224 183.673C111.294 183.876 111.329 184.118 111.329 184.399V187.083H110.606V184.415C110.606 184.227 110.586 184.069 110.544 183.938C110.502 183.808 110.441 183.703 110.36 183.622C110.277 183.541 110.175 183.483 110.056 183.446C109.938 183.41 109.803 183.391 109.649 183.391C109.517 183.391 109.393 183.411 109.278 183.45C109.164 183.487 109.058 183.537 108.962 183.602C108.884 183.66 108.811 183.726 108.743 183.802C108.678 183.877 108.621 183.961 108.571 184.052V187.083H107.849ZM115.431 187.083C115.402 187.028 115.379 186.961 115.36 186.88C115.345 186.796 115.333 186.711 115.325 186.622C115.252 186.695 115.17 186.764 115.079 186.829C114.991 186.894 114.893 186.951 114.786 187.001C114.677 187.05 114.561 187.089 114.438 187.118C114.316 187.147 114.186 187.161 114.048 187.161C113.824 187.161 113.621 187.128 113.438 187.063C113.259 186.998 113.106 186.91 112.981 186.798C112.854 186.688 112.755 186.558 112.685 186.407C112.617 186.253 112.583 186.088 112.583 185.911C112.583 185.679 112.629 185.476 112.72 185.302C112.813 185.127 112.945 184.981 113.114 184.864C113.284 184.75 113.487 184.664 113.724 184.606C113.963 184.549 114.23 184.52 114.524 184.52H115.313V184.188C115.313 184.061 115.29 183.946 115.243 183.845C115.196 183.743 115.13 183.656 115.044 183.583C114.958 183.513 114.853 183.458 114.728 183.419C114.605 183.38 114.467 183.36 114.313 183.36C114.17 183.36 114.041 183.378 113.927 183.415C113.815 183.451 113.72 183.5 113.642 183.559C113.563 183.619 113.502 183.691 113.458 183.774C113.416 183.855 113.396 183.94 113.396 184.028H112.669C112.672 183.875 112.711 183.724 112.786 183.575C112.864 183.427 112.976 183.293 113.122 183.173C113.265 183.056 113.44 182.961 113.646 182.888C113.854 182.815 114.09 182.778 114.353 182.778C114.592 182.778 114.815 182.808 115.021 182.868C115.226 182.925 115.405 183.013 115.556 183.13C115.704 183.25 115.821 183.398 115.907 183.575C115.993 183.752 116.036 183.959 116.036 184.196V186.161C116.036 186.302 116.049 186.451 116.075 186.61C116.101 186.766 116.138 186.903 116.185 187.02V187.083H115.431ZM114.153 186.532C114.294 186.532 114.425 186.514 114.548 186.477C114.67 186.441 114.782 186.393 114.884 186.333C114.983 186.273 115.069 186.205 115.142 186.13C115.215 186.052 115.272 185.971 115.313 185.888V185.032H114.642C114.392 185.032 114.173 185.054 113.985 185.099C113.8 185.14 113.653 185.205 113.544 185.294C113.466 185.356 113.406 185.431 113.364 185.516C113.325 185.602 113.306 185.7 113.306 185.809C113.306 185.914 113.323 186.01 113.356 186.099C113.393 186.187 113.446 186.263 113.517 186.325C113.587 186.39 113.675 186.441 113.782 186.477C113.889 186.514 114.013 186.532 114.153 186.532ZM117.571 181.083H119.731V186.458H121.11V187.083H117.571V186.458H119.009V181.712H117.571V181.083ZM98.6064 190.778C98.7393 190.778 98.8773 190.787 99.0205 190.806C99.1663 190.824 99.2757 190.849 99.3486 190.88L99.251 191.587C99.1104 191.556 98.9762 191.533 98.8486 191.52C98.7236 191.505 98.5921 191.497 98.4541 191.497C98.277 191.497 98.1169 191.519 97.9736 191.563C97.8304 191.605 97.7054 191.668 97.5986 191.751C97.5023 191.824 97.4176 191.914 97.3447 192.02C97.2744 192.125 97.2158 192.242 97.1689 192.372V195.083H96.4424V190.856H97.1299L97.1611 191.423L97.165 191.528C97.3369 191.296 97.5426 191.114 97.7822 190.981C98.0244 190.846 98.2992 190.778 98.6064 190.778ZM102.509 195.161C102.212 195.161 101.938 195.11 101.688 195.009C101.441 194.907 101.229 194.765 101.052 194.583C100.875 194.401 100.737 194.184 100.638 193.934C100.539 193.684 100.489 193.412 100.489 193.118V192.954C100.489 192.613 100.544 192.308 100.653 192.04C100.763 191.769 100.909 191.54 101.091 191.352C101.271 191.168 101.475 191.026 101.704 190.927C101.936 190.828 102.173 190.778 102.415 190.778C102.72 190.778 102.985 190.832 103.212 190.938C103.441 191.043 103.631 191.187 103.782 191.372C103.933 191.559 104.045 191.78 104.118 192.032C104.194 192.285 104.231 192.558 104.231 192.852V193.177H101.212V193.204C101.23 193.41 101.271 193.591 101.333 193.747C101.398 193.903 101.487 194.041 101.599 194.161C101.713 194.289 101.851 194.389 102.013 194.462C102.174 194.535 102.353 194.571 102.548 194.571C102.806 194.571 103.035 194.519 103.235 194.415C103.436 194.311 103.603 194.173 103.735 194.001L104.177 194.345C104.036 194.558 103.825 194.748 103.544 194.915C103.265 195.079 102.92 195.161 102.509 195.161ZM102.415 191.372C102.269 191.372 102.131 191.399 102.001 191.454C101.871 191.506 101.754 191.583 101.649 191.684C101.545 191.789 101.457 191.916 101.384 192.067C101.313 192.216 101.264 192.388 101.235 192.583H103.509V192.548C103.509 192.418 103.484 192.278 103.435 192.13C103.385 191.979 103.316 191.849 103.228 191.739C103.139 191.63 103.027 191.541 102.892 191.474C102.759 191.406 102.6 191.372 102.415 191.372ZM108.255 193.962C108.255 193.876 108.238 193.799 108.204 193.731C108.17 193.661 108.113 193.597 108.032 193.54C107.951 193.483 107.845 193.431 107.712 193.384C107.579 193.334 107.414 193.29 107.216 193.251C106.974 193.201 106.752 193.141 106.552 193.071C106.354 193.001 106.185 192.916 106.044 192.817C105.901 192.721 105.79 192.608 105.712 192.477C105.634 192.345 105.595 192.191 105.595 192.016C105.595 191.845 105.635 191.684 105.716 191.536C105.797 191.385 105.91 191.253 106.056 191.141C106.201 191.03 106.375 190.941 106.575 190.876C106.778 190.811 107.001 190.778 107.243 190.778C107.504 190.778 107.738 190.812 107.946 190.88C108.155 190.947 108.332 191.041 108.478 191.161C108.623 191.281 108.735 191.421 108.813 191.583C108.894 191.742 108.935 191.914 108.935 192.099H108.212C108.212 192.007 108.188 191.919 108.142 191.833C108.095 191.744 108.03 191.666 107.946 191.599C107.863 191.531 107.761 191.476 107.642 191.434C107.524 191.393 107.392 191.372 107.243 191.372C107.09 191.372 106.954 191.389 106.837 191.423C106.722 191.457 106.627 191.502 106.552 191.559C106.474 191.617 106.415 191.683 106.376 191.759C106.337 191.834 106.317 191.912 106.317 191.993C106.317 192.076 106.333 192.151 106.364 192.216C106.396 192.281 106.45 192.339 106.528 192.391C106.604 192.444 106.705 192.49 106.833 192.532C106.963 192.574 107.127 192.614 107.325 192.653C107.586 192.708 107.819 192.772 108.024 192.845C108.23 192.915 108.403 193 108.544 193.099C108.685 193.2 108.791 193.317 108.864 193.45C108.94 193.583 108.978 193.737 108.978 193.911C108.978 194.099 108.935 194.269 108.849 194.423C108.765 194.576 108.648 194.708 108.497 194.817C108.346 194.927 108.165 195.011 107.954 195.071C107.743 195.131 107.513 195.161 107.263 195.161C106.976 195.161 106.721 195.123 106.497 195.048C106.273 194.97 106.084 194.867 105.931 194.739C105.774 194.614 105.655 194.468 105.571 194.302C105.491 194.135 105.45 193.962 105.45 193.782H106.173C106.183 193.931 106.222 194.056 106.29 194.157C106.36 194.259 106.448 194.341 106.552 194.403C106.653 194.466 106.767 194.51 106.892 194.536C107.017 194.562 107.14 194.575 107.263 194.575C107.455 194.575 107.623 194.553 107.767 194.509C107.91 194.462 108.022 194.398 108.103 194.317C108.152 194.268 108.19 194.213 108.216 194.153C108.242 194.093 108.255 194.03 108.255 193.962ZM113.036 195.083L112.993 194.501C112.853 194.709 112.677 194.872 112.466 194.989C112.255 195.104 112.011 195.161 111.735 195.161C111.514 195.161 111.313 195.127 111.134 195.059C110.954 194.989 110.8 194.881 110.673 194.735C110.545 194.589 110.446 194.405 110.376 194.181C110.308 193.954 110.274 193.683 110.274 193.368V190.856H110.997V193.376C110.997 193.605 111.015 193.795 111.052 193.946C111.088 194.097 111.143 194.217 111.216 194.306C111.289 194.397 111.377 194.461 111.481 194.497C111.588 194.533 111.711 194.552 111.849 194.552C112.01 194.552 112.155 194.533 112.282 194.497C112.41 194.458 112.521 194.405 112.614 194.337C112.692 194.282 112.76 194.217 112.817 194.141C112.877 194.063 112.927 193.979 112.966 193.888V190.856H113.692V195.083H113.036ZM115.169 189.083H117.329V194.458H118.708V195.083H115.169V194.458H116.606V189.712H115.169V189.083ZM121.571 189.833V190.856H123.181V191.415H121.571V193.712C121.571 193.876 121.592 194.011 121.634 194.118C121.675 194.225 121.733 194.309 121.806 194.372C121.879 194.437 121.962 194.483 122.056 194.509C122.152 194.535 122.254 194.548 122.36 194.548C122.438 194.548 122.519 194.544 122.603 194.536C122.686 194.526 122.768 194.514 122.849 194.501C122.927 194.488 123 194.475 123.067 194.462C123.138 194.446 123.195 194.433 123.239 194.423L123.341 194.934C123.281 194.971 123.208 195.003 123.122 195.032C123.036 195.058 122.942 195.08 122.841 195.099C122.739 195.119 122.631 195.135 122.517 195.145C122.405 195.156 122.293 195.161 122.181 195.161C121.993 195.161 121.817 195.135 121.653 195.083C121.492 195.028 121.351 194.942 121.231 194.825C121.112 194.711 121.017 194.562 120.946 194.38C120.879 194.195 120.845 193.972 120.845 193.712V191.415H119.735V190.856H120.845V189.833H121.571Z"
        fill="#303136" />
    <path
        d="M41.0664 108.853H39.291V110.737H38.7432V106.471H41.3623V106.934H39.291V108.393H41.0664V108.853ZM42.3818 107.567H44.002V110.268H45.0361V110.737H42.3818V110.268H43.46V108.039H42.3818V107.567ZM43.3896 106.735C43.3896 106.688 43.3965 106.644 43.4102 106.603C43.4258 106.562 43.4492 106.527 43.4805 106.498C43.5059 106.472 43.5381 106.453 43.5771 106.439C43.6182 106.424 43.6641 106.416 43.7148 106.416C43.7656 106.416 43.8105 106.424 43.8496 106.439C43.8887 106.453 43.9209 106.472 43.9463 106.498C43.9775 106.525 44.001 106.559 44.0166 106.6C44.0322 106.641 44.04 106.686 44.04 106.735C44.04 106.823 44.0127 106.896 43.958 106.955C43.9033 107.013 43.8223 107.043 43.7148 107.043C43.6055 107.043 43.5234 107.013 43.4688 106.955C43.416 106.896 43.3896 106.823 43.3896 106.735ZM47.9775 107.509C48.0771 107.509 48.1807 107.515 48.2881 107.529C48.3975 107.543 48.4795 107.561 48.5342 107.585L48.4609 108.115C48.3555 108.092 48.2549 108.075 48.1592 108.065C48.0654 108.053 47.9668 108.048 47.8633 108.048C47.7305 108.048 47.6104 108.064 47.5029 108.097C47.3955 108.129 47.3018 108.176 47.2217 108.238C47.1494 108.293 47.0859 108.36 47.0312 108.44C46.9785 108.518 46.9346 108.606 46.8994 108.704V110.737H46.3545V107.567H46.8701L46.8936 107.992L46.8965 108.071C47.0254 107.897 47.1797 107.76 47.3594 107.661C47.541 107.559 47.7471 107.509 47.9775 107.509ZM51.6104 109.896C51.6104 109.832 51.5977 109.774 51.5723 109.723C51.5469 109.671 51.5039 109.623 51.4434 109.58C51.3828 109.537 51.3027 109.498 51.2031 109.463C51.1035 109.426 50.9795 109.392 50.8311 109.363C50.6494 109.326 50.4834 109.281 50.333 109.228C50.1846 109.176 50.0576 109.112 49.9521 109.038C49.8447 108.966 49.7617 108.881 49.7031 108.783C49.6445 108.683 49.6152 108.568 49.6152 108.437C49.6152 108.308 49.6455 108.188 49.7061 108.077C49.7666 107.964 49.8516 107.865 49.9609 107.781C50.0703 107.697 50.2002 107.631 50.3506 107.582C50.5029 107.533 50.6699 107.509 50.8516 107.509C51.0469 107.509 51.2227 107.534 51.3789 107.585C51.5352 107.635 51.668 107.706 51.7773 107.796C51.8867 107.885 51.9707 107.991 52.0293 108.112C52.0898 108.231 52.1201 108.36 52.1201 108.499H51.5781C51.5781 108.43 51.5605 108.364 51.5254 108.3C51.4902 108.233 51.4414 108.175 51.3789 108.124C51.3164 108.073 51.2402 108.032 51.1504 108.001C51.0625 107.969 50.9629 107.954 50.8516 107.954C50.7363 107.954 50.6348 107.967 50.5469 107.992C50.4609 108.017 50.3896 108.052 50.333 108.094C50.2744 108.137 50.2305 108.187 50.2012 108.244C50.1719 108.301 50.1572 108.359 50.1572 108.42C50.1572 108.482 50.1689 108.538 50.1924 108.587C50.2158 108.635 50.2568 108.679 50.3154 108.719C50.3721 108.758 50.4482 108.793 50.5439 108.824C50.6416 108.855 50.7646 108.885 50.9131 108.915C51.1084 108.956 51.2832 109.004 51.4375 109.058C51.5918 109.111 51.7217 109.175 51.8271 109.249C51.9326 109.325 52.0127 109.413 52.0674 109.512C52.124 109.612 52.1523 109.727 52.1523 109.858C52.1523 109.999 52.1201 110.127 52.0557 110.242C51.9932 110.357 51.9053 110.456 51.792 110.538C51.6787 110.62 51.543 110.683 51.3848 110.728C51.2266 110.773 51.0537 110.796 50.8662 110.796C50.6514 110.796 50.46 110.767 50.292 110.711C50.124 110.652 49.9824 110.575 49.8672 110.479C49.75 110.385 49.6602 110.276 49.5977 110.151C49.5371 110.026 49.5068 109.896 49.5068 109.761H50.0488C50.0566 109.873 50.0859 109.967 50.1367 110.043C50.1895 110.119 50.2549 110.18 50.333 110.227C50.4092 110.274 50.4941 110.307 50.5879 110.327C50.6816 110.346 50.7744 110.356 50.8662 110.356C51.0107 110.356 51.1367 110.34 51.2441 110.306C51.3516 110.271 51.4355 110.223 51.4961 110.163C51.5332 110.126 51.5615 110.085 51.5811 110.04C51.6006 109.995 51.6104 109.947 51.6104 109.896ZM54.3906 106.8V107.567H55.5977V107.986H54.3906V109.709C54.3906 109.832 54.4062 109.933 54.4375 110.013C54.4688 110.094 54.5117 110.157 54.5664 110.204C54.6211 110.253 54.6836 110.287 54.7539 110.306C54.8262 110.326 54.9023 110.336 54.9824 110.336C55.041 110.336 55.1016 110.333 55.1641 110.327C55.2266 110.319 55.2881 110.31 55.3486 110.301C55.4072 110.291 55.4619 110.281 55.5127 110.271C55.5654 110.26 55.6084 110.25 55.6416 110.242L55.7178 110.626C55.6729 110.653 55.6182 110.677 55.5537 110.699C55.4893 110.719 55.4189 110.735 55.3428 110.749C55.2666 110.764 55.1855 110.776 55.0996 110.784C55.0156 110.792 54.9316 110.796 54.8477 110.796C54.707 110.796 54.5752 110.776 54.4521 110.737C54.3311 110.696 54.2256 110.632 54.1357 110.544C54.0459 110.458 53.9746 110.346 53.9219 110.21C53.8711 110.071 53.8457 109.904 53.8457 109.709V107.986H53.0137V107.567H53.8457V106.8H54.3906ZM31.5713 113.567H33.1914V116.268H34.2256V116.737H31.5713V116.268H32.6494V114.039H31.5713V113.567ZM32.5791 112.735C32.5791 112.688 32.5859 112.644 32.5996 112.603C32.6152 112.562 32.6387 112.527 32.6699 112.498C32.6953 112.472 32.7275 112.453 32.7666 112.439C32.8076 112.424 32.8535 112.416 32.9043 112.416C32.9551 112.416 33 112.424 33.0391 112.439C33.0781 112.453 33.1104 112.472 33.1357 112.498C33.167 112.525 33.1904 112.559 33.2061 112.6C33.2217 112.641 33.2295 112.686 33.2295 112.735C33.2295 112.823 33.2021 112.896 33.1475 112.955C33.0928 113.013 33.0117 113.043 32.9043 113.043C32.7949 113.043 32.7129 113.013 32.6582 112.955C32.6055 112.896 32.5791 112.823 32.5791 112.735ZM35.0898 116.737V113.567H35.5762L35.6143 114.036C35.6611 113.969 35.7119 113.909 35.7666 113.854C35.8232 113.798 35.8828 113.749 35.9453 113.708C36.0391 113.645 36.1406 113.597 36.25 113.564C36.3613 113.529 36.4785 113.51 36.6016 113.509C36.7676 113.509 36.918 113.532 37.0527 113.579C37.1895 113.626 37.3057 113.699 37.4014 113.799C37.4971 113.898 37.5703 114.025 37.6211 114.179C37.6738 114.332 37.7002 114.513 37.7002 114.724V116.737H37.1582V114.736C37.1582 114.595 37.1426 114.476 37.1113 114.379C37.0801 114.281 37.0342 114.202 36.9736 114.141C36.9111 114.081 36.835 114.037 36.7451 114.01C36.6572 113.982 36.5557 113.969 36.4404 113.969C36.3408 113.969 36.248 113.983 36.1621 114.012C36.0762 114.04 35.9971 114.078 35.9248 114.127C35.8662 114.17 35.8115 114.219 35.7607 114.276C35.7119 114.333 35.6689 114.395 35.6318 114.464V116.737H35.0898ZM39.502 116.737V113.986H38.6289V113.567H39.502V113.344C39.502 113.141 39.5312 112.964 39.5898 112.811C39.6504 112.657 39.7354 112.528 39.8447 112.425C39.9521 112.321 40.082 112.243 40.2344 112.19C40.3867 112.137 40.5566 112.111 40.7441 112.111C40.8223 112.111 40.8994 112.116 40.9756 112.126C41.0518 112.134 41.127 112.144 41.2012 112.158C41.25 112.168 41.2988 112.178 41.3477 112.19C41.3965 112.2 41.4463 112.212 41.4971 112.225L41.4326 112.674C41.3525 112.646 41.2588 112.623 41.1514 112.603C41.0459 112.582 40.9326 112.571 40.8115 112.571C40.6885 112.571 40.5791 112.587 40.4834 112.618C40.3896 112.647 40.3115 112.692 40.249 112.753C40.1826 112.815 40.1318 112.896 40.0967 112.996C40.0635 113.095 40.0469 113.212 40.0469 113.344V113.567H41.2686V113.986H40.0469V116.737H39.502ZM43.6973 116.796C43.4746 116.796 43.2695 116.758 43.082 116.681C42.8965 116.605 42.7373 116.499 42.6045 116.362C42.4717 116.225 42.3682 116.063 42.2939 115.876C42.2197 115.688 42.1826 115.484 42.1826 115.263V115.14C42.1826 114.885 42.2236 114.656 42.3057 114.455C42.3877 114.252 42.4971 114.08 42.6338 113.939C42.7686 113.801 42.9219 113.694 43.0938 113.62C43.2676 113.546 43.4453 113.509 43.627 113.509C43.8555 113.509 44.0547 113.549 44.2246 113.629C44.3965 113.707 44.5391 113.815 44.6523 113.954C44.7656 114.094 44.8496 114.26 44.9043 114.449C44.9609 114.638 44.9893 114.844 44.9893 115.064V115.307H42.7246V115.328C42.7383 115.482 42.7686 115.618 42.8154 115.735C42.8643 115.852 42.9307 115.956 43.0146 116.046C43.1006 116.141 43.2041 116.217 43.3252 116.271C43.4463 116.326 43.5801 116.353 43.7266 116.353C43.9199 116.353 44.0918 116.314 44.2422 116.236C44.3926 116.158 44.5176 116.054 44.6172 115.926L44.9482 116.183C44.8428 116.344 44.6846 116.486 44.4736 116.611C44.2646 116.734 44.0059 116.796 43.6973 116.796ZM43.627 113.954C43.5176 113.954 43.4141 113.974 43.3164 114.015C43.2188 114.054 43.1309 114.112 43.0527 114.188C42.9746 114.266 42.9082 114.362 42.8535 114.475C42.8008 114.587 42.7637 114.716 42.7422 114.862H44.4473V114.836C44.4473 114.738 44.4287 114.634 44.3916 114.522C44.3545 114.409 44.3027 114.311 44.2363 114.229C44.1699 114.147 44.0859 114.081 43.9844 114.03C43.8848 113.979 43.7656 113.954 43.627 113.954ZM47.9775 113.509C48.0771 113.509 48.1807 113.515 48.2881 113.529C48.3975 113.543 48.4795 113.561 48.5342 113.585L48.4609 114.115C48.3555 114.092 48.2549 114.075 48.1592 114.065C48.0654 114.053 47.9668 114.048 47.8633 114.048C47.7305 114.048 47.6104 114.064 47.5029 114.097C47.3955 114.129 47.3018 114.176 47.2217 114.238C47.1494 114.293 47.0859 114.36 47.0312 114.44C46.9785 114.518 46.9346 114.606 46.8994 114.704V116.737H46.3545V113.567H46.8701L46.8936 113.992L46.8965 114.071C47.0254 113.897 47.1797 113.76 47.3594 113.661C47.541 113.559 47.7471 113.509 47.9775 113.509ZM50.9043 116.796C50.6816 116.796 50.4766 116.758 50.2891 116.681C50.1035 116.605 49.9443 116.499 49.8115 116.362C49.6787 116.225 49.5752 116.063 49.501 115.876C49.4268 115.688 49.3896 115.484 49.3896 115.263V115.14C49.3896 114.885 49.4307 114.656 49.5127 114.455C49.5947 114.252 49.7041 114.08 49.8408 113.939C49.9756 113.801 50.1289 113.694 50.3008 113.62C50.4746 113.546 50.6523 113.509 50.834 113.509C51.0625 113.509 51.2617 113.549 51.4316 113.629C51.6035 113.707 51.7461 113.815 51.8594 113.954C51.9727 114.094 52.0566 114.26 52.1113 114.449C52.168 114.638 52.1963 114.844 52.1963 115.064V115.307H49.9316V115.328C49.9453 115.482 49.9756 115.618 50.0225 115.735C50.0713 115.852 50.1377 115.956 50.2217 116.046C50.3076 116.141 50.4111 116.217 50.5322 116.271C50.6533 116.326 50.7871 116.353 50.9336 116.353C51.127 116.353 51.2988 116.314 51.4492 116.236C51.5996 116.158 51.7246 116.054 51.8242 115.926L52.1553 116.183C52.0498 116.344 51.8916 116.486 51.6807 116.611C51.4717 116.734 51.2129 116.796 50.9043 116.796ZM50.834 113.954C50.7246 113.954 50.6211 113.974 50.5234 114.015C50.4258 114.054 50.3379 114.112 50.2598 114.188C50.1816 114.266 50.1152 114.362 50.0605 114.475C50.0078 114.587 49.9707 114.716 49.9492 114.862H51.6543V114.836C51.6543 114.738 51.6357 114.634 51.5986 114.522C51.5615 114.409 51.5098 114.311 51.4434 114.229C51.377 114.147 51.293 114.081 51.1914 114.03C51.0918 113.979 50.9727 113.954 50.834 113.954ZM53.1074 116.737V113.567H53.5938L53.6318 114.036C53.6787 113.969 53.7295 113.909 53.7842 113.854C53.8408 113.798 53.9004 113.749 53.9629 113.708C54.0566 113.645 54.1582 113.597 54.2676 113.564C54.3789 113.529 54.4961 113.51 54.6191 113.509C54.7852 113.509 54.9355 113.532 55.0703 113.579C55.207 113.626 55.3232 113.699 55.4189 113.799C55.5146 113.898 55.5879 114.025 55.6387 114.179C55.6914 114.332 55.7178 114.513 55.7178 114.724V116.737H55.1758V114.736C55.1758 114.595 55.1602 114.476 55.1289 114.379C55.0977 114.281 55.0518 114.202 54.9912 114.141C54.9287 114.081 54.8525 114.037 54.7627 114.01C54.6748 113.982 54.5732 113.969 54.458 113.969C54.3584 113.969 54.2656 113.983 54.1797 114.012C54.0938 114.04 54.0146 114.078 53.9424 114.127C53.8838 114.17 53.8291 114.219 53.7783 114.276C53.7295 114.333 53.6865 114.395 53.6494 114.464V116.737H53.1074ZM58.0615 116.356C58.1592 116.356 58.2539 116.341 58.3457 116.309C58.4395 116.278 58.5225 116.234 58.5947 116.177C58.667 116.123 58.7246 116.058 58.7676 115.984C58.8125 115.908 58.8359 115.826 58.8379 115.738H59.3506C59.3486 115.879 59.3115 116.013 59.2393 116.142C59.1689 116.269 59.0742 116.381 58.9551 116.476C58.8359 116.574 58.6992 116.652 58.5449 116.711C58.3906 116.767 58.2295 116.796 58.0615 116.796C57.8213 116.796 57.6113 116.753 57.4316 116.667C57.252 116.581 57.1025 116.465 56.9834 116.318C56.8623 116.174 56.7715 116.007 56.7109 115.817C56.6504 115.626 56.6201 115.425 56.6201 115.214V115.091C56.6201 114.882 56.6504 114.681 56.7109 114.49C56.7715 114.299 56.8623 114.13 56.9834 113.983C57.1025 113.839 57.252 113.723 57.4316 113.637C57.6113 113.552 57.8213 113.509 58.0615 113.509C58.249 113.509 58.4209 113.539 58.5771 113.599C58.7354 113.658 58.8721 113.738 58.9873 113.84C59.1006 113.943 59.1895 114.065 59.2539 114.206C59.3184 114.346 59.3506 114.497 59.3506 114.657H58.8379C58.8359 114.561 58.8145 114.471 58.7734 114.387C58.7344 114.302 58.6807 114.226 58.6123 114.162C58.5439 114.097 58.4619 114.047 58.3662 114.01C58.2725 113.972 58.1709 113.954 58.0615 113.954C57.8936 113.954 57.752 113.988 57.6367 114.056C57.5234 114.123 57.4316 114.21 57.3613 114.317C57.291 114.427 57.2402 114.549 57.209 114.683C57.1797 114.818 57.165 114.954 57.165 115.091V115.214C57.165 115.352 57.1797 115.49 57.209 115.627C57.2402 115.761 57.291 115.883 57.3613 115.99C57.4297 116.099 57.5205 116.188 57.6338 116.257C57.749 116.323 57.8916 116.356 58.0615 116.356ZM61.7148 116.796C61.4922 116.796 61.2871 116.758 61.0996 116.681C60.9141 116.605 60.7549 116.499 60.6221 116.362C60.4893 116.225 60.3857 116.063 60.3115 115.876C60.2373 115.688 60.2002 115.484 60.2002 115.263V115.14C60.2002 114.885 60.2412 114.656 60.3232 114.455C60.4053 114.252 60.5146 114.08 60.6514 113.939C60.7861 113.801 60.9395 113.694 61.1113 113.62C61.2852 113.546 61.4629 113.509 61.6445 113.509C61.873 113.509 62.0723 113.549 62.2422 113.629C62.4141 113.707 62.5566 113.815 62.6699 113.954C62.7832 114.094 62.8672 114.26 62.9219 114.449C62.9785 114.638 63.0068 114.844 63.0068 115.064V115.307H60.7422V115.328C60.7559 115.482 60.7861 115.618 60.833 115.735C60.8818 115.852 60.9482 115.956 61.0322 116.046C61.1182 116.141 61.2217 116.217 61.3428 116.271C61.4639 116.326 61.5977 116.353 61.7441 116.353C61.9375 116.353 62.1094 116.314 62.2598 116.236C62.4102 116.158 62.5352 116.054 62.6348 115.926L62.9658 116.183C62.8604 116.344 62.7021 116.486 62.4912 116.611C62.2822 116.734 62.0234 116.796 61.7148 116.796ZM61.6445 113.954C61.5352 113.954 61.4316 113.974 61.334 114.015C61.2363 114.054 61.1484 114.112 61.0703 114.188C60.9922 114.266 60.9258 114.362 60.8711 114.475C60.8184 114.587 60.7812 114.716 60.7598 114.862H62.4648V114.836C62.4648 114.738 62.4463 114.634 62.4092 114.522C62.3721 114.409 62.3203 114.311 62.2539 114.229C62.1875 114.147 62.1035 114.081 62.002 114.03C61.9023 113.979 61.7832 113.954 61.6445 113.954ZM35.0459 122.737H34.5039V119.163L33.3877 119.588V119.093L35.002 118.471H35.0459V122.737ZM38.2656 122.611C38.2656 122.806 38.2197 123.006 38.1279 123.209C38.0361 123.412 37.9121 123.583 37.7559 123.721L37.4189 123.537C37.5127 123.4 37.5791 123.255 37.6182 123.1C37.6572 122.946 37.6768 122.786 37.6768 122.62V122.095H38.2656V122.611ZM43.1729 121.105C43.1729 121.377 43.1416 121.618 43.0791 121.829C43.0166 122.038 42.9268 122.214 42.8096 122.356C42.6924 122.501 42.5488 122.61 42.3789 122.684C42.209 122.759 42.0146 122.796 41.7959 122.796C41.5791 122.796 41.3848 122.76 41.2129 122.687C41.041 122.613 40.8955 122.503 40.7764 122.356C40.6572 122.214 40.5664 122.038 40.5039 121.829C40.4414 121.618 40.4102 121.377 40.4102 121.105V120.106C40.4102 119.835 40.4414 119.594 40.5039 119.385C40.5664 119.175 40.6572 118.997 40.7764 118.852C40.8936 118.708 41.0371 118.598 41.207 118.524C41.3789 118.448 41.5732 118.41 41.79 118.41C42.0088 118.41 42.2031 118.448 42.373 118.524C42.5449 118.598 42.6904 118.708 42.8096 118.852C42.9268 118.997 43.0166 119.175 43.0791 119.385C43.1416 119.594 43.1729 119.835 43.1729 120.106V121.105ZM40.9551 120.997L42.6162 119.722C42.6006 119.582 42.5723 119.458 42.5312 119.35C42.4922 119.241 42.4385 119.15 42.3701 119.078C42.3037 119.004 42.2217 118.948 42.124 118.911C42.0283 118.874 41.917 118.855 41.79 118.855C41.6611 118.855 41.5469 118.876 41.4473 118.917C41.3496 118.956 41.2666 119.013 41.1982 119.09C41.1162 119.185 41.0547 119.309 41.0137 119.462C40.9746 119.612 40.9551 119.787 40.9551 119.986V120.701C40.9551 120.75 40.9551 120.799 40.9551 120.847C40.9551 120.896 40.9551 120.946 40.9551 120.997ZM42.6279 121.219V120.616C42.6279 120.587 42.6279 120.531 42.6279 120.449C42.6279 120.365 42.6279 120.296 42.6279 120.241L40.9697 121.51C40.9873 121.652 41.0186 121.778 41.0635 121.887C41.1084 121.995 41.167 122.084 41.2393 122.154C41.3057 122.22 41.3857 122.271 41.4795 122.306C41.5732 122.34 41.6787 122.356 41.7959 122.356C41.9189 122.356 42.0283 122.338 42.124 122.301C42.2197 122.263 42.3008 122.21 42.3672 122.139C42.457 122.044 42.5225 121.919 42.5635 121.764C42.6064 121.61 42.6279 121.428 42.6279 121.219ZM46.7764 121.105C46.7764 121.377 46.7451 121.618 46.6826 121.829C46.6201 122.038 46.5303 122.214 46.4131 122.356C46.2959 122.501 46.1523 122.61 45.9824 122.684C45.8125 122.759 45.6182 122.796 45.3994 122.796C45.1826 122.796 44.9883 122.76 44.8164 122.687C44.6445 122.613 44.499 122.503 44.3799 122.356C44.2607 122.214 44.1699 122.038 44.1074 121.829C44.0449 121.618 44.0137 121.377 44.0137 121.105V120.106C44.0137 119.835 44.0449 119.594 44.1074 119.385C44.1699 119.175 44.2607 118.997 44.3799 118.852C44.4971 118.708 44.6406 118.598 44.8105 118.524C44.9824 118.448 45.1768 118.41 45.3936 118.41C45.6123 118.41 45.8066 118.448 45.9766 118.524C46.1484 118.598 46.2939 118.708 46.4131 118.852C46.5303 118.997 46.6201 119.175 46.6826 119.385C46.7451 119.594 46.7764 119.835 46.7764 120.106V121.105ZM44.5586 120.997L46.2197 119.722C46.2041 119.582 46.1758 119.458 46.1348 119.35C46.0957 119.241 46.042 119.15 45.9736 119.078C45.9072 119.004 45.8252 118.948 45.7275 118.911C45.6318 118.874 45.5205 118.855 45.3936 118.855C45.2646 118.855 45.1504 118.876 45.0508 118.917C44.9531 118.956 44.8701 119.013 44.8018 119.09C44.7197 119.185 44.6582 119.309 44.6172 119.462C44.5781 119.612 44.5586 119.787 44.5586 119.986V120.701C44.5586 120.75 44.5586 120.799 44.5586 120.847C44.5586 120.896 44.5586 120.946 44.5586 120.997ZM46.2314 121.219V120.616C46.2314 120.587 46.2314 120.531 46.2314 120.449C46.2314 120.365 46.2314 120.296 46.2314 120.241L44.5732 121.51C44.5908 121.652 44.6221 121.778 44.667 121.887C44.7119 121.995 44.7705 122.084 44.8428 122.154C44.9092 122.22 44.9893 122.271 45.083 122.306C45.1768 122.34 45.2822 122.356 45.3994 122.356C45.5225 122.356 45.6318 122.338 45.7275 122.301C45.8232 122.263 45.9043 122.21 45.9707 122.139C46.0605 122.044 46.126 121.919 46.167 121.764C46.21 121.61 46.2314 121.428 46.2314 121.219ZM50.3799 121.105C50.3799 121.377 50.3486 121.618 50.2861 121.829C50.2236 122.038 50.1338 122.214 50.0166 122.356C49.8994 122.501 49.7559 122.61 49.5859 122.684C49.416 122.759 49.2217 122.796 49.0029 122.796C48.7861 122.796 48.5918 122.76 48.4199 122.687C48.248 122.613 48.1025 122.503 47.9834 122.356C47.8643 122.214 47.7734 122.038 47.7109 121.829C47.6484 121.618 47.6172 121.377 47.6172 121.105V120.106C47.6172 119.835 47.6484 119.594 47.7109 119.385C47.7734 119.175 47.8643 118.997 47.9834 118.852C48.1006 118.708 48.2441 118.598 48.4141 118.524C48.5859 118.448 48.7803 118.41 48.9971 118.41C49.2158 118.41 49.4102 118.448 49.5801 118.524C49.752 118.598 49.8975 118.708 50.0166 118.852C50.1338 118.997 50.2236 119.175 50.2861 119.385C50.3486 119.594 50.3799 119.835 50.3799 120.106V121.105ZM48.1621 120.997L49.8232 119.722C49.8076 119.582 49.7793 119.458 49.7383 119.35C49.6992 119.241 49.6455 119.15 49.5771 119.078C49.5107 119.004 49.4287 118.948 49.3311 118.911C49.2354 118.874 49.124 118.855 48.9971 118.855C48.8682 118.855 48.7539 118.876 48.6543 118.917C48.5566 118.956 48.4736 119.013 48.4053 119.09C48.3232 119.185 48.2617 119.309 48.2207 119.462C48.1816 119.612 48.1621 119.787 48.1621 119.986V120.701C48.1621 120.75 48.1621 120.799 48.1621 120.847C48.1621 120.896 48.1621 120.946 48.1621 120.997ZM49.835 121.219V120.616C49.835 120.587 49.835 120.531 49.835 120.449C49.835 120.365 49.835 120.296 49.835 120.241L48.1768 121.51C48.1943 121.652 48.2256 121.778 48.2705 121.887C48.3154 121.995 48.374 122.084 48.4463 122.154C48.5127 122.22 48.5928 122.271 48.6865 122.306C48.7803 122.34 48.8857 122.356 49.0029 122.356C49.126 122.356 49.2354 122.338 49.3311 122.301C49.4268 122.263 49.5078 122.21 49.5742 122.139C49.6641 122.044 49.7295 121.919 49.7705 121.764C49.8135 121.61 49.835 121.428 49.835 121.219ZM55.1582 119.567L55.1729 119.866C55.2373 119.755 55.3213 119.668 55.4248 119.605C55.5303 119.543 55.6572 119.51 55.8057 119.509C55.8896 119.509 55.9648 119.518 56.0312 119.538C56.0996 119.555 56.1592 119.582 56.21 119.617C56.2471 119.644 56.2803 119.677 56.3096 119.717C56.3408 119.756 56.3672 119.8 56.3887 119.848C56.416 119.803 56.4482 119.761 56.4854 119.722C56.5225 119.683 56.5625 119.649 56.6055 119.62C56.6602 119.587 56.7207 119.56 56.7871 119.541C56.8555 119.521 56.9297 119.51 57.0098 119.509C57.1191 119.509 57.2178 119.525 57.3057 119.558C57.3936 119.59 57.4678 119.636 57.5283 119.699C57.5947 119.769 57.6455 119.861 57.6807 119.974C57.7158 120.086 57.7334 120.218 57.7334 120.37V122.737H57.2178V120.364C57.2178 120.298 57.21 120.239 57.1943 120.188C57.1787 120.137 57.1562 120.095 57.127 120.062C57.0957 120.031 57.0566 120.008 57.0098 119.992C56.9648 119.976 56.9121 119.969 56.8516 119.969C56.7871 119.969 56.7314 119.977 56.6846 119.995C56.6377 120.012 56.5986 120.036 56.5674 120.065C56.5361 120.096 56.5117 120.133 56.4941 120.174C56.4766 120.213 56.4648 120.257 56.459 120.305C56.459 120.315 56.459 120.325 56.459 120.335C56.459 120.343 56.459 120.352 56.459 120.364V122.737H55.9434V120.361C55.9434 120.295 55.9355 120.236 55.9199 120.185C55.9062 120.135 55.8838 120.093 55.8525 120.059C55.8232 120.028 55.7861 120.006 55.7412 119.992C55.6982 119.976 55.6475 119.969 55.5889 119.969C55.5244 119.969 55.4678 119.976 55.4189 119.992C55.3721 120.006 55.332 120.026 55.2988 120.053C55.2734 120.075 55.251 120.099 55.2314 120.127C55.2139 120.154 55.1992 120.183 55.1875 120.215V122.737H54.6719V119.567H55.1582ZM60.6191 121.896C60.6191 121.832 60.6064 121.774 60.5811 121.723C60.5557 121.671 60.5127 121.623 60.4521 121.58C60.3916 121.537 60.3115 121.498 60.2119 121.463C60.1123 121.426 59.9883 121.392 59.8398 121.363C59.6582 121.326 59.4922 121.281 59.3418 121.228C59.1934 121.176 59.0664 121.112 58.9609 121.038C58.8535 120.966 58.7705 120.881 58.7119 120.783C58.6533 120.683 58.624 120.568 58.624 120.437C58.624 120.308 58.6543 120.188 58.7148 120.077C58.7754 119.964 58.8604 119.865 58.9697 119.781C59.0791 119.697 59.209 119.631 59.3594 119.582C59.5117 119.533 59.6787 119.509 59.8604 119.509C60.0557 119.509 60.2314 119.534 60.3877 119.585C60.5439 119.635 60.6768 119.706 60.7861 119.796C60.8955 119.885 60.9795 119.991 61.0381 120.112C61.0986 120.231 61.1289 120.36 61.1289 120.499H60.5869C60.5869 120.43 60.5693 120.364 60.5342 120.3C60.499 120.233 60.4502 120.175 60.3877 120.124C60.3252 120.073 60.249 120.032 60.1592 120.001C60.0713 119.969 59.9717 119.954 59.8604 119.954C59.7451 119.954 59.6436 119.967 59.5557 119.992C59.4697 120.017 59.3984 120.052 59.3418 120.094C59.2832 120.137 59.2393 120.187 59.21 120.244C59.1807 120.301 59.166 120.359 59.166 120.42C59.166 120.482 59.1777 120.538 59.2012 120.587C59.2246 120.635 59.2656 120.679 59.3242 120.719C59.3809 120.758 59.457 120.793 59.5527 120.824C59.6504 120.855 59.7734 120.885 59.9219 120.915C60.1172 120.956 60.292 121.004 60.4463 121.058C60.6006 121.111 60.7305 121.175 60.8359 121.249C60.9414 121.325 61.0215 121.413 61.0762 121.512C61.1328 121.612 61.1611 121.727 61.1611 121.858C61.1611 121.999 61.1289 122.127 61.0645 122.242C61.002 122.357 60.9141 122.456 60.8008 122.538C60.6875 122.62 60.5518 122.683 60.3936 122.728C60.2354 122.773 60.0625 122.796 59.875 122.796C59.6602 122.796 59.4688 122.767 59.3008 122.711C59.1328 122.652 58.9912 122.575 58.876 122.479C58.7588 122.385 58.6689 122.276 58.6064 122.151C58.5459 122.026 58.5156 121.896 58.5156 121.761H59.0576C59.0654 121.873 59.0947 121.967 59.1455 122.043C59.1982 122.119 59.2637 122.18 59.3418 122.227C59.418 122.274 59.5029 122.307 59.5967 122.327C59.6904 122.346 59.7832 122.356 59.875 122.356C60.0195 122.356 60.1455 122.34 60.2529 122.306C60.3604 122.271 60.4443 122.223 60.5049 122.163C60.542 122.126 60.5703 122.085 60.5898 122.04C60.6094 121.995 60.6191 121.947 60.6191 121.896Z"
        fill="#7F7F82" />
    <rect x="50.8994" y="47.4426" width="33.9587" height="33.9588" rx="1.5" fill="#303136" />
    <path
        d="M40.9082 58.3984H46.9082M40.9082 70.3984H46.9082M61.9082 37.3984V43.3984M73.9082 37.3984V43.3984M94.9082 58.3984H88.9082M94.9082 70.3984H88.9082M73.9082 91.3984V85.3984M61.9082 91.3984V85.3984M46.9082 46.3984C46.9082 45.6027 47.2243 44.8397 47.7869 44.277C48.3495 43.7144 49.1126 43.3984 49.9082 43.3984H85.9082C86.7039 43.3984 87.4669 43.7144 88.0295 44.277C88.5921 44.8397 88.9082 45.6027 88.9082 46.3984V82.3984C88.9082 83.194 88.5921 83.9571 88.0295 84.5197C87.4669 85.0823 86.7039 85.3984 85.9082 85.3984H49.9082C49.1126 85.3984 48.3495 85.0823 47.7869 84.5197C47.2243 83.9571 46.9082 83.194 46.9082 82.3984V46.3984Z"
        stroke="#303136" stroke-width="3" stroke-linecap="round" stroke-linejoin="round" />
    <path
        d="M56.6096 68.7528V59.3028H58.0406V67.4703H62.6981V68.7528H56.6096ZM64.7043 68.7528V59.3028H66.1353V67.4703H70.7928V68.7528H64.7043ZM72.2861 68.7528V59.3028H73.7981L75.7556 63.5688L77.7131 59.3028H79.2251V68.7528H77.8616V62.0298L76.3226 65.4048H75.1886L73.6496 62.0433V68.7528H72.2861Z"
        fill="white" />
    <path d="M109.571 70.5525L109.571 177" stroke="#303136" stroke-width="2" stroke-linecap="round"
        stroke-linejoin="round" />
    <path d="M105 172.429L109.571 177L114.143 172.429" stroke="#303136" stroke-width="2" stroke-linecap="round"
        stroke-linejoin="round" />
    <path d="M109.569 70.5525L100 70.5525" stroke="#303136" stroke-width="2" stroke-linecap="round"
        stroke-linejoin="round" />
    <rect x="14" y="140" width="20" height="20" rx="2" fill="#E9EAEC" />
    <path
        d="M21.5859 155.5H19.5391L22.5625 147.359L22.2344 146.523C22.1667 146.346 22.0859 146.169 21.9922 145.992C21.8984 145.815 21.7917 145.659 21.6719 145.523C21.5521 145.383 21.4167 145.271 21.2656 145.188C21.1198 145.099 20.9583 145.055 20.7812 145.055C20.7031 145.055 20.6094 145.06 20.5 145.07C20.3958 145.081 20.2995 145.089 20.2109 145.094L20.1875 143.695C20.2552 143.68 20.3307 143.664 20.4141 143.648C20.5026 143.628 20.5938 143.609 20.6875 143.594C20.7812 143.578 20.875 143.568 20.9688 143.562C21.0677 143.552 21.1589 143.547 21.2422 143.547C21.6224 143.547 21.9557 143.62 22.2422 143.766C22.5339 143.906 22.7839 144.083 22.9922 144.297C23.2005 144.51 23.3724 144.742 23.5078 144.992C23.6484 145.242 23.7604 145.471 23.8438 145.68L26.6016 152.82C26.6536 152.987 26.7161 153.148 26.7891 153.305C26.8672 153.456 26.9531 153.591 27.0469 153.711C27.1406 153.826 27.2422 153.919 27.3516 153.992C27.4609 154.06 27.5781 154.094 27.7031 154.094C27.7448 154.094 27.7786 154.094 27.8047 154.094C27.8307 154.094 27.8542 154.094 27.875 154.094C27.8958 154.089 27.9193 154.083 27.9453 154.078C27.9714 154.073 28.0078 154.068 28.0547 154.062L28.0234 155.539C27.9453 155.57 27.8516 155.594 27.7422 155.609C27.6328 155.63 27.5391 155.641 27.4609 155.641C27.1068 155.641 26.7917 155.589 26.5156 155.484C26.2448 155.375 26.0026 155.224 25.7891 155.031C25.5807 154.839 25.3984 154.607 25.2422 154.336C25.0859 154.065 24.9479 153.768 24.8281 153.445L23.4219 149.633L23.1797 150.688L21.5859 155.5Z"
        fill="#303136" />
    <rect x="64.5952" y="140" width="20" height="20" rx="2" fill="#E9EAEC" />
    <circle cx="74.5952" cy="150" r="4.79102" stroke="#303136" stroke-width="2" stroke-linecap="round"
        stroke-linejoin="round" />
    <path d="M32.5 71.5714L23 71.5714L23 76.504M32.5 71.5714L27.9286 76.1429M32.5 71.5714L27.9286 67" stroke="#A5A8AB"
        stroke-width="2" stroke-linecap="round" stroke-linejoin="round" />
    <path d="M23 72.0833L23 134" stroke="#A5A8AB" stroke-width="2" stroke-linecap="round" stroke-linejoin="round" />
    <path d="M67.9795 7V30" stroke="#303136" stroke-width="2" stroke-linecap="round" stroke-linejoin="round" />
    <path d="M72.5511 25.4286L67.9796 30L63.4082 25.4286" stroke="#303136" stroke-width="2" stroke-linecap="round"
        stroke-linejoin="round" />
    <path d="M57 150.071L41.881 150.071" stroke="#A5A8AB" stroke-width="2" stroke-linecap="round"
        stroke-linejoin="round" />
    <path d="M46.0059 154.643L41.8807 150.071L46.0059 145.5" stroke="#A5A8AB" stroke-width="2" stroke-linecap="round"
        stroke-linejoin="round" />
    <path
        d="M14.1162 131.236L14.1162 133.012L16 133.012L16 133.56L11.7344 133.56L11.7344 130.94L12.1973 130.94L12.1973 133.012L13.6562 133.012L13.6562 131.236L14.1162 131.236ZM16 127.917L15.5635 127.949C15.7197 128.055 15.8418 128.187 15.9297 128.345C16.0156 128.503 16.0586 128.686 16.0586 128.893C16.0586 129.059 16.0332 129.209 15.9824 129.344C15.9297 129.479 15.8486 129.594 15.7393 129.689C15.6299 129.785 15.4912 129.859 15.3232 129.912C15.1533 129.963 14.9502 129.988 14.7139 129.988L12.8301 129.988L12.8301 129.446L14.7197 129.446C14.8916 129.446 15.0342 129.433 15.1475 129.405C15.2607 129.378 15.3506 129.337 15.417 129.282C15.4854 129.228 15.5332 129.161 15.5605 129.083C15.5879 129.003 15.6016 128.911 15.6016 128.808C15.6016 128.687 15.5879 128.578 15.5605 128.482C15.5312 128.387 15.4912 128.304 15.4404 128.233C15.3994 128.175 15.3506 128.124 15.2939 128.081C15.2354 128.036 15.1719 127.999 15.1035 127.97L12.8301 127.97L12.8301 127.425L16 127.425L16 127.917ZM16 126.402L12.8301 126.402L12.8301 125.916L13.2988 125.878C13.2324 125.831 13.1719 125.78 13.1172 125.726C13.0605 125.669 13.0117 125.609 12.9707 125.547C12.9082 125.453 12.8604 125.352 12.8271 125.242C12.792 125.131 12.7734 125.014 12.7715 124.891C12.7715 124.725 12.7949 124.574 12.8418 124.439C12.8887 124.303 12.9619 124.187 13.0615 124.091C13.1611 123.995 13.2881 123.922 13.4424 123.871C13.5947 123.818 13.7764 123.792 13.9873 123.792L16 123.792L16 124.334L13.999 124.334C13.8584 124.334 13.7393 124.35 13.6416 124.381C13.5439 124.412 13.4648 124.458 13.4043 124.519C13.3437 124.581 13.2998 124.657 13.2725 124.747C13.2451 124.835 13.2314 124.937 13.2314 125.052C13.2314 125.151 13.2461 125.244 13.2754 125.33C13.3027 125.416 13.3408 125.495 13.3896 125.567C13.4326 125.626 13.4824 125.681 13.5391 125.731C13.5957 125.78 13.6582 125.823 13.7266 125.86L16 125.86L16 126.402ZM15.6191 121.448C15.6191 121.351 15.6035 121.256 15.5723 121.164C15.541 121.07 15.4971 120.987 15.4404 120.915C15.3857 120.843 15.3213 120.785 15.2471 120.742C15.1709 120.697 15.0889 120.674 15.001 120.672L15.001 120.159C15.1416 120.161 15.2764 120.198 15.4053 120.271C15.5322 120.341 15.6436 120.436 15.7393 120.555C15.8369 120.674 15.915 120.811 15.9736 120.965C16.0303 121.119 16.0586 121.28 16.0586 121.448C16.0586 121.688 16.0156 121.898 15.9297 122.078C15.8437 122.258 15.7275 122.407 15.5811 122.526C15.4365 122.647 15.2695 122.738 15.0801 122.799C14.8887 122.859 14.6875 122.89 14.4766 122.89L14.3535 122.89C14.1445 122.89 13.9443 122.859 13.7529 122.799C13.5615 122.738 13.3926 122.647 13.2461 122.526C13.1016 122.407 12.9863 122.258 12.9004 122.078C12.8145 121.898 12.7715 121.688 12.7715 121.448C12.7715 121.261 12.8018 121.089 12.8623 120.933C12.9209 120.774 13.001 120.638 13.1025 120.522C13.2061 120.409 13.3281 120.32 13.4687 120.256C13.6094 120.191 13.7598 120.159 13.9199 120.159L13.9199 120.672C13.8242 120.674 13.7344 120.695 13.6504 120.736C13.5645 120.775 13.4893 120.829 13.4248 120.897C13.3604 120.966 13.3096 121.048 13.2725 121.144C13.2354 121.237 13.2168 121.339 13.2168 121.448C13.2168 121.616 13.251 121.758 13.3193 121.873C13.3857 121.986 13.4727 122.078 13.5801 122.148C13.6895 122.219 13.8115 122.27 13.9463 122.301C14.0811 122.33 14.2168 122.345 14.3535 122.345L14.4766 122.345C14.6152 122.345 14.7529 122.33 14.8896 122.301C15.0244 122.27 15.1455 122.219 15.2529 122.148C15.3623 122.08 15.4512 121.989 15.5195 121.876C15.5859 121.761 15.6191 121.618 15.6191 121.448ZM12.0625 117.912L12.8301 117.912L12.8301 116.705L13.249 116.705L13.249 117.912L14.9717 117.912C15.0947 117.912 15.1963 117.896 15.2764 117.865C15.3564 117.834 15.4199 117.791 15.4668 117.736C15.5156 117.682 15.5498 117.619 15.5693 117.549C15.5889 117.477 15.5986 117.4 15.5986 117.32C15.5986 117.262 15.5957 117.201 15.5898 117.139C15.582 117.076 15.5732 117.015 15.5635 116.954C15.5537 116.896 15.5439 116.841 15.5342 116.79C15.5225 116.737 15.5127 116.694 15.5049 116.661L15.8887 116.585C15.916 116.63 15.9404 116.685 15.9619 116.749C15.9814 116.813 15.998 116.884 16.0117 116.96C16.0273 117.036 16.0391 117.117 16.0469 117.203C16.0547 117.287 16.0586 117.371 16.0586 117.455C16.0586 117.596 16.0391 117.728 16 117.851C15.959 117.972 15.8945 118.077 15.8066 118.167C15.7207 118.257 15.6094 118.328 15.4727 118.381C15.334 118.432 15.167 118.457 14.9717 118.457L13.249 118.457L13.249 119.289L12.8301 119.289L12.8301 118.457L12.0625 118.457L12.0625 117.912ZM12.8301 115.507L12.8301 113.887L15.5312 113.887L15.5312 112.853L16 112.853L16 115.507L15.5312 115.507L15.5312 114.429L13.3018 114.429L13.3018 115.507L12.8301 115.507ZM11.998 114.499C11.9512 114.499 11.9072 114.492 11.8662 114.479C11.8252 114.463 11.79 114.439 11.7607 114.408C11.7354 114.383 11.7158 114.351 11.7021 114.312C11.6865 114.271 11.6787 114.225 11.6787 114.174C11.6787 114.123 11.6865 114.078 11.7021 114.039C11.7158 114 11.7354 113.968 11.7607 113.942C11.7881 113.911 11.8223 113.888 11.8633 113.872C11.9043 113.856 11.9492 113.849 11.998 113.849C12.0859 113.849 12.1592 113.876 12.2178 113.931C12.2764 113.985 12.3057 114.066 12.3057 114.174C12.3057 114.283 12.2764 114.365 12.2178 114.42C12.1592 114.473 12.0859 114.499 11.998 114.499ZM14.3857 112.141C14.1572 112.141 13.9453 112.107 13.75 112.041C13.5527 111.975 13.3818 111.879 13.2373 111.754C13.0928 111.631 12.9795 111.48 12.8975 111.303C12.8135 111.125 12.7715 110.925 12.7715 110.702C12.7715 110.478 12.8135 110.276 12.8975 110.099C12.9795 109.919 13.0928 109.767 13.2373 109.642C13.3818 109.519 13.5527 109.424 13.75 109.357C13.9453 109.291 14.1572 109.258 14.3857 109.258L14.4502 109.258C14.6787 109.258 14.8906 109.291 15.0859 109.357C15.2812 109.424 15.4512 109.519 15.5957 109.642C15.7402 109.767 15.8535 109.918 15.9355 110.096C16.0176 110.273 16.0586 110.474 16.0586 110.696C16.0586 110.921 16.0176 111.123 15.9355 111.303C15.8535 111.48 15.7402 111.631 15.5957 111.754C15.4512 111.879 15.2812 111.975 15.0859 112.041C14.8906 112.107 14.6787 112.141 14.4502 112.141L14.3857 112.141ZM14.4502 111.599C14.6064 111.599 14.7559 111.58 14.8984 111.543C15.0391 111.506 15.1631 111.449 15.2705 111.373C15.3779 111.299 15.4629 111.205 15.5254 111.092C15.5879 110.979 15.6191 110.847 15.6191 110.696C15.6191 110.548 15.5879 110.418 15.5254 110.307C15.4629 110.193 15.3779 110.099 15.2705 110.022C15.1631 109.948 15.0391 109.893 14.8984 109.855C14.7559 109.818 14.6064 109.8 14.4502 109.8L14.3857 109.8C14.2314 109.8 14.084 109.819 13.9434 109.858C13.8008 109.896 13.6758 109.951 13.5684 110.025C13.4609 110.102 13.376 110.196 13.3135 110.31C13.249 110.421 13.2168 110.552 13.2168 110.702C13.2168 110.853 13.249 110.983 13.3135 111.095C13.376 111.206 13.4609 111.299 13.5684 111.373C13.6758 111.449 13.8008 111.506 13.9434 111.543C14.084 111.58 14.2314 111.599 14.3857 111.599L14.4502 111.599ZM16 108.385L12.8301 108.385L12.8301 107.898L13.2988 107.86C13.2324 107.813 13.1719 107.763 13.1172 107.708C13.0605 107.651 13.0117 107.592 12.9707 107.529C12.9082 107.436 12.8604 107.334 12.8271 107.225C12.792 107.113 12.7734 106.996 12.7715 106.873C12.7715 106.707 12.7949 106.557 12.8418 106.422C12.8887 106.285 12.9619 106.169 13.0615 106.073C13.1611 105.978 13.2881 105.904 13.4424 105.854C13.5947 105.801 13.7764 105.774 13.9873 105.774L16 105.774L16 106.316L13.999 106.316C13.8584 106.316 13.7393 106.332 13.6416 106.363C13.5439 106.395 13.4648 106.44 13.4043 106.501C13.3437 106.563 13.2998 106.64 13.2725 106.729C13.2451 106.817 13.2314 106.919 13.2314 107.034C13.2314 107.134 13.2461 107.227 13.2754 107.312C13.3027 107.398 13.3408 107.478 13.3896 107.55C13.4326 107.608 13.4824 107.663 13.5391 107.714C13.5957 107.763 13.6582 107.806 13.7266 107.843L16 107.843L16 108.385ZM15.6191 99.8271C15.6191 99.7295 15.6035 99.6348 15.5723 99.543C15.541 99.4492 15.4971 99.3662 15.4404 99.2939C15.3857 99.2217 15.3213 99.1641 15.2471 99.1211C15.1709 99.0762 15.0889 99.0527 15.001 99.0508L15.001 98.5381C15.1416 98.54 15.2764 98.5771 15.4053 98.6494C15.5322 98.7197 15.6436 98.8145 15.7393 98.9336C15.8369 99.0527 15.915 99.1895 15.9736 99.3437C16.0303 99.498 16.0586 99.6592 16.0586 99.8271C16.0586 100.067 16.0156 100.277 15.9297 100.457C15.8437 100.637 15.7275 100.786 15.5811 100.905C15.4365 101.026 15.2695 101.117 15.0801 101.178C14.8887 101.238 14.6875 101.269 14.4766 101.269L14.3535 101.269C14.1445 101.269 13.9443 101.238 13.7529 101.178C13.5615 101.117 13.3926 101.026 13.2461 100.905C13.1016 100.786 12.9863 100.637 12.9004 100.457C12.8145 100.277 12.7715 100.067 12.7715 99.8271C12.7715 99.6396 12.8018 99.4678 12.8623 99.3115C12.9209 99.1533 13.001 99.0166 13.1025 98.9014C13.2061 98.7881 13.3281 98.6992 13.4687 98.6348C13.6094 98.5703 13.7598 98.5381 13.9199 98.5381L13.9199 99.0508C13.8242 99.0527 13.7344 99.0742 13.6504 99.1152C13.5645 99.1543 13.4893 99.208 13.4248 99.2764C13.3604 99.3447 13.3096 99.4268 13.2725 99.5225C13.2354 99.6162 13.2168 99.7178 13.2168 99.8271C13.2168 99.9951 13.251 100.137 13.3193 100.252C13.3857 100.365 13.4727 100.457 13.5801 100.527C13.6895 100.598 13.8115 100.648 13.9463 100.68C14.0811 100.709 14.2168 100.724 14.3535 100.724L14.4766 100.724C14.6152 100.724 14.7529 100.709 14.8896 100.68C15.0244 100.648 15.1455 100.598 15.2529 100.527C15.3623 100.459 15.4512 100.368 15.5195 100.255C15.5859 100.14 15.6191 99.9971 15.6191 99.8271ZM16 95.4912C15.959 95.5127 15.9082 95.5303 15.8477 95.5439C15.7852 95.5557 15.7207 95.5645 15.6543 95.5703C15.709 95.625 15.7607 95.6865 15.8096 95.7549C15.8584 95.8213 15.9014 95.8945 15.9385 95.9746C15.9756 96.0566 16.0049 96.1436 16.0264 96.2354C16.0478 96.3271 16.0586 96.4248 16.0586 96.5283C16.0586 96.6963 16.0342 96.8486 15.9853 96.9854C15.9365 97.1201 15.8701 97.2344 15.7861 97.3281C15.7041 97.4238 15.6064 97.498 15.4932 97.5508C15.3779 97.6016 15.2539 97.627 15.1211 97.627C14.9473 97.627 14.7949 97.5928 14.6641 97.5244C14.5332 97.4541 14.4238 97.3555 14.3359 97.2285C14.25 97.1016 14.1855 96.9492 14.1426 96.7715C14.0996 96.5918 14.0781 96.3916 14.0781 96.1709L14.0781 95.5791L13.8291 95.5791C13.7334 95.5791 13.6475 95.5967 13.5713 95.6318C13.4951 95.667 13.4297 95.7168 13.375 95.7812C13.3223 95.8457 13.2812 95.9248 13.252 96.0186C13.2227 96.1104 13.208 96.2139 13.208 96.3291C13.208 96.4365 13.2217 96.5332 13.249 96.6191C13.2764 96.7031 13.3125 96.7744 13.3574 96.833C13.4023 96.8916 13.4561 96.9375 13.5186 96.9707C13.5791 97.002 13.6426 97.0176 13.709 97.0176L13.709 97.5625C13.5937 97.5605 13.4805 97.5312 13.3691 97.4746C13.2578 97.416 13.1572 97.332 13.0674 97.2227C12.9795 97.1152 12.9082 96.9844 12.8535 96.8301C12.7988 96.6738 12.7715 96.4971 12.7715 96.2998C12.7715 96.1201 12.7939 95.9531 12.8389 95.7988C12.8818 95.6445 12.9473 95.5107 13.0352 95.3975C13.125 95.2861 13.2363 95.1982 13.3691 95.1338C13.502 95.0693 13.6572 95.0371 13.835 95.0371L15.3086 95.0371C15.4141 95.0371 15.5264 95.0273 15.6455 95.0078C15.7627 94.9883 15.8652 94.9609 15.9531 94.9258L16 94.9258L16 95.4912ZM15.5869 96.4492C15.5869 96.3437 15.5732 96.2451 15.5459 96.1533C15.5186 96.0615 15.4824 95.9775 15.4375 95.9014C15.3926 95.8271 15.3418 95.7627 15.2852 95.708C15.2266 95.6533 15.166 95.6104 15.1035 95.5791L14.4619 95.5791L14.4619 96.083C14.4619 96.2705 14.4785 96.4346 14.5117 96.5752C14.543 96.7139 14.5918 96.8242 14.6582 96.9062C14.7051 96.9648 14.7607 97.0098 14.8252 97.041C14.8896 97.0703 14.9629 97.085 15.0449 97.085C15.123 97.085 15.1953 97.0723 15.2617 97.0469C15.3281 97.0195 15.3848 96.9795 15.4316 96.9268C15.4805 96.874 15.5186 96.8076 15.5459 96.7275C15.5732 96.6475 15.5869 96.5547 15.5869 96.4492ZM11.5 93.8857L11.5 92.2656L15.5312 92.2656L15.5312 91.2314L16 91.2314L16 93.8857L15.5312 93.8857L15.5312 92.8076L11.9717 92.8076L11.9717 93.8857L11.5 93.8857ZM11.5 90.2822L11.5 88.6621L15.5312 88.6621L15.5312 87.6279L16 87.6279L16 90.2822L15.5312 90.2822L15.5312 89.2041L11.9717 89.2041L11.9717 90.2822L11.5 90.2822ZM12.7715 81.083C12.7715 80.9834 12.7783 80.8799 12.792 80.7725C12.8057 80.6631 12.8242 80.5811 12.8477 80.5264L13.3779 80.5996C13.3545 80.7051 13.3379 80.8057 13.3281 80.9014C13.3164 80.9951 13.3105 81.0937 13.3105 81.1973C13.3105 81.3301 13.3271 81.4502 13.3603 81.5576C13.3916 81.665 13.4385 81.7588 13.501 81.8389C13.5557 81.9111 13.623 81.9746 13.7031 82.0293C13.7812 82.082 13.8691 82.126 13.9668 82.1611L16 82.1611L16 82.7061L12.8301 82.7061L12.8301 82.1904L13.2549 82.167L13.334 82.1641C13.1602 82.0352 13.0234 81.8809 12.9238 81.7012C12.8223 81.5195 12.7715 81.3135 12.7715 81.083ZM16.0586 78.1562C16.0586 78.3789 16.0205 78.584 15.9443 78.7715C15.8682 78.957 15.7617 79.1162 15.625 79.249C15.4883 79.3818 15.3262 79.4854 15.1387 79.5596C14.9512 79.6338 14.7471 79.6709 14.5264 79.6709L14.4033 79.6709C14.1475 79.6709 13.9189 79.6299 13.7178 79.5479C13.5146 79.4658 13.3428 79.3564 13.2021 79.2197C13.0635 79.085 12.957 78.9316 12.8828 78.7598C12.8086 78.5859 12.7715 78.4082 12.7715 78.2266C12.7715 77.998 12.8115 77.7988 12.8916 77.6289C12.9697 77.457 13.0781 77.3145 13.2168 77.2012C13.3574 77.0879 13.5225 77.0039 13.7119 76.9492C13.9014 76.8926 14.1064 76.8643 14.3271 76.8643L14.5703 76.8643L14.5703 79.1289L14.5908 79.1289C14.7451 79.1152 14.8809 79.085 14.998 79.0381C15.1152 78.9893 15.2187 78.9229 15.3086 78.8389C15.4043 78.7529 15.4795 78.6494 15.5342 78.5283C15.5889 78.4072 15.6162 78.2734 15.6162 78.127C15.6162 77.9336 15.5771 77.7617 15.499 77.6113C15.4209 77.4609 15.3174 77.3359 15.1885 77.2363L15.4463 76.9053C15.6064 77.0107 15.749 77.1689 15.874 77.3799C15.9971 77.5889 16.0586 77.8477 16.0586 78.1562ZM13.2168 78.2266C13.2168 78.3359 13.2373 78.4395 13.2783 78.5371C13.3174 78.6348 13.375 78.7227 13.4512 78.8008C13.5293 78.8789 13.625 78.9453 13.7383 79C13.8496 79.0527 13.9785 79.0898 14.125 79.1113L14.125 77.4062L14.0986 77.4062C14.001 77.4062 13.8965 77.4248 13.7852 77.4619C13.6719 77.499 13.5742 77.5508 13.4922 77.6172C13.4102 77.6836 13.3437 77.7676 13.293 77.8691C13.2422 77.9687 13.2168 78.0879 13.2168 78.2266ZM15.1592 73.8467C15.0947 73.8467 15.0371 73.8594 14.9863 73.8848C14.9336 73.9102 14.8857 73.9531 14.8428 74.0137C14.7998 74.0742 14.7607 74.1543 14.7256 74.2539C14.6885 74.3535 14.6553 74.4775 14.626 74.626C14.5889 74.8076 14.5439 74.9736 14.4912 75.124C14.4385 75.2725 14.375 75.3994 14.3008 75.5049C14.2285 75.6123 14.1436 75.6953 14.0459 75.7539C13.9463 75.8125 13.8311 75.8418 13.7002 75.8418C13.5713 75.8418 13.4512 75.8115 13.3398 75.751C13.2266 75.6904 13.1279 75.6055 13.0439 75.4961C12.96 75.3867 12.8936 75.2568 12.8447 75.1064C12.7959 74.9541 12.7715 74.7871 12.7715 74.6055C12.7715 74.4102 12.7969 74.2344 12.8477 74.0781C12.8984 73.9219 12.9687 73.7891 13.0586 73.6797C13.1484 73.5703 13.2539 73.4863 13.375 73.4277C13.4941 73.3672 13.623 73.3369 13.7617 73.3369L13.7617 73.8789C13.6934 73.8789 13.627 73.8965 13.5625 73.9316C13.4961 73.9668 13.4375 74.0156 13.3867 74.0781C13.3359 74.1406 13.2949 74.2168 13.2637 74.3066C13.2324 74.3945 13.2168 74.4941 13.2168 74.6055C13.2168 74.7207 13.2295 74.8223 13.2549 74.9102C13.2803 74.9961 13.3145 75.0674 13.3574 75.124C13.4004 75.1826 13.4502 75.2266 13.5068 75.2559C13.5635 75.2852 13.6221 75.2998 13.6826 75.2998C13.7451 75.2998 13.8008 75.2881 13.8496 75.2646C13.8984 75.2412 13.9424 75.2002 13.9814 75.1416C14.0205 75.085 14.0557 75.0088 14.0869 74.9131C14.1182 74.8154 14.1484 74.6924 14.1777 74.5439C14.2187 74.3486 14.2666 74.1738 14.3213 74.0195C14.374 73.8652 14.4375 73.7354 14.5117 73.6299C14.5879 73.5244 14.6758 73.4443 14.7754 73.3896C14.875 73.333 14.9902 73.3047 15.1211 73.3047C15.2617 73.3047 15.3896 73.3369 15.5049 73.4014C15.6201 73.4639 15.7187 73.5518 15.8008 73.665C15.8828 73.7783 15.9463 73.9141 15.9912 74.0723C16.0361 74.2305 16.0586 74.4033 16.0586 74.5908C16.0586 74.8057 16.0303 74.9971 15.9736 75.165C15.915 75.333 15.8379 75.4746 15.7422 75.5898C15.6484 75.707 15.5391 75.7969 15.4141 75.8594C15.2891 75.9199 15.1592 75.9502 15.0244 75.9502L15.0244 75.4082C15.1357 75.4004 15.2295 75.3711 15.3057 75.3203C15.3818 75.2676 15.4434 75.2021 15.4902 75.124C15.5371 75.0479 15.5703 74.9629 15.5898 74.8691C15.6094 74.7754 15.6191 74.6826 15.6191 74.5908C15.6191 74.4463 15.6025 74.3203 15.5693 74.2129C15.5342 74.1055 15.4863 74.0215 15.4258 73.9609C15.3887 73.9238 15.3477 73.8955 15.3027 73.876C15.2578 73.8564 15.21 73.8467 15.1592 73.8467ZM16 70.2607L15.5635 70.293C15.7197 70.3984 15.8418 70.5303 15.9297 70.6885C16.0156 70.8467 16.0586 71.0293 16.0586 71.2363C16.0586 71.4023 16.0332 71.5527 15.9824 71.6875C15.9297 71.8223 15.8486 71.9375 15.7393 72.0332C15.6299 72.1289 15.4912 72.2031 15.3232 72.2559C15.1533 72.3066 14.9502 72.332 14.7139 72.332L12.8301 72.332L12.8301 71.79L14.7197 71.79C14.8916 71.79 15.0342 71.7764 15.1475 71.749C15.2607 71.7217 15.3506 71.6807 15.417 71.626C15.4853 71.5713 15.5332 71.5049 15.5605 71.4268C15.5879 71.3467 15.6016 71.2549 15.6016 71.1514C15.6016 71.0303 15.5879 70.9219 15.5605 70.8262C15.5312 70.7305 15.4912 70.6475 15.4404 70.5771C15.3994 70.5186 15.3506 70.4678 15.2939 70.4248C15.2353 70.3799 15.1719 70.3428 15.1035 70.3135L12.8301 70.3135L12.8301 69.7686L16 69.7686L16 70.2607ZM11.5 68.6611L11.5 67.041L15.5312 67.041L15.5312 66.0068L16 66.0068L16 68.6611L15.5312 68.6611L15.5312 67.583L11.9717 67.583L11.9717 68.6611L11.5 68.6611ZM12.0625 63.8594L12.8301 63.8594L12.8301 62.6523L13.249 62.6523L13.249 63.8594L14.9717 63.8594C15.0947 63.8594 15.1963 63.8437 15.2764 63.8125C15.3564 63.7812 15.4199 63.7383 15.4668 63.6836C15.5156 63.6289 15.5498 63.5664 15.5693 63.4961C15.5889 63.4238 15.5986 63.3477 15.5986 63.2676C15.5986 63.209 15.5957 63.1484 15.5898 63.0859C15.582 63.0234 15.5732 62.9619 15.5635 62.9014C15.5537 62.8428 15.5439 62.7881 15.5342 62.7373C15.5225 62.6846 15.5127 62.6416 15.5049 62.6084L15.8887 62.5322C15.916 62.5771 15.9404 62.6318 15.9619 62.6963C15.9814 62.7607 15.998 62.8311 16.0117 62.9072C16.0273 62.9834 16.0391 63.0645 16.0469 63.1504C16.0547 63.2344 16.0586 63.3184 16.0586 63.4023C16.0586 63.543 16.0391 63.6748 16 63.7979C15.959 63.9189 15.8945 64.0244 15.8066 64.1143C15.7207 64.2041 15.6094 64.2754 15.4727 64.3281C15.334 64.3789 15.167 64.4043 14.9717 64.4043L13.249 64.4043L13.249 65.2363L12.8301 65.2363L12.8301 64.4043L12.0625 64.4043L12.0625 63.8594Z"
        fill="#A5A8AB" />
    <path
        d="M116.507 72.6569C116.638 72.6569 116.748 72.6266 116.838 72.566C116.928 72.5075 117.004 72.4313 117.066 72.3375C117.127 72.2438 117.178 72.1403 117.219 72.027C117.26 71.9157 117.297 71.8082 117.33 71.7047C117.379 71.5543 117.437 71.401 117.506 71.2448C117.576 71.0905 117.66 70.9498 117.758 70.8229C117.857 70.694 117.975 70.5885 118.109 70.5065C118.246 70.4264 118.406 70.3864 118.59 70.3864C118.773 70.3864 118.937 70.4264 119.082 70.5065C119.227 70.5885 119.349 70.695 119.448 70.8258C119.548 70.9567 119.623 71.1051 119.674 71.2711C119.727 71.4371 119.753 71.6041 119.753 71.7721C119.753 71.9576 119.722 72.1364 119.659 72.3082C119.599 72.4801 119.513 72.6325 119.401 72.7653C119.29 72.8981 119.155 73.0045 118.997 73.0846C118.839 73.1647 118.662 73.2067 118.467 73.2106L118.467 72.6539C118.59 72.6383 118.701 72.608 118.801 72.5631C118.902 72.5182 118.989 72.4586 119.062 72.3844C119.134 72.3102 119.189 72.2213 119.229 72.1178C119.27 72.0162 119.29 71.901 119.29 71.7721C119.29 71.6686 119.275 71.567 119.246 71.4674C119.217 71.3698 119.173 71.2828 119.114 71.2067C119.056 71.1285 118.983 71.066 118.897 71.0192C118.812 70.9743 118.712 70.9518 118.599 70.9518C118.476 70.9537 118.371 70.985 118.285 71.0455C118.201 71.1061 118.13 71.1832 118.071 71.277C118.013 71.3688 117.964 71.4684 117.925 71.5758C117.886 71.6852 117.852 71.7877 117.822 71.8834C117.773 72.0416 117.714 72.1998 117.644 72.358C117.575 72.5162 117.487 72.6608 117.38 72.7916C117.28 72.9205 117.158 73.0241 117.014 73.1022C116.869 73.1823 116.702 73.2223 116.513 73.2223C116.321 73.2223 116.154 73.1793 116.012 73.0934C115.869 73.0094 115.751 72.9 115.657 72.7653C115.562 72.6305 115.489 72.4782 115.44 72.3082C115.394 72.1383 115.37 71.9684 115.37 71.7985C115.37 71.5953 115.404 71.3951 115.473 71.1979C115.541 71.0026 115.64 70.8326 115.769 70.6881C115.88 70.5592 116.01 70.4567 116.158 70.3805C116.309 70.3063 116.476 70.2662 116.659 70.2604L116.659 70.8141C116.526 70.8317 116.408 70.8678 116.305 70.9225C116.203 70.9772 116.117 71.0475 116.047 71.1334C115.975 71.2194 115.92 71.318 115.883 71.4293C115.848 71.5426 115.83 71.6657 115.83 71.7985C115.83 71.9039 115.843 72.0075 115.868 72.109C115.896 72.2125 115.937 72.3043 115.994 72.3844C116.049 72.4645 116.118 72.5299 116.202 72.5807C116.288 72.6315 116.39 72.6569 116.507 72.6569ZM115.37 75.4284C115.37 75.2057 115.408 75.0006 115.484 74.8131C115.561 74.6276 115.667 74.4684 115.804 74.3356C115.94 74.2028 116.103 74.0993 116.29 74.025C116.478 73.9508 116.682 73.9137 116.902 73.9137L117.025 73.9137C117.281 73.9137 117.51 73.9547 117.711 74.0368C117.914 74.1188 118.086 74.2282 118.227 74.3649C118.365 74.4996 118.472 74.653 118.546 74.8248C118.62 74.9987 118.657 75.1764 118.657 75.358C118.657 75.5866 118.617 75.7858 118.537 75.9557C118.459 76.1276 118.351 76.2701 118.212 76.3834C118.071 76.4967 117.906 76.5807 117.717 76.6354C117.527 76.692 117.322 76.7203 117.102 76.7203L116.858 76.7203L116.858 74.4557L116.838 74.4557C116.684 74.4694 116.548 74.4996 116.431 74.5465C116.313 74.5953 116.21 74.6618 116.12 74.7457C116.024 74.8317 115.949 74.9352 115.895 75.0563C115.84 75.1774 115.812 75.3112 115.812 75.4576C115.812 75.651 115.852 75.8229 115.93 75.9733C116.008 76.1237 116.111 76.2487 116.24 76.3483L115.982 76.6793C115.822 76.5739 115.68 76.4157 115.555 76.2047C115.432 75.9957 115.37 75.7369 115.37 75.4284ZM118.212 75.358C118.212 75.2487 118.191 75.1451 118.15 75.0475C118.111 74.9498 118.054 74.8619 117.978 74.7838C117.899 74.7057 117.804 74.6393 117.69 74.5846C117.579 74.5319 117.45 74.4948 117.304 74.4733L117.304 76.1784L117.33 76.1784C117.428 76.1784 117.532 76.1598 117.644 76.1227C117.757 76.0856 117.854 76.0338 117.937 75.9674C118.019 75.901 118.085 75.817 118.136 75.7155C118.187 75.6159 118.212 75.4967 118.212 75.358ZM115.81 78.9821C115.81 79.0797 115.825 79.1744 115.856 79.2662C115.888 79.36 115.932 79.443 115.988 79.5153C116.043 79.5875 116.107 79.6451 116.182 79.6881C116.258 79.733 116.34 79.7565 116.428 79.7584L116.428 80.2711C116.287 80.2692 116.152 80.2321 116.023 80.1598C115.896 80.0895 115.785 79.9948 115.689 79.8756C115.592 79.7565 115.514 79.6198 115.455 79.4655C115.398 79.3112 115.37 79.15 115.37 78.9821C115.37 78.7418 115.413 78.5319 115.499 78.3522C115.585 78.1725 115.701 78.0231 115.848 77.9039C115.992 77.7828 116.159 77.692 116.349 77.6315C116.54 77.5709 116.741 77.5407 116.952 77.5407L117.075 77.5407C117.284 77.5407 117.484 77.5709 117.676 77.6315C117.867 77.692 118.036 77.7828 118.183 77.9039C118.327 78.0231 118.442 78.1725 118.528 78.3522C118.614 78.5319 118.657 78.7418 118.657 78.9821C118.657 79.1696 118.627 79.3414 118.566 79.4977C118.508 79.6559 118.428 79.7926 118.326 79.9078C118.223 80.0211 118.101 80.11 117.96 80.1744C117.819 80.2389 117.669 80.2711 117.509 80.2711L117.509 79.7584C117.604 79.7565 117.694 79.735 117.778 79.694C117.864 79.6549 117.939 79.6012 118.004 79.5328C118.068 79.4645 118.119 79.3825 118.156 79.2868C118.193 79.193 118.212 79.0914 118.212 78.9821C118.212 78.8141 118.178 78.6725 118.109 78.5573C118.043 78.444 117.956 78.3522 117.849 78.2819C117.739 78.2116 117.617 78.1608 117.482 78.1295C117.348 78.1002 117.212 78.0856 117.075 78.0856L116.952 78.0856C116.813 78.0856 116.676 78.1002 116.539 78.1295C116.404 78.1608 116.283 78.2116 116.176 78.2819C116.066 78.3502 115.978 78.441 115.909 78.5543C115.843 78.6696 115.81 78.8121 115.81 78.9821ZM117.043 81.0826C117.271 81.0826 117.483 81.1159 117.679 81.1823C117.876 81.2487 118.047 81.3444 118.191 81.4694C118.336 81.5924 118.449 81.7428 118.531 81.9205C118.615 82.0983 118.657 82.2985 118.657 82.5211C118.657 82.7457 118.615 82.9469 118.531 83.1246C118.449 83.3043 118.336 83.4567 118.191 83.5817C118.047 83.7047 117.876 83.7994 117.679 83.8659C117.483 83.9323 117.271 83.9655 117.043 83.9655L116.979 83.9655C116.75 83.9655 116.538 83.9323 116.343 83.8659C116.147 83.7994 115.978 83.7047 115.833 83.5817C115.688 83.4567 115.575 83.3053 115.493 83.1276C115.411 82.9498 115.37 82.7496 115.37 82.527C115.37 82.3024 115.411 82.1002 115.493 81.9205C115.575 81.7428 115.688 81.5924 115.833 81.4694C115.978 81.3444 116.147 81.2487 116.343 81.1823C116.538 81.1159 116.75 81.0826 116.979 81.0826L117.043 81.0826ZM116.979 81.6246C116.822 81.6246 116.673 81.6432 116.53 81.6803C116.39 81.7174 116.266 81.7741 116.158 81.8502C116.051 81.9244 115.966 82.0182 115.903 82.1315C115.841 82.2448 115.81 82.3766 115.81 82.527C115.81 82.6754 115.841 82.8053 115.903 82.9166C115.966 83.0299 116.051 83.1246 116.158 83.2008C116.266 83.275 116.39 83.3307 116.53 83.3678C116.673 83.4049 116.822 83.4235 116.979 83.4235L117.043 83.4235C117.197 83.4235 117.345 83.4039 117.485 83.3649C117.628 83.3278 117.753 83.2721 117.86 83.1979C117.968 83.1217 118.053 83.027 118.115 82.9137C118.18 82.8024 118.212 82.6715 118.212 82.5211C118.212 82.3707 118.18 82.2399 118.115 82.1285C118.053 82.0172 117.968 81.9244 117.86 81.8502C117.753 81.7741 117.628 81.7174 117.485 81.6803C117.345 81.6432 117.197 81.6246 117.043 81.6246L116.979 81.6246ZM115.429 84.8385L118.599 84.8385L118.599 85.3248L118.13 85.3629C118.196 85.4098 118.257 85.4606 118.312 85.5153C118.368 85.5719 118.417 85.6315 118.458 85.694C118.521 85.7877 118.568 85.8893 118.602 85.9987C118.637 86.11 118.655 86.2272 118.657 86.3502C118.657 86.5162 118.634 86.6666 118.587 86.8014C118.54 86.9381 118.467 87.0543 118.367 87.15C118.268 87.2457 118.141 87.319 117.986 87.3698C117.834 87.4225 117.652 87.4489 117.441 87.4489L115.429 87.4489L115.429 86.9069L117.43 86.9069C117.57 86.9069 117.689 86.8912 117.787 86.86C117.885 86.8287 117.964 86.7828 118.024 86.7223C118.085 86.6598 118.129 86.5836 118.156 86.4938C118.184 86.4059 118.197 86.3043 118.197 86.1891C118.197 86.0895 118.183 85.9967 118.153 85.9108C118.126 85.8248 118.088 85.7457 118.039 85.6735C117.996 85.6149 117.946 85.5602 117.89 85.5094C117.833 85.4606 117.771 85.4176 117.702 85.3805L115.429 85.3805L115.429 84.8385ZM117.04 88.3395C117.276 88.3395 117.493 88.3688 117.69 88.4274C117.89 88.4879 118.061 88.5739 118.203 88.6852C118.346 88.7946 118.457 88.9274 118.537 89.0836C118.617 89.2399 118.657 89.4147 118.657 89.608C118.657 89.7975 118.625 89.9625 118.561 90.1032C118.498 90.2457 118.406 90.3688 118.285 90.4723L119.929 90.4723L119.929 91.0143L115.429 91.0143L115.429 90.5162L115.763 90.4928C115.634 90.3873 115.536 90.2614 115.47 90.1149C115.403 89.9684 115.37 89.7975 115.37 89.6022C115.37 89.4108 115.411 89.2369 115.493 89.0807C115.575 88.9264 115.688 88.7946 115.833 88.6852C115.978 88.5758 116.147 88.4909 116.343 88.4303C116.54 88.3698 116.752 88.3395 116.979 88.3395L117.04 88.3395ZM116.979 88.8815C116.824 88.8815 116.678 88.8981 116.539 88.9313C116.4 88.9645 116.278 89.0162 116.173 89.0866C116.067 89.1549 115.983 89.2428 115.921 89.3502C115.86 89.4576 115.83 89.5866 115.83 89.7369C115.83 89.9186 115.871 90.069 115.953 90.1881C116.035 90.3073 116.146 90.402 116.284 90.4723L117.755 90.4723C117.884 90.402 117.989 90.3073 118.071 90.1881C118.155 90.069 118.197 89.9205 118.197 89.7428C118.197 89.5905 118.166 89.4596 118.104 89.3502C118.041 89.2428 117.957 89.1549 117.852 89.0866C117.744 89.0162 117.62 88.9645 117.479 88.9313C117.341 88.8981 117.194 88.8815 117.04 88.8815L116.979 88.8815ZM118.599 95.734L118.599 97.3541L115.897 97.3541L115.897 98.3883L115.429 98.3883L115.429 95.734L115.897 95.734L115.897 96.8121L118.127 96.8121L118.127 95.734L118.599 95.734ZM119.431 96.7418C119.478 96.7418 119.521 96.7487 119.562 96.7623C119.604 96.778 119.639 96.8014 119.668 96.8326C119.693 96.858 119.713 96.8903 119.727 96.9293C119.742 96.9703 119.75 97.0162 119.75 97.067C119.75 97.1178 119.742 97.1627 119.727 97.2018C119.713 97.2409 119.693 97.2731 119.668 97.2985C119.641 97.3297 119.606 97.3532 119.565 97.3688C119.524 97.3844 119.479 97.3922 119.431 97.3922C119.343 97.3922 119.27 97.3649 119.211 97.3102C119.152 97.2555 119.123 97.1744 119.123 97.067C119.123 96.9576 119.152 96.8756 119.211 96.8209C119.27 96.7682 119.343 96.7418 119.431 96.7418ZM115.429 99.2526L118.599 99.2526L118.599 99.7389L118.13 99.777C118.196 99.8239 118.257 99.8746 118.312 99.9293C118.368 99.986 118.417 100.046 118.458 100.108C118.521 100.202 118.568 100.303 118.602 100.413C118.637 100.524 118.655 100.641 118.657 100.764C118.657 100.93 118.634 101.081 118.587 101.215C118.54 101.352 118.467 101.468 118.367 101.564C118.268 101.66 118.141 101.733 117.986 101.784C117.834 101.837 117.652 101.863 117.441 101.863L115.429 101.863L115.429 101.321L117.43 101.321C117.57 101.321 117.689 101.305 117.787 101.274C117.885 101.243 117.964 101.197 118.024 101.136C118.085 101.074 118.129 100.998 118.156 100.908C118.184 100.82 118.197 100.718 118.197 100.603C118.197 100.504 118.183 100.411 118.153 100.325C118.126 100.239 118.088 100.16 118.039 100.088C117.996 100.029 117.946 99.9743 117.89 99.9235C117.833 99.8746 117.771 99.8317 117.702 99.7946L115.429 99.7946L115.429 99.2526ZM115.429 103.665L118.18 103.665L118.18 102.792L118.599 102.792L118.599 103.665L118.821 103.665C119.024 103.665 119.202 103.694 119.354 103.753C119.509 103.813 119.638 103.898 119.741 104.007C119.845 104.115 119.923 104.245 119.976 104.397C120.028 104.549 120.055 104.719 120.055 104.907C120.055 104.985 120.05 105.062 120.04 105.138C120.032 105.214 120.021 105.29 120.008 105.364C119.998 105.413 119.987 105.462 119.976 105.51C119.966 105.559 119.954 105.609 119.94 105.66L119.492 105.595C119.52 105.515 119.543 105.422 119.562 105.314C119.584 105.209 119.595 105.095 119.595 104.974C119.595 104.851 119.579 104.742 119.548 104.646C119.519 104.552 119.474 104.474 119.413 104.412C119.351 104.345 119.27 104.295 119.17 104.259C119.07 104.226 118.954 104.21 118.821 104.21L118.599 104.21L118.599 105.431L118.18 105.431L118.18 104.21L115.429 104.21L115.429 103.665ZM115.37 107.86C115.37 107.637 115.408 107.432 115.484 107.245C115.561 107.059 115.667 106.9 115.804 106.767C115.94 106.634 116.103 106.531 116.29 106.457C116.478 106.382 116.682 106.345 116.902 106.345L117.025 106.345C117.281 106.345 117.51 106.386 117.711 106.468C117.914 106.55 118.086 106.66 118.227 106.797C118.365 106.931 118.472 107.085 118.546 107.256C118.62 107.43 118.657 107.608 118.657 107.79C118.657 108.018 118.617 108.217 118.537 108.387C118.459 108.559 118.351 108.702 118.212 108.815C118.071 108.928 117.906 109.012 117.717 109.067C117.527 109.124 117.322 109.152 117.102 109.152L116.858 109.152L116.858 106.887L116.838 106.887C116.684 106.901 116.548 106.931 116.431 106.978C116.313 107.027 116.21 107.093 116.12 107.177C116.024 107.263 115.949 107.367 115.895 107.488C115.84 107.609 115.812 107.743 115.812 107.889C115.812 108.083 115.852 108.255 115.93 108.405C116.008 108.555 116.111 108.68 116.24 108.78L115.982 109.111C115.822 109.006 115.68 108.847 115.555 108.636C115.432 108.427 115.37 108.169 115.37 107.86ZM118.212 107.79C118.212 107.68 118.191 107.577 118.15 107.479C118.111 107.381 118.054 107.294 117.978 107.215C117.899 107.137 117.804 107.071 117.69 107.016C117.579 106.964 117.45 106.926 117.304 106.905L117.304 108.61L117.33 108.61C117.428 108.61 117.532 108.591 117.644 108.554C117.757 108.517 117.854 108.465 117.937 108.399C118.019 108.333 118.085 108.249 118.136 108.147C118.187 108.047 118.212 107.928 118.212 107.79ZM118.657 112.14C118.657 112.24 118.65 112.343 118.637 112.451C118.623 112.56 118.604 112.642 118.581 112.697L118.051 112.624C118.074 112.518 118.091 112.418 118.101 112.322C118.112 112.228 118.118 112.13 118.118 112.026C118.118 111.893 118.102 111.773 118.068 111.666C118.037 111.558 117.99 111.464 117.928 111.384C117.873 111.312 117.806 111.249 117.726 111.194C117.647 111.141 117.56 111.097 117.462 111.062L115.429 111.062L115.429 110.517L118.599 110.517L118.599 111.033L118.174 111.056L118.095 111.059C118.269 111.188 118.405 111.342 118.505 111.522C118.606 111.704 118.657 111.91 118.657 112.14ZM115.37 115.067C115.37 114.844 115.408 114.639 115.484 114.452C115.561 114.266 115.667 114.107 115.804 113.974C115.94 113.841 116.103 113.738 116.29 113.664C116.478 113.589 116.682 113.552 116.902 113.552L117.025 113.552C117.281 113.552 117.51 113.593 117.711 113.675C117.914 113.757 118.086 113.867 118.227 114.004C118.365 114.138 118.472 114.292 118.546 114.464C118.62 114.637 118.657 114.815 118.657 114.997C118.657 115.225 118.617 115.424 118.537 115.594C118.459 115.766 118.351 115.909 118.212 116.022C118.071 116.135 117.906 116.219 117.717 116.274C117.527 116.331 117.322 116.359 117.102 116.359L116.858 116.359L116.858 114.094L116.838 114.094C116.684 114.108 116.548 114.138 116.431 114.185C116.313 114.234 116.21 114.3 116.12 114.384C116.024 114.47 115.949 114.574 115.895 114.695C115.84 114.816 115.812 114.95 115.812 115.096C115.812 115.29 115.852 115.462 115.93 115.612C116.008 115.762 116.111 115.887 116.24 115.987L115.982 116.318C115.822 116.213 115.68 116.054 115.555 115.843C115.432 115.634 115.37 115.376 115.37 115.067ZM118.212 114.997C118.212 114.887 118.191 114.784 118.15 114.686C118.111 114.589 118.054 114.501 117.978 114.422C117.899 114.344 117.804 114.278 117.69 114.223C117.579 114.171 117.45 114.133 117.304 114.112L117.304 115.817L117.33 115.817C117.428 115.817 117.532 115.798 117.644 115.761C117.757 115.724 117.854 115.672 117.937 115.606C118.019 115.54 118.085 115.456 118.136 115.354C118.187 115.255 118.212 115.135 118.212 114.997ZM115.429 117.27L118.599 117.27L118.599 117.756L118.13 117.795C118.196 117.841 118.257 117.892 118.312 117.947C118.368 118.004 118.417 118.063 118.458 118.126C118.521 118.219 118.568 118.321 118.602 118.43C118.637 118.542 118.655 118.659 118.657 118.782C118.657 118.948 118.634 119.098 118.587 119.233C118.54 119.37 118.467 119.486 118.367 119.582C118.268 119.677 118.141 119.751 117.986 119.801C117.834 119.854 117.652 119.881 117.441 119.881L115.429 119.881L115.429 119.339L117.43 119.339C117.57 119.339 117.689 119.323 117.787 119.292C117.885 119.26 117.964 119.214 118.024 119.154C118.085 119.091 118.129 119.015 118.156 118.925C118.184 118.838 118.197 118.736 118.197 118.621C118.197 118.521 118.183 118.428 118.153 118.342C118.126 118.256 118.088 118.177 118.039 118.105C117.996 118.047 117.946 117.992 117.89 117.941C117.833 117.892 117.771 117.849 117.702 117.812L115.429 117.812L115.429 117.27ZM115.81 122.224C115.81 122.322 115.825 122.417 115.856 122.508C115.888 122.602 115.932 122.685 115.988 122.757C116.043 122.83 116.107 122.887 116.182 122.93C116.258 122.975 116.34 122.999 116.428 123.001L116.428 123.513C116.287 123.511 116.152 123.474 116.023 123.402C115.896 123.332 115.785 123.237 115.689 123.118C115.592 122.999 115.514 122.862 115.455 122.708C115.398 122.553 115.37 122.392 115.37 122.224C115.37 121.984 115.413 121.774 115.499 121.594C115.585 121.415 115.701 121.265 115.848 121.146C115.992 121.025 116.159 120.934 116.349 120.874C116.54 120.813 116.741 120.783 116.952 120.783L117.075 120.783C117.284 120.783 117.484 120.813 117.676 120.874C117.867 120.934 118.036 121.025 118.183 121.146C118.327 121.265 118.442 121.415 118.528 121.594C118.614 121.774 118.657 121.984 118.657 122.224C118.657 122.412 118.627 122.584 118.566 122.74C118.508 122.898 118.428 123.035 118.326 123.15C118.223 123.263 118.101 123.352 117.96 123.417C117.819 123.481 117.669 123.513 117.509 123.513L117.509 123.001C117.604 122.999 117.694 122.977 117.778 122.936C117.864 122.897 117.939 122.843 118.004 122.775C118.068 122.707 118.119 122.625 118.156 122.529C118.193 122.435 118.212 122.334 118.212 122.224C118.212 122.056 118.178 121.915 118.109 121.799C118.043 121.686 117.956 121.594 117.849 121.524C117.739 121.454 117.617 121.403 117.482 121.372C117.348 121.342 117.212 121.328 117.075 121.328L116.952 121.328C116.813 121.328 116.676 121.342 116.539 121.372C116.404 121.403 116.283 121.454 116.176 121.524C116.066 121.592 115.978 121.683 115.909 121.797C115.843 121.912 115.81 122.054 115.81 122.224ZM115.37 125.878C115.37 125.655 115.408 125.45 115.484 125.262C115.561 125.077 115.667 124.918 115.804 124.785C115.94 124.652 116.103 124.548 116.29 124.474C116.478 124.4 116.682 124.363 116.902 124.363L117.025 124.363C117.281 124.363 117.51 124.404 117.711 124.486C117.914 124.568 118.086 124.677 118.227 124.814C118.365 124.949 118.472 125.102 118.546 125.274C118.62 125.448 118.657 125.626 118.657 125.807C118.657 126.036 118.617 126.235 118.537 126.405C118.459 126.577 118.351 126.719 118.212 126.833C118.071 126.946 117.906 127.03 117.717 127.085C117.527 127.141 117.322 127.17 117.102 127.17L116.858 127.17L116.858 124.905L116.838 124.905C116.684 124.919 116.548 124.949 116.431 124.996C116.313 125.045 116.21 125.111 116.12 125.195C116.024 125.281 115.949 125.384 115.895 125.506C115.84 125.627 115.812 125.76 115.812 125.907C115.812 126.1 115.852 126.272 115.93 126.422C116.008 126.573 116.111 126.698 116.24 126.797L115.982 127.129C115.822 127.023 115.68 126.865 115.555 126.654C115.432 126.445 115.37 126.186 115.37 125.878ZM118.212 125.807C118.212 125.698 118.191 125.594 118.15 125.497C118.111 125.399 118.054 125.311 117.978 125.233C117.899 125.155 117.804 125.089 117.69 125.034C117.579 124.981 117.45 124.944 117.304 124.922L117.304 126.628L117.33 126.628C117.428 126.628 117.532 126.609 117.644 126.572C117.757 126.535 117.854 126.483 117.937 126.417C118.019 126.35 118.085 126.266 118.136 126.165C118.187 126.065 118.212 125.946 118.212 125.807ZM116.861 133.881L116.861 134.476L116.419 134.476L116.419 133.881L115.429 133.881L115.429 133.339L116.419 133.339L116.419 131.394L116.738 131.394L119.694 133.304L119.694 133.881L116.861 133.881ZM116.861 131.995L116.861 133.339L118.974 133.339L118.81 133.252L116.861 131.995ZM117.567 135.481L119.694 135.695L119.694 137.883L119.167 137.883L119.167 136.152L118.03 136.032C118.079 136.116 118.122 136.216 118.159 136.334C118.196 136.451 118.215 136.587 118.215 136.741C118.215 136.938 118.181 137.115 118.112 137.271C118.044 137.427 117.948 137.56 117.825 137.67C117.7 137.779 117.55 137.863 117.374 137.922C117.198 137.98 117.003 138.009 116.788 138.009C116.585 138.009 116.396 137.982 116.223 137.927C116.049 137.873 115.899 137.791 115.774 137.681C115.647 137.57 115.548 137.43 115.476 137.262C115.405 137.094 115.37 136.897 115.37 136.671C115.37 136.497 115.395 136.333 115.443 136.178C115.492 136.024 115.565 135.887 115.663 135.768C115.761 135.647 115.884 135.547 116.032 135.469C116.181 135.393 116.354 135.345 116.551 135.326L116.551 135.841C116.309 135.875 116.125 135.964 116 136.108C115.875 136.255 115.812 136.442 115.812 136.671C115.812 136.799 115.835 136.914 115.88 137.013C115.927 137.113 115.993 137.197 116.079 137.265C116.163 137.332 116.265 137.381 116.384 137.415C116.503 137.45 116.636 137.467 116.782 137.467C116.915 137.467 117.039 137.448 117.154 137.409C117.27 137.372 117.37 137.317 117.456 137.245C117.54 137.172 117.606 137.084 117.655 136.978C117.704 136.873 117.729 136.752 117.729 136.615C117.729 136.525 117.722 136.447 117.708 136.381C117.696 136.316 117.679 136.257 117.655 136.205C117.632 136.152 117.604 136.102 117.57 136.055C117.537 136.01 117.499 135.964 117.456 135.915L117.567 135.481ZM117.061 141.569C116.789 141.569 116.548 141.538 116.337 141.475C116.128 141.413 115.952 141.323 115.81 141.206C115.665 141.089 115.556 140.945 115.481 140.775C115.407 140.605 115.37 140.411 115.37 140.192C115.37 139.975 115.406 139.781 115.479 139.609C115.553 139.437 115.663 139.292 115.81 139.172C115.952 139.053 116.128 138.963 116.337 138.9C116.548 138.838 116.789 138.806 117.061 138.806L118.06 138.806C118.331 138.806 118.571 138.838 118.78 138.9C118.991 138.963 119.169 139.053 119.313 139.172C119.458 139.29 119.567 139.433 119.642 139.603C119.718 139.775 119.756 139.969 119.756 140.186C119.756 140.405 119.718 140.599 119.642 140.769C119.567 140.941 119.458 141.087 119.313 141.206C119.169 141.323 118.991 141.413 118.78 141.475C118.571 141.538 118.331 141.569 118.06 141.569L117.061 141.569ZM117.169 139.351L118.443 141.012C118.584 140.997 118.708 140.968 118.815 140.927C118.925 140.888 119.016 140.835 119.088 140.766C119.162 140.7 119.218 140.618 119.255 140.52C119.292 140.424 119.311 140.313 119.311 140.186C119.311 140.057 119.29 139.943 119.249 139.843C119.21 139.746 119.152 139.663 119.076 139.594C118.98 139.512 118.856 139.451 118.704 139.41C118.554 139.371 118.379 139.351 118.18 139.351L117.465 139.351C117.416 139.351 117.367 139.351 117.318 139.351C117.27 139.351 117.22 139.351 117.169 139.351ZM116.946 141.024L117.55 141.024C117.579 141.024 117.635 141.024 117.717 141.024C117.801 141.024 117.87 141.024 117.925 141.024L116.656 139.366C116.514 139.383 116.388 139.415 116.278 139.46C116.171 139.505 116.082 139.563 116.012 139.635C115.945 139.702 115.895 139.782 115.859 139.876C115.826 139.969 115.81 140.075 115.81 140.192C115.81 140.315 115.828 140.424 115.865 140.52C115.902 140.616 115.956 140.697 116.026 140.763C116.122 140.853 116.247 140.919 116.401 140.96C116.556 141.003 116.737 141.024 116.946 141.024ZM118.599 146.347L118.3 146.362C118.411 146.426 118.498 146.51 118.561 146.614C118.623 146.719 118.655 146.846 118.657 146.995C118.657 147.079 118.647 147.154 118.628 147.22C118.61 147.289 118.584 147.348 118.549 147.399C118.521 147.436 118.488 147.469 118.449 147.499C118.41 147.53 118.366 147.556 118.317 147.578C118.362 147.605 118.404 147.637 118.443 147.674C118.482 147.712 118.517 147.752 118.546 147.795C118.579 147.849 118.605 147.91 118.625 147.976C118.645 148.045 118.655 148.119 118.657 148.199C118.657 148.308 118.641 148.407 118.607 148.495C118.576 148.583 118.529 148.657 118.467 148.717C118.396 148.784 118.305 148.835 118.191 148.87C118.08 148.905 117.948 148.922 117.796 148.922L115.429 148.922L115.429 148.407L117.802 148.407C117.868 148.407 117.927 148.399 117.978 148.383C118.028 148.368 118.07 148.345 118.104 148.316C118.135 148.285 118.158 148.246 118.174 148.199C118.189 148.154 118.197 148.101 118.197 148.041C118.197 147.976 118.188 147.921 118.171 147.874C118.153 147.827 118.13 147.788 118.101 147.756C118.069 147.725 118.033 147.701 117.992 147.683C117.953 147.666 117.909 147.654 117.86 147.648C117.851 147.648 117.841 147.648 117.831 147.648C117.823 147.648 117.813 147.648 117.802 147.648L115.429 147.648L115.429 147.132L117.805 147.132C117.871 147.132 117.93 147.125 117.98 147.109C118.031 147.095 118.073 147.073 118.106 147.042C118.138 147.012 118.16 146.975 118.174 146.93C118.189 146.887 118.197 146.837 118.197 146.778C118.197 146.714 118.189 146.657 118.174 146.608C118.16 146.561 118.14 146.521 118.112 146.488C118.091 146.463 118.066 146.44 118.039 146.421C118.012 146.403 117.982 146.388 117.951 146.377L115.429 146.377L115.429 145.861L118.599 145.861L118.599 146.347ZM116.27 151.808C116.334 151.808 116.392 151.796 116.442 151.77C116.495 151.745 116.543 151.702 116.586 151.641C116.629 151.581 116.668 151.501 116.703 151.401C116.74 151.301 116.773 151.177 116.803 151.029C116.84 150.847 116.885 150.681 116.937 150.531C116.99 150.382 117.054 150.256 117.128 150.15C117.2 150.043 117.285 149.96 117.383 149.901C117.482 149.842 117.598 149.813 117.729 149.813C117.857 149.813 117.978 149.843 118.089 149.904C118.202 149.964 118.301 150.049 118.385 150.159C118.469 150.268 118.535 150.398 118.584 150.548C118.633 150.701 118.657 150.868 118.657 151.049C118.657 151.245 118.632 151.421 118.581 151.577C118.53 151.733 118.46 151.866 118.37 151.975C118.28 152.085 118.175 152.169 118.054 152.227C117.935 152.288 117.806 152.318 117.667 152.318L117.667 151.776C117.735 151.776 117.802 151.758 117.866 151.723C117.933 151.688 117.991 151.639 118.042 151.577C118.093 151.514 118.134 151.438 118.165 151.348C118.196 151.26 118.212 151.161 118.212 151.049C118.212 150.934 118.199 150.833 118.174 150.745C118.148 150.659 118.114 150.588 118.071 150.531C118.028 150.472 117.979 150.428 117.922 150.399C117.865 150.37 117.807 150.355 117.746 150.355C117.684 150.355 117.628 150.367 117.579 150.39C117.53 150.414 117.486 150.455 117.447 150.513C117.408 150.57 117.373 150.646 117.342 150.742C117.311 150.839 117.28 150.963 117.251 151.111C117.21 151.306 117.162 151.481 117.107 151.635C117.055 151.79 116.991 151.92 116.917 152.025C116.841 152.131 116.753 152.211 116.653 152.265C116.554 152.322 116.438 152.35 116.308 152.35C116.167 152.35 116.039 152.318 115.924 152.254C115.809 152.191 115.71 152.103 115.628 151.99C115.546 151.877 115.482 151.741 115.437 151.583C115.393 151.424 115.37 151.252 115.37 151.064C115.37 150.849 115.398 150.658 115.455 150.49C115.514 150.322 115.591 150.18 115.687 150.065C115.78 149.948 115.89 149.858 116.015 149.796C116.14 149.735 116.27 149.705 116.404 149.705L116.404 150.247C116.293 150.255 116.199 150.284 116.123 150.335C116.047 150.387 115.985 150.453 115.938 150.531C115.892 150.607 115.858 150.692 115.839 150.786C115.819 150.88 115.81 150.972 115.81 151.064C115.81 151.209 115.826 151.335 115.859 151.442C115.895 151.549 115.942 151.633 116.003 151.694C116.04 151.731 116.081 151.759 116.126 151.779C116.171 151.798 116.219 151.808 116.27 151.808Z"
        fill="#303136" />
    <path d="M74.1665 111.355L74.1665 134.119" stroke="#A5A8AB" stroke-width="2" stroke-linecap="round"
        stroke-linejoin="round" />
    <path d="M78.7381 129.994L74.1666 134.119L69.5952 129.994" stroke="#A5A8AB" stroke-width="2" stroke-linecap="round"
        stroke-linejoin="round" />
</svg>