<svg width="287" height="124" viewBox="0 0 287 124" fill="none" xmlns="http://www.w3.org/2000/svg">
<g clip-path="url(#clip0_42_1035)">
<path d="M271.571 49.9707L271.571 32.5232" stroke="#7F7F82" stroke-width="2" stroke-linecap="round" stroke-linejoin="round"/>
<path d="M267 37.0946L271.571 32.5232L276.143 37.0946" stroke="#7F7F82" stroke-width="2" stroke-linecap="round" stroke-linejoin="round"/>
<path d="M271.569 49.9705L82 49.9704" stroke="#7F7F82" stroke-width="2" stroke-linecap="round" stroke-linejoin="round"/>
<path d="M117.922 118.706C117.896 118.979 117.831 119.229 117.727 119.456C117.622 119.68 117.484 119.872 117.312 120.034C117.141 120.193 116.938 120.316 116.703 120.405C116.471 120.491 116.212 120.534 115.926 120.534C115.579 120.534 115.277 120.467 115.02 120.335C114.762 120.199 114.547 120.017 114.375 119.788C114.203 119.559 114.074 119.29 113.988 118.983C113.902 118.676 113.858 118.348 113.855 117.999V117.221C113.858 116.875 113.904 116.548 113.992 116.241C114.081 115.931 114.211 115.661 114.383 115.432C114.557 115.2 114.773 115.018 115.031 114.885C115.289 114.75 115.589 114.682 115.93 114.682C116.229 114.682 116.496 114.727 116.73 114.815C116.965 114.904 117.165 115.029 117.332 115.19C117.499 115.352 117.632 115.548 117.73 115.78C117.829 116.012 117.893 116.269 117.922 116.553H116.984C116.969 116.387 116.936 116.236 116.887 116.1C116.84 115.962 116.775 115.845 116.691 115.749C116.608 115.65 116.503 115.574 116.375 115.522C116.25 115.47 116.102 115.444 115.93 115.444C115.719 115.444 115.542 115.492 115.398 115.588C115.255 115.685 115.139 115.815 115.051 115.979C114.962 116.141 114.898 116.328 114.859 116.542C114.823 116.755 114.805 116.979 114.805 117.213V117.999C114.805 118.243 114.823 118.474 114.859 118.69C114.898 118.904 114.961 119.091 115.047 119.253C115.133 119.414 115.247 119.542 115.391 119.635C115.534 119.729 115.712 119.776 115.926 119.776C116.254 119.776 116.504 119.684 116.676 119.499C116.848 119.311 116.949 119.047 116.98 118.706H117.922ZM121.605 120.452C121.579 120.4 121.557 120.338 121.539 120.268C121.523 120.198 121.509 120.122 121.496 120.042C121.431 120.109 121.357 120.173 121.273 120.233C121.193 120.29 121.102 120.341 121 120.385C120.901 120.43 120.793 120.465 120.676 120.491C120.561 120.517 120.438 120.53 120.305 120.53C120.081 120.53 119.878 120.499 119.695 120.436C119.516 120.371 119.361 120.282 119.23 120.171C119.103 120.056 119.004 119.922 118.934 119.768C118.863 119.615 118.828 119.448 118.828 119.268C118.828 118.815 118.996 118.469 119.332 118.229C119.671 117.99 120.155 117.87 120.785 117.87H121.469V117.592C121.469 117.368 121.393 117.191 121.242 117.061C121.091 116.928 120.878 116.862 120.602 116.862C120.477 116.862 120.367 116.878 120.273 116.909C120.18 116.937 120.102 116.978 120.039 117.03C119.977 117.082 119.93 117.143 119.898 117.213C119.867 117.284 119.852 117.359 119.852 117.44H118.918C118.918 117.276 118.956 117.117 119.031 116.963C119.109 116.807 119.223 116.669 119.371 116.549C119.52 116.427 119.701 116.329 119.914 116.256C120.13 116.184 120.376 116.147 120.652 116.147C120.902 116.147 121.134 116.178 121.348 116.241C121.561 116.301 121.746 116.392 121.902 116.514C122.059 116.634 122.181 116.785 122.27 116.967C122.358 117.147 122.402 117.358 122.402 117.6V119.483C122.402 119.668 122.415 119.837 122.441 119.991C122.47 120.142 122.51 120.273 122.562 120.385V120.452H121.605ZM120.48 119.776C120.6 119.776 120.712 119.762 120.816 119.733C120.923 119.702 121.018 119.663 121.102 119.616C121.188 119.566 121.26 119.51 121.32 119.448C121.383 119.385 121.432 119.322 121.469 119.256V118.463H120.875C120.495 118.463 120.214 118.525 120.031 118.647C119.852 118.769 119.762 118.944 119.762 119.171C119.762 119.256 119.776 119.337 119.805 119.413C119.833 119.486 119.876 119.549 119.934 119.604C119.993 119.656 120.068 119.698 120.156 119.729C120.247 119.76 120.355 119.776 120.48 119.776ZM123.887 114.452H126.172V119.678H127.461V120.452H123.887V119.678H125.23V115.229H123.887V114.452ZM128.691 114.452H130.977V119.678H132.266V120.452H128.691V119.678H130.035V115.229H128.691V114.452ZM142.133 115.538H140.387V120.452H139.453V115.538H137.719V114.764H142.133V115.538ZM145.836 116.147C145.911 116.147 145.987 116.15 146.062 116.155C146.138 116.16 146.21 116.168 146.277 116.178C146.348 116.189 146.411 116.2 146.469 116.213C146.526 116.224 146.574 116.237 146.613 116.253L146.48 117.171C146.194 117.105 145.911 117.073 145.633 117.073C145.32 117.073 145.068 117.138 144.875 117.268C144.685 117.398 144.544 117.579 144.453 117.811V120.452H143.52V116.225H144.395L144.438 116.885C144.609 116.656 144.812 116.477 145.047 116.346C145.284 116.213 145.547 116.147 145.836 116.147ZM150.434 120.452C150.408 120.4 150.385 120.338 150.367 120.268C150.352 120.198 150.337 120.122 150.324 120.042C150.259 120.109 150.185 120.173 150.102 120.233C150.021 120.29 149.93 120.341 149.828 120.385C149.729 120.43 149.621 120.465 149.504 120.491C149.389 120.517 149.266 120.53 149.133 120.53C148.909 120.53 148.706 120.499 148.523 120.436C148.344 120.371 148.189 120.282 148.059 120.171C147.931 120.056 147.832 119.922 147.762 119.768C147.691 119.615 147.656 119.448 147.656 119.268C147.656 118.815 147.824 118.469 148.16 118.229C148.499 117.99 148.983 117.87 149.613 117.87H150.297V117.592C150.297 117.368 150.221 117.191 150.07 117.061C149.919 116.928 149.706 116.862 149.43 116.862C149.305 116.862 149.195 116.878 149.102 116.909C149.008 116.937 148.93 116.978 148.867 117.03C148.805 117.082 148.758 117.143 148.727 117.213C148.695 117.284 148.68 117.359 148.68 117.44H147.746C147.746 117.276 147.784 117.117 147.859 116.963C147.938 116.807 148.051 116.669 148.199 116.549C148.348 116.427 148.529 116.329 148.742 116.256C148.958 116.184 149.204 116.147 149.48 116.147C149.73 116.147 149.962 116.178 150.176 116.241C150.389 116.301 150.574 116.392 150.73 116.514C150.887 116.634 151.009 116.785 151.098 116.967C151.186 117.147 151.23 117.358 151.23 117.6V119.483C151.23 119.668 151.243 119.837 151.27 119.991C151.298 120.142 151.339 120.273 151.391 120.385V120.452H150.434ZM149.309 119.776C149.428 119.776 149.54 119.762 149.645 119.733C149.751 119.702 149.846 119.663 149.93 119.616C150.016 119.566 150.089 119.51 150.148 119.448C150.211 119.385 150.26 119.322 150.297 119.256V118.463H149.703C149.323 118.463 149.042 118.525 148.859 118.647C148.68 118.769 148.59 118.944 148.59 119.171C148.59 119.256 148.604 119.337 148.633 119.413C148.661 119.486 148.704 119.549 148.762 119.604C148.822 119.656 148.896 119.698 148.984 119.729C149.076 119.76 149.184 119.776 149.309 119.776ZM153.387 116.225L153.445 116.811C153.599 116.6 153.784 116.437 154 116.323C154.219 116.206 154.461 116.147 154.727 116.147C154.943 116.147 155.139 116.178 155.316 116.241C155.496 116.303 155.65 116.401 155.777 116.534C155.908 116.667 156.008 116.838 156.078 117.049C156.151 117.26 156.188 117.514 156.188 117.811V120.452H155.254V117.827C155.254 117.652 155.233 117.506 155.191 117.389C155.152 117.272 155.095 117.178 155.02 117.108C154.947 117.038 154.857 116.988 154.75 116.96C154.643 116.928 154.522 116.913 154.387 116.913C154.181 116.913 154.001 116.958 153.848 117.049C153.697 117.141 153.574 117.264 153.48 117.421V120.452H152.543V116.225H153.387ZM160.102 119.307C160.102 119.237 160.087 119.173 160.059 119.116C160.03 119.056 159.978 119.003 159.902 118.956C159.829 118.906 159.728 118.861 159.598 118.819C159.47 118.777 159.306 118.737 159.105 118.698C158.855 118.646 158.629 118.583 158.426 118.51C158.225 118.437 158.052 118.35 157.906 118.249C157.763 118.147 157.652 118.03 157.574 117.897C157.496 117.762 157.457 117.605 157.457 117.428C157.457 117.256 157.497 117.094 157.578 116.94C157.659 116.784 157.773 116.647 157.922 116.53C158.073 116.413 158.255 116.32 158.469 116.253C158.685 116.182 158.926 116.147 159.191 116.147C159.473 116.147 159.724 116.182 159.945 116.253C160.169 116.323 160.358 116.419 160.512 116.542C160.665 116.661 160.783 116.803 160.863 116.967C160.947 117.131 160.988 117.307 160.988 117.495H160.055C160.055 117.411 160.036 117.332 160 117.256C159.964 117.178 159.909 117.109 159.836 117.049C159.763 116.99 159.672 116.943 159.562 116.909C159.456 116.872 159.332 116.854 159.191 116.854C159.051 116.854 158.928 116.87 158.824 116.901C158.723 116.93 158.638 116.969 158.57 117.018C158.503 117.065 158.452 117.121 158.418 117.186C158.387 117.251 158.371 117.319 158.371 117.389C158.371 117.46 158.383 117.523 158.406 117.581C158.432 117.638 158.479 117.69 158.547 117.737C158.615 117.784 158.708 117.827 158.828 117.866C158.948 117.902 159.103 117.937 159.293 117.971C159.559 118.018 159.797 118.077 160.008 118.147C160.221 118.217 160.402 118.303 160.551 118.405C160.702 118.506 160.818 118.628 160.898 118.768C160.979 118.906 161.02 119.069 161.02 119.256C161.02 119.444 160.977 119.616 160.891 119.772C160.805 119.928 160.682 120.064 160.523 120.178C160.365 120.29 160.173 120.378 159.949 120.44C159.728 120.503 159.479 120.534 159.203 120.534C158.896 120.534 158.625 120.493 158.391 120.413C158.156 120.329 157.96 120.221 157.801 120.088C157.642 119.956 157.521 119.805 157.438 119.635C157.357 119.466 157.316 119.294 157.316 119.12H158.223C158.23 119.25 158.264 119.361 158.324 119.452C158.384 119.543 158.461 119.617 158.555 119.674C158.648 119.729 158.753 119.769 158.867 119.796C158.982 119.819 159.098 119.831 159.215 119.831C159.504 119.831 159.724 119.782 159.875 119.686C160.026 119.587 160.102 119.461 160.102 119.307ZM163.215 120.452V116.921H162.078V116.225H163.215V115.963C163.215 115.69 163.255 115.449 163.336 115.241C163.419 115.03 163.538 114.854 163.691 114.713C163.848 114.57 164.035 114.462 164.254 114.389C164.473 114.314 164.719 114.276 164.992 114.276C165.172 114.276 165.342 114.29 165.504 114.319C165.668 114.345 165.839 114.376 166.016 114.413L165.934 115.155C165.832 115.126 165.714 115.102 165.578 115.081C165.443 115.057 165.29 115.046 165.121 115.046C164.785 115.046 164.539 115.125 164.383 115.284C164.229 115.443 164.152 115.669 164.152 115.963V116.225H165.723V116.921H164.152V120.452H163.215ZM168.926 120.53C168.613 120.53 168.328 120.478 168.07 120.374C167.812 120.269 167.591 120.126 167.406 119.944C167.224 119.762 167.082 119.547 166.98 119.299C166.879 119.049 166.828 118.78 166.828 118.491V118.331C166.828 117.995 166.882 117.693 166.988 117.424C167.098 117.156 167.242 116.927 167.422 116.737C167.604 116.547 167.815 116.401 168.055 116.299C168.297 116.198 168.551 116.147 168.816 116.147C169.124 116.147 169.395 116.199 169.629 116.303C169.863 116.405 170.059 116.549 170.215 116.737C170.374 116.922 170.493 117.142 170.574 117.397C170.655 117.652 170.695 117.932 170.695 118.237V118.631H167.766C167.781 118.796 167.822 118.948 167.887 119.088C167.952 119.229 168.036 119.352 168.141 119.456C168.247 119.557 168.371 119.638 168.512 119.698C168.655 119.755 168.811 119.784 168.98 119.784C169.217 119.784 169.435 119.737 169.633 119.643C169.833 119.549 169.996 119.421 170.121 119.256L170.629 119.733C170.561 119.835 170.474 119.934 170.367 120.03C170.26 120.124 170.135 120.208 169.992 120.284C169.849 120.357 169.688 120.415 169.508 120.46C169.331 120.506 169.137 120.53 168.926 120.53ZM168.812 116.901C168.682 116.901 168.561 116.924 168.449 116.971C168.337 117.018 168.237 117.087 168.148 117.178C168.06 117.267 167.984 117.376 167.922 117.506C167.862 117.634 167.819 117.78 167.793 117.944H169.773V117.874C169.766 117.749 169.741 117.629 169.699 117.514C169.66 117.397 169.602 117.293 169.523 117.202C169.445 117.111 169.346 117.038 169.227 116.983C169.109 116.928 168.971 116.901 168.812 116.901ZM174.664 116.147C174.74 116.147 174.815 116.15 174.891 116.155C174.966 116.16 175.038 116.168 175.105 116.178C175.176 116.189 175.24 116.2 175.297 116.213C175.354 116.224 175.402 116.237 175.441 116.253L175.309 117.171C175.022 117.105 174.74 117.073 174.461 117.073C174.148 117.073 173.896 117.138 173.703 117.268C173.513 117.398 173.372 117.579 173.281 117.811V120.452H172.348V116.225H173.223L173.266 116.885C173.438 116.656 173.641 116.477 173.875 116.346C174.112 116.213 174.375 116.147 174.664 116.147Z" fill="#7F7F82"/>
<path d="M9.63525 79.4744C9.63525 79.0912 9.48305 78.7238 9.21213 78.4529C8.94121 78.1819 8.57377 78.0297 8.19063 78.0297H3.49655C3.30683 78.0297 3.11898 78.0671 2.94371 78.1397C2.76844 78.2123 2.60919 78.3187 2.47504 78.4529C2.3409 78.587 2.23448 78.7463 2.16189 78.9215C2.08929 79.0968 2.05192 79.2847 2.05192 79.4744V84.1684C2.05192 84.3582 2.08929 84.546 2.16189 84.7213C2.23448 84.8966 2.3409 85.0558 2.47504 85.19C2.60919 85.3241 2.76844 85.4305 2.94371 85.5031C3.11898 85.5757 3.30683 85.6131 3.49655 85.6131H8.19063C8.38034 85.6131 8.56819 85.5757 8.74346 85.5031C8.91873 85.4305 9.07799 85.3241 9.21213 85.19C9.34628 85.0558 9.45269 84.8966 9.52529 84.7213C9.59789 84.546 9.63525 84.3582 9.63525 84.1684V79.4744Z" stroke="#7F7F82" stroke-linecap="round" stroke-linejoin="round"/>
<path d="M11.5871 82.9706C11.7532 82.8759 11.8914 82.739 11.9876 82.5738C12.0839 82.4086 12.1348 82.2209 12.1353 82.0297V76.6131C12.1353 76.0172 11.6478 75.5297 11.0519 75.5297H5.63525C5.229 75.5297 5.008 75.7383 4.82275 76.0714" stroke="#7F7F82" stroke-linecap="round" stroke-linejoin="round"/>
<path d="M14.0871 80.4706C14.2532 80.3759 14.3914 80.239 14.4876 80.0738C14.5839 79.9086 14.6348 79.7209 14.6353 79.5297V74.1131C14.6353 73.5172 14.1478 73.0297 13.5519 73.0297H8.13525C7.729 73.0297 7.508 73.2383 7.32275 73.5714" stroke="#7F7F82" stroke-linecap="round" stroke-linejoin="round"/>
<path d="M16.3996 78.0297C16.5657 77.935 16.7039 77.7982 16.8001 77.633C16.8964 77.4678 16.9473 77.2801 16.9478 77.0889V71.6722C16.9478 71.0764 16.4603 70.5889 15.8644 70.5889H10.4478C10.0415 70.5889 9.8205 70.7974 9.63525 71.1305" stroke="#7F7F82" stroke-linecap="round" stroke-linejoin="round"/>
<path d="M26.5518 78.4583L55.6708 78.4583" stroke="#7F7F82" stroke-width="2" stroke-linecap="round" stroke-linejoin="round"/>
<path d="M51.5459 73.8869L55.6711 78.4583L51.5459 83.0297" stroke="#7F7F82" stroke-width="2" stroke-linecap="round" stroke-linejoin="round"/>
<rect x="65.5" y="61.601" width="98" height="33" rx="4" stroke="#7F7F82" stroke-width="2" stroke-linecap="round" stroke-linejoin="round"/>
<path d="M77.9444 70.101H73.5M73.5 70.101V74.5454M73.5 70.101L80.1987 76.7996C81.0317 77.6329 81.4997 78.7628 81.5 79.941V86.101M85.0556 70.101H89.5V74.5454M86.8333 72.7765V72.7676M85.0556 74.5632V74.5543M83.2778 76.3232V76.3321" stroke="#7F7F82" stroke-width="2" stroke-linecap="round" stroke-linejoin="round"/>
<path d="M101.922 73.8549C101.896 74.1283 101.831 74.3783 101.727 74.6049C101.622 74.8288 101.484 75.0215 101.312 75.183C101.141 75.3419 100.938 75.4656 100.703 75.5541C100.471 75.64 100.212 75.683 99.9258 75.683C99.5794 75.683 99.2773 75.6166 99.0195 75.4838C98.7617 75.3484 98.5469 75.1661 98.375 74.9369C98.2031 74.7077 98.0742 74.4395 97.9883 74.1322C97.9023 73.8249 97.8581 73.4968 97.8555 73.1478V72.3705C97.8581 72.0241 97.9036 71.6973 97.9922 71.39C98.0807 71.0801 98.2109 70.8106 98.3828 70.5814C98.5573 70.3497 98.7734 70.1674 99.0312 70.0346C99.2891 69.8991 99.5885 69.8314 99.9297 69.8314C100.229 69.8314 100.496 69.8757 100.73 69.9642C100.965 70.0528 101.165 70.1778 101.332 70.3392C101.499 70.5007 101.632 70.6973 101.73 70.9291C101.829 71.1609 101.893 71.4187 101.922 71.7025H100.984C100.969 71.5359 100.936 71.3848 100.887 71.2494C100.84 71.1114 100.775 70.9942 100.691 70.8978C100.608 70.7989 100.503 70.7234 100.375 70.6713C100.25 70.6192 100.102 70.5932 99.9297 70.5932C99.7188 70.5932 99.5417 70.6413 99.3984 70.7377C99.2552 70.834 99.1393 70.9642 99.0508 71.1283C98.9622 71.2898 98.8984 71.4773 98.8594 71.6908C98.8229 71.9044 98.8047 72.1283 98.8047 72.3627V73.1478C98.8047 73.3926 98.8229 73.6231 98.8594 73.8392C98.8984 74.0528 98.9609 74.2403 99.0469 74.4017C99.1328 74.5632 99.2474 74.6908 99.3906 74.7846C99.5339 74.8783 99.7122 74.9252 99.9258 74.9252C100.254 74.9252 100.504 74.8327 100.676 74.6478C100.848 74.4603 100.949 74.196 100.98 73.8549H101.922ZM102.738 73.4486C102.738 73.1439 102.783 72.8601 102.871 72.5971C102.962 72.334 103.091 72.1062 103.258 71.9135C103.427 71.7208 103.633 71.5697 103.875 71.4603C104.117 71.351 104.392 71.2963 104.699 71.2963C105.009 71.2963 105.285 71.351 105.527 71.4603C105.772 71.5697 105.978 71.7208 106.145 71.9135C106.314 72.1062 106.443 72.334 106.531 72.5971C106.62 72.8601 106.664 73.1439 106.664 73.4486V73.5307C106.664 73.8379 106.62 74.1231 106.531 74.3861C106.443 74.6491 106.314 74.877 106.145 75.0697C105.978 75.2598 105.773 75.4096 105.531 75.5189C105.289 75.6283 105.014 75.683 104.707 75.683C104.397 75.683 104.12 75.6283 103.875 75.5189C103.633 75.4096 103.427 75.2598 103.258 75.0697C103.091 74.877 102.962 74.6491 102.871 74.3861C102.783 74.1231 102.738 73.8379 102.738 73.5307V73.4486ZM103.672 73.5307C103.672 73.7234 103.691 73.9044 103.73 74.0736C103.772 74.2429 103.835 74.3926 103.918 74.5228C104.004 74.6504 104.112 74.752 104.242 74.8275C104.372 74.9004 104.527 74.9369 104.707 74.9369C104.882 74.9369 105.033 74.9004 105.16 74.8275C105.29 74.752 105.397 74.6504 105.48 74.5228C105.566 74.3926 105.629 74.2429 105.668 74.0736C105.71 73.9044 105.73 73.7234 105.73 73.5307V73.4486C105.73 73.2611 105.71 73.0827 105.668 72.9135C105.629 72.7442 105.566 72.5958 105.48 72.4682C105.397 72.3406 105.29 72.239 105.16 72.1635C105.033 72.0879 104.879 72.0502 104.699 72.0502C104.522 72.0502 104.368 72.0879 104.238 72.1635C104.108 72.239 104.001 72.3406 103.918 72.4682C103.835 72.5958 103.772 72.7442 103.73 72.9135C103.691 73.0827 103.672 73.2611 103.672 73.4486V73.5307ZM108.559 71.3744L108.617 71.9603C108.771 71.7494 108.956 71.5866 109.172 71.4721C109.391 71.3549 109.633 71.2963 109.898 71.2963C110.115 71.2963 110.311 71.3275 110.488 71.39C110.668 71.4525 110.822 71.5502 110.949 71.683C111.079 71.8158 111.18 71.9877 111.25 72.1986C111.323 72.4096 111.359 72.6635 111.359 72.9603V75.601H110.426V72.976C110.426 72.8015 110.405 72.6557 110.363 72.5385C110.324 72.4213 110.267 72.3275 110.191 72.2572C110.118 72.1869 110.029 72.1374 109.922 72.1088C109.815 72.0775 109.694 72.0619 109.559 72.0619C109.353 72.0619 109.173 72.1075 109.02 72.1986C108.868 72.2898 108.746 72.4135 108.652 72.5697V75.601H107.715V71.3744H108.559ZM114.25 74.4213L114.316 74.7338L114.387 74.4252L115.41 71.3744H116.375L114.719 75.601H113.914L112.242 71.3744H113.207L114.25 74.4213ZM119.293 75.6791C118.98 75.6791 118.695 75.627 118.438 75.5228C118.18 75.4187 117.958 75.2754 117.773 75.0932C117.591 74.9109 117.449 74.696 117.348 74.4486C117.246 74.1986 117.195 73.9291 117.195 73.64V73.4799C117.195 73.1439 117.249 72.8419 117.355 72.5736C117.465 72.3054 117.609 72.0762 117.789 71.8861C117.971 71.696 118.182 71.5502 118.422 71.4486C118.664 71.3471 118.918 71.2963 119.184 71.2963C119.491 71.2963 119.762 71.3484 119.996 71.4525C120.23 71.5541 120.426 71.6986 120.582 71.8861C120.741 72.071 120.861 72.2911 120.941 72.5463C121.022 72.8015 121.062 73.0814 121.062 73.3861V73.7807H118.133C118.148 73.9447 118.189 74.0971 118.254 74.2377C118.319 74.3783 118.404 74.5007 118.508 74.6049C118.615 74.7064 118.738 74.7872 118.879 74.8471C119.022 74.9044 119.178 74.933 119.348 74.933C119.585 74.933 119.802 74.8861 120 74.7924C120.201 74.6986 120.363 74.5697 120.488 74.4057L120.996 74.8822C120.928 74.9838 120.841 75.0827 120.734 75.1791C120.628 75.2728 120.503 75.3575 120.359 75.433C120.216 75.5059 120.055 75.5645 119.875 75.6088C119.698 75.6557 119.504 75.6791 119.293 75.6791ZM119.18 72.0502C119.049 72.0502 118.928 72.0736 118.816 72.1205C118.704 72.1674 118.604 72.2364 118.516 72.3275C118.427 72.4161 118.352 72.5254 118.289 72.6557C118.229 72.7833 118.186 72.9291 118.16 73.0932H120.141V73.0228C120.133 72.8978 120.108 72.7781 120.066 72.6635C120.027 72.5463 119.969 72.4421 119.891 72.351C119.812 72.2598 119.714 72.1869 119.594 72.1322C119.477 72.0775 119.339 72.0502 119.18 72.0502ZM125.031 71.2963C125.107 71.2963 125.182 71.2989 125.258 71.3041C125.333 71.3093 125.405 71.3171 125.473 71.3275C125.543 71.3379 125.607 71.3497 125.664 71.3627C125.721 71.3731 125.77 71.3861 125.809 71.4017L125.676 72.3197C125.389 72.2546 125.107 72.2221 124.828 72.2221C124.516 72.2221 124.263 72.2872 124.07 72.4174C123.88 72.5476 123.74 72.7286 123.648 72.9603V75.601H122.715V71.3744H123.59L123.633 72.0346C123.805 71.8054 124.008 71.6257 124.242 71.4955C124.479 71.3627 124.742 71.2963 125.031 71.2963ZM129.688 74.4564C129.688 74.3861 129.673 74.3223 129.645 74.265C129.616 74.2051 129.564 74.1517 129.488 74.1049C129.415 74.0554 129.314 74.0098 129.184 73.9682C129.056 73.9265 128.892 73.8861 128.691 73.8471C128.441 73.795 128.215 73.7325 128.012 73.6596C127.811 73.5866 127.638 73.4994 127.492 73.3978C127.349 73.2963 127.238 73.1791 127.16 73.0463C127.082 72.9109 127.043 72.7546 127.043 72.5775C127.043 72.4057 127.083 72.2429 127.164 72.0892C127.245 71.933 127.359 71.7963 127.508 71.6791C127.659 71.5619 127.841 71.4695 128.055 71.4017C128.271 71.3314 128.512 71.2963 128.777 71.2963C129.059 71.2963 129.31 71.3314 129.531 71.4017C129.755 71.4721 129.944 71.5684 130.098 71.6908C130.251 71.8106 130.368 71.9525 130.449 72.1166C130.533 72.2807 130.574 72.4564 130.574 72.6439H129.641C129.641 72.5606 129.622 72.4812 129.586 72.4057C129.549 72.3275 129.495 72.2585 129.422 72.1986C129.349 72.1387 129.258 72.0919 129.148 72.058C129.042 72.0215 128.918 72.0033 128.777 72.0033C128.637 72.0033 128.514 72.0189 128.41 72.0502C128.309 72.0788 128.224 72.1179 128.156 72.1674C128.089 72.2142 128.038 72.2702 128.004 72.3353C127.973 72.4004 127.957 72.4682 127.957 72.5385C127.957 72.6088 127.969 72.6726 127.992 72.7299C128.018 72.7872 128.065 72.8392 128.133 72.8861C128.201 72.933 128.294 72.976 128.414 73.015C128.534 73.0515 128.689 73.0866 128.879 73.1205C129.145 73.1674 129.383 73.226 129.594 73.2963C129.807 73.3666 129.988 73.4525 130.137 73.5541C130.288 73.6557 130.404 73.7767 130.484 73.9174C130.565 74.0554 130.605 74.2182 130.605 74.4057C130.605 74.5932 130.562 74.765 130.477 74.9213C130.391 75.0775 130.268 75.2129 130.109 75.3275C129.951 75.4395 129.759 75.5267 129.535 75.5892C129.314 75.6517 129.065 75.683 128.789 75.683C128.482 75.683 128.211 75.6426 127.977 75.5619C127.742 75.4786 127.546 75.3705 127.387 75.2377C127.228 75.1049 127.107 74.9538 127.023 74.7846C126.943 74.6153 126.902 74.4434 126.902 74.2689H127.809C127.816 74.3991 127.85 74.5098 127.91 74.601C127.97 74.6921 128.047 74.7663 128.141 74.8236C128.234 74.8783 128.339 74.9187 128.453 74.9447C128.568 74.9682 128.684 74.9799 128.801 74.9799C129.09 74.9799 129.31 74.9317 129.461 74.8353C129.612 74.7364 129.688 74.6101 129.688 74.4564ZM134.434 75.601C134.408 75.5489 134.385 75.4877 134.367 75.4174C134.352 75.3471 134.337 75.2715 134.324 75.1908C134.259 75.2585 134.185 75.3223 134.102 75.3822C134.021 75.4395 133.93 75.4903 133.828 75.5346C133.729 75.5788 133.621 75.614 133.504 75.64C133.389 75.6661 133.266 75.6791 133.133 75.6791C132.909 75.6791 132.706 75.6478 132.523 75.5853C132.344 75.5202 132.189 75.4317 132.059 75.3197C131.931 75.2051 131.832 75.071 131.762 74.9174C131.691 74.7637 131.656 74.5971 131.656 74.4174C131.656 73.9642 131.824 73.6179 132.16 73.3783C132.499 73.1387 132.983 73.0189 133.613 73.0189H134.297V72.7416C134.297 72.5176 134.221 72.3406 134.07 72.2103C133.919 72.0775 133.706 72.0111 133.43 72.0111C133.305 72.0111 133.195 72.0267 133.102 72.058C133.008 72.0866 132.93 72.127 132.867 72.1791C132.805 72.2312 132.758 72.2924 132.727 72.3627C132.695 72.433 132.68 72.5085 132.68 72.5892H131.746C131.746 72.4252 131.784 72.2663 131.859 72.1127C131.938 71.9564 132.051 71.8184 132.199 71.6986C132.348 71.5762 132.529 71.4786 132.742 71.4057C132.958 71.3327 133.204 71.2963 133.48 71.2963C133.73 71.2963 133.962 71.3275 134.176 71.39C134.389 71.4499 134.574 71.5411 134.73 71.6635C134.887 71.7833 135.009 71.9343 135.098 72.1166C135.186 72.2963 135.23 72.5072 135.23 72.7494V74.6322C135.23 74.8171 135.243 74.9864 135.27 75.14C135.298 75.2911 135.339 75.4226 135.391 75.5346V75.601H134.434ZM133.309 74.9252C133.428 74.9252 133.54 74.9109 133.645 74.8822C133.751 74.851 133.846 74.8119 133.93 74.765C134.016 74.7156 134.089 74.6596 134.148 74.5971C134.211 74.5346 134.26 74.4708 134.297 74.4057V73.6127H133.703C133.323 73.6127 133.042 73.6739 132.859 73.7963C132.68 73.9187 132.59 74.0932 132.59 74.3197C132.59 74.4057 132.604 74.4864 132.633 74.5619C132.661 74.6348 132.704 74.6986 132.762 74.7533C132.822 74.8054 132.896 74.8471 132.984 74.8783C133.076 74.9096 133.184 74.9252 133.309 74.9252ZM138.414 70.351V71.3744H140.012V72.0697H138.414V74.0971C138.414 74.2559 138.432 74.3874 138.469 74.4916C138.508 74.5958 138.561 74.6791 138.629 74.7416C138.697 74.8041 138.776 74.8484 138.867 74.8744C138.958 74.8978 139.059 74.9096 139.168 74.9096C139.249 74.9096 139.332 74.9057 139.418 74.8978C139.507 74.8874 139.591 74.877 139.672 74.8666C139.755 74.8536 139.831 74.8406 139.898 74.8275C139.969 74.8119 140.027 74.7976 140.074 74.7846L140.18 75.4291C140.112 75.4682 140.03 75.5046 139.934 75.5385C139.84 75.5697 139.737 75.5958 139.625 75.6166C139.513 75.6374 139.396 75.6531 139.273 75.6635C139.154 75.6765 139.035 75.683 138.918 75.683C138.707 75.683 138.513 75.6544 138.336 75.5971C138.161 75.5372 138.01 75.446 137.883 75.3236C137.758 75.1986 137.659 75.0398 137.586 74.8471C137.516 74.6517 137.48 74.4187 137.48 74.1478V72.0697H136.449V71.3744H137.48V70.351H138.414ZM141.551 71.3744H143.805V74.8275H145.059V75.601H141.551V74.8275H142.863V72.1517H141.551V71.3744ZM142.785 70.2807C142.785 70.1348 142.832 70.015 142.926 69.9213C143.02 69.8249 143.151 69.7767 143.32 69.7767C143.492 69.7767 143.625 69.8249 143.719 69.9213C143.815 70.015 143.863 70.1348 143.863 70.2807C143.863 70.4265 143.815 70.5476 143.719 70.6439C143.625 70.7377 143.492 70.7846 143.32 70.7846C143.151 70.7846 143.02 70.7377 142.926 70.6439C142.832 70.5476 142.785 70.4265 142.785 70.2807ZM145.98 73.4486C145.98 73.1439 146.025 72.8601 146.113 72.5971C146.204 72.334 146.333 72.1062 146.5 71.9135C146.669 71.7208 146.875 71.5697 147.117 71.4603C147.359 71.351 147.634 71.2963 147.941 71.2963C148.251 71.2963 148.527 71.351 148.77 71.4603C149.014 71.5697 149.22 71.7208 149.387 71.9135C149.556 72.1062 149.685 72.334 149.773 72.5971C149.862 72.8601 149.906 73.1439 149.906 73.4486V73.5307C149.906 73.8379 149.862 74.1231 149.773 74.3861C149.685 74.6491 149.556 74.877 149.387 75.0697C149.22 75.2598 149.016 75.4096 148.773 75.5189C148.531 75.6283 148.257 75.683 147.949 75.683C147.639 75.683 147.362 75.6283 147.117 75.5189C146.875 75.4096 146.669 75.2598 146.5 75.0697C146.333 74.877 146.204 74.6491 146.113 74.3861C146.025 74.1231 145.98 73.8379 145.98 73.5307V73.4486ZM146.914 73.5307C146.914 73.7234 146.934 73.9044 146.973 74.0736C147.014 74.2429 147.077 74.3926 147.16 74.5228C147.246 74.6504 147.354 74.752 147.484 74.8275C147.615 74.9004 147.77 74.9369 147.949 74.9369C148.124 74.9369 148.275 74.9004 148.402 74.8275C148.533 74.752 148.639 74.6504 148.723 74.5228C148.809 74.3926 148.871 74.2429 148.91 74.0736C148.952 73.9044 148.973 73.7234 148.973 73.5307V73.4486C148.973 73.2611 148.952 73.0827 148.91 72.9135C148.871 72.7442 148.809 72.5958 148.723 72.4682C148.639 72.3406 148.533 72.239 148.402 72.1635C148.275 72.0879 148.121 72.0502 147.941 72.0502C147.764 72.0502 147.611 72.0879 147.48 72.1635C147.35 72.239 147.243 72.3406 147.16 72.4682C147.077 72.5958 147.014 72.7442 146.973 72.9135C146.934 73.0827 146.914 73.2611 146.914 73.4486V73.5307ZM151.801 71.3744L151.859 71.9603C152.013 71.7494 152.198 71.5866 152.414 71.4721C152.633 71.3549 152.875 71.2963 153.141 71.2963C153.357 71.2963 153.553 71.3275 153.73 71.39C153.91 71.4525 154.064 71.5502 154.191 71.683C154.322 71.8158 154.422 71.9877 154.492 72.1986C154.565 72.4096 154.602 72.6635 154.602 72.9603V75.601H153.668V72.976C153.668 72.8015 153.647 72.6557 153.605 72.5385C153.566 72.4213 153.509 72.3275 153.434 72.2572C153.361 72.1869 153.271 72.1374 153.164 72.1088C153.057 72.0775 152.936 72.0619 152.801 72.0619C152.595 72.0619 152.415 72.1075 152.262 72.1986C152.111 72.2898 151.988 72.4135 151.895 72.5697V75.601H150.957V71.3744H151.801ZM99.9883 84.3822H99.0352V86.601H98.0977V80.9135H99.8945C100.186 80.9161 100.454 80.9538 100.699 81.0267C100.947 81.0971 101.16 81.2038 101.34 81.3471C101.52 81.4877 101.659 81.6648 101.758 81.8783C101.857 82.0919 101.906 82.3419 101.906 82.6283C101.906 82.821 101.88 82.9968 101.828 83.1557C101.779 83.3119 101.708 83.4538 101.617 83.5814C101.526 83.709 101.417 83.821 101.289 83.9174C101.161 84.0137 101.021 84.0958 100.867 84.1635L102.07 86.5541V86.601H101.07L99.9883 84.3822ZM99.0352 83.6244H99.8984C100.055 83.6244 100.198 83.6023 100.328 83.558C100.458 83.5137 100.57 83.4512 100.664 83.3705C100.76 83.2872 100.835 83.1869 100.887 83.0697C100.939 82.9499 100.965 82.8132 100.965 82.6596C100.965 82.5007 100.94 82.3601 100.891 82.2377C100.841 82.1153 100.77 82.0124 100.676 81.9291C100.585 81.8458 100.473 81.7833 100.34 81.7416C100.207 81.6973 100.059 81.6739 99.8945 81.6713H99.0352V83.6244ZM102.738 84.4486C102.738 84.1439 102.783 83.8601 102.871 83.5971C102.962 83.334 103.091 83.1062 103.258 82.9135C103.427 82.7208 103.633 82.5697 103.875 82.4603C104.117 82.351 104.392 82.2963 104.699 82.2963C105.009 82.2963 105.285 82.351 105.527 82.4603C105.772 82.5697 105.978 82.7208 106.145 82.9135C106.314 83.1062 106.443 83.334 106.531 83.5971C106.62 83.8601 106.664 84.1439 106.664 84.4486V84.5307C106.664 84.8379 106.62 85.1231 106.531 85.3861C106.443 85.6491 106.314 85.877 106.145 86.0697C105.978 86.2598 105.773 86.4096 105.531 86.5189C105.289 86.6283 105.014 86.683 104.707 86.683C104.397 86.683 104.12 86.6283 103.875 86.5189C103.633 86.4096 103.427 86.2598 103.258 86.0697C103.091 85.877 102.962 85.6491 102.871 85.3861C102.783 85.1231 102.738 84.8379 102.738 84.5307V84.4486ZM103.672 84.5307C103.672 84.7234 103.691 84.9044 103.73 85.0736C103.772 85.2429 103.835 85.3926 103.918 85.5228C104.004 85.6504 104.112 85.752 104.242 85.8275C104.372 85.9004 104.527 85.9369 104.707 85.9369C104.882 85.9369 105.033 85.9004 105.16 85.8275C105.29 85.752 105.397 85.6504 105.48 85.5228C105.566 85.3926 105.629 85.2429 105.668 85.0736C105.71 84.9044 105.73 84.7234 105.73 84.5307V84.4486C105.73 84.2611 105.71 84.0827 105.668 83.9135C105.629 83.7442 105.566 83.5958 105.48 83.4682C105.397 83.3406 105.29 83.239 105.16 83.1635C105.033 83.0879 104.879 83.0502 104.699 83.0502C104.522 83.0502 104.368 83.0879 104.238 83.1635C104.108 83.239 104.001 83.3406 103.918 83.4682C103.835 83.5958 103.772 83.7442 103.73 83.9135C103.691 84.0827 103.672 84.2611 103.672 84.4486V84.5307ZM110.426 86.0228C110.283 86.2312 110.108 86.3939 109.902 86.5111C109.699 86.6257 109.471 86.683 109.219 86.683C109 86.683 108.799 86.6491 108.617 86.5814C108.438 86.5137 108.283 86.407 108.152 86.2611C108.025 86.1127 107.924 85.9252 107.852 85.6986C107.781 85.4695 107.746 85.1947 107.746 84.8744V82.3744H108.68V84.8822C108.68 85.0853 108.694 85.2533 108.723 85.3861C108.754 85.5189 108.801 85.6244 108.863 85.7025C108.926 85.7807 109.004 85.8366 109.098 85.8705C109.191 85.9017 109.303 85.9174 109.434 85.9174C109.684 85.9174 109.885 85.8692 110.039 85.7728C110.193 85.6739 110.309 85.5411 110.387 85.3744V82.3744H111.324V86.601H110.48L110.426 86.0228ZM114.391 81.351V82.3744H115.988V83.0697H114.391V85.0971C114.391 85.2559 114.409 85.3874 114.445 85.4916C114.484 85.5958 114.538 85.6791 114.605 85.7416C114.673 85.8041 114.753 85.8484 114.844 85.8744C114.935 85.8978 115.035 85.9096 115.145 85.9096C115.225 85.9096 115.309 85.9057 115.395 85.8978C115.483 85.8874 115.568 85.877 115.648 85.8666C115.732 85.8536 115.807 85.8406 115.875 85.8275C115.945 85.8119 116.004 85.7976 116.051 85.7846L116.156 86.4291C116.089 86.4682 116.007 86.5046 115.91 86.5385C115.816 86.5697 115.714 86.5958 115.602 86.6166C115.49 86.6374 115.372 86.6531 115.25 86.6635C115.13 86.6765 115.012 86.683 114.895 86.683C114.684 86.683 114.49 86.6544 114.312 86.5971C114.138 86.5372 113.987 86.446 113.859 86.3236C113.734 86.1986 113.635 86.0398 113.562 85.8471C113.492 85.6517 113.457 85.4187 113.457 85.1478V83.0697H112.426V82.3744H113.457V81.351H114.391ZM119.293 86.6791C118.98 86.6791 118.695 86.627 118.438 86.5228C118.18 86.4187 117.958 86.2754 117.773 86.0932C117.591 85.9109 117.449 85.696 117.348 85.4486C117.246 85.1986 117.195 84.9291 117.195 84.64V84.4799C117.195 84.1439 117.249 83.8419 117.355 83.5736C117.465 83.3054 117.609 83.0762 117.789 82.8861C117.971 82.696 118.182 82.5502 118.422 82.4486C118.664 82.3471 118.918 82.2963 119.184 82.2963C119.491 82.2963 119.762 82.3484 119.996 82.4525C120.23 82.5541 120.426 82.6986 120.582 82.8861C120.741 83.071 120.861 83.2911 120.941 83.5463C121.022 83.8015 121.062 84.0814 121.062 84.3861V84.7807H118.133C118.148 84.9447 118.189 85.0971 118.254 85.2377C118.319 85.3783 118.404 85.5007 118.508 85.6049C118.615 85.7064 118.738 85.7872 118.879 85.8471C119.022 85.9044 119.178 85.933 119.348 85.933C119.585 85.933 119.802 85.8861 120 85.7924C120.201 85.6986 120.363 85.5697 120.488 85.4057L120.996 85.8822C120.928 85.9838 120.841 86.0827 120.734 86.1791C120.628 86.2728 120.503 86.3575 120.359 86.433C120.216 86.5059 120.055 86.5645 119.875 86.6088C119.698 86.6557 119.504 86.6791 119.293 86.6791ZM119.18 83.0502C119.049 83.0502 118.928 83.0736 118.816 83.1205C118.704 83.1674 118.604 83.2364 118.516 83.3275C118.427 83.4161 118.352 83.5254 118.289 83.6557C118.229 83.7833 118.186 83.9291 118.16 84.0932H120.141V84.0228C120.133 83.8978 120.108 83.7781 120.066 83.6635C120.027 83.5463 119.969 83.4421 119.891 83.351C119.812 83.2598 119.714 83.1869 119.594 83.1322C119.477 83.0775 119.339 83.0502 119.18 83.0502ZM125.031 82.2963C125.107 82.2963 125.182 82.2989 125.258 82.3041C125.333 82.3093 125.405 82.3171 125.473 82.3275C125.543 82.3379 125.607 82.3497 125.664 82.3627C125.721 82.3731 125.77 82.3861 125.809 82.4017L125.676 83.3197C125.389 83.2546 125.107 83.2221 124.828 83.2221C124.516 83.2221 124.263 83.2872 124.07 83.4174C123.88 83.5476 123.74 83.7286 123.648 83.9603V86.601H122.715V82.3744H123.59L123.633 83.0346C123.805 82.8054 124.008 82.6257 124.242 82.4955C124.479 82.3627 124.742 82.2963 125.031 82.2963Z" fill="#303136"/>
<path d="M20.4287 49.9707L20.4287 32.5232" stroke="#7F7F82" stroke-width="2" stroke-linecap="round" stroke-linejoin="round"/>
<path d="M25 37.0946L20.4286 32.5232L15.8571 37.0946" stroke="#7F7F82" stroke-width="2" stroke-linecap="round" stroke-linejoin="round"/>
<path d="M20.4314 49.9704L116 49.9704" stroke="#7F7F82" stroke-width="2" stroke-linecap="round" stroke-linejoin="round"/>
<path d="M85.9287 49.5482L85.9287 32.4292" stroke="#7F7F82" stroke-width="2" stroke-linecap="round" stroke-linejoin="round"/>
<path d="M81.3571 36.5543L85.9286 32.4291L90.5 36.5543" stroke="#7F7F82" stroke-width="2" stroke-linecap="round" stroke-linejoin="round"/>
<path d="M150.429 49.5482L150.429 32.4292" stroke="#7F7F82" stroke-width="2" stroke-linecap="round" stroke-linejoin="round"/>
<path d="M145.857 36.5543L150.429 32.4291L155 36.5543" stroke="#7F7F82" stroke-width="2" stroke-linecap="round" stroke-linejoin="round"/>
<path d="M114.5 106.452L186.619 106.452" stroke="#7F7F82" stroke-width="2" stroke-linecap="round" stroke-linejoin="round"/>
<path d="M182.494 101.88L186.619 106.452L182.494 111.023" stroke="#7F7F82" stroke-width="2" stroke-linecap="round" stroke-linejoin="round"/>
<path d="M114.5 60.4364L114.5 51.0232" stroke="#7F7F82" stroke-width="2" stroke-linecap="round" stroke-linejoin="round"/>
<path d="M217.429 49.5482L217.429 32.4292" stroke="#7F7F82" stroke-width="2" stroke-linecap="round" stroke-linejoin="round"/>
<path d="M212.857 36.5543L217.429 32.4291L222 36.5543" stroke="#7F7F82" stroke-width="2" stroke-linecap="round" stroke-linejoin="round"/>
<path d="M114.5 106.237L114.5 94.9704" stroke="#7F7F82" stroke-width="2" stroke-linecap="round" stroke-linejoin="round"/>
<path d="M3.74316 92.8357L4.4502 95.2927L5.23145 92.8357H6.39551V98.5232H5.5127V96.5701L5.56738 94.0779L4.69238 96.8044H4.2002L3.40723 94.1716L3.46191 96.5701V98.5232H2.5791V92.8357H3.74316ZM10.1729 97.9451C10.0296 98.1534 9.85514 98.3161 9.64941 98.4333C9.44629 98.5479 9.21842 98.6052 8.96582 98.6052C8.74707 98.6052 8.54655 98.5714 8.36426 98.5036C8.18457 98.4359 8.02962 98.3292 7.89941 98.1833C7.77181 98.0349 7.67155 97.8474 7.59863 97.6208C7.52832 97.3917 7.49316 97.1169 7.49316 96.7966V94.2966H8.42676V96.8044C8.42676 97.0076 8.44108 97.1755 8.46973 97.3083C8.50098 97.4411 8.54785 97.5466 8.61035 97.6247C8.67285 97.7029 8.75098 97.7589 8.84473 97.7927C8.93848 97.824 9.05046 97.8396 9.18066 97.8396C9.43066 97.8396 9.63249 97.7914 9.78613 97.6951C9.93978 97.5961 10.0557 97.4633 10.1338 97.2966V94.2966H11.0713V98.5232H10.2275L10.1729 97.9451ZM12.4385 92.5232H14.7236V97.7497H16.0127V98.5232H12.4385V97.7497H13.7822V93.3005H12.4385V92.5232ZM18.9424 93.2732V94.2966H20.54V94.9919H18.9424V97.0193C18.9424 97.1781 18.9606 97.3096 18.9971 97.4138C19.0361 97.518 19.0895 97.6013 19.1572 97.6638C19.2249 97.7263 19.3044 97.7706 19.3955 97.7966C19.4867 97.8201 19.5869 97.8318 19.6963 97.8318C19.777 97.8318 19.8604 97.8279 19.9463 97.8201C20.0348 97.8096 20.1195 97.7992 20.2002 97.7888C20.2835 97.7758 20.359 97.7628 20.4268 97.7497C20.4971 97.7341 20.5557 97.7198 20.6025 97.7068L20.708 98.3513C20.6403 98.3904 20.5583 98.4268 20.4619 98.4607C20.3682 98.4919 20.2653 98.518 20.1533 98.5388C20.0413 98.5596 19.9242 98.5753 19.8018 98.5857C19.682 98.5987 19.5635 98.6052 19.4463 98.6052C19.2354 98.6052 19.0413 98.5766 18.8643 98.5193C18.6898 98.4594 18.5387 98.3682 18.4111 98.2458C18.2861 98.1208 18.1872 97.962 18.1143 97.7693C18.0439 97.574 18.0088 97.3409 18.0088 97.0701V94.9919H16.9775V94.2966H18.0088V93.2732H18.9424ZM22.0791 94.2966H24.333V97.7497H25.5869V98.5232H22.0791V97.7497H23.3916V95.074H22.0791V94.2966ZM23.3135 93.2029C23.3135 93.057 23.3604 92.9372 23.4541 92.8435C23.5479 92.7471 23.6794 92.699 23.8486 92.699C24.0205 92.699 24.1533 92.7471 24.2471 92.8435C24.3434 92.9372 24.3916 93.057 24.3916 93.2029C24.3916 93.3487 24.3434 93.4698 24.2471 93.5661C24.1533 93.6599 24.0205 93.7068 23.8486 93.7068C23.6794 93.7068 23.5479 93.6599 23.4541 93.5661C23.3604 93.4698 23.3135 93.3487 23.3135 93.2029ZM30.1768 96.406H27.0479V95.6521H30.1768V96.406ZM33.3564 93.2732V94.2966H34.9541V94.9919H33.3564V97.0193C33.3564 97.1781 33.3747 97.3096 33.4111 97.4138C33.4502 97.518 33.5036 97.6013 33.5713 97.6638C33.639 97.7263 33.7184 97.7706 33.8096 97.7966C33.9007 97.8201 34.001 97.8318 34.1104 97.8318C34.1911 97.8318 34.2744 97.8279 34.3604 97.8201C34.4489 97.8096 34.5335 97.7992 34.6143 97.7888C34.6976 97.7758 34.7731 97.7628 34.8408 97.7497C34.9111 97.7341 34.9697 97.7198 35.0166 97.7068L35.1221 98.3513C35.0544 98.3904 34.9723 98.4268 34.876 98.4607C34.7822 98.4919 34.6794 98.518 34.5674 98.5388C34.4554 98.5596 34.3382 98.5753 34.2158 98.5857C34.096 98.5987 33.9775 98.6052 33.8604 98.6052C33.6494 98.6052 33.4554 98.5766 33.2783 98.5193C33.1038 98.4594 32.9528 98.3682 32.8252 98.2458C32.7002 98.1208 32.6012 97.962 32.5283 97.7693C32.458 97.574 32.4229 97.3409 32.4229 97.0701V94.9919H31.3916V94.2966H32.4229V93.2732H33.3564ZM39.001 97.9451C38.8577 98.1534 38.6833 98.3161 38.4775 98.4333C38.2744 98.5479 38.0465 98.6052 37.7939 98.6052C37.5752 98.6052 37.3747 98.5714 37.1924 98.5036C37.0127 98.4359 36.8577 98.3292 36.7275 98.1833C36.5999 98.0349 36.4997 97.8474 36.4268 97.6208C36.3564 97.3917 36.3213 97.1169 36.3213 96.7966V94.2966H37.2549V96.8044C37.2549 97.0076 37.2692 97.1755 37.2979 97.3083C37.3291 97.4411 37.376 97.5466 37.4385 97.6247C37.501 97.7029 37.5791 97.7589 37.6729 97.7927C37.7666 97.824 37.8786 97.8396 38.0088 97.8396C38.2588 97.8396 38.4606 97.7914 38.6143 97.6951C38.7679 97.5961 38.8838 97.4633 38.9619 97.2966V94.2966H39.8994V98.5232H39.0557L39.001 97.9451ZM43.9971 94.2185C44.0726 94.2185 44.1481 94.2211 44.2236 94.2263C44.2992 94.2315 44.3708 94.2393 44.4385 94.2497C44.5088 94.2602 44.5726 94.2719 44.6299 94.2849C44.6872 94.2953 44.7354 94.3083 44.7744 94.324L44.6416 95.2419C44.3551 95.1768 44.0726 95.1443 43.7939 95.1443C43.4814 95.1443 43.2288 95.2094 43.0361 95.3396C42.846 95.4698 42.7054 95.6508 42.6143 95.8826V98.5232H41.6807V94.2966H42.5557L42.5986 94.9568C42.7705 94.7276 42.9736 94.5479 43.208 94.4177C43.445 94.2849 43.708 94.2185 43.9971 94.2185ZM46.7432 94.2966L46.8018 94.8826C46.9554 94.6716 47.1403 94.5089 47.3564 94.3943C47.5752 94.2771 47.8174 94.2185 48.083 94.2185C48.2992 94.2185 48.4958 94.2497 48.6729 94.3122C48.8525 94.3747 49.0062 94.4724 49.1338 94.6052C49.264 94.738 49.3643 94.9099 49.4346 95.1208C49.5075 95.3318 49.5439 95.5857 49.5439 95.8826V98.5232H48.6104V95.8982C48.6104 95.7237 48.5895 95.5779 48.5479 95.4607C48.5088 95.3435 48.4515 95.2497 48.376 95.1794C48.3031 95.1091 48.2132 95.0596 48.1064 95.031C47.9997 94.9997 47.8786 94.9841 47.7432 94.9841C47.5374 94.9841 47.3577 95.0297 47.2041 95.1208C47.0531 95.212 46.9307 95.3357 46.8369 95.4919V98.5232H45.8994V94.2966H46.7432ZM4.50488 108.859C4.61947 108.859 4.73014 108.841 4.83691 108.804C4.94629 108.768 5.04264 108.717 5.12598 108.652C5.20931 108.587 5.27441 108.51 5.32129 108.422C5.37077 108.333 5.39421 108.237 5.3916 108.133H6.27441C6.27702 108.336 6.23014 108.527 6.13379 108.707C6.04004 108.884 5.91113 109.039 5.74707 109.172C5.58561 109.304 5.39811 109.41 5.18457 109.488C4.97103 109.566 4.74707 109.605 4.5127 109.605C4.18717 109.605 3.90202 109.549 3.65723 109.437C3.41243 109.325 3.20801 109.173 3.04395 108.98C2.87988 108.785 2.75618 108.56 2.67285 108.304C2.59212 108.047 2.55176 107.773 2.55176 107.484V107.343C2.55176 107.054 2.59212 106.781 2.67285 106.523C2.75618 106.265 2.87988 106.04 3.04395 105.847C3.20801 105.655 3.41243 105.502 3.65723 105.39C3.90202 105.276 4.18587 105.218 4.50879 105.218C4.764 105.218 4.99967 105.258 5.21582 105.336C5.43457 105.414 5.62207 105.523 5.77832 105.664C5.93717 105.804 6.05957 105.972 6.14551 106.168C6.23405 106.363 6.27702 106.577 6.27441 106.808H5.3916C5.39421 106.694 5.37337 106.586 5.3291 106.484C5.28743 106.383 5.22624 106.294 5.14551 106.218C5.06478 106.143 4.96973 106.083 4.86035 106.039C4.75098 105.995 4.63118 105.972 4.50098 105.972C4.30566 105.972 4.1429 106.013 4.0127 106.093C3.88249 106.172 3.77832 106.276 3.7002 106.406C3.62207 106.534 3.56608 106.679 3.53223 106.843C3.50098 107.008 3.48535 107.174 3.48535 107.343V107.484C3.48535 107.656 3.50098 107.824 3.53223 107.988C3.56608 108.152 3.62207 108.299 3.7002 108.429C3.77832 108.557 3.88249 108.661 4.0127 108.742C4.1429 108.82 4.30697 108.859 4.50488 108.859ZM7.29004 107.371C7.29004 107.066 7.33431 106.782 7.42285 106.519C7.514 106.256 7.6429 106.028 7.80957 105.836C7.97884 105.643 8.18457 105.492 8.42676 105.383C8.66895 105.273 8.94368 105.218 9.25098 105.218C9.56087 105.218 9.83691 105.273 10.0791 105.383C10.3239 105.492 10.5296 105.643 10.6963 105.836C10.8656 106.028 10.9945 106.256 11.083 106.519C11.1715 106.782 11.2158 107.066 11.2158 107.371V107.453C11.2158 107.76 11.1715 108.045 11.083 108.308C10.9945 108.571 10.8656 108.799 10.6963 108.992C10.5296 109.182 10.3252 109.332 10.083 109.441C9.84082 109.551 9.56608 109.605 9.25879 109.605C8.94889 109.605 8.67155 109.551 8.42676 109.441C8.18457 109.332 7.97884 109.182 7.80957 108.992C7.6429 108.799 7.514 108.571 7.42285 108.308C7.33431 108.045 7.29004 107.76 7.29004 107.453V107.371ZM8.22363 107.453C8.22363 107.646 8.24316 107.827 8.28223 107.996C8.32389 108.165 8.38639 108.315 8.46973 108.445C8.55566 108.573 8.66374 108.674 8.79395 108.75C8.92415 108.823 9.0791 108.859 9.25879 108.859C9.43327 108.859 9.58431 108.823 9.71191 108.75C9.84212 108.674 9.94889 108.573 10.0322 108.445C10.1182 108.315 10.1807 108.165 10.2197 107.996C10.2614 107.827 10.2822 107.646 10.2822 107.453V107.371C10.2822 107.183 10.2614 107.005 10.2197 106.836C10.1807 106.666 10.1182 106.518 10.0322 106.39C9.94889 106.263 9.84212 106.161 9.71191 106.086C9.58431 106.01 9.43066 105.972 9.25098 105.972C9.07389 105.972 8.92025 106.01 8.79004 106.086C8.65983 106.161 8.55306 106.263 8.46973 106.39C8.38639 106.518 8.32389 106.666 8.28223 106.836C8.24316 107.005 8.22363 107.183 8.22363 107.371V107.453ZM13.1104 105.297L13.1689 105.883C13.3226 105.672 13.5075 105.509 13.7236 105.394C13.9424 105.277 14.1846 105.218 14.4502 105.218C14.6663 105.218 14.863 105.25 15.04 105.312C15.2197 105.375 15.3734 105.472 15.501 105.605C15.6312 105.738 15.7314 105.91 15.8018 106.121C15.8747 106.332 15.9111 106.586 15.9111 106.883V109.523H14.9775V106.898C14.9775 106.724 14.9567 106.578 14.915 106.461C14.876 106.343 14.8187 106.25 14.7432 106.179C14.6702 106.109 14.5804 106.06 14.4736 106.031C14.3669 106 14.2458 105.984 14.1104 105.984C13.9046 105.984 13.7249 106.03 13.5713 106.121C13.4202 106.212 13.2979 106.336 13.2041 106.492V109.523H12.2666V105.297H13.1104ZM18.9424 104.273V105.297H20.54V105.992H18.9424V108.019C18.9424 108.178 18.9606 108.31 18.9971 108.414C19.0361 108.518 19.0895 108.601 19.1572 108.664C19.2249 108.726 19.3044 108.771 19.3955 108.797C19.4867 108.82 19.5869 108.832 19.6963 108.832C19.777 108.832 19.8604 108.828 19.9463 108.82C20.0348 108.81 20.1195 108.799 20.2002 108.789C20.2835 108.776 20.359 108.763 20.4268 108.75C20.4971 108.734 20.5557 108.72 20.6025 108.707L20.708 109.351C20.6403 109.39 20.5583 109.427 20.4619 109.461C20.3682 109.492 20.2653 109.518 20.1533 109.539C20.0413 109.56 19.9242 109.575 19.8018 109.586C19.682 109.599 19.5635 109.605 19.4463 109.605C19.2354 109.605 19.0413 109.577 18.8643 109.519C18.6898 109.459 18.5387 109.368 18.4111 109.246C18.2861 109.121 18.1872 108.962 18.1143 108.769C18.0439 108.574 18.0088 108.341 18.0088 108.07V105.992H16.9775V105.297H18.0088V104.273H18.9424ZM23.8447 109.601C23.5322 109.601 23.2471 109.549 22.9893 109.445C22.7314 109.341 22.5101 109.198 22.3252 109.015C22.1429 108.833 22.001 108.618 21.8994 108.371C21.7979 108.121 21.7471 107.851 21.7471 107.562V107.402C21.7471 107.066 21.8005 106.764 21.9072 106.496C22.0166 106.228 22.1611 105.998 22.3408 105.808C22.5231 105.618 22.734 105.472 22.9736 105.371C23.2158 105.269 23.4697 105.218 23.7354 105.218C24.0426 105.218 24.3135 105.271 24.5479 105.375C24.7822 105.476 24.9775 105.621 25.1338 105.808C25.2926 105.993 25.4124 106.213 25.4932 106.468C25.5739 106.724 25.6143 107.004 25.6143 107.308V107.703H22.6846C22.7002 107.867 22.7406 108.019 22.8057 108.16C22.8708 108.301 22.9554 108.423 23.0596 108.527C23.1663 108.629 23.29 108.709 23.4307 108.769C23.5739 108.827 23.7301 108.855 23.8994 108.855C24.1364 108.855 24.3538 108.808 24.5518 108.715C24.7523 108.621 24.915 108.492 25.04 108.328L25.5479 108.804C25.4801 108.906 25.3929 109.005 25.2861 109.101C25.1794 109.195 25.0544 109.28 24.9111 109.355C24.7679 109.428 24.6064 109.487 24.4268 109.531C24.2497 109.578 24.0557 109.601 23.8447 109.601ZM23.7314 105.972C23.6012 105.972 23.4801 105.996 23.3682 106.043C23.2562 106.09 23.1559 106.159 23.0674 106.25C22.9788 106.338 22.9033 106.448 22.8408 106.578C22.7809 106.705 22.738 106.851 22.7119 107.015H24.6924V106.945C24.6846 106.82 24.6598 106.7 24.6182 106.586C24.5791 106.468 24.5205 106.364 24.4424 106.273C24.3643 106.182 24.2653 106.109 24.1455 106.054C24.0283 106 23.8903 105.972 23.7314 105.972ZM28.5283 106.726L29.5361 105.297H30.5752L29.083 107.379L30.6221 109.523H29.5869L28.54 108.043L27.4971 109.523H26.4541L27.9932 107.379L26.501 105.297H27.5361L28.5283 106.726ZM33.3564 104.273V105.297H34.9541V105.992H33.3564V108.019C33.3564 108.178 33.3747 108.31 33.4111 108.414C33.4502 108.518 33.5036 108.601 33.5713 108.664C33.639 108.726 33.7184 108.771 33.8096 108.797C33.9007 108.82 34.001 108.832 34.1104 108.832C34.1911 108.832 34.2744 108.828 34.3604 108.82C34.4489 108.81 34.5335 108.799 34.6143 108.789C34.6976 108.776 34.7731 108.763 34.8408 108.75C34.9111 108.734 34.9697 108.72 35.0166 108.707L35.1221 109.351C35.0544 109.39 34.9723 109.427 34.876 109.461C34.7822 109.492 34.6794 109.518 34.5674 109.539C34.4554 109.56 34.3382 109.575 34.2158 109.586C34.096 109.599 33.9775 109.605 33.8604 109.605C33.6494 109.605 33.4554 109.577 33.2783 109.519C33.1038 109.459 32.9528 109.368 32.8252 109.246C32.7002 109.121 32.6012 108.962 32.5283 108.769C32.458 108.574 32.4229 108.341 32.4229 108.07V105.992H31.3916V105.297H32.4229V104.273H33.3564Z" fill="#7F7F82"/>
<rect x="1.5" y="1.04822" width="50" height="22" rx="4" stroke="#A5A8AB" stroke-width="2" stroke-linecap="round" stroke-linejoin="round"/>
<path d="M11.0898 12.8685V15.0482H10.1523V9.36072H12.0547C12.3385 9.36332 12.6003 9.40629 12.8398 9.48962C13.082 9.57035 13.2904 9.68754 13.4648 9.84119C13.6393 9.99223 13.7747 10.1771 13.8711 10.3959C13.9701 10.612 14.0195 10.8568 14.0195 11.1302C14.0195 11.3959 13.9701 11.6355 13.8711 11.849C13.7747 12.0625 13.6393 12.2448 13.4648 12.3959C13.2904 12.5469 13.082 12.6628 12.8398 12.7435C12.6003 12.8243 12.3385 12.8659 12.0547 12.8685H11.0898ZM11.0898 12.1107H12.0547C12.2135 12.1107 12.3555 12.0873 12.4805 12.0404C12.6055 11.9909 12.7122 11.9232 12.8008 11.8373C12.8893 11.7513 12.957 11.6485 13.0039 11.5287C13.0508 11.4089 13.0742 11.2787 13.0742 11.1381C13.0742 10.9896 13.0508 10.8529 13.0039 10.7279C12.957 10.6029 12.8893 10.4961 12.8008 10.4076C12.7122 10.3164 12.6055 10.2461 12.4805 10.1967C12.3555 10.1472 12.2135 10.1211 12.0547 10.1185H11.0898V12.1107ZM15.082 9.04822H17.3672V14.2748H18.6562V15.0482H15.082V14.2748H16.4258V9.82556H15.082V9.04822ZM22.4102 15.0482C22.3841 14.9961 22.362 14.9349 22.3438 14.8646C22.3281 14.7943 22.3138 14.7188 22.3008 14.6381C22.2357 14.7058 22.1615 14.7696 22.0781 14.8295C21.9974 14.8868 21.9062 14.9375 21.8047 14.9818C21.7057 15.0261 21.5977 15.0612 21.4805 15.0873C21.3659 15.1133 21.2422 15.1263 21.1094 15.1263C20.8854 15.1263 20.6823 15.0951 20.5 15.0326C20.3203 14.9675 20.1654 14.8789 20.0352 14.767C19.9076 14.6524 19.8086 14.5183 19.7383 14.3646C19.668 14.211 19.6328 14.0443 19.6328 13.8646C19.6328 13.4115 19.8008 13.0651 20.1367 12.8256C20.4753 12.586 20.9596 12.4662 21.5898 12.4662H22.2734V12.1888C22.2734 11.9649 22.1979 11.7878 22.0469 11.6576C21.8958 11.5248 21.6823 11.4584 21.4062 11.4584C21.2812 11.4584 21.1719 11.474 21.0781 11.5052C20.9844 11.5339 20.9062 11.5743 20.8438 11.6263C20.7812 11.6784 20.7344 11.7396 20.7031 11.8099C20.6719 11.8802 20.6562 11.9558 20.6562 12.0365H19.7227C19.7227 11.8724 19.7604 11.7136 19.8359 11.5599C19.9141 11.4037 20.0273 11.2657 20.1758 11.1459C20.3242 11.0235 20.5052 10.9258 20.7188 10.8529C20.9349 10.78 21.181 10.7435 21.457 10.7435C21.707 10.7435 21.9388 10.7748 22.1523 10.8373C22.3659 10.8972 22.5508 10.9883 22.707 11.1107C22.8633 11.2305 22.9857 11.3816 23.0742 11.5638C23.1628 11.7435 23.207 11.9545 23.207 12.1967V14.0795C23.207 14.2644 23.2201 14.4336 23.2461 14.5873C23.2747 14.7383 23.3151 14.8698 23.3672 14.9818V15.0482H22.4102ZM21.2852 14.3724C21.4049 14.3724 21.5169 14.3581 21.6211 14.3295C21.7279 14.2982 21.8229 14.2592 21.9062 14.2123C21.9922 14.1628 22.0651 14.1068 22.125 14.0443C22.1875 13.9818 22.237 13.918 22.2734 13.8529V13.0599H21.6797C21.2995 13.0599 21.0182 13.1211 20.8359 13.2435C20.6562 13.3659 20.5664 13.5404 20.5664 13.767C20.5664 13.8529 20.5807 13.9336 20.6094 14.0092C20.638 14.0821 20.681 14.1459 20.7383 14.2006C20.7982 14.2526 20.8724 14.2943 20.9609 14.3256C21.0521 14.3568 21.1602 14.3724 21.2852 14.3724ZM27.2734 13.9037C27.2734 13.8334 27.2591 13.7696 27.2305 13.7123C27.2018 13.6524 27.1497 13.599 27.0742 13.5521C27.0013 13.5026 26.8997 13.4571 26.7695 13.4154C26.6419 13.3737 26.4779 13.3334 26.2773 13.2943C26.0273 13.2422 25.8008 13.1797 25.5977 13.1068C25.3971 13.0339 25.224 12.9467 25.0781 12.8451C24.9349 12.7435 24.8242 12.6263 24.7461 12.4935C24.668 12.3581 24.6289 12.2019 24.6289 12.0248C24.6289 11.8529 24.6693 11.6901 24.75 11.5365C24.8307 11.3802 24.9453 11.2435 25.0938 11.1263C25.2448 11.0092 25.4271 10.9167 25.6406 10.849C25.8568 10.7787 26.0977 10.7435 26.3633 10.7435C26.6445 10.7435 26.8958 10.7787 27.1172 10.849C27.3411 10.9193 27.5299 11.0157 27.6836 11.1381C27.8372 11.2579 27.9544 11.3998 28.0352 11.5638C28.1185 11.7279 28.1602 11.9037 28.1602 12.0912H27.2266C27.2266 12.0079 27.2083 11.9284 27.1719 11.8529C27.1354 11.7748 27.0807 11.7058 27.0078 11.6459C26.9349 11.586 26.8438 11.5391 26.7344 11.5052C26.6276 11.4688 26.5039 11.4506 26.3633 11.4506C26.2227 11.4506 26.1003 11.4662 25.9961 11.4974C25.8945 11.5261 25.8099 11.5651 25.7422 11.6146C25.6745 11.6615 25.6237 11.7175 25.5898 11.7826C25.5586 11.8477 25.543 11.9154 25.543 11.9857C25.543 12.056 25.5547 12.1198 25.5781 12.1771C25.6042 12.2344 25.651 12.2865 25.7188 12.3334C25.7865 12.3802 25.8802 12.4232 26 12.4623C26.1198 12.4987 26.2747 12.5339 26.4648 12.5677C26.7305 12.6146 26.9688 12.6732 27.1797 12.7435C27.3932 12.8138 27.5742 12.8998 27.7227 13.0013C27.8737 13.1029 27.9896 13.224 28.0703 13.3646C28.151 13.5026 28.1914 13.6654 28.1914 13.8529C28.1914 14.0404 28.1484 14.2123 28.0625 14.3685C27.9766 14.5248 27.8542 14.6602 27.6953 14.7748C27.5365 14.8868 27.3451 14.974 27.1211 15.0365C26.8997 15.099 26.651 15.1302 26.375 15.1302C26.0677 15.1302 25.7969 15.0899 25.5625 15.0092C25.3281 14.9258 25.1315 14.8177 24.9727 14.6849C24.8138 14.5521 24.6927 14.4011 24.6094 14.2318C24.5286 14.0625 24.4883 13.8907 24.4883 13.7162H25.3945C25.4023 13.8464 25.4362 13.9571 25.4961 14.0482C25.556 14.1394 25.6328 14.2136 25.7266 14.2709C25.8203 14.3256 25.9245 14.3659 26.0391 14.392C26.1536 14.4154 26.2695 14.4271 26.3867 14.4271C26.6758 14.4271 26.8958 14.3789 27.0469 14.2826C27.1979 14.1836 27.2734 14.0573 27.2734 13.9037ZM31.1953 9.79822V10.8217H32.793V11.517H31.1953V13.5443C31.1953 13.7032 31.2135 13.8347 31.25 13.9388C31.2891 14.043 31.3424 14.1263 31.4102 14.1888C31.4779 14.2513 31.5573 14.2956 31.6484 14.3217C31.7396 14.3451 31.8398 14.3568 31.9492 14.3568C32.0299 14.3568 32.1133 14.3529 32.1992 14.3451C32.2878 14.3347 32.3724 14.3243 32.4531 14.3138C32.5365 14.3008 32.612 14.2878 32.6797 14.2748C32.75 14.2592 32.8086 14.2448 32.8555 14.2318L32.9609 14.8763C32.8932 14.9154 32.8112 14.9519 32.7148 14.9857C32.6211 15.017 32.5182 15.043 32.4062 15.0638C32.2943 15.0847 32.1771 15.1003 32.0547 15.1107C31.9349 15.1237 31.8164 15.1302 31.6992 15.1302C31.4883 15.1302 31.2943 15.1016 31.1172 15.0443C30.9427 14.9844 30.7917 14.8933 30.6641 14.7709C30.5391 14.6459 30.4401 14.487 30.3672 14.2943C30.2969 14.099 30.2617 13.8659 30.2617 13.5951V11.517H29.2305V10.8217H30.2617V9.79822H31.1953ZM34.332 10.8217H36.5859V14.2748H37.8398V15.0482H34.332V14.2748H35.6445V11.599H34.332V10.8217ZM35.5664 9.72791C35.5664 9.58207 35.6133 9.46228 35.707 9.36853C35.8008 9.27218 35.9323 9.224 36.1016 9.224C36.2734 9.224 36.4062 9.27218 36.5 9.36853C36.5964 9.46228 36.6445 9.58207 36.6445 9.72791C36.6445 9.87374 36.5964 9.99483 36.5 10.0912C36.4062 10.1849 36.2734 10.2318 36.1016 10.2318C35.9323 10.2318 35.8008 10.1849 35.707 10.0912C35.6133 9.99483 35.5664 9.87374 35.5664 9.72791ZM40.7812 14.3842C40.8958 14.3842 41.0065 14.3659 41.1133 14.3295C41.2227 14.293 41.319 14.2422 41.4023 14.1771C41.4857 14.112 41.5508 14.0352 41.5977 13.9467C41.6471 13.8581 41.6706 13.7618 41.668 13.6576H42.5508C42.5534 13.8607 42.5065 14.0521 42.4102 14.2318C42.3164 14.4089 42.1875 14.5638 42.0234 14.6967C41.862 14.8295 41.6745 14.9349 41.4609 15.0131C41.2474 15.0912 41.0234 15.1302 40.7891 15.1302C40.4635 15.1302 40.1784 15.0743 39.9336 14.9623C39.6888 14.8503 39.4844 14.698 39.3203 14.5052C39.1562 14.3099 39.0326 14.0847 38.9492 13.8295C38.8685 13.5717 38.8281 13.2982 38.8281 13.0092V12.8685C38.8281 12.5795 38.8685 12.306 38.9492 12.0482C39.0326 11.7904 39.1562 11.5651 39.3203 11.3724C39.4844 11.1797 39.6888 11.0274 39.9336 10.9154C40.1784 10.8008 40.4622 10.7435 40.7852 10.7435C41.0404 10.7435 41.276 10.7826 41.4922 10.8607C41.7109 10.9388 41.8984 11.0482 42.0547 11.1888C42.2135 11.3295 42.3359 11.4974 42.4219 11.6927C42.5104 11.8881 42.5534 12.1016 42.5508 12.3334H41.668C41.6706 12.2188 41.6497 12.1107 41.6055 12.0092C41.5638 11.9076 41.5026 11.8191 41.4219 11.7435C41.3411 11.668 41.2461 11.6081 41.1367 11.5638C41.0273 11.5196 40.9076 11.4974 40.7773 11.4974C40.582 11.4974 40.4193 11.5378 40.2891 11.6185C40.1589 11.6967 40.0547 11.8008 39.9766 11.931C39.8984 12.0586 39.8424 12.2045 39.8086 12.3685C39.7773 12.5326 39.7617 12.6993 39.7617 12.8685V13.0092C39.7617 13.181 39.7773 13.349 39.8086 13.5131C39.8424 13.6771 39.8984 13.8243 39.9766 13.9545C40.0547 14.0821 40.1589 14.1862 40.2891 14.267C40.4193 14.3451 40.5833 14.3842 40.7812 14.3842Z" fill="#303136"/>
<rect x="63.5" y="1.04822" width="45" height="22" rx="4" stroke="#A5A8AB" stroke-width="2" stroke-linecap="round" stroke-linejoin="round"/>
<path d="M73.1914 9.36072L73.8984 11.8177L74.6797 9.36072H75.8438V15.0482H74.9609V13.0951L75.0156 10.6029L74.1406 13.3295H73.6484L72.8555 10.6967L72.9102 13.0951V15.0482H72.0273V9.36072H73.1914ZM78.8789 15.1263C78.5664 15.1263 78.2812 15.0743 78.0234 14.9701C77.7656 14.8659 77.5443 14.7227 77.3594 14.5404C77.1771 14.3581 77.0352 14.1433 76.9336 13.8959C76.832 13.6459 76.7812 13.3763 76.7812 13.0873V12.9271C76.7812 12.5912 76.8346 12.2891 76.9414 12.0209C77.0508 11.7526 77.1953 11.5235 77.375 11.3334C77.5573 11.1433 77.7682 10.9974 78.0078 10.8959C78.25 10.7943 78.5039 10.7435 78.7695 10.7435C79.0768 10.7435 79.3477 10.7956 79.582 10.8998C79.8164 11.0013 80.0117 11.1459 80.168 11.3334C80.3268 11.5183 80.4466 11.7383 80.5273 11.9935C80.6081 12.2487 80.6484 12.5287 80.6484 12.8334V13.2279H77.7188C77.7344 13.392 77.7747 13.5443 77.8398 13.6849C77.9049 13.8256 77.9896 13.948 78.0938 14.0521C78.2005 14.1537 78.3242 14.2344 78.4648 14.2943C78.6081 14.3516 78.7643 14.3802 78.9336 14.3802C79.1706 14.3802 79.388 14.3334 79.5859 14.2396C79.7865 14.1459 79.9492 14.017 80.0742 13.8529L80.582 14.3295C80.5143 14.431 80.4271 14.53 80.3203 14.6263C80.2135 14.7201 80.0885 14.8047 79.9453 14.8802C79.8021 14.9532 79.6406 15.0118 79.4609 15.056C79.2839 15.1029 79.0898 15.1263 78.8789 15.1263ZM78.7656 11.4974C78.6354 11.4974 78.5143 11.5209 78.4023 11.5677C78.2904 11.6146 78.1901 11.6836 78.1016 11.7748C78.013 11.8633 77.9375 11.9727 77.875 12.1029C77.8151 12.2305 77.7721 12.3763 77.7461 12.5404H79.7266V12.4701C79.7188 12.3451 79.694 12.2253 79.6523 12.1107C79.6133 11.9935 79.5547 11.8894 79.4766 11.7982C79.3984 11.7071 79.2995 11.6342 79.1797 11.5795C79.0625 11.5248 78.9245 11.4974 78.7656 11.4974ZM83.5859 9.79822V10.8217H85.1836V11.517H83.5859V13.5443C83.5859 13.7032 83.6042 13.8347 83.6406 13.9388C83.6797 14.043 83.7331 14.1263 83.8008 14.1888C83.8685 14.2513 83.9479 14.2956 84.0391 14.3217C84.1302 14.3451 84.2305 14.3568 84.3398 14.3568C84.4206 14.3568 84.5039 14.3529 84.5898 14.3451C84.6784 14.3347 84.763 14.3243 84.8438 14.3138C84.9271 14.3008 85.0026 14.2878 85.0703 14.2748C85.1406 14.2592 85.1992 14.2448 85.2461 14.2318L85.3516 14.8763C85.2839 14.9154 85.2018 14.9519 85.1055 14.9857C85.0117 15.017 84.9089 15.043 84.7969 15.0638C84.6849 15.0847 84.5677 15.1003 84.4453 15.1107C84.3255 15.1237 84.207 15.1302 84.0898 15.1302C83.8789 15.1302 83.6849 15.1016 83.5078 15.0443C83.3333 14.9844 83.1823 14.8933 83.0547 14.7709C82.9297 14.6459 82.8307 14.487 82.7578 14.2943C82.6875 14.099 82.6523 13.8659 82.6523 13.5951V11.517H81.6211V10.8217H82.6523V9.79822H83.5859ZM89.2148 15.0482C89.1888 14.9961 89.1667 14.9349 89.1484 14.8646C89.1328 14.7943 89.1185 14.7188 89.1055 14.6381C89.0404 14.7058 88.9661 14.7696 88.8828 14.8295C88.8021 14.8868 88.7109 14.9375 88.6094 14.9818C88.5104 15.0261 88.4023 15.0612 88.2852 15.0873C88.1706 15.1133 88.0469 15.1263 87.9141 15.1263C87.6901 15.1263 87.487 15.0951 87.3047 15.0326C87.125 14.9675 86.9701 14.8789 86.8398 14.767C86.7122 14.6524 86.6133 14.5183 86.543 14.3646C86.4727 14.211 86.4375 14.0443 86.4375 13.8646C86.4375 13.4115 86.6055 13.0651 86.9414 12.8256C87.2799 12.586 87.7643 12.4662 88.3945 12.4662H89.0781V12.1888C89.0781 11.9649 89.0026 11.7878 88.8516 11.6576C88.7005 11.5248 88.487 11.4584 88.2109 11.4584C88.0859 11.4584 87.9766 11.474 87.8828 11.5052C87.7891 11.5339 87.7109 11.5743 87.6484 11.6263C87.5859 11.6784 87.5391 11.7396 87.5078 11.8099C87.4766 11.8802 87.4609 11.9558 87.4609 12.0365H86.5273C86.5273 11.8724 86.5651 11.7136 86.6406 11.5599C86.7188 11.4037 86.832 11.2657 86.9805 11.1459C87.1289 11.0235 87.3099 10.9258 87.5234 10.8529C87.7396 10.78 87.9857 10.7435 88.2617 10.7435C88.5117 10.7435 88.7435 10.7748 88.957 10.8373C89.1706 10.8972 89.3555 10.9883 89.5117 11.1107C89.668 11.2305 89.7904 11.3816 89.8789 11.5638C89.9674 11.7435 90.0117 11.9545 90.0117 12.1967V14.0795C90.0117 14.2644 90.0247 14.4336 90.0508 14.5873C90.0794 14.7383 90.1198 14.8698 90.1719 14.9818V15.0482H89.2148ZM88.0898 14.3724C88.2096 14.3724 88.3216 14.3581 88.4258 14.3295C88.5326 14.2982 88.6276 14.2592 88.7109 14.2123C88.7969 14.1628 88.8698 14.1068 88.9297 14.0443C88.9922 13.9818 89.0417 13.918 89.0781 13.8529V13.0599H88.4844C88.1042 13.0599 87.8229 13.1211 87.6406 13.2435C87.4609 13.3659 87.3711 13.5404 87.3711 13.767C87.3711 13.8529 87.3854 13.9336 87.4141 14.0092C87.4427 14.0821 87.4857 14.1459 87.543 14.2006C87.6029 14.2526 87.6771 14.2943 87.7656 14.3256C87.8568 14.3568 87.9648 14.3724 88.0898 14.3724ZM91.4961 9.04822H93.7812V14.2748H95.0703V15.0482H91.4961V14.2748H92.8398V9.82556H91.4961V9.04822ZM98.8828 13.9037C98.8828 13.8334 98.8685 13.7696 98.8398 13.7123C98.8112 13.6524 98.7591 13.599 98.6836 13.5521C98.6107 13.5026 98.5091 13.4571 98.3789 13.4154C98.2513 13.3737 98.0872 13.3334 97.8867 13.2943C97.6367 13.2422 97.4102 13.1797 97.207 13.1068C97.0065 13.0339 96.8333 12.9467 96.6875 12.8451C96.5443 12.7435 96.4336 12.6263 96.3555 12.4935C96.2773 12.3581 96.2383 12.2019 96.2383 12.0248C96.2383 11.8529 96.2786 11.6901 96.3594 11.5365C96.4401 11.3802 96.5547 11.2435 96.7031 11.1263C96.8542 11.0092 97.0365 10.9167 97.25 10.849C97.4661 10.7787 97.707 10.7435 97.9727 10.7435C98.2539 10.7435 98.5052 10.7787 98.7266 10.849C98.9505 10.9193 99.1393 11.0157 99.293 11.1381C99.4466 11.2579 99.5638 11.3998 99.6445 11.5638C99.7279 11.7279 99.7695 11.9037 99.7695 12.0912H98.8359C98.8359 12.0079 98.8177 11.9284 98.7812 11.8529C98.7448 11.7748 98.6901 11.7058 98.6172 11.6459C98.5443 11.586 98.4531 11.5391 98.3438 11.5052C98.237 11.4688 98.1133 11.4506 97.9727 11.4506C97.832 11.4506 97.7096 11.4662 97.6055 11.4974C97.5039 11.5261 97.4193 11.5651 97.3516 11.6146C97.2839 11.6615 97.2331 11.7175 97.1992 11.7826C97.168 11.8477 97.1523 11.9154 97.1523 11.9857C97.1523 12.056 97.1641 12.1198 97.1875 12.1771C97.2135 12.2344 97.2604 12.2865 97.3281 12.3334C97.3958 12.3802 97.4896 12.4232 97.6094 12.4623C97.7292 12.4987 97.8841 12.5339 98.0742 12.5677C98.3398 12.6146 98.5781 12.6732 98.7891 12.7435C99.0026 12.8138 99.1836 12.8998 99.332 13.0013C99.4831 13.1029 99.599 13.224 99.6797 13.3646C99.7604 13.5026 99.8008 13.6654 99.8008 13.8529C99.8008 14.0404 99.7578 14.2123 99.6719 14.3685C99.5859 14.5248 99.4635 14.6602 99.3047 14.7748C99.1458 14.8868 98.9544 14.974 98.7305 15.0365C98.5091 15.099 98.2604 15.1302 97.9844 15.1302C97.6771 15.1302 97.4062 15.0899 97.1719 15.0092C96.9375 14.9258 96.7409 14.8177 96.582 14.6849C96.4232 14.5521 96.3021 14.4011 96.2188 14.2318C96.138 14.0625 96.0977 13.8907 96.0977 13.7162H97.0039C97.0117 13.8464 97.0456 13.9571 97.1055 14.0482C97.1654 14.1394 97.2422 14.2136 97.3359 14.2709C97.4297 14.3256 97.5339 14.3659 97.6484 14.392C97.763 14.4154 97.8789 14.4271 97.9961 14.4271C98.2852 14.4271 98.5052 14.3789 98.6562 14.2826C98.8073 14.1836 98.8828 14.0573 98.8828 13.9037Z" fill="#303136"/>
<rect x="120.5" y="1.04822" width="60" height="22" rx="4" stroke="#A5A8AB" stroke-width="2" stroke-linecap="round" stroke-linejoin="round"/>
<path d="M132.488 12.6263H130.102V15.0482H129.156V9.36072H132.84V10.1342H130.102V11.8568H132.488V12.6263ZM136.605 15.0482C136.579 14.9961 136.557 14.9349 136.539 14.8646C136.523 14.7943 136.509 14.7188 136.496 14.6381C136.431 14.7058 136.357 14.7696 136.273 14.8295C136.193 14.8868 136.102 14.9375 136 14.9818C135.901 15.0261 135.793 15.0612 135.676 15.0873C135.561 15.1133 135.438 15.1263 135.305 15.1263C135.081 15.1263 134.878 15.0951 134.695 15.0326C134.516 14.9675 134.361 14.8789 134.23 14.767C134.103 14.6524 134.004 14.5183 133.934 14.3646C133.863 14.211 133.828 14.0443 133.828 13.8646C133.828 13.4115 133.996 13.0651 134.332 12.8256C134.671 12.586 135.155 12.4662 135.785 12.4662H136.469V12.1888C136.469 11.9649 136.393 11.7878 136.242 11.6576C136.091 11.5248 135.878 11.4584 135.602 11.4584C135.477 11.4584 135.367 11.474 135.273 11.5052C135.18 11.5339 135.102 11.5743 135.039 11.6263C134.977 11.6784 134.93 11.7396 134.898 11.8099C134.867 11.8802 134.852 11.9558 134.852 12.0365H133.918C133.918 11.8724 133.956 11.7136 134.031 11.5599C134.109 11.4037 134.223 11.2657 134.371 11.1459C134.52 11.0235 134.701 10.9258 134.914 10.8529C135.13 10.78 135.376 10.7435 135.652 10.7435C135.902 10.7435 136.134 10.7748 136.348 10.8373C136.561 10.8972 136.746 10.9883 136.902 11.1107C137.059 11.2305 137.181 11.3816 137.27 11.5638C137.358 11.7435 137.402 11.9545 137.402 12.1967V14.0795C137.402 14.2644 137.415 14.4336 137.441 14.5873C137.47 14.7383 137.51 14.8698 137.562 14.9818V15.0482H136.605ZM135.48 14.3724C135.6 14.3724 135.712 14.3581 135.816 14.3295C135.923 14.2982 136.018 14.2592 136.102 14.2123C136.188 14.1628 136.26 14.1068 136.32 14.0443C136.383 13.9818 136.432 13.918 136.469 13.8529V13.0599H135.875C135.495 13.0599 135.214 13.1211 135.031 13.2435C134.852 13.3659 134.762 13.5404 134.762 13.767C134.762 13.8529 134.776 13.9336 134.805 14.0092C134.833 14.0821 134.876 14.1459 134.934 14.2006C134.993 14.2526 135.068 14.2943 135.156 14.3256C135.247 14.3568 135.355 14.3724 135.48 14.3724ZM141.469 13.9037C141.469 13.8334 141.454 13.7696 141.426 13.7123C141.397 13.6524 141.345 13.599 141.27 13.5521C141.197 13.5026 141.095 13.4571 140.965 13.4154C140.837 13.3737 140.673 13.3334 140.473 13.2943C140.223 13.2422 139.996 13.1797 139.793 13.1068C139.592 13.0339 139.419 12.9467 139.273 12.8451C139.13 12.7435 139.02 12.6263 138.941 12.4935C138.863 12.3581 138.824 12.2019 138.824 12.0248C138.824 11.8529 138.865 11.6901 138.945 11.5365C139.026 11.3802 139.141 11.2435 139.289 11.1263C139.44 11.0092 139.622 10.9167 139.836 10.849C140.052 10.7787 140.293 10.7435 140.559 10.7435C140.84 10.7435 141.091 10.7787 141.312 10.849C141.536 10.9193 141.725 11.0157 141.879 11.1381C142.033 11.2579 142.15 11.3998 142.23 11.5638C142.314 11.7279 142.355 11.9037 142.355 12.0912H141.422C141.422 12.0079 141.404 11.9284 141.367 11.8529C141.331 11.7748 141.276 11.7058 141.203 11.6459C141.13 11.586 141.039 11.5391 140.93 11.5052C140.823 11.4688 140.699 11.4506 140.559 11.4506C140.418 11.4506 140.296 11.4662 140.191 11.4974C140.09 11.5261 140.005 11.5651 139.938 11.6146C139.87 11.6615 139.819 11.7175 139.785 11.7826C139.754 11.8477 139.738 11.9154 139.738 11.9857C139.738 12.056 139.75 12.1198 139.773 12.1771C139.799 12.2344 139.846 12.2865 139.914 12.3334C139.982 12.3802 140.076 12.4232 140.195 12.4623C140.315 12.4987 140.47 12.5339 140.66 12.5677C140.926 12.6146 141.164 12.6732 141.375 12.7435C141.589 12.8138 141.77 12.8998 141.918 13.0013C142.069 13.1029 142.185 13.224 142.266 13.3646C142.346 13.5026 142.387 13.6654 142.387 13.8529C142.387 14.0404 142.344 14.2123 142.258 14.3685C142.172 14.5248 142.049 14.6602 141.891 14.7748C141.732 14.8868 141.54 14.974 141.316 15.0365C141.095 15.099 140.846 15.1302 140.57 15.1302C140.263 15.1302 139.992 15.0899 139.758 15.0092C139.523 14.9258 139.327 14.8177 139.168 14.6849C139.009 14.5521 138.888 14.4011 138.805 14.2318C138.724 14.0625 138.684 13.8907 138.684 13.7162H139.59C139.598 13.8464 139.632 13.9571 139.691 14.0482C139.751 14.1394 139.828 14.2136 139.922 14.2709C140.016 14.3256 140.12 14.3659 140.234 14.392C140.349 14.4154 140.465 14.4271 140.582 14.4271C140.871 14.4271 141.091 14.3789 141.242 14.2826C141.393 14.1836 141.469 14.0573 141.469 13.9037ZM145.391 9.79822V10.8217H146.988V11.517H145.391V13.5443C145.391 13.7032 145.409 13.8347 145.445 13.9388C145.484 14.043 145.538 14.1263 145.605 14.1888C145.673 14.2513 145.753 14.2956 145.844 14.3217C145.935 14.3451 146.035 14.3568 146.145 14.3568C146.225 14.3568 146.309 14.3529 146.395 14.3451C146.483 14.3347 146.568 14.3243 146.648 14.3138C146.732 14.3008 146.807 14.2878 146.875 14.2748C146.945 14.2592 147.004 14.2448 147.051 14.2318L147.156 14.8763C147.089 14.9154 147.007 14.9519 146.91 14.9857C146.816 15.017 146.714 15.043 146.602 15.0638C146.49 15.0847 146.372 15.1003 146.25 15.1107C146.13 15.1237 146.012 15.1302 145.895 15.1302C145.684 15.1302 145.49 15.1016 145.312 15.0443C145.138 14.9844 144.987 14.8933 144.859 14.7709C144.734 14.6459 144.635 14.487 144.562 14.2943C144.492 14.099 144.457 13.8659 144.457 13.5951V11.517H143.426V10.8217H144.457V9.79822H145.391ZM150.293 15.1263C149.98 15.1263 149.695 15.0743 149.438 14.9701C149.18 14.8659 148.958 14.7227 148.773 14.5404C148.591 14.3581 148.449 14.1433 148.348 13.8959C148.246 13.6459 148.195 13.3763 148.195 13.0873V12.9271C148.195 12.5912 148.249 12.2891 148.355 12.0209C148.465 11.7526 148.609 11.5235 148.789 11.3334C148.971 11.1433 149.182 10.9974 149.422 10.8959C149.664 10.7943 149.918 10.7435 150.184 10.7435C150.491 10.7435 150.762 10.7956 150.996 10.8998C151.23 11.0013 151.426 11.1459 151.582 11.3334C151.741 11.5183 151.861 11.7383 151.941 11.9935C152.022 12.2487 152.062 12.5287 152.062 12.8334V13.2279H149.133C149.148 13.392 149.189 13.5443 149.254 13.6849C149.319 13.8256 149.404 13.948 149.508 14.0521C149.615 14.1537 149.738 14.2344 149.879 14.2943C150.022 14.3516 150.178 14.3802 150.348 14.3802C150.585 14.3802 150.802 14.3334 151 14.2396C151.201 14.1459 151.363 14.017 151.488 13.8529L151.996 14.3295C151.928 14.431 151.841 14.53 151.734 14.6263C151.628 14.7201 151.503 14.8047 151.359 14.8802C151.216 14.9532 151.055 15.0118 150.875 15.056C150.698 15.1029 150.504 15.1263 150.293 15.1263ZM150.18 11.4974C150.049 11.4974 149.928 11.5209 149.816 11.5677C149.704 11.6146 149.604 11.6836 149.516 11.7748C149.427 11.8633 149.352 11.9727 149.289 12.1029C149.229 12.2305 149.186 12.3763 149.16 12.5404H151.141V12.4701C151.133 12.3451 151.108 12.2253 151.066 12.1107C151.027 11.9935 150.969 11.8894 150.891 11.7982C150.812 11.7071 150.714 11.6342 150.594 11.5795C150.477 11.5248 150.339 11.4974 150.18 11.4974ZM153.973 10.8217L154.031 11.4076C154.185 11.1967 154.37 11.0339 154.586 10.9193C154.805 10.8021 155.047 10.7435 155.312 10.7435C155.529 10.7435 155.725 10.7748 155.902 10.8373C156.082 10.8998 156.236 10.9974 156.363 11.1302C156.493 11.2631 156.594 11.4349 156.664 11.6459C156.737 11.8568 156.773 12.1107 156.773 12.4076V15.0482H155.84V12.4232C155.84 12.2487 155.819 12.1029 155.777 11.9857C155.738 11.8685 155.681 11.7748 155.605 11.7045C155.533 11.6342 155.443 11.5847 155.336 11.556C155.229 11.5248 155.108 11.5092 154.973 11.5092C154.767 11.5092 154.587 11.5547 154.434 11.6459C154.283 11.737 154.16 11.8607 154.066 12.017V15.0482H153.129V10.8217H153.973ZM159.902 15.1263C159.59 15.1263 159.305 15.0743 159.047 14.9701C158.789 14.8659 158.568 14.7227 158.383 14.5404C158.201 14.3581 158.059 14.1433 157.957 13.8959C157.855 13.6459 157.805 13.3763 157.805 13.0873V12.9271C157.805 12.5912 157.858 12.2891 157.965 12.0209C158.074 11.7526 158.219 11.5235 158.398 11.3334C158.581 11.1433 158.792 10.9974 159.031 10.8959C159.273 10.7943 159.527 10.7435 159.793 10.7435C160.1 10.7435 160.371 10.7956 160.605 10.8998C160.84 11.0013 161.035 11.1459 161.191 11.3334C161.35 11.5183 161.47 11.7383 161.551 11.9935C161.632 12.2487 161.672 12.5287 161.672 12.8334V13.2279H158.742C158.758 13.392 158.798 13.5443 158.863 13.6849C158.928 13.8256 159.013 13.948 159.117 14.0521C159.224 14.1537 159.348 14.2344 159.488 14.2943C159.632 14.3516 159.788 14.3802 159.957 14.3802C160.194 14.3802 160.411 14.3334 160.609 14.2396C160.81 14.1459 160.973 14.017 161.098 13.8529L161.605 14.3295C161.538 14.431 161.451 14.53 161.344 14.6263C161.237 14.7201 161.112 14.8047 160.969 14.8802C160.826 14.9532 160.664 15.0118 160.484 15.056C160.307 15.1029 160.113 15.1263 159.902 15.1263ZM159.789 11.4974C159.659 11.4974 159.538 11.5209 159.426 11.5677C159.314 11.6146 159.214 11.6836 159.125 11.7748C159.036 11.8633 158.961 11.9727 158.898 12.1029C158.839 12.2305 158.796 12.3763 158.77 12.5404H160.75V12.4701C160.742 12.3451 160.717 12.2253 160.676 12.1107C160.637 11.9935 160.578 11.8894 160.5 11.7982C160.422 11.7071 160.323 11.6342 160.203 11.5795C160.086 11.5248 159.948 11.4974 159.789 11.4974ZM165.641 10.7435C165.716 10.7435 165.792 10.7461 165.867 10.7513C165.943 10.7566 166.014 10.7644 166.082 10.7748C166.152 10.7852 166.216 10.7969 166.273 10.8099C166.331 10.8204 166.379 10.8334 166.418 10.849L166.285 11.767C165.999 11.7019 165.716 11.6693 165.438 11.6693C165.125 11.6693 164.872 11.7344 164.68 11.8646C164.49 11.9948 164.349 12.1758 164.258 12.4076V15.0482H163.324V10.8217H164.199L164.242 11.4818C164.414 11.2526 164.617 11.073 164.852 10.9427C165.089 10.8099 165.352 10.7435 165.641 10.7435ZM170.297 13.9037C170.297 13.8334 170.283 13.7696 170.254 13.7123C170.225 13.6524 170.173 13.599 170.098 13.5521C170.025 13.5026 169.923 13.4571 169.793 13.4154C169.665 13.3737 169.501 13.3334 169.301 13.2943C169.051 13.2422 168.824 13.1797 168.621 13.1068C168.421 13.0339 168.247 12.9467 168.102 12.8451C167.958 12.7435 167.848 12.6263 167.77 12.4935C167.691 12.3581 167.652 12.2019 167.652 12.0248C167.652 11.8529 167.693 11.6901 167.773 11.5365C167.854 11.3802 167.969 11.2435 168.117 11.1263C168.268 11.0092 168.451 10.9167 168.664 10.849C168.88 10.7787 169.121 10.7435 169.387 10.7435C169.668 10.7435 169.919 10.7787 170.141 10.849C170.365 10.9193 170.553 11.0157 170.707 11.1381C170.861 11.2579 170.978 11.3998 171.059 11.5638C171.142 11.7279 171.184 11.9037 171.184 12.0912H170.25C170.25 12.0079 170.232 11.9284 170.195 11.8529C170.159 11.7748 170.104 11.7058 170.031 11.6459C169.958 11.586 169.867 11.5391 169.758 11.5052C169.651 11.4688 169.527 11.4506 169.387 11.4506C169.246 11.4506 169.124 11.4662 169.02 11.4974C168.918 11.5261 168.833 11.5651 168.766 11.6146C168.698 11.6615 168.647 11.7175 168.613 11.7826C168.582 11.8477 168.566 11.9154 168.566 11.9857C168.566 12.056 168.578 12.1198 168.602 12.1771C168.628 12.2344 168.674 12.2865 168.742 12.3334C168.81 12.3802 168.904 12.4232 169.023 12.4623C169.143 12.4987 169.298 12.5339 169.488 12.5677C169.754 12.6146 169.992 12.6732 170.203 12.7435C170.417 12.8138 170.598 12.8998 170.746 13.0013C170.897 13.1029 171.013 13.224 171.094 13.3646C171.174 13.5026 171.215 13.6654 171.215 13.8529C171.215 14.0404 171.172 14.2123 171.086 14.3685C171 14.5248 170.878 14.6602 170.719 14.7748C170.56 14.8868 170.368 14.974 170.145 15.0365C169.923 15.099 169.674 15.1302 169.398 15.1302C169.091 15.1302 168.82 15.0899 168.586 15.0092C168.352 14.9258 168.155 14.8177 167.996 14.6849C167.837 14.5521 167.716 14.4011 167.633 14.2318C167.552 14.0625 167.512 13.8907 167.512 13.7162H168.418C168.426 13.8464 168.46 13.9571 168.52 14.0482C168.579 14.1394 168.656 14.2136 168.75 14.2709C168.844 14.3256 168.948 14.3659 169.062 14.392C169.177 14.4154 169.293 14.4271 169.41 14.4271C169.699 14.4271 169.919 14.3789 170.07 14.2826C170.221 14.1836 170.297 14.0573 170.297 13.9037Z" fill="#303136"/>
<rect x="192.5" y="1.04822" width="50" height="22" rx="4" stroke="#A5A8AB" stroke-width="2" stroke-linecap="round" stroke-linejoin="round"/>
<path d="M201.078 15.0482V9.36072H202.895C203.168 9.36332 203.423 9.39457 203.66 9.45447C203.9 9.51436 204.108 9.60681 204.285 9.73181C204.465 9.85681 204.605 10.017 204.707 10.2123C204.809 10.405 204.858 10.6342 204.855 10.8998C204.853 11.181 204.775 11.4219 204.621 11.6224C204.467 11.8204 204.26 11.974 204 12.0834C204.159 12.1276 204.299 12.1914 204.422 12.2748C204.547 12.3555 204.651 12.4532 204.734 12.5677C204.818 12.6823 204.882 12.8099 204.926 12.9506C204.97 13.0886 204.992 13.2357 204.992 13.392C204.992 13.6628 204.943 13.9011 204.844 14.1068C204.745 14.3125 204.607 14.4844 204.43 14.6224C204.255 14.7605 204.047 14.8659 203.805 14.9388C203.565 15.0092 203.306 15.0456 203.027 15.0482H201.078ZM202.02 12.4701V14.2826H203.043C203.191 14.28 203.327 14.2579 203.449 14.2162C203.572 14.1719 203.677 14.112 203.766 14.0365C203.854 13.961 203.923 13.8685 203.973 13.7592C204.025 13.6498 204.051 13.5274 204.051 13.392C204.051 13.2487 204.029 13.1211 203.984 13.0092C203.94 12.8946 203.876 12.7982 203.793 12.7201C203.71 12.642 203.608 12.5821 203.488 12.5404C203.368 12.4961 203.234 12.4727 203.086 12.4701H202.02ZM202.02 11.7552H202.918C203.059 11.7526 203.189 11.7344 203.309 11.7006C203.431 11.6641 203.536 11.612 203.625 11.5443C203.714 11.474 203.784 11.3894 203.836 11.2904C203.888 11.1888 203.914 11.073 203.914 10.9427C203.914 10.7995 203.889 10.6771 203.84 10.5756C203.79 10.474 203.72 10.3907 203.629 10.3256C203.54 10.2605 203.435 10.2136 203.312 10.1849C203.19 10.1537 203.056 10.1368 202.91 10.1342H202.02V11.7552ZM206.113 10.8217H208.367V14.2748H209.621V15.0482H206.113V14.2748H207.426V11.599H206.113V10.8217ZM207.348 9.72791C207.348 9.58207 207.395 9.46228 207.488 9.36853C207.582 9.27218 207.714 9.224 207.883 9.224C208.055 9.224 208.188 9.27218 208.281 9.36853C208.378 9.46228 208.426 9.58207 208.426 9.72791C208.426 9.87374 208.378 9.99483 208.281 10.0912C208.188 10.1849 208.055 10.2318 207.883 10.2318C207.714 10.2318 207.582 10.1849 207.488 10.0912C207.395 9.99483 207.348 9.87374 207.348 9.72791ZM210.887 9.04822H213.172V14.2748H214.461V15.0482H210.887V14.2748H212.23V9.82556H210.887V9.04822ZM215.691 9.04822H217.977V14.2748H219.266V15.0482H215.691V14.2748H217.035V9.82556H215.691V9.04822ZM220.527 10.8217H222.781V14.2748H224.035V15.0482H220.527V14.2748H221.84V11.599H220.527V10.8217ZM221.762 9.72791C221.762 9.58207 221.809 9.46228 221.902 9.36853C221.996 9.27218 222.128 9.224 222.297 9.224C222.469 9.224 222.602 9.27218 222.695 9.36853C222.792 9.46228 222.84 9.58207 222.84 9.72791C222.84 9.87374 222.792 9.99483 222.695 10.0912C222.602 10.1849 222.469 10.2318 222.297 10.2318C222.128 10.2318 221.996 10.1849 221.902 10.0912C221.809 9.99483 221.762 9.87374 221.762 9.72791ZM225.973 10.8217L226.031 11.4076C226.185 11.1967 226.37 11.0339 226.586 10.9193C226.805 10.8021 227.047 10.7435 227.312 10.7435C227.529 10.7435 227.725 10.7748 227.902 10.8373C228.082 10.8998 228.236 10.9974 228.363 11.1302C228.493 11.2631 228.594 11.4349 228.664 11.6459C228.737 11.8568 228.773 12.1107 228.773 12.4076V15.0482H227.84V12.4232C227.84 12.2487 227.819 12.1029 227.777 11.9857C227.738 11.8685 227.681 11.7748 227.605 11.7045C227.533 11.6342 227.443 11.5847 227.336 11.556C227.229 11.5248 227.108 11.5092 226.973 11.5092C226.767 11.5092 226.587 11.5547 226.434 11.6459C226.283 11.737 226.16 11.8607 226.066 12.017V15.0482H225.129V10.8217H225.973ZM229.812 12.9037C229.812 12.5834 229.852 12.2904 229.93 12.0248C230.01 11.7592 230.125 11.5313 230.273 11.3412C230.422 11.1511 230.6 11.0039 230.809 10.8998C231.02 10.7956 231.255 10.7435 231.516 10.7435C231.768 10.7435 231.987 10.7865 232.172 10.8724C232.357 10.9584 232.516 11.0821 232.648 11.2435L232.688 10.8217H233.535V14.9349C233.535 15.2188 233.488 15.4701 233.395 15.6888C233.301 15.9102 233.169 16.0964 233 16.2474C232.833 16.3985 232.633 16.5131 232.398 16.5912C232.164 16.6719 231.906 16.7123 231.625 16.7123C231.51 16.7123 231.38 16.6993 231.234 16.6732C231.091 16.6498 230.947 16.6094 230.801 16.5521C230.655 16.4974 230.516 16.4245 230.383 16.3334C230.25 16.2448 230.137 16.1368 230.043 16.0092L230.488 15.4506C230.647 15.6381 230.818 15.7722 231 15.8529C231.185 15.9336 231.375 15.974 231.57 15.974C231.727 15.974 231.868 15.9519 231.996 15.9076C232.124 15.8633 232.232 15.7982 232.32 15.7123C232.409 15.6263 232.477 15.5196 232.523 15.392C232.573 15.267 232.598 15.1224 232.598 14.9584V14.6732C232.465 14.8191 232.309 14.931 232.129 15.0092C231.952 15.0873 231.745 15.1263 231.508 15.1263C231.25 15.1263 231.017 15.073 230.809 14.9662C230.6 14.8568 230.422 14.7071 230.273 14.517C230.125 14.3269 230.01 14.1016 229.93 13.8412C229.852 13.5782 229.812 13.293 229.812 12.9857V12.9037ZM230.75 12.9857C230.75 13.1758 230.77 13.3542 230.809 13.5209C230.848 13.6875 230.908 13.8334 230.988 13.9584C231.069 14.0834 231.172 14.1823 231.297 14.2552C231.424 14.3256 231.574 14.3607 231.746 14.3607C231.962 14.3607 232.138 14.3164 232.273 14.2279C232.409 14.1368 232.517 14.0157 232.598 13.8646V11.9974C232.514 11.849 232.405 11.7305 232.27 11.642C232.134 11.5534 231.962 11.5092 231.754 11.5092C231.582 11.5092 231.432 11.5456 231.305 11.6185C231.18 11.6914 231.076 11.7917 230.992 11.9193C230.911 12.0469 230.85 12.1954 230.809 12.3646C230.77 12.5339 230.75 12.7136 230.75 12.9037V12.9857Z" fill="#303136"/>
<rect x="254.5" y="1.04822" width="31" height="22" rx="4" stroke="#A5A8AB" stroke-width="2" stroke-linecap="round" stroke-linejoin="round"/>
<path d="M264.273 14.4896C264.273 14.3985 264.288 14.3125 264.316 14.2318C264.348 14.1511 264.392 14.0821 264.449 14.0248C264.507 13.9649 264.577 13.918 264.66 13.8842C264.746 13.8503 264.844 13.8334 264.953 13.8334C265.062 13.8334 265.159 13.8503 265.242 13.8842C265.328 13.918 265.4 13.9649 265.457 14.0248C265.517 14.0821 265.561 14.1511 265.59 14.2318C265.621 14.3125 265.637 14.3985 265.637 14.4896C265.637 14.5808 265.621 14.6654 265.59 14.7435C265.561 14.8191 265.517 14.8855 265.457 14.9427C265.4 15 265.328 15.0443 265.242 15.0756C265.159 15.1094 265.062 15.1263 264.953 15.1263C264.844 15.1263 264.746 15.1094 264.66 15.0756C264.577 15.0443 264.507 15 264.449 14.9427C264.392 14.8855 264.348 14.8191 264.316 14.7435C264.288 14.6654 264.273 14.5808 264.273 14.4896ZM269.078 14.4896C269.078 14.3985 269.092 14.3125 269.121 14.2318C269.152 14.1511 269.197 14.0821 269.254 14.0248C269.311 13.9649 269.382 13.918 269.465 13.8842C269.551 13.8503 269.648 13.8334 269.758 13.8334C269.867 13.8334 269.964 13.8503 270.047 13.8842C270.133 13.918 270.204 13.9649 270.262 14.0248C270.322 14.0821 270.366 14.1511 270.395 14.2318C270.426 14.3125 270.441 14.3985 270.441 14.4896C270.441 14.5808 270.426 14.6654 270.395 14.7435C270.366 14.8191 270.322 14.8855 270.262 14.9427C270.204 15 270.133 15.0443 270.047 15.0756C269.964 15.1094 269.867 15.1263 269.758 15.1263C269.648 15.1263 269.551 15.1094 269.465 15.0756C269.382 15.0443 269.311 15 269.254 14.9427C269.197 14.8855 269.152 14.8191 269.121 14.7435C269.092 14.6654 269.078 14.5808 269.078 14.4896ZM273.883 14.4896C273.883 14.3985 273.897 14.3125 273.926 14.2318C273.957 14.1511 274.001 14.0821 274.059 14.0248C274.116 13.9649 274.186 13.918 274.27 13.8842C274.355 13.8503 274.453 13.8334 274.562 13.8334C274.672 13.8334 274.768 13.8503 274.852 13.8842C274.938 13.918 275.009 13.9649 275.066 14.0248C275.126 14.0821 275.171 14.1511 275.199 14.2318C275.23 14.3125 275.246 14.3985 275.246 14.4896C275.246 14.5808 275.23 14.6654 275.199 14.7435C275.171 14.8191 275.126 14.8855 275.066 14.9427C275.009 15 274.938 15.0443 274.852 15.0756C274.768 15.1094 274.672 15.1263 274.562 15.1263C274.453 15.1263 274.355 15.1094 274.27 15.0756C274.186 15.0443 274.116 15 274.059 14.9427C274.001 14.8855 273.957 14.8191 273.926 14.7435C273.897 14.6654 273.883 14.5808 273.883 14.4896Z" fill="#303136"/>
<rect x="192.5" y="89.9518" width="93" height="33" rx="4" stroke="#A5A8AB" stroke-width="2" stroke-linecap="round" stroke-linejoin="round"/>
<g clip-path="url(#clip1_42_1035)">
<path d="M205.833 103.118C205.833 103.826 206.114 104.504 206.615 105.004C207.115 105.504 207.793 105.785 208.5 105.785C209.207 105.785 209.886 105.504 210.386 105.004C210.886 104.504 211.167 103.826 211.167 103.118C211.167 102.411 210.886 101.733 210.386 101.233C209.886 100.733 209.207 100.452 208.5 100.452C207.793 100.452 207.115 100.733 206.615 101.233C206.114 101.733 205.833 102.411 205.833 103.118Z" stroke="#7F7F82" stroke-width="2" stroke-linecap="round" stroke-linejoin="round"/>
<path d="M204.5 112.452V111.118C204.5 110.411 204.781 109.733 205.281 109.233C205.781 108.733 206.459 108.452 207.167 108.452H209.833C210.541 108.452 211.219 108.733 211.719 109.233C212.219 109.733 212.5 110.411 212.5 111.118V112.452" stroke="#7F7F82" stroke-width="2" stroke-linecap="round" stroke-linejoin="round"/>
</g>
<path d="M228.766 109.452H227.852V106.913H225.918V109.452H225.008V103.764H225.918V106.143H227.852V103.764H228.766V109.452ZM232.621 108.874C232.478 109.082 232.303 109.245 232.098 109.362C231.895 109.477 231.667 109.534 231.414 109.534C231.195 109.534 230.995 109.5 230.812 109.432C230.633 109.365 230.478 109.258 230.348 109.112C230.22 108.963 230.12 108.776 230.047 108.549C229.977 108.32 229.941 108.046 229.941 107.725V105.225H230.875V107.733C230.875 107.936 230.889 108.104 230.918 108.237C230.949 108.37 230.996 108.475 231.059 108.553C231.121 108.631 231.199 108.687 231.293 108.721C231.387 108.753 231.499 108.768 231.629 108.768C231.879 108.768 232.081 108.72 232.234 108.624C232.388 108.525 232.504 108.392 232.582 108.225V105.225H233.52V109.452H232.676L232.621 108.874ZM235.254 105.225L235.277 105.671C235.361 105.506 235.473 105.379 235.613 105.288C235.754 105.194 235.923 105.147 236.121 105.147C236.301 105.147 236.449 105.184 236.566 105.256C236.686 105.327 236.776 105.437 236.836 105.588C236.919 105.453 237.026 105.346 237.156 105.268C237.286 105.187 237.444 105.147 237.629 105.147C237.767 105.147 237.893 105.171 238.008 105.217C238.125 105.262 238.224 105.333 238.305 105.432C238.388 105.531 238.452 105.657 238.496 105.811C238.543 105.965 238.566 106.15 238.566 106.366V109.452H237.699V106.358C237.699 106.189 237.663 106.073 237.59 106.01C237.52 105.945 237.428 105.913 237.316 105.913C237.21 105.913 237.125 105.939 237.062 105.991C237 106.04 236.954 106.107 236.926 106.19V109.452H236.078V106.358C236.078 106.194 236.044 106.079 235.977 106.014C235.911 105.947 235.822 105.913 235.707 105.913C235.598 105.913 235.512 105.936 235.449 105.983C235.387 106.03 235.339 106.094 235.305 106.174V109.452H234.438V105.225H235.254ZM242.215 109.452C242.189 109.4 242.167 109.338 242.148 109.268C242.133 109.198 242.118 109.122 242.105 109.042C242.04 109.109 241.966 109.173 241.883 109.233C241.802 109.29 241.711 109.341 241.609 109.385C241.51 109.43 241.402 109.465 241.285 109.491C241.171 109.517 241.047 109.53 240.914 109.53C240.69 109.53 240.487 109.499 240.305 109.436C240.125 109.371 239.97 109.282 239.84 109.171C239.712 109.056 239.613 108.922 239.543 108.768C239.473 108.615 239.438 108.448 239.438 108.268C239.438 107.815 239.605 107.469 239.941 107.229C240.28 106.99 240.764 106.87 241.395 106.87H242.078V106.592C242.078 106.368 242.003 106.191 241.852 106.061C241.701 105.928 241.487 105.862 241.211 105.862C241.086 105.862 240.977 105.878 240.883 105.909C240.789 105.937 240.711 105.978 240.648 106.03C240.586 106.082 240.539 106.143 240.508 106.213C240.477 106.284 240.461 106.359 240.461 106.44H239.527C239.527 106.276 239.565 106.117 239.641 105.963C239.719 105.807 239.832 105.669 239.98 105.549C240.129 105.427 240.31 105.329 240.523 105.256C240.74 105.184 240.986 105.147 241.262 105.147C241.512 105.147 241.743 105.178 241.957 105.241C242.171 105.301 242.355 105.392 242.512 105.514C242.668 105.634 242.79 105.785 242.879 105.967C242.967 106.147 243.012 106.358 243.012 106.6V108.483C243.012 108.668 243.025 108.837 243.051 108.991C243.079 109.142 243.12 109.273 243.172 109.385V109.452H242.215ZM241.09 108.776C241.21 108.776 241.322 108.762 241.426 108.733C241.533 108.702 241.628 108.663 241.711 108.616C241.797 108.566 241.87 108.51 241.93 108.448C241.992 108.385 242.042 108.322 242.078 108.256V107.463H241.484C241.104 107.463 240.823 107.525 240.641 107.647C240.461 107.769 240.371 107.944 240.371 108.171C240.371 108.256 240.385 108.337 240.414 108.413C240.443 108.486 240.486 108.549 240.543 108.604C240.603 108.656 240.677 108.698 240.766 108.729C240.857 108.76 240.965 108.776 241.09 108.776ZM245.168 105.225L245.227 105.811C245.38 105.6 245.565 105.437 245.781 105.323C246 105.206 246.242 105.147 246.508 105.147C246.724 105.147 246.921 105.178 247.098 105.241C247.277 105.303 247.431 105.401 247.559 105.534C247.689 105.667 247.789 105.838 247.859 106.049C247.932 106.26 247.969 106.514 247.969 106.811V109.452H247.035V106.827C247.035 106.652 247.014 106.506 246.973 106.389C246.934 106.272 246.876 106.178 246.801 106.108C246.728 106.038 246.638 105.988 246.531 105.96C246.424 105.928 246.303 105.913 246.168 105.913C245.962 105.913 245.783 105.958 245.629 106.049C245.478 106.141 245.355 106.264 245.262 106.421V109.452H244.324V105.225H245.168ZM256.668 108.131H254.891L254.5 109.452H253.531L255.379 103.764H256.203L258.016 109.452H257.051L256.668 108.131ZM255.129 107.331H256.434L255.789 105.1L255.129 107.331ZM258.617 107.307C258.617 106.987 258.656 106.694 258.734 106.428C258.815 106.163 258.93 105.935 259.078 105.745C259.227 105.555 259.405 105.407 259.613 105.303C259.824 105.199 260.06 105.147 260.32 105.147C260.573 105.147 260.792 105.19 260.977 105.276C261.161 105.362 261.32 105.486 261.453 105.647L261.492 105.225H262.34V109.338C262.34 109.622 262.293 109.874 262.199 110.092C262.105 110.314 261.974 110.5 261.805 110.651C261.638 110.802 261.438 110.917 261.203 110.995C260.969 111.075 260.711 111.116 260.43 111.116C260.315 111.116 260.185 111.103 260.039 111.077C259.896 111.053 259.751 111.013 259.605 110.956C259.46 110.901 259.32 110.828 259.188 110.737C259.055 110.648 258.941 110.54 258.848 110.413L259.293 109.854C259.452 110.042 259.622 110.176 259.805 110.256C259.99 110.337 260.18 110.378 260.375 110.378C260.531 110.378 260.673 110.355 260.801 110.311C260.928 110.267 261.036 110.202 261.125 110.116C261.214 110.03 261.281 109.923 261.328 109.796C261.378 109.671 261.402 109.526 261.402 109.362V109.077C261.27 109.223 261.113 109.335 260.934 109.413C260.757 109.491 260.549 109.53 260.312 109.53C260.055 109.53 259.822 109.477 259.613 109.37C259.405 109.26 259.227 109.111 259.078 108.921C258.93 108.73 258.815 108.505 258.734 108.245C258.656 107.982 258.617 107.697 258.617 107.389V107.307ZM259.555 107.389C259.555 107.579 259.574 107.758 259.613 107.924C259.652 108.091 259.712 108.237 259.793 108.362C259.874 108.487 259.977 108.586 260.102 108.659C260.229 108.729 260.379 108.764 260.551 108.764C260.767 108.764 260.943 108.72 261.078 108.631C261.214 108.54 261.322 108.419 261.402 108.268V106.401C261.319 106.253 261.21 106.134 261.074 106.046C260.939 105.957 260.767 105.913 260.559 105.913C260.387 105.913 260.237 105.949 260.109 106.022C259.984 106.095 259.88 106.195 259.797 106.323C259.716 106.45 259.655 106.599 259.613 106.768C259.574 106.937 259.555 107.117 259.555 107.307V107.389ZM265.512 109.53C265.199 109.53 264.914 109.478 264.656 109.374C264.398 109.269 264.177 109.126 263.992 108.944C263.81 108.762 263.668 108.547 263.566 108.299C263.465 108.049 263.414 107.78 263.414 107.491V107.331C263.414 106.995 263.467 106.693 263.574 106.424C263.684 106.156 263.828 105.927 264.008 105.737C264.19 105.547 264.401 105.401 264.641 105.299C264.883 105.198 265.137 105.147 265.402 105.147C265.71 105.147 265.98 105.199 266.215 105.303C266.449 105.405 266.645 105.549 266.801 105.737C266.96 105.922 267.079 106.142 267.16 106.397C267.241 106.652 267.281 106.932 267.281 107.237V107.631H264.352C264.367 107.796 264.408 107.948 264.473 108.088C264.538 108.229 264.622 108.352 264.727 108.456C264.833 108.557 264.957 108.638 265.098 108.698C265.241 108.755 265.397 108.784 265.566 108.784C265.803 108.784 266.021 108.737 266.219 108.643C266.419 108.549 266.582 108.421 266.707 108.256L267.215 108.733C267.147 108.835 267.06 108.934 266.953 109.03C266.846 109.124 266.721 109.208 266.578 109.284C266.435 109.357 266.273 109.415 266.094 109.46C265.917 109.506 265.723 109.53 265.512 109.53ZM265.398 105.901C265.268 105.901 265.147 105.924 265.035 105.971C264.923 106.018 264.823 106.087 264.734 106.178C264.646 106.267 264.57 106.376 264.508 106.506C264.448 106.634 264.405 106.78 264.379 106.944H266.359V106.874C266.352 106.749 266.327 106.629 266.285 106.514C266.246 106.397 266.188 106.293 266.109 106.202C266.031 106.111 265.932 106.038 265.812 105.983C265.695 105.928 265.557 105.901 265.398 105.901ZM269.191 105.225L269.25 105.811C269.404 105.6 269.589 105.437 269.805 105.323C270.023 105.206 270.266 105.147 270.531 105.147C270.747 105.147 270.944 105.178 271.121 105.241C271.301 105.303 271.454 105.401 271.582 105.534C271.712 105.667 271.812 105.838 271.883 106.049C271.956 106.26 271.992 106.514 271.992 106.811V109.452H271.059V106.827C271.059 106.652 271.038 106.506 270.996 106.389C270.957 106.272 270.9 106.178 270.824 106.108C270.751 106.038 270.661 105.988 270.555 105.96C270.448 105.928 270.327 105.913 270.191 105.913C269.986 105.913 269.806 105.958 269.652 106.049C269.501 106.141 269.379 106.264 269.285 106.421V109.452H268.348V105.225H269.191ZM275.023 104.202V105.225H276.621V105.921H275.023V107.948C275.023 108.107 275.042 108.238 275.078 108.342C275.117 108.447 275.171 108.53 275.238 108.592C275.306 108.655 275.385 108.699 275.477 108.725C275.568 108.749 275.668 108.76 275.777 108.76C275.858 108.76 275.941 108.756 276.027 108.749C276.116 108.738 276.201 108.728 276.281 108.717C276.365 108.704 276.44 108.691 276.508 108.678C276.578 108.663 276.637 108.648 276.684 108.635L276.789 109.28C276.721 109.319 276.639 109.355 276.543 109.389C276.449 109.421 276.346 109.447 276.234 109.467C276.122 109.488 276.005 109.504 275.883 109.514C275.763 109.527 275.645 109.534 275.527 109.534C275.316 109.534 275.122 109.505 274.945 109.448C274.771 109.388 274.62 109.297 274.492 109.174C274.367 109.049 274.268 108.891 274.195 108.698C274.125 108.503 274.09 108.269 274.09 107.999V105.921H273.059V105.225H274.09V104.202H275.023Z" fill="#303136"/>
</g>
<defs>
<clipPath id="clip0_42_1035">
<rect width="287" height="124" fill="white"/>
</clipPath>
<clipPath id="clip1_42_1035">
<rect width="16" height="16" fill="white" transform="translate(200.5 98.4518)"/>
</clipPath>
</defs>
</svg>
