<?xml version="1.0" encoding="UTF-8"?>
<svg id="Layer_1" xmlns="http://www.w3.org/2000/svg" version="1.1" viewBox="0 0 357 164.89">
  <!-- Generator: Adobe Illustrator 29.4.0, SVG Export Plug-In . SVG Version: 2.1.0 Build 152)  -->
  <defs>
    <style>
      .st0 {
        stroke: #303136;
      }

      .st0, .st1 {
        stroke-linejoin: round;
      }

      .st0, .st1, .st2 {
        fill: none;
        stroke-linecap: round;
        stroke-width: 4px;
      }

      .st1 {
        stroke: #a5a8ab;
      }

      .st3 {
        fill: #fff;
      }

      .st2 {
        stroke: #000;
      }

      .st4 {
        fill: #303136;
      }
    </style>
  </defs>
  <path class="st0" d="M67.81,68.98c3.18,0,6.23,1.26,8.49,3.51,2.25,2.25,3.51,5.3,3.51,8.49v32c0,3.18-1.26,6.23-3.51,8.49-2.25,2.25-5.3,3.51-8.49,3.51h-20l-20,12v-12h-8c-3.18,0-6.23-1.26-8.49-3.51-2.25-2.25-3.51-5.3-3.51-8.49v-32c0-3.18,1.26-6.23,3.51-8.49s5.3-3.51,8.49-3.51h48Z"/>
  <path class="st0" d="M99.88,96.7h32M131.88,96.7l-9.14-9.14M131.88,96.7l-9.14,9.14"/>
  <path class="st0" d="M332.08,84.7c1.86,1.4,3.38,3.21,4.42,5.29s1.58,4.38,1.58,6.71-.54,4.62-1.58,6.71c-1.04,2.08-2.55,3.89-4.42,5.29M340.18,75.7c3.13,2.53,5.66,5.73,7.39,9.36,1.74,3.63,2.64,7.61,2.64,11.64s-.9,8-2.64,11.64c-1.74,3.63-4.26,6.83-7.39,9.36M305.08,105.7h-6c-.8,0-1.56-.32-2.12-.88s-.88-1.33-.88-2.12v-12c0-.8.32-1.56.88-2.12.56-.56,1.33-.88,2.12-.88h6l10.5-13.5c.26-.51.7-.91,1.23-1.12.53-.22,1.12-.24,1.66-.05.54.18,1,.55,1.3,1.04.29.49.4,1.07.31,1.64v42c.1.56-.01,1.14-.31,1.64-.29.49-.76.86-1.3,1.04-.54.18-1.13.16-1.66-.05-.53-.22-.97-.62-1.23-1.12l-10.5-13.5v-.02Z"/>
  <rect class="st4" x="165.27" y="74.09" width="45.28" height="45.28" rx="2" ry="2"/>
  <path class="st0" d="M151.95,88.7h8M151.95,104.7h8M179.95,60.7v8M195.95,60.7v8M223.95,88.7h-8M223.95,104.7h-8M195.95,132.7v-8M179.95,132.7v-8M159.95,72.7c0-1.06.42-2.08,1.17-2.83s1.77-1.17,2.83-1.17h48c1.06,0,2.08.42,2.83,1.17s1.17,1.77,1.17,2.83v48c0,1.06-.42,2.08-1.17,2.83s-1.77,1.17-2.83,1.17h-48c-1.06,0-2.08-.42-2.83-1.17s-1.17-1.77-1.17-2.83v-48Z"/>
  <path class="st3" d="M172.71,103.5v-12.6h1.91v10.89h6.21v1.71h-8.12ZM183.51,103.5v-12.6h1.91v10.89h6.21v1.71h-8.12ZM193.62,103.5v-12.6h2.02l2.61,5.69,2.61-5.69h2.02v12.6h-1.82v-8.96l-2.05,4.5h-1.51l-2.05-4.48v8.95h-1.83Z"/>
  <path class="st1" d="M43.15,52.98v-19h9.87M43.15,52.98l9.14-9.14M43.15,52.98l-9.14-9.14"/>
  <path class="st1" d="M43.31,33.98h279.83"/>
  <path class="st1" d="M323.24,33.85v19.14"/>
  <path class="st2" d="M43.81,77.7v38M53.81,85.7v22M63.81,91.7v10M33.81,85.7v22M23.81,91.7v10"/>
  <path class="st0" d="M244.01,96.7h32M276.01,96.7l-9.14-9.14M276.01,96.7l-9.14,9.14"/>
</svg>