<svg width="137" height="400" viewBox="0 0 137 400" fill="none" xmlns="http://www.w3.org/2000/svg">
<path d="M56.5553 38.4395L18.5553 38.4395" stroke="#303136" stroke-width="4" stroke-linecap="round"/>
<path d="M48.5553 48.4395L26.5553 48.4395" stroke="#303136" stroke-width="4" stroke-linecap="round"/>
<path d="M42.5553 58.4395L32.5553 58.4395" stroke="#303136" stroke-width="4" stroke-linecap="round"/>
<path d="M48.5553 28.4395L26.5553 28.4395" stroke="#303136" stroke-width="4" stroke-linecap="round"/>
<path d="M42.5553 18.4395L32.5553 18.4395" stroke="#303136" stroke-width="4" stroke-linecap="round"/>
<path d="M56.5553 78.4395L18.5553 78.4395" stroke="#303136" stroke-width="4" stroke-linecap="round"/>
<path d="M48.5553 88.4395L26.5553 88.4395" stroke="#303136" stroke-width="4" stroke-linecap="round"/>
<path d="M42.5553 98.4395L32.5553 98.4395" stroke="#303136" stroke-width="4" stroke-linecap="round"/>
<path d="M48.5553 68.4395L26.5553 68.4395" stroke="#303136" stroke-width="4" stroke-linecap="round"/>
<path d="M42.5553 58.4395L32.5553 58.4395" stroke="#303136" stroke-width="4" stroke-linecap="round"/>
<path d="M56.5553 118.44L18.5553 118.44" stroke="#303136" stroke-width="4" stroke-linecap="round"/>
<path d="M48.5553 128.44L26.5553 128.44" stroke="#303136" stroke-width="4" stroke-linecap="round"/>
<path d="M42.5553 138.44L32.5553 138.44" stroke="#303136" stroke-width="4" stroke-linecap="round"/>
<path d="M48.5553 108.44L26.5553 108.44" stroke="#303136" stroke-width="4" stroke-linecap="round"/>
<path d="M42.5553 98.4395L32.5553 98.4395" stroke="#303136" stroke-width="4" stroke-linecap="round"/>
<path d="M37.6803 152.44L37.4303 152.44" stroke="#303136" stroke-width="4" stroke-linecap="round"/>
<path d="M37.6803 160.44L37.4303 160.44" stroke="#303136" stroke-width="4" stroke-linecap="round"/>
<path d="M37.6803 168.44L37.4303 168.44" stroke="#303136" stroke-width="4" stroke-linecap="round"/>
<path d="M37.6803 176.44L37.4303 176.44" stroke="#303136" stroke-width="4" stroke-linecap="round"/>
<path d="M37.6803 184.44L37.4303 184.44" stroke="#303136" stroke-width="4" stroke-linecap="round"/>
<path d="M37.6803 192.44L37.4303 192.44" stroke="#303136" stroke-width="4" stroke-linecap="round"/>
<path d="M37.6803 200.44L37.4303 200.44" stroke="#303136" stroke-width="4" stroke-linecap="round"/>
<path d="M37.6803 208.44L37.4303 208.44" stroke="#303136" stroke-width="4" stroke-linecap="round"/>
<path d="M37.6803 216.44L37.4303 216.44" stroke="#303136" stroke-width="4" stroke-linecap="round"/>
<path d="M37.6803 224.44L37.4303 224.44" stroke="#303136" stroke-width="4" stroke-linecap="round"/>
<path d="M37.6803 232.44L37.4303 232.44" stroke="#303136" stroke-width="4" stroke-linecap="round"/>
<path d="M37.6803 240.44L37.4303 240.44" stroke="#303136" stroke-width="4" stroke-linecap="round"/>
<path d="M37.6803 248.44L37.4303 248.44" stroke="#303136" stroke-width="4" stroke-linecap="round"/>
<path d="M56.5553 282.44L18.5553 282.44" stroke="#303136" stroke-width="4" stroke-linecap="round"/>
<path d="M48.5553 292.44L26.5553 292.44" stroke="#303136" stroke-width="4" stroke-linecap="round"/>
<path d="M42.5553 302.44L32.5553 302.44" stroke="#303136" stroke-width="4" stroke-linecap="round"/>
<path d="M48.5553 272.44L26.5553 272.44" stroke="#303136" stroke-width="4" stroke-linecap="round"/>
<path d="M42.5553 262.44L32.5553 262.44" stroke="#303136" stroke-width="4" stroke-linecap="round"/>
<path d="M56.5553 322.44L18.5553 322.44" stroke="#303136" stroke-width="4" stroke-linecap="round"/>
<path d="M48.5553 332.44L26.5553 332.44" stroke="#303136" stroke-width="4" stroke-linecap="round"/>
<path d="M42.5553 342.44L32.5553 342.44" stroke="#303136" stroke-width="4" stroke-linecap="round"/>
<path d="M48.5553 312.44L26.5553 312.44" stroke="#303136" stroke-width="4" stroke-linecap="round"/>
<path d="M42.5553 302.44L32.5553 302.44" stroke="#303136" stroke-width="4" stroke-linecap="round"/>
<path d="M56.5553 362.44L18.5553 362.44" stroke="#303136" stroke-width="4" stroke-linecap="round"/>
<path d="M48.5553 372.44L26.5553 372.44" stroke="#303136" stroke-width="4" stroke-linecap="round"/>
<path d="M42.5553 382.44L32.5553 382.44" stroke="#303136" stroke-width="4" stroke-linecap="round"/>
<path d="M48.5553 352.44L26.5553 352.44" stroke="#303136" stroke-width="4" stroke-linecap="round"/>
<path d="M42.5553 342.44L32.5553 342.44" stroke="#303136" stroke-width="4" stroke-linecap="round"/>
<path d="M79.0232 194.373L79.9109 191.176H80.6785L79.3601 195.442H78.6892L77.3738 191.176H78.1414L79.0232 194.373ZM81.1589 193.828C81.1589 193.599 81.1921 193.386 81.2585 193.189C81.3269 192.992 81.4236 192.821 81.5486 192.676C81.6755 192.532 81.8298 192.419 82.0115 192.337C82.1931 192.254 82.3992 192.213 82.6296 192.213C82.8621 192.213 83.0691 192.254 83.2507 192.337C83.4343 192.419 83.5886 192.532 83.7136 192.676C83.8406 192.821 83.9373 192.992 84.0037 193.189C84.0701 193.386 84.1033 193.599 84.1033 193.828V193.889C84.1033 194.12 84.0701 194.334 84.0037 194.531C83.9373 194.728 83.8406 194.899 83.7136 195.044C83.5886 195.186 83.4353 195.298 83.2537 195.38C83.072 195.462 82.866 195.504 82.6355 195.504C82.4031 195.504 82.1951 195.462 82.0115 195.38C81.8298 195.298 81.6755 195.186 81.5486 195.044C81.4236 194.899 81.3269 194.728 81.2585 194.531C81.1921 194.334 81.1589 194.12 81.1589 193.889V193.828ZM81.8591 193.889C81.8591 194.034 81.8738 194.17 81.9031 194.296C81.9343 194.423 81.9812 194.536 82.0437 194.633C82.1082 194.729 82.1892 194.805 82.2869 194.862C82.3845 194.917 82.5007 194.944 82.6355 194.944C82.7664 194.944 82.8796 194.917 82.9753 194.862C83.073 194.805 83.1531 194.729 83.2156 194.633C83.28 194.536 83.3269 194.423 83.3562 194.296C83.3875 194.17 83.4031 194.034 83.4031 193.889V193.828C83.4031 193.687 83.3875 193.553 83.3562 193.426C83.3269 193.299 83.28 193.188 83.2156 193.092C83.1531 192.997 83.073 192.921 82.9753 192.864C82.8796 192.807 82.7644 192.779 82.6296 192.779C82.4968 192.779 82.3816 192.807 82.2839 192.864C82.1863 192.921 82.1062 192.997 82.0437 193.092C81.9812 193.188 81.9343 193.299 81.9031 193.426C81.8738 193.553 81.8591 193.687 81.8591 193.828V193.889ZM85.0437 192.272H86.7341V194.862H87.6746V195.442H85.0437V194.862H86.0281V192.855H85.0437V192.272ZM85.9695 191.452C85.9695 191.342 86.0046 191.253 86.075 191.182C86.1453 191.11 86.2439 191.074 86.3708 191.074C86.4998 191.074 86.5994 191.11 86.6697 191.182C86.7419 191.253 86.7781 191.342 86.7781 191.452C86.7781 191.561 86.7419 191.652 86.6697 191.724C86.5994 191.795 86.4998 191.83 86.3708 191.83C86.2439 191.83 86.1453 191.795 86.075 191.724C86.0046 191.652 85.9695 191.561 85.9695 191.452ZM89.8806 194.944C89.9666 194.944 90.0496 194.93 90.1296 194.903C90.2117 194.876 90.2839 194.837 90.3464 194.789C90.4089 194.74 90.4578 194.682 90.4929 194.616C90.53 194.549 90.5476 194.477 90.5457 194.399H91.2078C91.2097 194.551 91.1746 194.695 91.1023 194.83C91.032 194.962 90.9353 195.079 90.8123 195.178C90.6912 195.278 90.5505 195.357 90.3904 195.416C90.2302 195.474 90.0623 195.504 89.8865 195.504C89.6423 195.504 89.4285 195.462 89.2449 195.378C89.0613 195.294 88.908 195.179 88.7849 195.035C88.6619 194.888 88.5691 194.719 88.5066 194.528C88.446 194.335 88.4158 194.129 88.4158 193.913V193.807C88.4158 193.59 88.446 193.385 88.5066 193.192C88.5691 192.999 88.6619 192.83 88.7849 192.685C88.908 192.541 89.0613 192.426 89.2449 192.342C89.4285 192.256 89.6414 192.213 89.8835 192.213C90.075 192.213 90.2517 192.243 90.4138 192.301C90.5779 192.36 90.7185 192.442 90.8357 192.547C90.9548 192.653 91.0466 192.779 91.1111 192.925C91.1775 193.072 91.2097 193.232 91.2078 193.406H90.5457C90.5476 193.32 90.532 193.239 90.4988 193.163C90.4675 193.087 90.4216 193.02 90.3611 192.963C90.3005 192.907 90.2292 192.862 90.1472 192.829C90.0652 192.796 89.9753 192.779 89.8777 192.779C89.7312 192.779 89.6091 192.809 89.5115 192.87C89.4138 192.928 89.3357 193.006 89.2771 193.104C89.2185 193.2 89.1765 193.309 89.1511 193.432C89.1277 193.555 89.116 193.68 89.116 193.807V193.913C89.116 194.042 89.1277 194.168 89.1511 194.291C89.1765 194.414 89.2185 194.524 89.2771 194.622C89.3357 194.717 89.4138 194.796 89.5115 194.856C89.6091 194.915 89.7322 194.944 89.8806 194.944ZM93.575 195.501C93.3406 195.501 93.1267 195.462 92.9333 195.383C92.74 195.305 92.574 195.198 92.4353 195.061C92.2986 194.924 92.1921 194.763 92.116 194.578C92.0398 194.39 92.0017 194.188 92.0017 193.971V193.851C92.0017 193.599 92.0417 193.373 92.1218 193.171C92.2039 192.97 92.3123 192.798 92.447 192.656C92.5837 192.513 92.7419 192.404 92.9216 192.328C93.1033 192.252 93.2937 192.213 93.4929 192.213C93.7234 192.213 93.9265 192.253 94.1023 192.331C94.2781 192.407 94.4246 192.515 94.5417 192.656C94.6609 192.795 94.7507 192.96 94.8113 193.151C94.8718 193.342 94.9021 193.552 94.9021 193.781V194.077H92.7048C92.7166 194.2 92.7468 194.314 92.7957 194.42C92.8445 194.525 92.908 194.617 92.9861 194.695C93.0662 194.771 93.1589 194.832 93.2644 194.877C93.3718 194.92 93.489 194.941 93.616 194.941C93.7937 194.941 93.9568 194.906 94.1052 194.836C94.2556 194.765 94.3777 194.669 94.4714 194.546L94.8523 194.903C94.8015 194.979 94.7361 195.053 94.656 195.126C94.5759 195.196 94.4822 195.259 94.3748 195.316C94.2673 195.371 94.1462 195.415 94.0115 195.448C93.8787 195.483 93.7332 195.501 93.575 195.501ZM93.49 192.779C93.3923 192.779 93.3015 192.796 93.2175 192.832C93.1335 192.867 93.0583 192.919 92.9919 192.987C92.9255 193.053 92.8689 193.135 92.822 193.233C92.7771 193.329 92.7449 193.438 92.7253 193.561H94.2107V193.508C94.2048 193.415 94.1863 193.325 94.155 193.239C94.1257 193.151 94.0818 193.073 94.0232 193.004C93.9646 192.936 93.8904 192.881 93.8005 192.84C93.7126 192.799 93.6091 192.779 93.49 192.779ZM98.324 193.854H95.9773V193.289H98.324V193.854ZM100.709 191.504V192.272H101.907V192.794H100.709V194.314C100.709 194.433 100.722 194.532 100.75 194.61C100.779 194.688 100.819 194.751 100.87 194.797C100.921 194.844 100.98 194.878 101.049 194.897C101.117 194.915 101.192 194.923 101.274 194.923C101.335 194.923 101.397 194.921 101.462 194.915C101.528 194.907 101.592 194.899 101.652 194.891C101.715 194.881 101.771 194.872 101.822 194.862C101.875 194.85 101.919 194.839 101.954 194.83L102.033 195.313C101.982 195.342 101.921 195.37 101.848 195.395C101.778 195.419 101.701 195.438 101.617 195.454C101.533 195.469 101.445 195.481 101.353 195.489C101.263 195.499 101.175 195.504 101.087 195.504C100.928 195.504 100.783 195.482 100.65 195.439C100.519 195.394 100.406 195.326 100.31 195.234C100.217 195.14 100.142 195.021 100.088 194.877C100.035 194.73 100.009 194.555 100.009 194.352V192.794H99.2351V192.272H100.009V191.504H100.709ZM102.78 193.828C102.78 193.599 102.813 193.386 102.88 193.189C102.948 192.992 103.045 192.821 103.17 192.676C103.297 192.532 103.451 192.419 103.633 192.337C103.814 192.254 104.02 192.213 104.251 192.213C104.483 192.213 104.69 192.254 104.872 192.337C105.055 192.419 105.21 192.532 105.335 192.676C105.462 192.821 105.558 192.992 105.625 193.189C105.691 193.386 105.724 193.599 105.724 193.828V193.889C105.724 194.12 105.691 194.334 105.625 194.531C105.558 194.728 105.462 194.899 105.335 195.044C105.21 195.186 105.056 195.298 104.875 195.38C104.693 195.462 104.487 195.504 104.257 195.504C104.024 195.504 103.816 195.462 103.633 195.38C103.451 195.298 103.297 195.186 103.17 195.044C103.045 194.899 102.948 194.728 102.88 194.531C102.813 194.334 102.78 194.12 102.78 193.889V193.828ZM103.48 193.889C103.48 194.034 103.495 194.17 103.524 194.296C103.555 194.423 103.602 194.536 103.665 194.633C103.729 194.729 103.81 194.805 103.908 194.862C104.006 194.917 104.122 194.944 104.257 194.944C104.387 194.944 104.501 194.917 104.596 194.862C104.694 194.805 104.774 194.729 104.837 194.633C104.901 194.536 104.948 194.423 104.977 194.296C105.009 194.17 105.024 194.034 105.024 193.889V193.828C105.024 193.687 105.009 193.553 104.977 193.426C104.948 193.299 104.901 193.188 104.837 193.092C104.774 192.997 104.694 192.921 104.596 192.864C104.501 192.807 104.385 192.779 104.251 192.779C104.118 192.779 104.003 192.807 103.905 192.864C103.807 192.921 103.727 192.997 103.665 193.092C103.602 193.188 103.555 193.299 103.524 193.426C103.495 193.553 103.48 193.687 103.48 193.828V193.889ZM109.135 193.854H106.788V193.289H109.135V193.854ZM111.455 194.373L112.343 191.176H113.11L111.792 195.442H111.121L109.805 191.176H110.573L111.455 194.373ZM113.591 193.828C113.591 193.599 113.624 193.386 113.69 193.189C113.759 192.992 113.855 192.821 113.98 192.676C114.107 192.532 114.261 192.419 114.443 192.337C114.625 192.254 114.831 192.213 115.061 192.213C115.294 192.213 115.501 192.254 115.682 192.337C115.866 192.419 116.02 192.532 116.145 192.676C116.272 192.821 116.369 192.992 116.435 193.189C116.502 193.386 116.535 193.599 116.535 193.828V193.889C116.535 194.12 116.502 194.334 116.435 194.531C116.369 194.728 116.272 194.899 116.145 195.044C116.02 195.186 115.867 195.298 115.685 195.38C115.504 195.462 115.298 195.504 115.067 195.504C114.835 195.504 114.627 195.462 114.443 195.38C114.261 195.298 114.107 195.186 113.98 195.044C113.855 194.899 113.759 194.728 113.69 194.531C113.624 194.334 113.591 194.12 113.591 193.889V193.828ZM114.291 193.889C114.291 194.034 114.305 194.17 114.335 194.296C114.366 194.423 114.413 194.536 114.475 194.633C114.54 194.729 114.621 194.805 114.719 194.862C114.816 194.917 114.932 194.944 115.067 194.944C115.198 194.944 115.311 194.917 115.407 194.862C115.505 194.805 115.585 194.729 115.647 194.633C115.712 194.536 115.759 194.423 115.788 194.296C115.819 194.17 115.835 194.034 115.835 193.889V193.828C115.835 193.687 115.819 193.553 115.788 193.426C115.759 193.299 115.712 193.188 115.647 193.092C115.585 192.997 115.505 192.921 115.407 192.864C115.311 192.807 115.196 192.779 115.061 192.779C114.928 192.779 114.813 192.807 114.716 192.864C114.618 192.921 114.538 192.997 114.475 193.092C114.413 193.188 114.366 193.299 114.335 193.426C114.305 193.553 114.291 193.687 114.291 193.828V193.889ZM117.475 192.272H119.166V194.862H120.106V195.442H117.475V194.862H118.46V192.855H117.475V192.272ZM118.401 191.452C118.401 191.342 118.436 191.253 118.507 191.182C118.577 191.11 118.676 191.074 118.802 191.074C118.931 191.074 119.031 191.11 119.101 191.182C119.174 191.253 119.21 191.342 119.21 191.452C119.21 191.561 119.174 191.652 119.101 191.724C119.031 191.795 118.931 191.83 118.802 191.83C118.676 191.83 118.577 191.795 118.507 191.724C118.436 191.652 118.401 191.561 118.401 191.452ZM122.312 194.944C122.398 194.944 122.481 194.93 122.561 194.903C122.643 194.876 122.716 194.837 122.778 194.789C122.841 194.74 122.889 194.682 122.925 194.616C122.962 194.549 122.979 194.477 122.977 194.399H123.639C123.641 194.551 123.606 194.695 123.534 194.83C123.464 194.962 123.367 195.079 123.244 195.178C123.123 195.278 122.982 195.357 122.822 195.416C122.662 195.474 122.494 195.504 122.318 195.504C122.074 195.504 121.86 195.462 121.677 195.378C121.493 195.294 121.34 195.179 121.217 195.035C121.094 194.888 121.001 194.719 120.938 194.528C120.878 194.335 120.847 194.129 120.847 193.913V193.807C120.847 193.59 120.878 193.385 120.938 193.192C121.001 192.999 121.094 192.83 121.217 192.685C121.34 192.541 121.493 192.426 121.677 192.342C121.86 192.256 122.073 192.213 122.315 192.213C122.507 192.213 122.683 192.243 122.845 192.301C123.01 192.36 123.15 192.442 123.267 192.547C123.386 192.653 123.478 192.779 123.543 192.925C123.609 193.072 123.641 193.232 123.639 193.406H122.977C122.979 193.32 122.964 193.239 122.93 193.163C122.899 193.087 122.853 193.02 122.793 192.963C122.732 192.907 122.661 192.862 122.579 192.829C122.497 192.796 122.407 192.779 122.309 192.779C122.163 192.779 122.041 192.809 121.943 192.87C121.845 192.928 121.767 193.006 121.709 193.104C121.65 193.2 121.608 193.309 121.583 193.432C121.559 193.555 121.548 193.68 121.548 193.807V193.913C121.548 194.042 121.559 194.168 121.583 194.291C121.608 194.414 121.65 194.524 121.709 194.622C121.767 194.717 121.845 194.796 121.943 194.856C122.041 194.915 122.164 194.944 122.312 194.944ZM126.007 195.501C125.772 195.501 125.558 195.462 125.365 195.383C125.172 195.305 125.006 195.198 124.867 195.061C124.73 194.924 124.624 194.763 124.548 194.578C124.471 194.39 124.433 194.188 124.433 193.971V193.851C124.433 193.599 124.473 193.373 124.553 193.171C124.635 192.97 124.744 192.798 124.879 192.656C125.015 192.513 125.174 192.404 125.353 192.328C125.535 192.252 125.725 192.213 125.925 192.213C126.155 192.213 126.358 192.253 126.534 192.331C126.71 192.407 126.856 192.515 126.973 192.656C127.093 192.795 127.182 192.96 127.243 193.151C127.303 193.342 127.334 193.552 127.334 193.781V194.077H125.136C125.148 194.2 125.178 194.314 125.227 194.42C125.276 194.525 125.34 194.617 125.418 194.695C125.498 194.771 125.591 194.832 125.696 194.877C125.803 194.92 125.921 194.941 126.048 194.941C126.225 194.941 126.388 194.906 126.537 194.836C126.687 194.765 126.809 194.669 126.903 194.546L127.284 194.903C127.233 194.979 127.168 195.053 127.088 195.126C127.008 195.196 126.914 195.259 126.806 195.316C126.699 195.371 126.578 195.415 126.443 195.448C126.31 195.483 126.165 195.501 126.007 195.501ZM125.922 192.779C125.824 192.779 125.733 192.796 125.649 192.832C125.565 192.867 125.49 192.919 125.424 192.987C125.357 193.053 125.301 193.135 125.254 193.233C125.209 193.329 125.177 193.438 125.157 193.561H126.642V193.508C126.636 193.415 126.618 193.325 126.587 193.239C126.557 193.151 126.513 193.073 126.455 193.004C126.396 192.936 126.322 192.881 126.232 192.84C126.144 192.799 126.041 192.779 125.922 192.779ZM77.8132 198.942H79.5271V202.862H80.4939V203.442H77.8132V202.862H78.821V199.525H77.8132V198.942ZM83.3093 203.442C83.2898 203.403 83.2732 203.357 83.2595 203.304C83.2478 203.252 83.2371 203.195 83.2273 203.134C83.1785 203.185 83.1228 203.233 83.0603 203.278C82.9998 203.321 82.9314 203.359 82.8552 203.392C82.781 203.425 82.7 203.452 82.6121 203.471C82.5261 203.491 82.4333 203.501 82.3337 203.501C82.1658 203.501 82.0134 203.477 81.8767 203.43C81.7419 203.381 81.6257 203.315 81.5281 203.231C81.4324 203.145 81.3582 203.045 81.3054 202.929C81.2527 202.814 81.2263 202.689 81.2263 202.554C81.2263 202.214 81.3523 201.955 81.6042 201.775C81.8582 201.595 82.2214 201.505 82.6941 201.505H83.2068V201.297C83.2068 201.129 83.1501 200.997 83.0369 200.899C82.9236 200.799 82.7634 200.75 82.5564 200.75C82.4626 200.75 82.3806 200.761 82.3103 200.785C82.24 200.806 82.1814 200.837 82.1345 200.876C82.0876 200.915 82.0525 200.961 82.0291 201.013C82.0056 201.066 81.9939 201.123 81.9939 201.183H81.2937C81.2937 201.06 81.322 200.941 81.3787 200.826C81.4373 200.709 81.5222 200.605 81.6335 200.515C81.7449 200.423 81.8806 200.35 82.0408 200.296C82.2029 200.241 82.3875 200.213 82.5945 200.213C82.782 200.213 82.9558 200.237 83.116 200.284C83.2761 200.329 83.4148 200.397 83.532 200.489C83.6492 200.579 83.741 200.692 83.8074 200.829C83.8738 200.963 83.907 201.122 83.907 201.303V202.715C83.907 202.854 83.9167 202.981 83.9363 203.096C83.9578 203.21 83.988 203.308 84.0271 203.392V203.442H83.3093ZM82.4656 202.935C82.5554 202.935 82.6394 202.924 82.7175 202.903C82.7976 202.879 82.8689 202.85 82.9314 202.815C82.9958 202.778 83.0505 202.736 83.0955 202.689C83.1423 202.642 83.1794 202.594 83.2068 202.546V201.951H82.7615C82.4763 201.951 82.2654 201.997 82.1287 202.088C81.9939 202.18 81.9265 202.311 81.9265 202.481C81.9265 202.546 81.9373 202.606 81.9587 202.663C81.9802 202.717 82.0125 202.765 82.0554 202.806C82.1003 202.845 82.156 202.877 82.2224 202.9C82.2908 202.923 82.3718 202.935 82.4656 202.935ZM86.2947 199.504V200.272H87.4929V200.794H86.2947V202.314C86.2947 202.433 86.3083 202.532 86.3357 202.61C86.365 202.688 86.405 202.751 86.4558 202.797C86.5066 202.844 86.5662 202.878 86.6345 202.897C86.7029 202.915 86.7781 202.923 86.8601 202.923C86.9207 202.923 86.9832 202.921 87.0476 202.915C87.114 202.907 87.1775 202.899 87.238 202.891C87.3005 202.881 87.3572 202.872 87.408 202.862C87.4607 202.85 87.5046 202.839 87.5398 202.83L87.6189 203.313C87.5681 203.342 87.5066 203.37 87.4343 203.395C87.364 203.419 87.2869 203.438 87.2029 203.454C87.1189 203.469 87.031 203.481 86.9392 203.489C86.8494 203.499 86.7605 203.504 86.6726 203.504C86.5144 203.504 86.3689 203.482 86.2361 203.439C86.1052 203.394 85.9919 203.326 85.8962 203.234C85.8025 203.14 85.7283 203.021 85.6736 202.877C85.6208 202.73 85.5945 202.555 85.5945 202.352V200.794H84.821V200.272H85.5945V199.504H86.2947ZM89.9714 203.501C89.7371 203.501 89.5232 203.462 89.3298 203.383C89.1365 203.305 88.9705 203.198 88.8318 203.061C88.6951 202.924 88.5886 202.763 88.5125 202.578C88.4363 202.39 88.3982 202.188 88.3982 201.971V201.851C88.3982 201.599 88.4382 201.373 88.5183 201.171C88.6003 200.97 88.7087 200.798 88.8435 200.656C88.9802 200.513 89.1384 200.404 89.3181 200.328C89.4998 200.252 89.6902 200.213 89.8894 200.213C90.1199 200.213 90.323 200.253 90.4988 200.331C90.6746 200.407 90.821 200.515 90.9382 200.656C91.0574 200.795 91.1472 200.96 91.2078 201.151C91.2683 201.342 91.2986 201.552 91.2986 201.781V202.077H89.1013C89.113 202.2 89.1433 202.314 89.1921 202.42C89.241 202.525 89.3044 202.617 89.3826 202.695C89.4626 202.771 89.5554 202.832 89.6609 202.877C89.7683 202.92 89.8855 202.941 90.0125 202.941C90.1902 202.941 90.3533 202.906 90.5017 202.836C90.6521 202.765 90.7742 202.669 90.8679 202.546L91.2488 202.903C91.198 202.979 91.1326 203.053 91.0525 203.126C90.9724 203.196 90.8787 203.259 90.7712 203.316C90.6638 203.371 90.5427 203.415 90.408 203.448C90.2751 203.483 90.1296 203.501 89.9714 203.501ZM89.8865 200.779C89.7888 200.779 89.698 200.796 89.614 200.832C89.53 200.867 89.4548 200.919 89.3884 200.987C89.322 201.053 89.2654 201.135 89.2185 201.233C89.1736 201.329 89.1414 201.438 89.1218 201.561H90.6072V201.508C90.6013 201.415 90.5828 201.325 90.5515 201.239C90.5222 201.151 90.4783 201.073 90.4197 201.004C90.3611 200.936 90.2869 200.881 90.197 200.84C90.1091 200.799 90.0056 200.779 89.8865 200.779ZM92.7312 200.272L92.7751 200.712C92.8904 200.553 93.0291 200.431 93.1912 200.345C93.3552 200.257 93.5369 200.213 93.7361 200.213C93.8982 200.213 94.0457 200.237 94.1785 200.284C94.3132 200.331 94.4285 200.404 94.5242 200.504C94.6218 200.603 94.697 200.732 94.7498 200.89C94.8044 201.048 94.8318 201.239 94.8318 201.462V203.442H94.1316V201.473C94.1316 201.342 94.116 201.233 94.0847 201.145C94.0554 201.057 94.0125 200.987 93.9558 200.934C93.9011 200.881 93.8337 200.844 93.7537 200.823C93.6736 200.799 93.5828 200.788 93.4812 200.788C93.3269 200.788 93.1921 200.822 93.0769 200.89C92.9636 200.959 92.8718 201.051 92.8015 201.169V203.442H92.0984V200.272H92.7312ZM97.0876 202.944C97.1736 202.944 97.2566 202.93 97.3367 202.903C97.4187 202.876 97.491 202.837 97.5535 202.789C97.616 202.74 97.6648 202.682 97.7 202.616C97.7371 202.549 97.7546 202.477 97.7527 202.399H98.4148C98.4167 202.551 98.3816 202.695 98.3093 202.83C98.239 202.962 98.1423 203.079 98.0193 203.178C97.8982 203.278 97.7576 203.357 97.5974 203.416C97.4373 203.474 97.2693 203.504 97.0935 203.504C96.8494 203.504 96.6355 203.462 96.4519 203.378C96.2683 203.294 96.115 203.179 95.9919 203.035C95.8689 202.888 95.7761 202.719 95.7136 202.528C95.6531 202.335 95.6228 202.129 95.6228 201.913V201.807C95.6228 201.59 95.6531 201.385 95.7136 201.192C95.7761 200.999 95.8689 200.83 95.9919 200.685C96.115 200.541 96.2683 200.426 96.4519 200.342C96.6355 200.256 96.8484 200.213 97.0906 200.213C97.282 200.213 97.4587 200.243 97.6208 200.301C97.7849 200.36 97.9255 200.442 98.0427 200.547C98.1619 200.653 98.2537 200.779 98.3181 200.925C98.3845 201.072 98.4167 201.232 98.4148 201.406H97.7527C97.7546 201.32 97.739 201.239 97.7058 201.163C97.6746 201.087 97.6287 201.02 97.5681 200.963C97.5076 200.907 97.4363 200.862 97.3542 200.829C97.2722 200.796 97.1824 200.779 97.0847 200.779C96.9382 200.779 96.8162 200.809 96.7185 200.87C96.6208 200.928 96.5427 201.006 96.4841 201.104C96.4255 201.2 96.3835 201.309 96.3582 201.432C96.3347 201.555 96.323 201.68 96.323 201.807V201.913C96.323 202.042 96.3347 202.168 96.3582 202.291C96.3835 202.414 96.4255 202.524 96.4841 202.622C96.5427 202.717 96.6208 202.796 96.7185 202.856C96.8162 202.915 96.9392 202.944 97.0876 202.944ZM100.562 202.173L100.682 202.554L101.573 200.272H102.349L100.744 203.922C100.709 204.003 100.663 204.088 100.606 204.18C100.55 204.274 100.479 204.361 100.395 204.441C100.313 204.521 100.215 204.587 100.099 204.64C99.9841 204.695 99.8494 204.722 99.6951 204.722C99.6306 204.722 99.5652 204.716 99.4988 204.705C99.4343 204.695 99.3767 204.683 99.3259 204.67L99.4255 204.125C99.4392 204.125 99.4578 204.125 99.4812 204.125C99.5046 204.127 99.5291 204.129 99.5544 204.13C99.5798 204.132 99.6033 204.133 99.6248 204.133C99.6482 204.135 99.6667 204.136 99.6804 204.136C99.7488 204.136 99.8093 204.116 99.8621 204.075C99.9167 204.036 99.9646 203.99 100.006 203.937C100.047 203.886 100.08 203.836 100.105 203.785C100.133 203.736 100.152 203.703 100.164 203.685L100.372 203.293L99.0242 200.272H99.7976L100.562 202.173Z" fill="#303136"/>
<path d="M82.4131 20.5264H80.6582V21.8653H82.7119V22.4395H79.9521V18.1739H82.6914V18.754H80.6582V19.9581H82.4131V20.5264ZM84.9209 20.3419L85.6768 19.2696H86.4561L85.3369 20.8311L86.4912 22.4395H85.7148L84.9297 21.3292L84.1475 22.4395H83.3652L84.5195 20.8311L83.4004 19.2696H84.1768L84.9209 20.3419ZM89.9131 20.8868C89.9131 21.1172 89.8857 21.3311 89.8311 21.5284C89.7764 21.7256 89.6963 21.8965 89.5908 22.0411C89.4854 22.1836 89.3555 22.296 89.2012 22.378C89.0488 22.4581 88.873 22.4981 88.6738 22.4981C88.4941 22.4981 88.335 22.4688 88.1963 22.4102C88.0596 22.3516 87.9414 22.2676 87.8418 22.1583V23.6583H87.1416V19.2696H87.7861L87.8154 19.5889C87.917 19.4678 88.0371 19.3751 88.1758 19.3106C88.3164 19.2442 88.4795 19.211 88.665 19.211C88.8662 19.211 89.0439 19.2501 89.1982 19.3282C89.3545 19.4063 89.4854 19.5167 89.5908 19.6592C89.6963 19.7999 89.7764 19.9698 89.8311 20.169C89.8857 20.3663 89.9131 20.585 89.9131 20.8252V20.8868ZM89.2129 20.8252C89.2129 20.6827 89.1982 20.5489 89.1689 20.4239C89.1396 20.2969 89.0947 20.1866 89.0342 20.0928C88.9736 19.9971 88.8965 19.9219 88.8027 19.8672C88.709 19.8126 88.5977 19.7852 88.4688 19.7852C88.3125 19.7852 88.1836 19.8184 88.082 19.8848C87.9805 19.9512 87.9004 20.0401 87.8418 20.1514V21.5694C87.9004 21.6788 87.9795 21.7676 88.0791 21.836C88.1807 21.9044 88.3125 21.9385 88.4746 21.9385C88.6035 21.9385 88.7148 21.9102 88.8086 21.8536C88.9023 21.7969 88.9785 21.7208 89.0371 21.6251C89.0977 21.5294 89.1416 21.418 89.1689 21.2911C89.1982 21.1641 89.2129 21.0294 89.2129 20.8868V20.8252ZM90.8711 17.9395H92.585V21.8594H93.5518V22.4395L90.8711 22.4395V21.8594H91.8789V18.5225H90.8711V17.9395ZM96.3672 22.4395C96.3477 22.4004 96.3311 22.3545 96.3174 22.3018C96.3057 22.2491 96.2949 22.1924 96.2852 22.1319C96.2363 22.1827 96.1807 22.2305 96.1182 22.2754C96.0576 22.3184 95.9893 22.3565 95.9131 22.3897C95.8389 22.4229 95.7578 22.4493 95.6699 22.4688C95.584 22.4883 95.4912 22.4981 95.3916 22.4981C95.2236 22.4981 95.0713 22.4747 94.9346 22.4278C94.7998 22.379 94.6836 22.3126 94.5859 22.2286C94.4902 22.1426 94.416 22.042 94.3633 21.9268C94.3105 21.8116 94.2842 21.6866 94.2842 21.5518C94.2842 21.212 94.4102 20.9522 94.6621 20.7725C94.916 20.5928 95.2793 20.503 95.752 20.503H96.2646V20.295C96.2646 20.127 96.208 19.9942 96.0947 19.8965C95.9814 19.7969 95.8213 19.7471 95.6143 19.7471C95.5205 19.7471 95.4385 19.7588 95.3682 19.7823C95.2979 19.8038 95.2393 19.834 95.1924 19.8731C95.1455 19.9122 95.1104 19.9581 95.0869 20.0108C95.0635 20.0635 95.0518 20.1202 95.0518 20.1807H94.3516C94.3516 20.0577 94.3799 19.9385 94.4365 19.8233C94.4951 19.7061 94.5801 19.6026 94.6914 19.5127C94.8027 19.421 94.9385 19.3477 95.0986 19.293C95.2607 19.2383 95.4453 19.211 95.6523 19.211C95.8398 19.211 96.0137 19.2344 96.1738 19.2813C96.334 19.3262 96.4727 19.3946 96.5898 19.4864C96.707 19.5762 96.7988 19.6895 96.8652 19.8262C96.9316 19.961 96.9648 20.1192 96.9648 20.3008V21.7129C96.9648 21.8516 96.9746 21.9786 96.9941 22.0938C97.0156 22.2071 97.0459 22.3057 97.085 22.3897V22.4395H96.3672ZM95.5234 21.9327C95.6133 21.9327 95.6973 21.9219 95.7754 21.9004C95.8555 21.877 95.9268 21.8477 95.9893 21.8126C96.0537 21.7754 96.1084 21.7335 96.1533 21.6866C96.2002 21.6397 96.2373 21.5919 96.2646 21.543V20.9483H95.8193C95.5342 20.9483 95.3232 20.9942 95.1865 21.086C95.0518 21.1778 94.9844 21.3086 94.9844 21.4786C94.9844 21.543 94.9951 21.6036 95.0166 21.6602C95.0381 21.7149 95.0703 21.7627 95.1133 21.8038C95.1582 21.8428 95.2139 21.8741 95.2803 21.8975C95.3486 21.921 95.4297 21.9327 95.5234 21.9327ZM98.1016 19.2696H99.792V21.8594H100.732V22.4395H98.1016V21.8594H99.0859V19.8526H98.1016V19.2696ZM99.0273 18.4493C99.0273 18.3399 99.0625 18.2501 99.1328 18.1797C99.2031 18.1075 99.3018 18.0713 99.4287 18.0713C99.5576 18.0713 99.6572 18.1075 99.7275 18.1797C99.7998 18.2501 99.8359 18.3399 99.8359 18.4493C99.8359 18.5586 99.7998 18.6495 99.7275 18.7217C99.6572 18.792 99.5576 18.8272 99.4287 18.8272C99.3018 18.8272 99.2031 18.792 99.1328 18.7217C99.0625 18.6495 99.0273 18.5586 99.0273 18.4493ZM102.186 19.2696L102.229 19.709C102.345 19.5508 102.483 19.4288 102.646 19.3428C102.81 19.2549 102.991 19.211 103.19 19.211C103.353 19.211 103.5 19.2344 103.633 19.2813C103.768 19.3282 103.883 19.4014 103.979 19.501C104.076 19.6006 104.151 19.7295 104.204 19.8877C104.259 20.046 104.286 20.2364 104.286 20.459V22.4395H103.586V20.4708C103.586 20.3399 103.57 20.2305 103.539 20.1426C103.51 20.0547 103.467 19.9844 103.41 19.9317C103.355 19.879 103.288 19.8419 103.208 19.8204C103.128 19.7969 103.037 19.7852 102.936 19.7852C102.781 19.7852 102.646 19.8194 102.531 19.8877C102.418 19.9561 102.326 20.0489 102.256 20.1661V22.4395H101.553V19.2696H102.186ZM81.335 46.502V47.2696H82.5332V47.7911H81.335V49.3116C81.335 49.4307 81.3486 49.5294 81.376 49.6075C81.4053 49.6856 81.4453 49.7481 81.4961 49.795C81.5469 49.8419 81.6064 49.8751 81.6748 49.8946C81.7432 49.9122 81.8184 49.921 81.9004 49.921C81.9609 49.921 82.0234 49.918 82.0879 49.9122C82.1543 49.9044 82.2178 49.8965 82.2783 49.8887C82.3408 49.879 82.3975 49.8692 82.4482 49.8594C82.501 49.8477 82.5449 49.837 82.5801 49.8272L82.6592 50.3106C82.6084 50.3399 82.5469 50.3672 82.4746 50.3926C82.4043 50.4161 82.3271 50.4356 82.2432 50.4512C82.1592 50.4669 82.0713 50.4786 81.9795 50.4864C81.8896 50.4961 81.8008 50.501 81.7129 50.501C81.5547 50.501 81.4092 50.4795 81.2764 50.4366C81.1455 50.3917 81.0322 50.3233 80.9365 50.2315C80.8428 50.1377 80.7686 50.0186 80.7139 49.8741C80.6611 49.7276 80.6348 49.5528 80.6348 49.3497V47.7911H79.8613V47.2696H80.6348V46.502H81.335ZM84.2354 47.709C84.3447 47.5528 84.4775 47.4307 84.6338 47.3428C84.792 47.2549 84.9678 47.211 85.1611 47.211C85.3252 47.211 85.4756 47.2354 85.6123 47.2842C85.751 47.3331 85.8691 47.4092 85.9668 47.5127C86.0645 47.6143 86.1406 47.7461 86.1953 47.9083C86.25 48.0684 86.2773 48.2608 86.2773 48.4854V50.4395H85.5771V48.4795C85.5771 48.3585 85.5615 48.2549 85.5303 48.169C85.501 48.0811 85.458 48.0088 85.4014 47.9522C85.3467 47.8956 85.2793 47.8536 85.1992 47.8262C85.1191 47.7989 85.0283 47.7852 84.9268 47.7852C84.7744 47.7852 84.6396 47.8174 84.5225 47.8819C84.4053 47.9444 84.3096 48.0294 84.2354 48.1368V50.4395H83.5352V45.9395H84.2354V47.709ZM88.6152 50.4981C88.3809 50.4981 88.167 50.459 87.9736 50.3809C87.7803 50.3028 87.6143 50.1954 87.4756 50.0586C87.3389 49.9219 87.2324 49.7608 87.1562 49.5752C87.0801 49.3877 87.042 49.1856 87.042 48.9688V48.8487C87.042 48.5967 87.082 48.3702 87.1621 48.169C87.2441 47.9678 87.3525 47.796 87.4873 47.6534C87.624 47.5108 87.7822 47.4014 87.9619 47.3252C88.1436 47.2491 88.334 47.211 88.5332 47.211C88.7637 47.211 88.9668 47.2501 89.1426 47.3282C89.3184 47.4044 89.4648 47.5127 89.582 47.6534C89.7012 47.792 89.791 47.9571 89.8516 48.1485C89.9121 48.3399 89.9424 48.5499 89.9424 48.7784V49.0743H87.7451C87.7568 49.1973 87.7871 49.3116 87.8359 49.417C87.8848 49.5225 87.9482 49.6143 88.0264 49.6924C88.1064 49.7686 88.1992 49.8292 88.3047 49.8741C88.4121 49.917 88.5293 49.9385 88.6562 49.9385C88.834 49.9385 88.9971 49.9034 89.1455 49.8331C89.2959 49.7627 89.418 49.6661 89.5117 49.543L89.8926 49.9004C89.8418 49.9766 89.7764 50.0508 89.6963 50.1231C89.6162 50.1934 89.5225 50.2569 89.415 50.3135C89.3076 50.3682 89.1865 50.4122 89.0518 50.4454C88.9189 50.4805 88.7734 50.4981 88.6152 50.4981ZM88.5303 47.7764C88.4326 47.7764 88.3418 47.794 88.2578 47.8292C88.1738 47.8643 88.0986 47.9161 88.0322 47.9844C87.9658 48.0508 87.9092 48.1329 87.8623 48.2305C87.8174 48.3262 87.7852 48.4356 87.7656 48.5586H89.251V48.5059C89.2451 48.4122 89.2266 48.3223 89.1953 48.2364C89.166 48.1485 89.1221 48.0704 89.0635 48.002C89.0049 47.9336 88.9307 47.879 88.8408 47.8379C88.7529 47.7969 88.6494 47.7764 88.5303 47.7764ZM81.335 74.502V75.2696H82.5332V75.7911H81.335V77.3116C81.335 77.4307 81.3486 77.5294 81.376 77.6075C81.4053 77.6856 81.4453 77.7481 81.4961 77.795C81.5469 77.8419 81.6064 77.8751 81.6748 77.8946C81.7432 77.9122 81.8184 77.921 81.9004 77.921C81.9609 77.921 82.0234 77.918 82.0879 77.9122C82.1543 77.9044 82.2178 77.8965 82.2783 77.8887C82.3408 77.879 82.3975 77.8692 82.4482 77.8594C82.501 77.8477 82.5449 77.837 82.5801 77.8272L82.6592 78.3106C82.6084 78.3399 82.5469 78.3672 82.4746 78.3926C82.4043 78.4161 82.3271 78.4356 82.2432 78.4512C82.1592 78.4669 82.0713 78.4786 81.9795 78.4864C81.8896 78.4961 81.8008 78.501 81.7129 78.501C81.5547 78.501 81.4092 78.4795 81.2764 78.4366C81.1455 78.3917 81.0322 78.3233 80.9365 78.2315C80.8428 78.1377 80.7686 78.0186 80.7139 77.8741C80.6611 77.7276 80.6348 77.5528 80.6348 77.3497V75.7911H79.8613V75.2696H80.6348V74.502H81.335ZM84.2354 75.709C84.3447 75.5528 84.4775 75.4307 84.6338 75.3428C84.792 75.2549 84.9678 75.211 85.1611 75.211C85.3252 75.211 85.4756 75.2354 85.6123 75.2842C85.751 75.3331 85.8691 75.4092 85.9668 75.5127C86.0645 75.6143 86.1406 75.7461 86.1953 75.9083C86.25 76.0684 86.2773 76.2608 86.2773 76.4854V78.4395H85.5771V76.4795C85.5771 76.3585 85.5615 76.2549 85.5303 76.169C85.501 76.0811 85.458 76.0088 85.4014 75.9522C85.3467 75.8956 85.2793 75.8536 85.1992 75.8262C85.1191 75.7989 85.0283 75.7852 84.9268 75.7852C84.7744 75.7852 84.6396 75.8174 84.5225 75.8819C84.4053 75.9444 84.3096 76.0294 84.2354 76.1368V78.4395H83.5352V73.9395H84.2354V75.709ZM88.6152 78.4981C88.3809 78.4981 88.167 78.459 87.9736 78.3809C87.7803 78.3028 87.6143 78.1954 87.4756 78.0586C87.3389 77.9219 87.2324 77.7608 87.1563 77.5752C87.0801 77.3877 87.042 77.1856 87.042 76.9688V76.8487C87.042 76.5967 87.082 76.3702 87.1621 76.169C87.2441 75.9678 87.3525 75.796 87.4873 75.6534C87.624 75.5108 87.7822 75.4014 87.9619 75.3252C88.1436 75.2491 88.334 75.211 88.5332 75.211C88.7637 75.211 88.9668 75.2501 89.1426 75.3282C89.3184 75.4044 89.4648 75.5127 89.582 75.6534C89.7012 75.792 89.791 75.9571 89.8516 76.1485C89.9121 76.3399 89.9424 76.5499 89.9424 76.7784V77.0743H87.7451C87.7568 77.1973 87.7871 77.3116 87.8359 77.417C87.8848 77.5225 87.9482 77.6143 88.0264 77.6924C88.1064 77.7686 88.1992 77.8292 88.3047 77.8741C88.4121 77.917 88.5293 77.9385 88.6563 77.9385C88.834 77.9385 88.9971 77.9034 89.1455 77.8331C89.2959 77.7627 89.418 77.6661 89.5117 77.543L89.8926 77.9004C89.8418 77.9766 89.7764 78.0508 89.6963 78.1231C89.6162 78.1934 89.5225 78.2569 89.415 78.3135C89.3076 78.3682 89.1865 78.4122 89.0518 78.4454C88.9189 78.4805 88.7734 78.4981 88.6152 78.4981ZM88.5303 75.7764C88.4326 75.7764 88.3418 75.794 88.2578 75.8292C88.1738 75.8643 88.0986 75.9161 88.0322 75.9844C87.9658 76.0508 87.9092 76.1329 87.8623 76.2305C87.8174 76.3262 87.7852 76.4356 87.7656 76.5586H89.251V76.5059C89.2451 76.4122 89.2266 76.3223 89.1953 76.2364C89.166 76.1485 89.1221 76.0704 89.0635 76.002C89.0049 75.9336 88.9307 75.879 88.8408 75.8379C88.7529 75.7969 88.6494 75.7764 88.5303 75.7764ZM90.6133 76.8252C90.6133 76.5967 90.6465 76.3838 90.7129 76.1866C90.7813 75.9893 90.8779 75.8184 91.0029 75.6739C91.1299 75.5294 91.2842 75.4161 91.4658 75.334C91.6475 75.252 91.8535 75.211 92.084 75.211C92.3164 75.211 92.5234 75.252 92.7051 75.334C92.8887 75.4161 93.043 75.5294 93.168 75.6739C93.2949 75.8184 93.3916 75.9893 93.458 76.1866C93.5244 76.3838 93.5576 76.5967 93.5576 76.8252V76.8868C93.5576 77.1172 93.5244 77.3311 93.458 77.5284C93.3916 77.7256 93.2949 77.8965 93.168 78.0411C93.043 78.1836 92.8896 78.296 92.708 78.378C92.5264 78.46 92.3203 78.501 92.0898 78.501C91.8574 78.501 91.6494 78.46 91.4658 78.378C91.2842 78.296 91.1299 78.1836 91.0029 78.0411C90.8779 77.8965 90.7813 77.7256 90.7129 77.5284C90.6465 77.3311 90.6133 77.1172 90.6133 76.8868V76.8252ZM91.3135 76.8868C91.3135 77.0313 91.3281 77.167 91.3574 77.294C91.3887 77.421 91.4355 77.5333 91.498 77.6309C91.5625 77.7266 91.6436 77.8028 91.7412 77.8594C91.8389 77.9141 91.9551 77.9415 92.0898 77.9415C92.2207 77.9415 92.334 77.9141 92.4297 77.8594C92.5273 77.8028 92.6074 77.7266 92.6699 77.6309C92.7344 77.5333 92.7813 77.421 92.8105 77.294C92.8418 77.167 92.8574 77.0313 92.8574 76.8868V76.8252C92.8574 76.6846 92.8418 76.5508 92.8105 76.4239C92.7813 76.2969 92.7344 76.1856 92.6699 76.0899C92.6074 75.9942 92.5273 75.918 92.4297 75.8614C92.334 75.8047 92.2188 75.7764 92.084 75.7764C91.9512 75.7764 91.8359 75.8047 91.7383 75.8614C91.6406 75.918 91.5605 75.9942 91.498 76.0899C91.4355 76.1856 91.3887 76.2969 91.3574 76.4239C91.3281 76.5508 91.3135 76.6846 91.3135 76.8252V76.8868ZM96.5225 75.211C96.5791 75.211 96.6357 75.2129 96.6924 75.2169C96.749 75.2208 96.8027 75.2266 96.8535 75.2344C96.9063 75.2422 96.9541 75.251 96.9971 75.2608C97.04 75.2686 97.0762 75.2784 97.1055 75.2901L97.0059 75.9786C96.791 75.9297 96.5791 75.9053 96.3701 75.9053C96.1357 75.9053 95.9463 75.9542 95.8018 76.0518C95.6592 76.1495 95.5537 76.2852 95.4854 76.459V78.4395H94.7852V75.2696H95.4414L95.4736 75.7647C95.6025 75.5928 95.7549 75.4581 95.9307 75.3604C96.1084 75.2608 96.3057 75.211 96.5225 75.211ZM99.2061 77.171L99.3262 77.5518L100.217 75.2696H100.993L99.3877 78.92C99.3525 79.0001 99.3066 79.086 99.25 79.1778C99.1934 79.2715 99.123 79.3585 99.0391 79.4385C98.957 79.5186 98.8584 79.585 98.7432 79.6377C98.6279 79.6924 98.4932 79.7198 98.3389 79.7198C98.2744 79.7198 98.209 79.7139 98.1426 79.7022C98.0781 79.6924 98.0205 79.6807 97.9697 79.667L98.0693 79.1221C98.083 79.1221 98.1016 79.1221 98.125 79.1221C98.1484 79.1241 98.1729 79.126 98.1982 79.128C98.2236 79.1299 98.2471 79.1309 98.2686 79.1309C98.292 79.1329 98.3105 79.1338 98.3242 79.1338C98.3926 79.1338 98.4531 79.1133 98.5059 79.0723C98.5605 79.0333 98.6084 78.9874 98.6494 78.9346C98.6904 78.8838 98.7236 78.8331 98.749 78.7823C98.7764 78.7335 98.7959 78.7002 98.8076 78.6827L99.0156 78.2901L97.668 75.2696H98.4414L99.2061 77.171ZM79.8027 104.825C79.8027 104.597 79.8359 104.384 79.9023 104.187C79.9707 103.989 80.0674 103.818 80.1924 103.674C80.3193 103.529 80.4736 103.416 80.6553 103.334C80.8369 103.252 81.043 103.211 81.2734 103.211C81.5059 103.211 81.7129 103.252 81.8945 103.334C82.0781 103.416 82.2324 103.529 82.3574 103.674C82.4844 103.818 82.5811 103.989 82.6475 104.187C82.7139 104.384 82.7471 104.597 82.7471 104.825V104.887C82.7471 105.117 82.7139 105.331 82.6475 105.528C82.5811 105.726 82.4844 105.897 82.3574 106.041C82.2324 106.184 82.0791 106.296 81.8975 106.378C81.7158 106.46 81.5098 106.501 81.2793 106.501C81.0469 106.501 80.8389 106.46 80.6553 106.378C80.4736 106.296 80.3193 106.184 80.1924 106.041C80.0674 105.897 79.9707 105.726 79.9023 105.528C79.8359 105.331 79.8027 105.117 79.8027 104.887V104.825ZM80.5029 104.887C80.5029 105.031 80.5176 105.167 80.5469 105.294C80.5781 105.421 80.625 105.533 80.6875 105.631C80.752 105.727 80.833 105.803 80.9307 105.859C81.0283 105.914 81.1445 105.941 81.2793 105.941C81.4102 105.941 81.5234 105.914 81.6191 105.859C81.7168 105.803 81.7969 105.727 81.8594 105.631C81.9238 105.533 81.9707 105.421 82 105.294C82.0313 105.167 82.0469 105.031 82.0469 104.887V104.825C82.0469 104.685 82.0313 104.551 82 104.424C81.9707 104.297 81.9238 104.186 81.8594 104.09C81.7969 103.994 81.7168 103.918 81.6191 103.861C81.5234 103.805 81.4082 103.776 81.2734 103.776C81.1406 103.776 81.0254 103.805 80.9277 103.861C80.8301 103.918 80.75 103.994 80.6875 104.09C80.625 104.186 80.5781 104.297 80.5469 104.424C80.5176 104.551 80.5029 104.685 80.5029 104.825V104.887ZM84.332 106.44V103.791H83.4795V103.27H84.332V103.073C84.332 102.868 84.3623 102.688 84.4229 102.531C84.4854 102.373 84.5742 102.241 84.6895 102.136C84.8066 102.028 84.9473 101.947 85.1113 101.893C85.2754 101.836 85.46 101.808 85.665 101.808C85.7998 101.808 85.9277 101.818 86.0488 101.84C86.1719 101.859 86.2998 101.883 86.4326 101.91L86.3711 102.467C86.2949 102.445 86.2061 102.427 86.1045 102.411C86.0029 102.394 85.8887 102.385 85.7617 102.385C85.5098 102.385 85.3252 102.444 85.208 102.564C85.0928 102.683 85.0352 102.853 85.0352 103.073V103.27H86.2129V103.791H85.0352V106.44H84.332ZM82.1084 131.211C82.165 131.211 82.2217 131.213 82.2783 131.217C82.335 131.221 82.3887 131.227 82.4395 131.234C82.4922 131.242 82.54 131.251 82.583 131.261C82.626 131.269 82.6621 131.278 82.6914 131.29L82.5918 131.979C82.377 131.93 82.165 131.905 81.9561 131.905C81.7217 131.905 81.5322 131.954 81.3877 132.052C81.2451 132.149 81.1396 132.285 81.0713 132.459V134.44H80.3711V131.27H81.0273L81.0596 131.765C81.1885 131.593 81.3408 131.458 81.5166 131.36C81.6943 131.261 81.8916 131.211 82.1084 131.211ZM85.0117 134.498C84.7773 134.498 84.5635 134.459 84.3701 134.381C84.1768 134.303 84.0107 134.195 83.8721 134.059C83.7354 133.922 83.6289 133.761 83.5527 133.575C83.4766 133.388 83.4385 133.186 83.4385 132.969V132.849C83.4385 132.597 83.4785 132.37 83.5586 132.169C83.6406 131.968 83.749 131.796 83.8838 131.653C84.0205 131.511 84.1787 131.401 84.3584 131.325C84.54 131.249 84.7305 131.211 84.9297 131.211C85.1602 131.211 85.3633 131.25 85.5391 131.328C85.7148 131.404 85.8613 131.513 85.9785 131.653C86.0977 131.792 86.1875 131.957 86.248 132.148C86.3086 132.34 86.3389 132.55 86.3389 132.778V133.074H84.1416C84.1533 133.197 84.1836 133.312 84.2324 133.417C84.2813 133.523 84.3447 133.614 84.4229 133.692C84.5029 133.769 84.5957 133.829 84.7012 133.874C84.8086 133.917 84.9258 133.939 85.0527 133.939C85.2305 133.939 85.3936 133.903 85.542 133.833C85.6924 133.763 85.8145 133.666 85.9082 133.543L86.2891 133.9C86.2383 133.977 86.1729 134.051 86.0928 134.123C86.0127 134.193 85.9189 134.257 85.8115 134.314C85.7041 134.368 85.583 134.412 85.4482 134.445C85.3154 134.481 85.1699 134.498 85.0117 134.498ZM84.9268 131.776C84.8291 131.776 84.7383 131.794 84.6543 131.829C84.5703 131.864 84.4951 131.916 84.4287 131.984C84.3623 132.051 84.3057 132.133 84.2588 132.231C84.2139 132.326 84.1816 132.436 84.1621 132.559H85.6475V132.506C85.6416 132.412 85.623 132.322 85.5918 132.236C85.5625 132.148 85.5186 132.07 85.46 132.002C85.4014 131.934 85.3271 131.879 85.2373 131.838C85.1494 131.797 85.0459 131.776 84.9268 131.776ZM87.2676 129.94H88.9814V133.859H89.9482V134.44H87.2676V133.859H88.2754V130.523H87.2676V129.94ZM92.7637 134.44C92.7441 134.4 92.7275 134.355 92.7139 134.302C92.7021 134.249 92.6914 134.192 92.6816 134.132C92.6328 134.183 92.5771 134.231 92.5146 134.275C92.4541 134.318 92.3857 134.356 92.3096 134.39C92.2354 134.423 92.1543 134.449 92.0664 134.469C91.9805 134.488 91.8877 134.498 91.7881 134.498C91.6201 134.498 91.4678 134.475 91.3311 134.428C91.1963 134.379 91.0801 134.313 90.9824 134.229C90.8867 134.143 90.8125 134.042 90.7598 133.927C90.707 133.812 90.6807 133.687 90.6807 133.552C90.6807 133.212 90.8066 132.952 91.0586 132.773C91.3125 132.593 91.6758 132.503 92.1484 132.503H92.6611V132.295C92.6611 132.127 92.6045 131.994 92.4912 131.897C92.3779 131.797 92.2178 131.747 92.0107 131.747C91.917 131.747 91.835 131.759 91.7646 131.782C91.6943 131.804 91.6357 131.834 91.5889 131.873C91.542 131.912 91.5068 131.958 91.4834 132.011C91.46 132.064 91.4482 132.12 91.4482 132.181H90.748C90.748 132.058 90.7764 131.939 90.833 131.823C90.8916 131.706 90.9766 131.603 91.0879 131.513C91.1992 131.421 91.335 131.348 91.4951 131.293C91.6572 131.238 91.8418 131.211 92.0488 131.211C92.2363 131.211 92.4102 131.234 92.5703 131.281C92.7305 131.326 92.8691 131.395 92.9863 131.486C93.1035 131.576 93.1953 131.69 93.2617 131.826C93.3281 131.961 93.3613 132.119 93.3613 132.301V133.713C93.3613 133.852 93.3711 133.979 93.3906 134.094C93.4121 134.207 93.4424 134.306 93.4814 134.39V134.44H92.7637ZM91.9199 133.933C92.0098 133.933 92.0938 133.922 92.1719 133.9C92.252 133.877 92.3232 133.848 92.3857 133.813C92.4502 133.775 92.5049 133.733 92.5498 133.687C92.5967 133.64 92.6338 133.592 92.6611 133.543V132.948H92.2158C91.9307 132.948 91.7197 132.994 91.583 133.086C91.4482 133.178 91.3809 133.309 91.3809 133.479C91.3809 133.543 91.3916 133.604 91.4131 133.66C91.4346 133.715 91.4668 133.763 91.5098 133.804C91.5547 133.843 91.6104 133.874 91.6768 133.898C91.7451 133.921 91.8262 133.933 91.9199 133.933ZM95.749 130.502V131.27H96.9473V131.791H95.749V133.312C95.749 133.431 95.7627 133.529 95.79 133.607C95.8193 133.686 95.8594 133.748 95.9102 133.795C95.9609 133.842 96.0205 133.875 96.0889 133.895C96.1572 133.912 96.2324 133.921 96.3145 133.921C96.375 133.921 96.4375 133.918 96.502 133.912C96.5684 133.904 96.6318 133.897 96.6924 133.889C96.7549 133.879 96.8115 133.869 96.8623 133.859C96.915 133.848 96.959 133.837 96.9941 133.827L97.0732 134.311C97.0225 134.34 96.9609 134.367 96.8887 134.393C96.8184 134.416 96.7412 134.436 96.6572 134.451C96.5732 134.467 96.4854 134.479 96.3936 134.486C96.3037 134.496 96.2148 134.501 96.127 134.501C95.9688 134.501 95.8232 134.48 95.6904 134.437C95.5596 134.392 95.4463 134.323 95.3506 134.231C95.2568 134.138 95.1826 134.019 95.1279 133.874C95.0752 133.728 95.0488 133.553 95.0488 133.35V131.791H94.2754V131.27H95.0488V130.502H95.749ZM98.1016 131.27H99.792V133.859H100.732V134.44H98.1016V133.859H99.0859V131.853H98.1016V131.27ZM99.0273 130.449C99.0273 130.34 99.0625 130.25 99.1328 130.18C99.2031 130.107 99.3018 130.071 99.4287 130.071C99.5576 130.071 99.6572 130.107 99.7275 130.18C99.7998 130.25 99.8359 130.34 99.8359 130.449C99.8359 130.559 99.7998 130.649 99.7275 130.722C99.6572 130.792 99.5576 130.827 99.4287 130.827C99.3018 130.827 99.2031 130.792 99.1328 130.722C99.0625 130.649 99.0273 130.559 99.0273 130.449ZM102.851 133.555L102.9 133.789L102.953 133.558L103.721 131.27H104.444L103.202 134.44H102.599L101.345 131.27H102.068L102.851 133.555ZM105.309 131.27H106.999V133.859H107.939V134.44H105.309V133.859H106.293V131.853H105.309V131.27ZM106.234 130.449C106.234 130.34 106.27 130.25 106.34 130.18C106.41 130.107 106.509 130.071 106.636 130.071C106.765 130.071 106.864 130.107 106.935 130.18C107.007 130.25 107.043 130.34 107.043 130.449C107.043 130.559 107.007 130.649 106.935 130.722C106.864 130.792 106.765 130.827 106.636 130.827C106.509 130.827 106.41 130.792 106.34 130.722C106.27 130.649 106.234 130.559 106.234 130.449ZM110.163 130.502V131.27H111.361V131.791H110.163V133.312C110.163 133.431 110.177 133.529 110.204 133.607C110.233 133.686 110.273 133.748 110.324 133.795C110.375 133.842 110.435 133.875 110.503 133.895C110.571 133.912 110.646 133.921 110.729 133.921C110.789 133.921 110.852 133.918 110.916 133.912C110.982 133.904 111.046 133.897 111.106 133.889C111.169 133.879 111.226 133.869 111.276 133.859C111.329 133.848 111.373 133.837 111.408 133.827L111.487 134.311C111.437 134.34 111.375 134.367 111.303 134.393C111.232 134.416 111.155 134.436 111.071 134.451C110.987 134.467 110.899 134.479 110.808 134.486C110.718 134.496 110.629 134.501 110.541 134.501C110.383 134.501 110.237 134.48 110.104 134.437C109.974 134.392 109.86 134.323 109.765 134.231C109.671 134.138 109.597 134.019 109.542 133.874C109.489 133.728 109.463 133.553 109.463 133.35V131.791H108.689V131.27H109.463V130.502H110.163ZM113.62 133.171L113.74 133.552L114.631 131.27H115.407L113.802 134.92C113.767 135 113.721 135.086 113.664 135.178C113.607 135.272 113.537 135.358 113.453 135.439C113.371 135.519 113.272 135.585 113.157 135.638C113.042 135.692 112.907 135.72 112.753 135.72C112.688 135.72 112.623 135.714 112.557 135.702C112.492 135.692 112.435 135.681 112.384 135.667L112.483 135.122C112.497 135.122 112.516 135.122 112.539 135.122C112.563 135.124 112.587 135.126 112.612 135.128C112.638 135.13 112.661 135.131 112.683 135.131C112.706 135.133 112.725 135.134 112.738 135.134C112.807 135.134 112.867 135.113 112.92 135.072C112.975 135.033 113.022 134.987 113.063 134.935C113.104 134.884 113.138 134.833 113.163 134.782C113.19 134.733 113.21 134.7 113.222 134.683L113.43 134.29L112.082 131.27H112.855L113.62 133.171ZM116.843 134.021C116.843 133.952 116.854 133.888 116.875 133.827C116.898 133.767 116.932 133.715 116.975 133.672C117.018 133.627 117.07 133.592 117.133 133.566C117.197 133.541 117.271 133.528 117.353 133.528C117.435 133.528 117.507 133.541 117.569 133.566C117.634 133.592 117.688 133.627 117.73 133.672C117.775 133.715 117.809 133.767 117.83 133.827C117.854 133.888 117.865 133.952 117.865 134.021C117.865 134.089 117.854 134.152 117.83 134.211C117.809 134.268 117.775 134.317 117.73 134.36C117.688 134.403 117.634 134.437 117.569 134.46C117.507 134.485 117.435 134.498 117.353 134.498C117.271 134.498 117.197 134.485 117.133 134.46C117.07 134.437 117.018 134.403 116.975 134.36C116.932 134.317 116.898 134.268 116.875 134.211C116.854 134.152 116.843 134.089 116.843 134.021Z" fill="#A5A8AB"/>
<path d="M79.8816 265.341C79.8816 265.239 79.8601 265.15 79.8171 265.074C79.7761 264.996 79.7166 264.928 79.6384 264.869C79.5623 264.811 79.4705 264.76 79.363 264.717C79.2576 264.672 79.1423 264.631 79.0173 264.594C78.8494 264.545 78.6833 264.484 78.5193 264.412C78.3572 264.34 78.2117 264.252 78.0828 264.149C77.9558 264.043 77.8523 263.921 77.7722 263.782C77.6941 263.642 77.655 263.48 77.655 263.296C77.655 263.112 77.6941 262.948 77.7722 262.804C77.8523 262.657 77.9587 262.533 78.0916 262.432C78.2244 262.33 78.3787 262.252 78.5544 262.197C78.7302 262.143 78.9138 262.115 79.1052 262.115C79.3103 262.115 79.5017 262.148 79.6794 262.212C79.8591 262.275 80.0154 262.363 80.1482 262.479C80.283 262.592 80.3894 262.729 80.4675 262.889C80.5457 263.047 80.5857 263.223 80.5876 263.416H79.8845C79.8748 263.309 79.8513 263.211 79.8142 263.123C79.7791 263.033 79.7283 262.956 79.6619 262.892C79.5974 262.827 79.5183 262.777 79.4246 262.742C79.3308 262.707 79.2224 262.69 79.0994 262.69C78.9939 262.69 78.8962 262.703 78.8064 262.731C78.7166 262.758 78.6384 262.798 78.572 262.851C78.5076 262.903 78.4568 262.967 78.4197 263.041C78.3826 263.115 78.364 263.199 78.364 263.293C78.364 263.393 78.3894 263.48 78.4402 263.554C78.491 263.626 78.5574 263.69 78.6394 263.744C78.7214 263.799 78.8152 263.847 78.9207 263.888C79.0281 263.927 79.1394 263.963 79.2546 263.996C79.4324 264.049 79.6023 264.114 79.7644 264.192C79.9265 264.269 80.0691 264.361 80.1921 264.471C80.3152 264.578 80.4128 264.703 80.4851 264.846C80.5574 264.988 80.5935 265.151 80.5935 265.335C80.5935 265.525 80.5535 265.691 80.4734 265.836C80.3933 265.981 80.2859 266.102 80.1511 266.199C80.0164 266.297 79.8601 266.371 79.6824 266.422C79.5046 266.471 79.3191 266.495 79.1257 266.495C78.9949 266.495 78.865 266.483 78.7361 266.457C78.6072 266.432 78.4832 266.394 78.364 266.343C78.2468 266.292 78.1375 266.23 78.0359 266.155C77.9343 266.079 77.8455 265.992 77.7693 265.895C77.6951 265.795 77.6365 265.685 77.5935 265.564C77.5505 265.441 77.5281 265.306 77.5261 265.159H78.2322C78.2419 265.288 78.2703 265.4 78.3171 265.496C78.364 265.592 78.4265 265.672 78.5046 265.736C78.5828 265.799 78.6736 265.847 78.7771 265.88C78.8826 265.911 78.9988 265.927 79.1257 265.927C79.2312 265.927 79.3298 265.914 79.4216 265.889C79.5134 265.863 79.5935 265.826 79.6619 265.777C79.7302 265.727 79.7839 265.665 79.823 265.593C79.8621 265.519 79.8816 265.435 79.8816 265.341ZM83.321 266.006C83.2136 266.162 83.0828 266.284 82.9285 266.372C82.7761 266.458 82.6052 266.501 82.4158 266.501C82.2517 266.501 82.1013 266.476 81.9646 266.425C81.8298 266.374 81.7136 266.294 81.616 266.185C81.5203 266.073 81.4451 265.933 81.3904 265.763C81.3376 265.591 81.3113 265.385 81.3113 265.145V263.27H82.0115V265.15C82.0115 265.303 82.0222 265.429 82.0437 265.528C82.0671 265.628 82.1023 265.707 82.1492 265.766C82.196 265.824 82.2546 265.866 82.325 265.892C82.3953 265.915 82.4792 265.927 82.5769 265.927C82.7644 265.927 82.9158 265.891 83.031 265.818C83.1462 265.744 83.2332 265.645 83.2917 265.52V263.27H83.9949V266.44H83.3621L83.321 266.006ZM87.0681 263.211C87.1248 263.211 87.1814 263.213 87.238 263.217C87.2947 263.221 87.3484 263.227 87.3992 263.234C87.4519 263.242 87.4998 263.251 87.5427 263.261C87.5857 263.269 87.6218 263.278 87.6511 263.29L87.5515 263.979C87.3367 263.93 87.1248 263.905 86.9158 263.905C86.6814 263.905 86.4919 263.954 86.3474 264.052C86.2048 264.15 86.0994 264.285 86.031 264.459V266.44H85.3308V263.27H85.9871L86.0193 263.765C86.1482 263.593 86.3005 263.458 86.4763 263.36C86.6541 263.261 86.8513 263.211 87.0681 263.211ZM89.9714 266.498C89.7371 266.498 89.5232 266.459 89.3298 266.381C89.1365 266.303 88.9705 266.195 88.8318 266.059C88.6951 265.922 88.5886 265.761 88.5125 265.575C88.4363 265.388 88.3982 265.186 88.3982 264.969V264.849C88.3982 264.597 88.4382 264.37 88.5183 264.169C88.6003 263.968 88.7087 263.796 88.8435 263.653C88.9802 263.511 89.1384 263.401 89.3181 263.325C89.4998 263.249 89.6902 263.211 89.8894 263.211C90.1199 263.211 90.323 263.25 90.4988 263.328C90.6746 263.404 90.821 263.513 90.9382 263.653C91.0574 263.792 91.1472 263.957 91.2078 264.149C91.2683 264.34 91.2986 264.55 91.2986 264.778V265.074H89.1013C89.113 265.197 89.1433 265.312 89.1921 265.417C89.241 265.523 89.3044 265.614 89.3826 265.692C89.4626 265.769 89.5554 265.829 89.6609 265.874C89.7683 265.917 89.8855 265.939 90.0125 265.939C90.1902 265.939 90.3533 265.903 90.5017 265.833C90.6521 265.763 90.7742 265.666 90.8679 265.543L91.2488 265.9C91.198 265.977 91.1326 266.051 91.0525 266.123C90.9724 266.193 90.8787 266.257 90.7712 266.314C90.6638 266.368 90.5427 266.412 90.408 266.445C90.2751 266.481 90.1296 266.498 89.9714 266.498ZM89.8865 263.776C89.7888 263.776 89.698 263.794 89.614 263.829C89.53 263.864 89.4548 263.916 89.3884 263.984C89.322 264.051 89.2654 264.133 89.2185 264.231C89.1736 264.326 89.1414 264.436 89.1218 264.559H90.6072V264.506C90.6013 264.412 90.5828 264.322 90.5515 264.236C90.5222 264.149 90.4783 264.07 90.4197 264.002C90.3611 263.934 90.2869 263.879 90.197 263.838C90.1091 263.797 90.0056 263.776 89.8865 263.776ZM92.9744 266.021C92.9744 265.952 92.9851 265.888 93.0066 265.827C93.03 265.767 93.0632 265.715 93.1062 265.672C93.1492 265.627 93.2019 265.592 93.2644 265.566C93.3289 265.541 93.4021 265.528 93.4841 265.528C93.5662 265.528 93.6384 265.541 93.7009 265.566C93.7654 265.592 93.8191 265.627 93.8621 265.672C93.907 265.715 93.9402 265.767 93.9617 265.827C93.9851 265.888 93.9968 265.952 93.9968 266.021C93.9968 266.089 93.9851 266.152 93.9617 266.211C93.9402 266.268 93.907 266.317 93.8621 266.36C93.8191 266.403 93.7654 266.437 93.7009 266.46C93.6384 266.485 93.5662 266.498 93.4841 266.498C93.4021 266.498 93.3289 266.485 93.2644 266.46C93.2019 266.437 93.1492 266.403 93.1062 266.36C93.0632 266.317 93.03 266.268 93.0066 266.211C92.9851 266.152 92.9744 266.089 92.9744 266.021ZM80.6873 290.754H79.3777V294.44H78.6775V290.754H77.3767V290.174H80.6873V290.754ZM81.988 291.709C82.0974 291.553 82.2302 291.431 82.3865 291.343C82.5447 291.255 82.7205 291.211 82.9138 291.211C83.0779 291.211 83.2283 291.235 83.365 291.284C83.5037 291.333 83.6218 291.409 83.7195 291.513C83.8171 291.614 83.8933 291.746 83.948 291.908C84.0027 292.068 84.03 292.261 84.03 292.485V294.44H83.3298V292.48C83.3298 292.358 83.3142 292.255 83.283 292.169C83.2537 292.081 83.2107 292.009 83.1541 291.952C83.0994 291.896 83.032 291.854 82.9519 291.826C82.8718 291.799 82.781 291.785 82.6794 291.785C82.5271 291.785 82.3923 291.817 82.2751 291.882C82.158 291.944 82.0623 292.029 81.988 292.137V294.44H81.2878V289.94H81.988V291.709ZM86.3679 294.498C86.1335 294.498 85.9197 294.459 85.7263 294.381C85.533 294.303 85.3669 294.195 85.2283 294.059C85.0916 293.922 84.9851 293.761 84.9089 293.575C84.8328 293.388 84.7947 293.186 84.7947 292.969V292.849C84.7947 292.597 84.8347 292.37 84.9148 292.169C84.9968 291.968 85.1052 291.796 85.24 291.653C85.3767 291.511 85.5349 291.401 85.7146 291.325C85.8962 291.249 86.0867 291.211 86.2859 291.211C86.5164 291.211 86.7195 291.25 86.8953 291.328C87.071 291.404 87.2175 291.513 87.3347 291.653C87.4539 291.792 87.5437 291.957 87.6042 292.149C87.6648 292.34 87.6951 292.55 87.6951 292.778V293.074H85.4978C85.5095 293.197 85.5398 293.312 85.5886 293.417C85.6375 293.523 85.7009 293.614 85.7791 293.692C85.8591 293.769 85.9519 293.829 86.0574 293.874C86.1648 293.917 86.282 293.939 86.4089 293.939C86.5867 293.939 86.7498 293.903 86.8982 293.833C87.0486 293.763 87.1707 293.666 87.2644 293.543L87.6453 293.9C87.5945 293.977 87.5291 294.051 87.449 294.123C87.3689 294.193 87.2751 294.257 87.1677 294.314C87.0603 294.368 86.9392 294.412 86.8044 294.445C86.6716 294.481 86.5261 294.498 86.3679 294.498ZM86.283 291.776C86.1853 291.776 86.0945 291.794 86.0105 291.829C85.9265 291.864 85.8513 291.916 85.7849 291.984C85.7185 292.051 85.6619 292.133 85.615 292.231C85.5701 292.326 85.5378 292.436 85.5183 292.559H87.0037V292.506C86.9978 292.412 86.9792 292.322 86.948 292.236C86.9187 292.149 86.8748 292.07 86.8162 292.002C86.7576 291.934 86.6833 291.879 86.5935 291.838C86.5056 291.797 86.4021 291.776 86.283 291.776ZM79.0876 318.502V319.27H80.2859V319.791H79.0876V321.312C79.0876 321.431 79.1013 321.529 79.1287 321.608C79.158 321.686 79.198 321.748 79.2488 321.795C79.2996 321.842 79.3591 321.875 79.4275 321.895C79.4958 321.912 79.571 321.921 79.6531 321.921C79.7136 321.921 79.7761 321.918 79.8406 321.912C79.907 321.904 79.9705 321.897 80.031 321.889C80.0935 321.879 80.1501 321.869 80.2009 321.859C80.2537 321.848 80.2976 321.837 80.3328 321.827L80.4119 322.311C80.3611 322.34 80.2996 322.367 80.2273 322.393C80.157 322.416 80.0798 322.436 79.9958 322.451C79.9119 322.467 79.824 322.479 79.7322 322.486C79.6423 322.496 79.5535 322.501 79.4656 322.501C79.3074 322.501 79.1619 322.48 79.0291 322.437C78.8982 322.392 78.7849 322.323 78.6892 322.232C78.5955 322.138 78.5212 322.019 78.4666 321.874C78.4138 321.728 78.3875 321.553 78.3875 321.35V319.791H77.614V319.27H78.3875V318.502H79.0876ZM81.988 319.709C82.0974 319.553 82.2302 319.431 82.3865 319.343C82.5447 319.255 82.7205 319.211 82.9138 319.211C83.0779 319.211 83.2283 319.235 83.365 319.284C83.5037 319.333 83.6218 319.409 83.7195 319.513C83.8171 319.614 83.8933 319.746 83.948 319.908C84.0027 320.068 84.03 320.261 84.03 320.485V322.44H83.3298V320.48C83.3298 320.358 83.3142 320.255 83.283 320.169C83.2537 320.081 83.2107 320.009 83.1541 319.952C83.0994 319.896 83.032 319.854 82.9519 319.826C82.8718 319.799 82.781 319.785 82.6794 319.785C82.5271 319.785 82.3923 319.817 82.2751 319.882C82.158 319.944 82.0623 320.029 81.988 320.137V322.44H81.2878V317.94H81.988V319.709ZM86.3679 322.498C86.1335 322.498 85.9197 322.459 85.7263 322.381C85.533 322.303 85.3669 322.195 85.2283 322.059C85.0916 321.922 84.9851 321.761 84.9089 321.575C84.8328 321.388 84.7947 321.186 84.7947 320.969V320.849C84.7947 320.597 84.8347 320.37 84.9148 320.169C84.9968 319.968 85.1052 319.796 85.24 319.653C85.3767 319.511 85.5349 319.401 85.7146 319.325C85.8962 319.249 86.0867 319.211 86.2859 319.211C86.5164 319.211 86.7195 319.25 86.8953 319.328C87.071 319.404 87.2175 319.513 87.3347 319.653C87.4539 319.792 87.5437 319.957 87.6042 320.149C87.6648 320.34 87.6951 320.55 87.6951 320.778V321.074H85.4978C85.5095 321.197 85.5398 321.312 85.5886 321.417C85.6375 321.523 85.7009 321.614 85.7791 321.692C85.8591 321.769 85.9519 321.829 86.0574 321.874C86.1648 321.917 86.282 321.939 86.4089 321.939C86.5867 321.939 86.7498 321.903 86.8982 321.833C87.0486 321.763 87.1707 321.666 87.2644 321.543L87.6453 321.9C87.5945 321.977 87.5291 322.051 87.449 322.123C87.3689 322.193 87.2751 322.257 87.1677 322.314C87.0603 322.368 86.9392 322.412 86.8044 322.445C86.6716 322.481 86.5261 322.498 86.3679 322.498ZM86.283 319.776C86.1853 319.776 86.0945 319.794 86.0105 319.829C85.9265 319.864 85.8513 319.916 85.7849 319.984C85.7185 320.051 85.6619 320.133 85.615 320.231C85.5701 320.326 85.5378 320.436 85.5183 320.559H87.0037V320.506C86.9978 320.412 86.9792 320.322 86.948 320.236C86.9187 320.149 86.8748 320.07 86.8162 320.002C86.7576 319.934 86.6833 319.879 86.5935 319.838C86.5056 319.797 86.4021 319.776 86.283 319.776ZM88.366 320.825C88.366 320.597 88.3992 320.384 88.4656 320.187C88.5339 319.989 88.6306 319.818 88.7556 319.674C88.8826 319.529 89.0369 319.416 89.2185 319.334C89.4001 319.252 89.6062 319.211 89.8367 319.211C90.0691 319.211 90.2761 319.252 90.4578 319.334C90.6414 319.416 90.7957 319.529 90.9207 319.674C91.0476 319.818 91.1443 319.989 91.2107 320.187C91.2771 320.384 91.3103 320.597 91.3103 320.825V320.887C91.3103 321.117 91.2771 321.331 91.2107 321.528C91.1443 321.726 91.0476 321.897 90.9207 322.041C90.7957 322.184 90.6423 322.296 90.4607 322.378C90.2791 322.46 90.073 322.501 89.8425 322.501C89.6101 322.501 89.4021 322.46 89.2185 322.378C89.0369 322.296 88.8826 322.184 88.7556 322.041C88.6306 321.897 88.5339 321.726 88.4656 321.528C88.3992 321.331 88.366 321.117 88.366 320.887V320.825ZM89.0662 320.887C89.0662 321.031 89.0808 321.167 89.1101 321.294C89.1414 321.421 89.1882 321.533 89.2507 321.631C89.3152 321.727 89.3962 321.803 89.4939 321.859C89.5916 321.914 89.7078 321.941 89.8425 321.941C89.9734 321.941 90.0867 321.914 90.1824 321.859C90.28 321.803 90.3601 321.727 90.4226 321.631C90.4871 321.533 90.5339 321.421 90.5632 321.294C90.5945 321.167 90.6101 321.031 90.6101 320.887V320.825C90.6101 320.685 90.5945 320.551 90.5632 320.424C90.5339 320.297 90.4871 320.186 90.4226 320.09C90.3601 319.994 90.28 319.918 90.1824 319.861C90.0867 319.805 89.9714 319.776 89.8367 319.776C89.7039 319.776 89.5886 319.805 89.491 319.861C89.3933 319.918 89.3132 319.994 89.2507 320.09C89.1882 320.186 89.1414 320.297 89.1101 320.424C89.0808 320.551 89.0662 320.685 89.0662 320.825V320.887ZM94.2751 319.211C94.3318 319.211 94.3884 319.213 94.4451 319.217C94.5017 319.221 94.5554 319.227 94.6062 319.234C94.6589 319.242 94.7068 319.251 94.7498 319.261C94.7927 319.269 94.8289 319.278 94.8582 319.29L94.7585 319.979C94.5437 319.93 94.3318 319.905 94.1228 319.905C93.8884 319.905 93.699 319.954 93.5544 320.052C93.4119 320.15 93.3064 320.285 93.238 320.459V322.44H92.5378V319.27H93.1941L93.2263 319.765C93.3552 319.593 93.5076 319.458 93.6833 319.36C93.8611 319.261 94.0583 319.211 94.2751 319.211ZM96.9587 321.171L97.0789 321.552L97.9695 319.27H98.7458L97.1404 322.92C97.1052 323 97.0593 323.086 97.0027 323.178C96.946 323.272 96.8757 323.358 96.7917 323.439C96.7097 323.519 96.6111 323.585 96.4958 323.638C96.3806 323.692 96.2458 323.72 96.0916 323.72C96.0271 323.72 95.9617 323.714 95.8953 323.702C95.8308 323.692 95.7732 323.681 95.7224 323.667L95.822 323.122C95.8357 323.122 95.8542 323.122 95.8777 323.122C95.9011 323.124 95.9255 323.126 95.9509 323.128C95.9763 323.13 95.9998 323.131 96.0212 323.131C96.0447 323.133 96.0632 323.134 96.0769 323.134C96.1453 323.134 96.2058 323.113 96.2585 323.072C96.3132 323.033 96.3611 322.987 96.4021 322.935C96.4431 322.884 96.4763 322.833 96.5017 322.782C96.5291 322.733 96.5486 322.7 96.5603 322.683L96.7683 322.29L95.4207 319.27H96.1941L96.9587 321.171ZM77.5554 348.825C77.5554 348.597 77.5886 348.384 77.655 348.187C77.7234 347.989 77.8201 347.818 77.9451 347.674C78.072 347.529 78.2263 347.416 78.408 347.334C78.5896 347.252 78.7957 347.211 79.0261 347.211C79.2585 347.211 79.4656 347.252 79.6472 347.334C79.8308 347.416 79.9851 347.529 80.1101 347.674C80.2371 347.818 80.3337 347.989 80.4001 348.187C80.4666 348.384 80.4998 348.597 80.4998 348.825V348.887C80.4998 349.117 80.4666 349.331 80.4001 349.528C80.3337 349.726 80.2371 349.897 80.1101 350.041C79.9851 350.184 79.8318 350.296 79.6501 350.378C79.4685 350.46 79.2625 350.501 79.032 350.501C78.7996 350.501 78.5916 350.46 78.408 350.378C78.2263 350.296 78.072 350.184 77.9451 350.041C77.8201 349.897 77.7234 349.726 77.655 349.528C77.5886 349.331 77.5554 349.117 77.5554 348.887V348.825ZM78.2556 348.887C78.2556 349.031 78.2703 349.167 78.2996 349.294C78.3308 349.421 78.3777 349.533 78.4402 349.631C78.5046 349.727 78.5857 349.803 78.6833 349.859C78.781 349.914 78.8972 349.941 79.032 349.941C79.1628 349.941 79.2761 349.914 79.3718 349.859C79.4695 349.803 79.5496 349.727 79.6121 349.631C79.6765 349.533 79.7234 349.421 79.7527 349.294C79.7839 349.167 79.7996 349.031 79.7996 348.887V348.825C79.7996 348.685 79.7839 348.551 79.7527 348.424C79.7234 348.297 79.6765 348.186 79.6121 348.09C79.5496 347.994 79.4695 347.918 79.3718 347.861C79.2761 347.805 79.1609 347.776 79.0261 347.776C78.8933 347.776 78.7781 347.805 78.6804 347.861C78.5828 347.918 78.5027 347.994 78.4402 348.09C78.3777 348.186 78.3308 348.297 78.2996 348.424C78.2703 348.551 78.2556 348.685 78.2556 348.825V348.887ZM82.0847 350.44V347.791H81.2322V347.27H82.0847V347.073C82.0847 346.868 82.115 346.688 82.1755 346.531C82.238 346.373 82.3269 346.241 82.4421 346.136C82.5593 346.028 82.7 345.947 82.864 345.893C83.0281 345.836 83.2126 345.808 83.4177 345.808C83.5525 345.808 83.6804 345.818 83.8015 345.84C83.9246 345.859 84.0525 345.883 84.1853 345.91L84.1238 346.467C84.0476 346.445 83.9587 346.427 83.8572 346.411C83.7556 346.394 83.6414 346.385 83.5144 346.385C83.2625 346.385 83.0779 346.444 82.9607 346.564C82.8455 346.683 82.7878 346.853 82.7878 347.073V347.27H83.9656V347.791H82.7878V350.44H82.0847ZM79.8611 375.211C79.9177 375.211 79.9744 375.213 80.031 375.217C80.0876 375.221 80.1414 375.227 80.1921 375.234C80.2449 375.242 80.2927 375.251 80.3357 375.261C80.3787 375.269 80.4148 375.278 80.4441 375.29L80.3445 375.979C80.1296 375.93 79.9177 375.905 79.7087 375.905C79.4744 375.905 79.2849 375.954 79.1404 376.052C78.9978 376.15 78.8923 376.285 78.824 376.459V378.44H78.1238V375.27H78.78L78.8123 375.765C78.9412 375.593 79.0935 375.458 79.2693 375.36C79.447 375.261 79.6443 375.211 79.8611 375.211ZM82.7644 378.498C82.53 378.498 82.3162 378.459 82.1228 378.381C81.9294 378.303 81.7634 378.195 81.6248 378.059C81.488 377.922 81.3816 377.761 81.3054 377.575C81.2292 377.388 81.1912 377.186 81.1912 376.969V376.849C81.1912 376.597 81.2312 376.37 81.3113 376.169C81.3933 375.968 81.5017 375.796 81.6365 375.653C81.7732 375.511 81.9314 375.401 82.1111 375.325C82.2927 375.249 82.4832 375.211 82.6824 375.211C82.9128 375.211 83.116 375.25 83.2917 375.328C83.4675 375.404 83.614 375.513 83.7312 375.653C83.8503 375.792 83.9402 375.957 84.0007 376.149C84.0613 376.34 84.0916 376.55 84.0916 376.778V377.074H81.8943C81.906 377.197 81.9363 377.312 81.9851 377.417C82.0339 377.523 82.0974 377.614 82.1755 377.692C82.2556 377.769 82.3484 377.829 82.4539 377.874C82.5613 377.917 82.6785 377.939 82.8054 377.939C82.9832 377.939 83.1462 377.903 83.2947 377.833C83.4451 377.763 83.5671 377.666 83.6609 377.543L84.0417 377.9C83.991 377.977 83.9255 378.051 83.8455 378.123C83.7654 378.193 83.6716 378.257 83.5642 378.314C83.4568 378.368 83.3357 378.412 83.2009 378.445C83.0681 378.481 82.9226 378.498 82.7644 378.498ZM82.6794 375.776C82.5818 375.776 82.491 375.794 82.407 375.829C82.323 375.864 82.2478 375.916 82.1814 375.984C82.115 376.051 82.0583 376.133 82.0115 376.231C81.9666 376.326 81.9343 376.436 81.9148 376.559H83.4001V376.506C83.3943 376.412 83.3757 376.322 83.3445 376.236C83.3152 376.149 83.2712 376.07 83.2126 376.002C83.1541 375.934 83.0798 375.879 82.99 375.838C82.9021 375.797 82.7986 375.776 82.6794 375.776ZM85.0203 373.94H86.7341V377.859H87.7009V378.44H85.0203V377.859H86.0281V374.523H85.0203V373.94ZM90.5164 378.44C90.4968 378.4 90.4802 378.355 90.4666 378.302C90.4548 378.249 90.4441 378.192 90.4343 378.132C90.3855 378.183 90.3298 378.231 90.2673 378.275C90.2068 378.318 90.1384 378.357 90.0623 378.39C89.988 378.423 89.907 378.449 89.8191 378.469C89.7332 378.488 89.6404 378.498 89.5408 378.498C89.3728 378.498 89.2205 378.475 89.0837 378.428C88.949 378.379 88.8328 378.313 88.7351 378.229C88.6394 378.143 88.5652 378.042 88.5125 377.927C88.4597 377.812 88.4333 377.687 88.4333 377.552C88.4333 377.212 88.5593 376.952 88.8113 376.773C89.0652 376.593 89.4285 376.503 89.9011 376.503H90.4138V376.295C90.4138 376.127 90.3572 375.994 90.2439 375.897C90.1306 375.797 89.9705 375.747 89.7634 375.747C89.6697 375.747 89.5876 375.759 89.5173 375.782C89.447 375.804 89.3884 375.834 89.3416 375.873C89.2947 375.912 89.2595 375.958 89.2361 376.011C89.2126 376.064 89.2009 376.12 89.2009 376.181H88.5007C88.5007 376.058 88.5291 375.939 88.5857 375.823C88.6443 375.706 88.7292 375.603 88.8406 375.513C88.9519 375.421 89.0876 375.348 89.2478 375.293C89.4099 375.238 89.5945 375.211 89.8015 375.211C89.989 375.211 90.1628 375.234 90.323 375.281C90.4832 375.326 90.6218 375.395 90.739 375.486C90.8562 375.576 90.948 375.69 91.0144 375.826C91.0808 375.961 91.114 376.119 91.114 376.301V377.713C91.114 377.852 91.1238 377.979 91.1433 378.094C91.1648 378.207 91.1951 378.306 91.2341 378.39V378.44H90.5164ZM89.6726 377.933C89.7625 377.933 89.8464 377.922 89.9246 377.9C90.0046 377.877 90.0759 377.848 90.1384 377.813C90.2029 377.775 90.2576 377.733 90.3025 377.687C90.3494 377.64 90.3865 377.592 90.4138 377.543V376.948H89.9685C89.6833 376.948 89.4724 376.994 89.3357 377.086C89.2009 377.178 89.1335 377.309 89.1335 377.479C89.1335 377.543 89.1443 377.604 89.1658 377.66C89.1873 377.715 89.2195 377.763 89.2625 377.804C89.3074 377.843 89.363 377.874 89.4294 377.898C89.4978 377.921 89.5789 377.933 89.6726 377.933ZM93.5017 374.502V375.27H94.7V375.791H93.5017V377.312C93.5017 377.431 93.5154 377.529 93.5427 377.608C93.572 377.686 93.6121 377.748 93.6628 377.795C93.7136 377.842 93.7732 377.875 93.8416 377.895C93.9099 377.912 93.9851 377.921 94.0671 377.921C94.1277 377.921 94.1902 377.918 94.2546 377.912C94.321 377.904 94.3845 377.897 94.4451 377.889C94.5076 377.879 94.5642 377.869 94.615 377.859C94.6677 377.848 94.7117 377.837 94.7468 377.827L94.8259 378.311C94.7751 378.34 94.7136 378.367 94.6414 378.393C94.571 378.416 94.4939 378.436 94.4099 378.451C94.3259 378.467 94.238 378.479 94.1462 378.486C94.0564 378.496 93.9675 378.501 93.8796 378.501C93.7214 378.501 93.5759 378.48 93.4431 378.437C93.3123 378.392 93.199 378.323 93.1033 378.232C93.0095 378.138 92.9353 378.019 92.8806 377.874C92.8279 377.728 92.8015 377.553 92.8015 377.35V375.791H92.0281V375.27H92.8015V374.502H93.5017ZM95.8542 375.27H97.5447V377.859H98.4851V378.44H95.8542V377.859H96.8386V375.853H95.8542V375.27ZM96.78 374.449C96.78 374.34 96.8152 374.25 96.8855 374.18C96.9558 374.108 97.0544 374.071 97.1814 374.071C97.3103 374.071 97.4099 374.108 97.4802 374.18C97.5525 374.25 97.5886 374.34 97.5886 374.449C97.5886 374.559 97.5525 374.65 97.4802 374.722C97.4099 374.792 97.3103 374.827 97.1814 374.827C97.0544 374.827 96.9558 374.792 96.8855 374.722C96.8152 374.65 96.78 374.559 96.78 374.449ZM100.603 377.555L100.653 377.789L100.706 377.558L101.473 375.27H102.197L100.955 378.44H100.351L99.0974 375.27H99.821L100.603 377.555ZM103.061 375.27H104.752V377.859H105.692V378.44H103.061V377.859H104.046V375.853H103.061V375.27ZM103.987 374.449C103.987 374.34 104.022 374.25 104.093 374.18C104.163 374.108 104.261 374.071 104.388 374.071C104.517 374.071 104.617 374.108 104.687 374.18C104.76 374.25 104.796 374.34 104.796 374.449C104.796 374.559 104.76 374.65 104.687 374.722C104.617 374.792 104.517 374.827 104.388 374.827C104.261 374.827 104.163 374.792 104.093 374.722C104.022 374.65 103.987 374.559 103.987 374.449ZM107.916 374.502V375.27H109.114V375.791H107.916V377.312C107.916 377.431 107.929 377.529 107.957 377.608C107.986 377.686 108.026 377.748 108.077 377.795C108.128 377.842 108.187 377.875 108.256 377.895C108.324 377.912 108.399 377.921 108.481 377.921C108.542 377.921 108.604 377.918 108.669 377.912C108.735 377.904 108.799 377.897 108.859 377.889C108.922 377.879 108.978 377.869 109.029 377.859C109.082 377.848 109.126 377.837 109.161 377.827L109.24 378.311C109.189 378.34 109.128 378.367 109.055 378.393C108.985 378.416 108.908 378.436 108.824 378.451C108.74 378.467 108.652 378.479 108.56 378.486C108.47 378.496 108.382 378.501 108.294 378.501C108.135 378.501 107.99 378.48 107.857 378.437C107.726 378.392 107.613 378.323 107.517 378.232C107.424 378.138 107.349 378.019 107.295 377.874C107.242 377.728 107.216 377.553 107.216 377.35V375.791H106.442V375.27H107.216V374.502H107.916ZM111.373 377.171L111.493 377.552L112.384 375.27H113.16L111.554 378.92C111.519 379 111.473 379.086 111.417 379.178C111.36 379.272 111.29 379.358 111.206 379.439C111.124 379.519 111.025 379.585 110.91 379.638C110.795 379.692 110.66 379.72 110.506 379.72C110.441 379.72 110.376 379.714 110.309 379.702C110.245 379.692 110.187 379.681 110.136 379.667L110.236 379.122C110.25 379.122 110.268 379.122 110.292 379.122C110.315 379.124 110.34 379.126 110.365 379.128C110.39 379.13 110.414 379.131 110.435 379.131C110.459 379.133 110.477 379.134 110.491 379.134C110.559 379.134 110.62 379.113 110.673 379.072C110.727 379.033 110.775 378.987 110.816 378.935C110.857 378.884 110.89 378.833 110.916 378.782C110.943 378.733 110.963 378.7 110.974 378.683L111.182 378.29L109.835 375.27H110.608L111.373 377.171Z" fill="#A5A8AB"/>
<path d="M51.5553 145.694L61.0553 145.694L61.0553 150.626" stroke="#A5A8AB" stroke-width="2" stroke-linecap="round" stroke-linejoin="round"/>
<path d="M61.0553 146.123L61.0553 253.039" stroke="#A5A8AB" stroke-width="2" stroke-linecap="round" stroke-linejoin="round"/>
<path d="M60.6239 253.123L51.0553 253.123" stroke="#A5A8AB" stroke-width="2" stroke-linecap="round" stroke-linejoin="round"/>
<path d="M61.0553 197.442L70.5553 197.442M70.5553 197.442L65.9839 192.871M70.5553 197.442L65.9839 202.013" stroke="#A5A8AB" stroke-width="2" stroke-linecap="round" stroke-linejoin="round"/>
</svg>
