<svg width="137" height="400" viewBox="0 0 137 400" fill="none" xmlns="http://www.w3.org/2000/svg">
<path d="M79.4304 31.4111C82.613 31.4111 85.6653 32.6754 87.9157 34.9259C90.1661 37.1763 91.4304 40.2285 91.4304 43.4111V75.4111C91.4304 78.5937 90.1661 81.646 87.9157 83.8964C85.6653 86.1469 82.613 87.4111 79.4304 87.4111H59.4304L39.4304 99.4111V87.4111H31.4304C28.2478 87.4111 25.1956 86.1469 22.9451 83.8964C20.6947 81.646 19.4304 78.5937 19.4304 75.4111V43.4111C19.4304 40.2285 20.6947 37.1763 22.9451 34.9259C25.1956 32.6754 28.2478 31.4111 31.4304 31.4111H79.4304Z" stroke="#303136" stroke-width="4" stroke-linecap="round" stroke-linejoin="round"/>
<path d="M55.5733 116.411V148.411M55.5733 148.411L64.7161 139.268M55.5733 148.411L46.4304 139.268" stroke="#303136" stroke-width="4" stroke-linecap="round" stroke-linejoin="round"/>
<path d="M55.5733 252.411V284.411M55.5733 284.411L64.7161 275.268M55.5733 284.411L46.4304 275.268" stroke="#303136" stroke-width="4" stroke-linecap="round" stroke-linejoin="round"/>
<path d="M64.4304 325.213C66.2934 326.61 67.8054 328.422 68.8468 330.504C69.8882 332.587 70.4304 334.884 70.4304 337.213C70.4304 339.541 69.8882 341.838 68.8468 343.921C67.8054 346.004 66.2934 347.815 64.4304 349.213M72.5305 316.213C75.6623 318.744 78.1885 321.943 79.9239 325.577C81.6592 329.21 82.5599 333.186 82.5599 337.213C82.5599 341.239 81.6592 345.215 79.9239 348.849C78.1885 352.482 75.6623 355.682 72.5305 358.213M37.4304 346.213H31.4304C30.6348 346.213 29.8717 345.896 29.3091 345.334C28.7465 344.771 28.4304 344.008 28.4304 343.213V331.213C28.4304 330.417 28.7465 329.654 29.3091 329.091C29.8717 328.529 30.6348 328.213 31.4304 328.213H37.4304L47.9304 314.713C48.1926 314.203 48.6284 313.805 49.1589 313.588C49.6894 313.372 50.2797 313.353 50.8232 313.534C51.3666 313.715 51.8274 314.085 52.1221 314.576C52.4169 315.067 52.5262 315.648 52.4304 316.213V358.213C52.5262 358.777 52.4169 359.358 52.1221 359.849C51.8274 360.34 51.3666 360.71 50.8232 360.891C50.2797 361.072 49.6894 361.053 49.1589 360.837C48.6284 360.621 48.1926 360.222 47.9304 359.713L37.4304 346.213Z" stroke="#303136" stroke-width="4" stroke-linecap="round" stroke-linejoin="round"/>
<rect x="32.8945" y="177.803" width="45.2783" height="45.2784" rx="2" fill="#303136"/>
<path d="M19.5732 192.411H27.5732M19.5732 208.411H27.5732M47.5732 164.411V172.411M63.5732 164.411V172.411M91.5732 192.411H83.5732M91.5732 208.411H83.5732M63.5732 236.411V228.411M47.5732 236.411V228.411M27.5732 176.411C27.5732 175.35 27.9947 174.333 28.7448 173.583C29.495 172.833 30.5124 172.411 31.5732 172.411H79.5732C80.6341 172.411 81.6515 172.833 82.4017 173.583C83.1518 174.333 83.5732 175.35 83.5732 176.411V224.411C83.5732 225.472 83.1518 226.489 82.4017 227.24C81.6515 227.99 80.6341 228.411 79.5732 228.411H31.5732C30.5124 228.411 29.495 227.99 28.7448 227.24C27.9947 226.489 27.5732 225.472 27.5732 224.411V176.411Z" stroke="#303136" stroke-width="4" stroke-linecap="round" stroke-linejoin="round"/>
<path d="M40.3418 207.217V194.617H42.2498V205.507H48.4598V207.217H40.3418ZM51.1348 207.217V194.617H53.0428V205.507H59.2528V207.217H51.1348ZM61.2437 207.217V194.617H63.2597L65.8697 200.305L68.4797 194.617H70.4957V207.217H68.6777V198.253L66.6257 202.753H65.1137L63.0617 198.271V207.217H61.2437Z" fill="white"/>
<path d="M108.43 58.7654L127.43 58.7654L127.43 68.6304M108.43 58.7654L117.573 67.9082M108.43 58.7654L117.573 49.6225" stroke="#A5A8AB" stroke-width="4" stroke-linecap="round" stroke-linejoin="round"/>
<path d="M127.43 58.9203V338.754" stroke="#A5A8AB" stroke-width="4" stroke-linecap="round" stroke-linejoin="round"/>
<path d="M127.568 338.846L108.43 338.846" stroke="#A5A8AB" stroke-width="4" stroke-linecap="round" stroke-linejoin="round"/>
<path d="M55.4304 40.1265V78.1265M65.4304 48.1265V70.1265M75.4304 54.1265V64.1265M45.4304 48.1265V70.1265M35.4304 54.1265V64.1265" stroke="black" stroke-width="4" stroke-linecap="round"/>
</svg>
