<svg width="220" height="168" viewBox="0 0 220 168" fill="none" xmlns="http://www.w3.org/2000/svg">
<g clip-path="url(#clip0_35_826)">
<rect x="0.00927734" width="25" height="25" rx="3" fill="#E9EAEC"/>
<path d="M9.79346 19H7.49072L10.8921 9.8418L10.5229 8.90137C10.4468 8.70215 10.356 8.50293 10.2505 8.30371C10.145 8.10449 10.0249 7.92871 9.89014 7.77637C9.75537 7.61816 9.60303 7.49219 9.43311 7.39844C9.26904 7.29883 9.0874 7.24902 8.88818 7.24902C8.80029 7.24902 8.69482 7.25488 8.57178 7.2666C8.45459 7.27832 8.34619 7.28711 8.24658 7.29297L8.22021 5.71973C8.29639 5.70215 8.38135 5.68457 8.4751 5.66699C8.57471 5.64355 8.67725 5.62305 8.78271 5.60547C8.88818 5.58789 8.99365 5.57617 9.09912 5.57031C9.21045 5.55859 9.31299 5.55273 9.40674 5.55273C9.83447 5.55273 10.2095 5.63477 10.5317 5.79883C10.8599 5.95703 11.1411 6.15625 11.3755 6.39648C11.6099 6.63672 11.8032 6.89746 11.9556 7.17871C12.1138 7.45996 12.2397 7.71777 12.3335 7.95215L15.436 15.9854C15.4946 16.1729 15.5649 16.3545 15.647 16.5303C15.7349 16.7002 15.8315 16.8525 15.937 16.9873C16.0425 17.1162 16.1567 17.2217 16.2798 17.3037C16.4028 17.3799 16.5347 17.418 16.6753 17.418C16.7222 17.418 16.7603 17.418 16.7896 17.418C16.8188 17.418 16.8452 17.418 16.8687 17.418C16.8921 17.4121 16.9185 17.4062 16.9478 17.4004C16.9771 17.3945 17.0181 17.3887 17.0708 17.3828L17.0356 19.0439C16.9478 19.0791 16.8423 19.1055 16.7192 19.123C16.5962 19.1465 16.4907 19.1582 16.4028 19.1582C16.0044 19.1582 15.6499 19.0996 15.3394 18.9824C15.0347 18.8594 14.7622 18.6895 14.522 18.4727C14.2876 18.2559 14.0825 17.9951 13.9067 17.6904C13.731 17.3857 13.5757 17.0518 13.4409 16.6885L11.8589 12.3994L11.5864 13.5859L9.79346 19Z" fill="#7F7F82"/>
<path d="M86.0093 18.5714L32.8903 18.5714" stroke="#7F7F82" stroke-width="2" stroke-linecap="round" stroke-linejoin="round"/>
<path d="M37.0151 23.1429L32.89 18.5714L37.0151 14" stroke="#7F7F82" stroke-width="2" stroke-linecap="round" stroke-linejoin="round"/>
<path d="M32.0093 7.42859L86.1283 7.42859" stroke="#7F7F82" stroke-width="2" stroke-linecap="round" stroke-linejoin="round"/>
<path d="M82.0034 2.85714L86.1286 7.42857L82.0034 12" stroke="#7F7F82" stroke-width="2" stroke-linecap="round" stroke-linejoin="round"/>
<path d="M100.884 17.3125V17.6562C100.884 18.605 101.654 19.375 102.603 19.375C103.579 19.375 104.396 18.6352 104.492 17.6645L105.526 7.3355C105.573 6.86687 105.792 6.43232 106.141 6.11623C106.49 5.80014 106.945 5.62506 107.416 5.625C108.364 5.625 109.134 6.395 109.134 7.34375V7.6875M100.884 12.5H109.134M94.0093 5.16712C94.0093 4.19454 94.3956 3.2618 95.0834 2.57408C95.7711 1.88636 96.7038 1.5 97.6764 1.5H112.342C112.824 1.5 113.301 1.59485 113.746 1.77914C114.19 1.96343 114.595 2.23355 114.935 2.57408C115.276 2.9146 115.546 3.31886 115.73 3.76378C115.914 4.20869 116.009 4.68555 116.009 5.16712V19.8329C116.009 20.3144 115.914 20.7913 115.73 21.2362C115.546 21.6811 115.276 22.0854 114.935 22.4259C114.595 22.7664 114.19 23.0366 113.746 23.2209C113.301 23.4051 112.824 23.5 112.342 23.5H97.6764C97.1948 23.5 96.718 23.4051 96.2731 23.2209C95.8281 23.0366 95.4239 22.7664 95.0834 22.4259C94.7428 22.0854 94.4727 21.6811 94.2884 21.2362C94.1041 20.7913 94.0093 20.3144 94.0093 19.8329V5.16712Z" stroke="#7F7F82" stroke-width="2" stroke-linecap="round" stroke-linejoin="round"/>
<path d="M123.763 13.3555C123.763 13.0352 123.802 12.7422 123.88 12.4766C123.961 12.2109 124.076 11.9831 124.224 11.793C124.373 11.6029 124.551 11.4557 124.759 11.3516C124.97 11.2474 125.206 11.1953 125.466 11.1953C125.719 11.1953 125.938 11.2383 126.123 11.3242C126.307 11.4102 126.466 11.5339 126.599 11.6953L126.638 11.2734H127.486V15.3867C127.486 15.6706 127.439 15.9219 127.345 16.1406C127.251 16.362 127.12 16.5482 126.951 16.6992C126.784 16.8503 126.583 16.9648 126.349 17.043C126.115 17.1237 125.857 17.1641 125.576 17.1641C125.461 17.1641 125.331 17.151 125.185 17.125C125.042 17.1016 124.897 17.0612 124.751 17.0039C124.606 16.9492 124.466 16.8763 124.333 16.7852C124.201 16.6966 124.087 16.5885 123.994 16.4609L124.439 15.9023C124.598 16.0898 124.768 16.224 124.951 16.3047C125.136 16.3854 125.326 16.4258 125.521 16.4258C125.677 16.4258 125.819 16.4036 125.947 16.3594C126.074 16.3151 126.182 16.25 126.271 16.1641C126.36 16.0781 126.427 15.9714 126.474 15.8438C126.524 15.7188 126.548 15.5742 126.548 15.4102V15.125C126.416 15.2708 126.259 15.3828 126.08 15.4609C125.903 15.5391 125.695 15.5781 125.458 15.5781C125.201 15.5781 124.968 15.5247 124.759 15.418C124.551 15.3086 124.373 15.1589 124.224 14.9688C124.076 14.7786 123.961 14.5534 123.88 14.293C123.802 14.0299 123.763 13.7448 123.763 13.4375V13.3555ZM124.701 13.4375C124.701 13.6276 124.72 13.806 124.759 13.9727C124.798 14.1393 124.858 14.2852 124.939 14.4102C125.02 14.5352 125.123 14.6341 125.248 14.707C125.375 14.7773 125.525 14.8125 125.697 14.8125C125.913 14.8125 126.089 14.7682 126.224 14.6797C126.36 14.5885 126.468 14.4674 126.548 14.3164V12.4492C126.465 12.3008 126.356 12.1823 126.22 12.0938C126.085 12.0052 125.913 11.9609 125.705 11.9609C125.533 11.9609 125.383 11.9974 125.255 12.0703C125.13 12.1432 125.026 12.2435 124.943 12.3711C124.862 12.4987 124.801 12.6471 124.759 12.8164C124.72 12.9857 124.701 13.1654 124.701 13.3555V13.4375ZM130.658 15.5781C130.345 15.5781 130.06 15.526 129.802 15.4219C129.544 15.3177 129.323 15.1745 129.138 14.9922C128.956 14.8099 128.814 14.5951 128.712 14.3477C128.611 14.0977 128.56 13.8281 128.56 13.5391V13.3789C128.56 13.043 128.613 12.7409 128.72 12.4727C128.83 12.2044 128.974 11.9753 129.154 11.7852C129.336 11.5951 129.547 11.4492 129.787 11.3477C130.029 11.2461 130.283 11.1953 130.548 11.1953C130.856 11.1953 131.126 11.2474 131.361 11.3516C131.595 11.4531 131.791 11.5977 131.947 11.7852C132.106 11.9701 132.225 12.1901 132.306 12.4453C132.387 12.7005 132.427 12.9805 132.427 13.2852V13.6797H129.498C129.513 13.8438 129.554 13.9961 129.619 14.1367C129.684 14.2773 129.768 14.3997 129.873 14.5039C129.979 14.6055 130.103 14.6862 130.244 14.7461C130.387 14.8034 130.543 14.832 130.712 14.832C130.949 14.832 131.167 14.7852 131.365 14.6914C131.565 14.5977 131.728 14.4688 131.853 14.3047L132.361 14.7812C132.293 14.8828 132.206 14.9818 132.099 15.0781C131.992 15.1719 131.867 15.2565 131.724 15.332C131.581 15.4049 131.419 15.4635 131.24 15.5078C131.063 15.5547 130.869 15.5781 130.658 15.5781ZM130.544 11.9492C130.414 11.9492 130.293 11.9727 130.181 12.0195C130.069 12.0664 129.969 12.1354 129.88 12.2266C129.792 12.3151 129.716 12.4245 129.654 12.5547C129.594 12.6823 129.551 12.8281 129.525 12.9922H131.505V12.9219C131.498 12.7969 131.473 12.6771 131.431 12.5625C131.392 12.4453 131.333 12.3411 131.255 12.25C131.177 12.1589 131.078 12.0859 130.958 12.0312C130.841 11.9766 130.703 11.9492 130.544 11.9492ZM135.365 10.25V11.2734H136.962V11.9688H135.365V13.9961C135.365 14.1549 135.383 14.2865 135.419 14.3906C135.458 14.4948 135.512 14.5781 135.58 14.6406C135.647 14.7031 135.727 14.7474 135.818 14.7734C135.909 14.7969 136.009 14.8086 136.119 14.8086C136.199 14.8086 136.283 14.8047 136.369 14.7969C136.457 14.7865 136.542 14.776 136.623 14.7656C136.706 14.7526 136.781 14.7396 136.849 14.7266C136.919 14.7109 136.978 14.6966 137.025 14.6836L137.13 15.3281C137.063 15.3672 136.981 15.4036 136.884 15.4375C136.791 15.4688 136.688 15.4948 136.576 15.5156C136.464 15.5365 136.347 15.5521 136.224 15.5625C136.104 15.5755 135.986 15.582 135.869 15.582C135.658 15.582 135.464 15.5534 135.287 15.4961C135.112 15.4362 134.961 15.3451 134.833 15.2227C134.708 15.0977 134.61 14.9388 134.537 14.7461C134.466 14.5508 134.431 14.3177 134.431 14.0469V11.9688H133.4V11.2734H134.431V10.25H135.365ZM141.865 16.2344H138.279V15.5H141.865V16.2344ZM143.904 14.1094L143.931 14.3789L143.974 14.1094L144.58 11.2734H145.193L145.806 14.1406L145.849 14.4219L145.884 14.1133L146.294 11.2734H147.138L146.314 15.5H145.529L144.888 12.6719L144.88 12.6211L144.873 12.668L144.244 15.5H143.462L142.638 11.2734H143.478L143.904 14.1094ZM149.876 15.5781C149.564 15.5781 149.279 15.526 149.021 15.4219C148.763 15.3177 148.542 15.1745 148.357 14.9922C148.175 14.8099 148.033 14.5951 147.931 14.3477C147.83 14.0977 147.779 13.8281 147.779 13.5391V13.3789C147.779 13.043 147.832 12.7409 147.939 12.4727C148.048 12.2044 148.193 11.9753 148.373 11.7852C148.555 11.5951 148.766 11.4492 149.005 11.3477C149.248 11.2461 149.501 11.1953 149.767 11.1953C150.074 11.1953 150.345 11.2474 150.58 11.3516C150.814 11.4531 151.009 11.5977 151.166 11.7852C151.324 11.9701 151.444 12.1901 151.525 12.4453C151.606 12.7005 151.646 12.9805 151.646 13.2852V13.6797H148.716C148.732 13.8438 148.772 13.9961 148.837 14.1367C148.903 14.2773 148.987 14.3997 149.091 14.5039C149.198 14.6055 149.322 14.6862 149.462 14.7461C149.606 14.8034 149.762 14.832 149.931 14.832C150.168 14.832 150.386 14.7852 150.583 14.6914C150.784 14.5977 150.947 14.4688 151.072 14.3047L151.58 14.7812C151.512 14.8828 151.425 14.9818 151.318 15.0781C151.211 15.1719 151.086 15.2565 150.943 15.332C150.8 15.4049 150.638 15.4635 150.458 15.5078C150.281 15.5547 150.087 15.5781 149.876 15.5781ZM149.763 11.9492C149.633 11.9492 149.512 11.9727 149.4 12.0195C149.288 12.0664 149.188 12.1354 149.099 12.2266C149.011 12.3151 148.935 12.4245 148.873 12.5547C148.813 12.6823 148.77 12.8281 148.744 12.9922H150.724V12.9219C150.716 12.7969 150.692 12.6771 150.65 12.5625C150.611 12.4453 150.552 12.3411 150.474 12.25C150.396 12.1589 150.297 12.0859 150.177 12.0312C150.06 11.9766 149.922 11.9492 149.763 11.9492ZM155.408 15.5C155.382 15.4479 155.36 15.3867 155.341 15.3164C155.326 15.2461 155.311 15.1706 155.298 15.0898C155.233 15.1576 155.159 15.2214 155.076 15.2812C154.995 15.3385 154.904 15.3893 154.802 15.4336C154.703 15.4779 154.595 15.513 154.478 15.5391C154.363 15.5651 154.24 15.5781 154.107 15.5781C153.883 15.5781 153.68 15.5469 153.498 15.4844C153.318 15.4193 153.163 15.3307 153.033 15.2188C152.905 15.1042 152.806 14.9701 152.736 14.8164C152.666 14.6628 152.63 14.4961 152.63 14.3164C152.63 13.8633 152.798 13.5169 153.134 13.2773C153.473 13.0378 153.957 12.918 154.587 12.918H155.271V12.6406C155.271 12.4167 155.195 12.2396 155.044 12.1094C154.893 11.9766 154.68 11.9102 154.404 11.9102C154.279 11.9102 154.169 11.9258 154.076 11.957C153.982 11.9857 153.904 12.026 153.841 12.0781C153.779 12.1302 153.732 12.1914 153.701 12.2617C153.669 12.332 153.654 12.4076 153.654 12.4883H152.72C152.72 12.3242 152.758 12.1654 152.833 12.0117C152.912 11.8555 153.025 11.7174 153.173 11.5977C153.322 11.4753 153.503 11.3776 153.716 11.3047C153.932 11.2318 154.179 11.1953 154.455 11.1953C154.705 11.1953 154.936 11.2266 155.15 11.2891C155.363 11.349 155.548 11.4401 155.705 11.5625C155.861 11.6823 155.983 11.8333 156.072 12.0156C156.16 12.1953 156.205 12.4062 156.205 12.6484V14.5312C156.205 14.7161 156.218 14.8854 156.244 15.0391C156.272 15.1901 156.313 15.3216 156.365 15.4336V15.5H155.408ZM154.283 14.8242C154.403 14.8242 154.514 14.8099 154.619 14.7812C154.725 14.75 154.82 14.7109 154.904 14.6641C154.99 14.6146 155.063 14.5586 155.123 14.4961C155.185 14.4336 155.235 14.3698 155.271 14.3047V13.5117H154.677C154.297 13.5117 154.016 13.5729 153.833 13.6953C153.654 13.8177 153.564 13.9922 153.564 14.2188C153.564 14.3047 153.578 14.3854 153.607 14.4609C153.636 14.5339 153.679 14.5977 153.736 14.6523C153.796 14.7044 153.87 14.7461 153.958 14.7773C154.05 14.8086 154.158 14.8242 154.283 14.8242ZM159.388 10.25V11.2734H160.986V11.9688H159.388V13.9961C159.388 14.1549 159.406 14.2865 159.443 14.3906C159.482 14.4948 159.535 14.5781 159.603 14.6406C159.671 14.7031 159.75 14.7474 159.841 14.7734C159.932 14.7969 160.033 14.8086 160.142 14.8086C160.223 14.8086 160.306 14.8047 160.392 14.7969C160.481 14.7865 160.565 14.776 160.646 14.7656C160.729 14.7526 160.805 14.7396 160.873 14.7266C160.943 14.7109 161.001 14.6966 161.048 14.6836L161.154 15.3281C161.086 15.3672 161.004 15.4036 160.908 15.4375C160.814 15.4688 160.711 15.4948 160.599 15.5156C160.487 15.5365 160.37 15.5521 160.248 15.5625C160.128 15.5755 160.009 15.582 159.892 15.582C159.681 15.582 159.487 15.5534 159.31 15.4961C159.136 15.4362 158.985 15.3451 158.857 15.2227C158.732 15.0977 158.633 14.9388 158.56 14.7461C158.49 14.5508 158.455 14.3177 158.455 14.0469V11.9688H157.423V11.2734H158.455V10.25H159.388ZM163.255 11.8594C163.401 11.651 163.578 11.4883 163.787 11.3711C163.998 11.2539 164.232 11.1953 164.49 11.1953C164.708 11.1953 164.909 11.2279 165.091 11.293C165.276 11.3581 165.434 11.4596 165.564 11.5977C165.694 11.7331 165.796 11.9089 165.869 12.125C165.942 12.3385 165.978 12.5951 165.978 12.8945V15.5H165.044V12.8867C165.044 12.7253 165.024 12.5872 164.982 12.4727C164.943 12.3555 164.886 12.2591 164.81 12.1836C164.737 12.1081 164.647 12.0521 164.541 12.0156C164.434 11.9792 164.313 11.9609 164.177 11.9609C163.974 11.9609 163.794 12.0039 163.638 12.0898C163.482 12.1732 163.354 12.2865 163.255 12.4297V15.5H162.322V9.5H163.255V11.8594ZM169.095 15.5781C168.783 15.5781 168.498 15.526 168.24 15.4219C167.982 15.3177 167.761 15.1745 167.576 14.9922C167.393 14.8099 167.251 14.5951 167.15 14.3477C167.048 14.0977 166.998 13.8281 166.998 13.5391V13.3789C166.998 13.043 167.051 12.7409 167.158 12.4727C167.267 12.2044 167.412 11.9753 167.591 11.7852C167.774 11.5951 167.985 11.4492 168.224 11.3477C168.466 11.2461 168.72 11.1953 168.986 11.1953C169.293 11.1953 169.564 11.2474 169.798 11.3516C170.033 11.4531 170.228 11.5977 170.384 11.7852C170.543 11.9701 170.663 12.1901 170.744 12.4453C170.824 12.7005 170.865 12.9805 170.865 13.2852V13.6797H167.935C167.951 13.8438 167.991 13.9961 168.056 14.1367C168.121 14.2773 168.206 14.3997 168.31 14.5039C168.417 14.6055 168.541 14.6862 168.681 14.7461C168.824 14.8034 168.981 14.832 169.15 14.832C169.387 14.832 169.604 14.7852 169.802 14.6914C170.003 14.5977 170.166 14.4688 170.291 14.3047L170.798 14.7812C170.731 14.8828 170.643 14.9818 170.537 15.0781C170.43 15.1719 170.305 15.2565 170.162 15.332C170.018 15.4049 169.857 15.4635 169.677 15.5078C169.5 15.5547 169.306 15.5781 169.095 15.5781ZM168.982 11.9492C168.852 11.9492 168.731 11.9727 168.619 12.0195C168.507 12.0664 168.406 12.1354 168.318 12.2266C168.229 12.3151 168.154 12.4245 168.091 12.5547C168.031 12.6823 167.988 12.8281 167.962 12.9922H169.943V12.9219C169.935 12.7969 169.91 12.6771 169.869 12.5625C169.83 12.4453 169.771 12.3411 169.693 12.25C169.615 12.1589 169.516 12.0859 169.396 12.0312C169.279 11.9766 169.141 11.9492 168.982 11.9492ZM174.833 11.1953C174.909 11.1953 174.985 11.1979 175.06 11.2031C175.136 11.2083 175.207 11.2161 175.275 11.2266C175.345 11.237 175.409 11.2487 175.466 11.2617C175.524 11.2721 175.572 11.2852 175.611 11.3008L175.478 12.2188C175.192 12.1536 174.909 12.1211 174.63 12.1211C174.318 12.1211 174.065 12.1862 173.873 12.3164C173.682 12.4466 173.542 12.6276 173.451 12.8594V15.5H172.517V11.2734H173.392L173.435 11.9336C173.607 11.7044 173.81 11.5247 174.044 11.3945C174.281 11.2617 174.544 11.1953 174.833 11.1953ZM177.49 13.1875C177.49 12.8099 177.52 12.457 177.58 12.1289C177.639 11.8008 177.719 11.4974 177.818 11.2188C177.917 10.9401 178.031 10.6875 178.162 10.4609C178.294 10.2318 178.432 10.0299 178.576 9.85547C178.722 9.67839 178.867 9.52995 179.013 9.41016C179.162 9.28776 179.302 9.19271 179.435 9.125L179.623 9.67578C179.474 9.79036 179.324 9.94531 179.173 10.1406C179.022 10.3359 178.886 10.5768 178.763 10.8633C178.641 11.1497 178.541 11.4857 178.462 11.8711C178.387 12.2539 178.349 12.6901 178.349 13.1797V13.2578C178.349 13.7474 178.387 14.1849 178.462 14.5703C178.541 14.9531 178.641 15.2891 178.763 15.5781C178.886 15.8672 179.022 16.1107 179.173 16.3086C179.324 16.5065 179.474 16.6654 179.623 16.7852L179.435 17.3086C179.302 17.2435 179.162 17.1497 179.013 17.0273C178.867 16.9049 178.722 16.7552 178.576 16.5781C178.432 16.4036 178.294 16.2031 178.162 15.9766C178.031 15.75 177.917 15.4974 177.818 15.2188C177.719 14.9401 177.639 14.6367 177.58 14.3086C177.52 13.9805 177.49 13.6276 177.49 13.25V13.1875ZM184.326 13.25C184.326 13.6224 184.296 13.9727 184.236 14.3008C184.176 14.6263 184.095 14.9284 183.994 15.207C183.892 15.4831 183.775 15.7357 183.642 15.9648C183.509 16.194 183.369 16.3971 183.22 16.5742C183.074 16.7513 182.926 16.901 182.775 17.0234C182.626 17.1484 182.486 17.2435 182.353 17.3086L182.169 16.7852C182.315 16.6732 182.464 16.5182 182.615 16.3203C182.766 16.1224 182.903 15.8776 183.025 15.5859C183.147 15.2969 183.248 14.9596 183.326 14.5742C183.404 14.1862 183.443 13.7474 183.443 13.2578V13.1797C183.443 12.6901 183.401 12.2526 183.318 11.8672C183.237 11.4792 183.134 11.1393 183.009 10.8477C182.884 10.556 182.746 10.3112 182.595 10.1133C182.447 9.91536 182.305 9.76042 182.169 9.64844L182.353 9.125C182.486 9.19271 182.626 9.28776 182.775 9.41016C182.926 9.53255 183.074 9.68229 183.22 9.85938C183.369 10.0365 183.509 10.2409 183.642 10.4727C183.775 10.7018 183.892 10.9557 183.994 11.2344C184.095 11.513 184.176 11.8164 184.236 12.1445C184.296 12.4701 184.326 12.8177 184.326 13.1875V13.25Z" fill="#303136"/>
<rect x="0.00927734" y="47" width="25" height="25" rx="3" fill="#E9EAEC"/>
<path d="M9.79346 66H7.49072L10.8921 56.8418L10.5229 55.9014C10.4468 55.7021 10.356 55.5029 10.2505 55.3037C10.145 55.1045 10.0249 54.9287 9.89014 54.7764C9.75537 54.6182 9.60303 54.4922 9.43311 54.3984C9.26904 54.2988 9.0874 54.249 8.88818 54.249C8.80029 54.249 8.69482 54.2549 8.57178 54.2666C8.45459 54.2783 8.34619 54.2871 8.24658 54.293L8.22021 52.7197C8.29639 52.7021 8.38135 52.6846 8.4751 52.667C8.57471 52.6436 8.67725 52.623 8.78271 52.6055C8.88818 52.5879 8.99365 52.5762 9.09912 52.5703C9.21045 52.5586 9.31299 52.5527 9.40674 52.5527C9.83447 52.5527 10.2095 52.6348 10.5317 52.7988C10.8599 52.957 11.1411 53.1562 11.3755 53.3965C11.6099 53.6367 11.8032 53.8975 11.9556 54.1787C12.1138 54.46 12.2397 54.7178 12.3335 54.9521L15.436 62.9854C15.4946 63.1729 15.5649 63.3545 15.647 63.5303C15.7349 63.7002 15.8315 63.8525 15.937 63.9873C16.0425 64.1162 16.1567 64.2217 16.2798 64.3037C16.4028 64.3799 16.5347 64.418 16.6753 64.418C16.7222 64.418 16.7603 64.418 16.7896 64.418C16.8188 64.418 16.8452 64.418 16.8687 64.418C16.8921 64.4121 16.9185 64.4062 16.9478 64.4004C16.9771 64.3945 17.0181 64.3887 17.0708 64.3828L17.0356 66.0439C16.9478 66.0791 16.8423 66.1055 16.7192 66.123C16.5962 66.1465 16.4907 66.1582 16.4028 66.1582C16.0044 66.1582 15.6499 66.0996 15.3394 65.9824C15.0347 65.8594 14.7622 65.6895 14.522 65.4727C14.2876 65.2559 14.0825 64.9951 13.9067 64.6904C13.731 64.3857 13.5757 64.0518 13.4409 63.6885L11.8589 59.3994L11.5864 60.5859L9.79346 66Z" fill="#7F7F82"/>
<path d="M86.0093 65.5714L32.8903 65.5714" stroke="#7F7F82" stroke-width="2" stroke-linecap="round" stroke-linejoin="round"/>
<path d="M37.0151 70.1429L32.89 65.5714L37.0151 61" stroke="#7F7F82" stroke-width="2" stroke-linecap="round" stroke-linejoin="round"/>
<path d="M32.0093 54.4286L86.1283 54.4286" stroke="#7F7F82" stroke-width="2" stroke-linecap="round" stroke-linejoin="round"/>
<path d="M82.0034 49.8571L86.1286 54.4286L82.0034 59" stroke="#7F7F82" stroke-width="2" stroke-linecap="round" stroke-linejoin="round"/>
<path d="M94.0093 54V51.25C94.0093 50.5207 94.299 49.8212 94.8147 49.3055C95.3305 48.7897 96.0299 48.5 96.7593 48.5H99.5093M94.0093 65V67.75C94.0093 68.4793 94.299 69.1788 94.8147 69.6945C95.3305 70.2103 96.0299 70.5 96.7593 70.5H99.5093M110.509 48.5H113.259C113.989 48.5 114.688 48.7897 115.204 49.3055C115.72 49.8212 116.009 50.5207 116.009 51.25V54M110.509 70.5H113.259C113.989 70.5 114.688 70.2103 115.204 69.6945C115.72 69.1788 116.009 68.4793 116.009 67.75V65M99.5093 59.5H110.509M99.5093 55.375H107.759M99.5093 63.625H105.009" stroke="#7F7F82" stroke-width="2" stroke-linecap="round" stroke-linejoin="round"/>
<path d="M127.212 63.9062C127.041 63.9062 126.884 63.8802 126.744 63.8281C126.603 63.776 126.477 63.7057 126.365 63.6172C126.255 63.5286 126.16 63.4245 126.08 63.3047C126.001 63.1849 125.935 63.0573 125.88 62.9219C125.828 62.7865 125.789 62.6471 125.763 62.5039C125.74 62.3633 125.728 62.224 125.728 62.0859V61.4492C125.728 61.0872 125.642 60.8268 125.47 60.668C125.301 60.5091 125.042 60.4297 124.693 60.4297V59.7422C125.042 59.7422 125.301 59.6628 125.47 59.5039C125.642 59.3424 125.728 59.0794 125.728 58.7148V58.0781C125.728 57.9427 125.738 57.8034 125.759 57.6602C125.783 57.5169 125.819 57.3776 125.869 57.2422C125.918 57.1068 125.981 56.9805 126.056 56.8633C126.134 56.7435 126.228 56.6393 126.337 56.5508C126.449 56.4622 126.577 56.3919 126.72 56.3398C126.866 56.2878 127.03 56.2617 127.212 56.2617L127.318 56.8047C127.146 56.8021 127.012 56.8398 126.916 56.918C126.819 56.9935 126.749 57.0924 126.705 57.2148C126.66 57.3372 126.633 57.4753 126.623 57.6289C126.615 57.7799 126.611 57.9297 126.611 58.0781V58.7148C126.611 59.0247 126.537 59.2995 126.388 59.5391C126.24 59.7786 126.009 59.9609 125.697 60.0859C126.012 60.2109 126.242 60.3919 126.388 60.6289C126.537 60.8659 126.611 61.1393 126.611 61.4492V62.0859C126.611 62.2344 126.62 62.3841 126.638 62.5352C126.659 62.6888 126.695 62.8268 126.748 62.9492C126.802 63.0716 126.875 63.1706 126.966 63.2461C127.057 63.3242 127.175 63.362 127.318 63.3594L127.212 63.9062ZM129.716 58.2734L129.775 58.8594C129.929 58.6484 130.113 58.4857 130.33 58.3711C130.548 58.2539 130.791 58.1953 131.056 58.1953C131.272 58.1953 131.469 58.2266 131.646 58.2891C131.826 58.3516 131.979 58.4492 132.107 58.582C132.237 58.7148 132.337 58.8867 132.408 59.0977C132.481 59.3086 132.517 59.5625 132.517 59.8594V62.5H131.583V59.875C131.583 59.7005 131.563 59.5547 131.521 59.4375C131.482 59.3203 131.425 59.2266 131.349 59.1562C131.276 59.0859 131.186 59.0365 131.08 59.0078C130.973 58.9766 130.852 58.9609 130.716 58.9609C130.511 58.9609 130.331 59.0065 130.177 59.0977C130.026 59.1888 129.904 59.3125 129.81 59.4688V62.5H128.873V58.2734H129.716ZM136.373 62.5C136.347 62.4479 136.324 62.3867 136.306 62.3164C136.291 62.2461 136.276 62.1706 136.263 62.0898C136.198 62.1576 136.124 62.2214 136.041 62.2812C135.96 62.3385 135.869 62.3893 135.767 62.4336C135.668 62.4779 135.56 62.513 135.443 62.5391C135.328 62.5651 135.205 62.5781 135.072 62.5781C134.848 62.5781 134.645 62.5469 134.462 62.4844C134.283 62.4193 134.128 62.3307 133.998 62.2188C133.87 62.1042 133.771 61.9701 133.701 61.8164C133.63 61.6628 133.595 61.4961 133.595 61.3164C133.595 60.8633 133.763 60.5169 134.099 60.2773C134.438 60.0378 134.922 59.918 135.552 59.918H136.236V59.6406C136.236 59.4167 136.16 59.2396 136.009 59.1094C135.858 58.9766 135.645 58.9102 135.369 58.9102C135.244 58.9102 135.134 58.9258 135.041 58.957C134.947 58.9857 134.869 59.026 134.806 59.0781C134.744 59.1302 134.697 59.1914 134.666 59.2617C134.634 59.332 134.619 59.4076 134.619 59.4883H133.685C133.685 59.3242 133.723 59.1654 133.798 59.0117C133.876 58.8555 133.99 58.7174 134.138 58.5977C134.287 58.4753 134.468 58.3776 134.681 58.3047C134.897 58.2318 135.143 58.1953 135.419 58.1953C135.669 58.1953 135.901 58.2266 136.115 58.2891C136.328 58.349 136.513 58.4401 136.669 58.5625C136.826 58.6823 136.948 58.8333 137.037 59.0156C137.125 59.1953 137.169 59.4062 137.169 59.6484V61.5312C137.169 61.7161 137.182 61.8854 137.208 62.0391C137.237 62.1901 137.278 62.3216 137.33 62.4336V62.5H136.373ZM135.248 61.8242C135.367 61.8242 135.479 61.8099 135.583 61.7812C135.69 61.75 135.785 61.7109 135.869 61.6641C135.955 61.6146 136.028 61.5586 136.087 61.4961C136.15 61.4336 136.199 61.3698 136.236 61.3047V60.5117H135.642C135.262 60.5117 134.981 60.5729 134.798 60.6953C134.619 60.8177 134.529 60.9922 134.529 61.2188C134.529 61.3047 134.543 61.3854 134.572 61.4609C134.6 61.5339 134.643 61.5977 134.701 61.6523C134.761 61.7044 134.835 61.7461 134.923 61.7773C135.014 61.8086 135.123 61.8242 135.248 61.8242ZM139.021 58.2734L139.044 58.7188C139.128 58.5547 139.24 58.4271 139.38 58.3359C139.521 58.2422 139.69 58.1953 139.888 58.1953C140.068 58.1953 140.216 58.2318 140.333 58.3047C140.453 58.375 140.543 58.4857 140.603 58.6367C140.686 58.5013 140.793 58.3945 140.923 58.3164C141.054 58.2357 141.211 58.1953 141.396 58.1953C141.534 58.1953 141.66 58.2188 141.775 58.2656C141.892 58.3099 141.991 58.3815 142.072 58.4805C142.155 58.5794 142.219 58.7057 142.263 58.8594C142.31 59.013 142.333 59.1979 142.333 59.4141V62.5H141.466V59.4062C141.466 59.237 141.43 59.1211 141.357 59.0586C141.287 58.9935 141.195 58.9609 141.083 58.9609C140.977 58.9609 140.892 58.987 140.83 59.0391C140.767 59.0885 140.722 59.1549 140.693 59.2383V62.5H139.845V59.4062C139.845 59.2422 139.811 59.1276 139.744 59.0625C139.679 58.9948 139.589 58.9609 139.474 58.9609C139.365 58.9609 139.279 58.9844 139.216 59.0312C139.154 59.0781 139.106 59.1419 139.072 59.2227V62.5H138.205V58.2734H139.021ZM145.255 62.5781C144.943 62.5781 144.658 62.526 144.4 62.4219C144.142 62.3177 143.921 62.1745 143.736 61.9922C143.554 61.8099 143.412 61.5951 143.31 61.3477C143.208 61.0977 143.158 60.8281 143.158 60.5391V60.3789C143.158 60.043 143.211 59.7409 143.318 59.4727C143.427 59.2044 143.572 58.9753 143.751 58.7852C143.934 58.5951 144.145 58.4492 144.384 58.3477C144.626 58.2461 144.88 58.1953 145.146 58.1953C145.453 58.1953 145.724 58.2474 145.958 58.3516C146.193 58.4531 146.388 58.5977 146.544 58.7852C146.703 58.9701 146.823 59.1901 146.904 59.4453C146.985 59.7005 147.025 59.9805 147.025 60.2852V60.6797H144.095C144.111 60.8438 144.151 60.9961 144.216 61.1367C144.281 61.2773 144.366 61.3997 144.47 61.5039C144.577 61.6055 144.701 61.6862 144.841 61.7461C144.985 61.8034 145.141 61.832 145.31 61.832C145.547 61.832 145.764 61.7852 145.962 61.6914C146.163 61.5977 146.326 61.4688 146.451 61.3047L146.958 61.7812C146.891 61.8828 146.804 61.9818 146.697 62.0781C146.59 62.1719 146.465 62.2565 146.322 62.332C146.179 62.4049 146.017 62.4635 145.837 62.5078C145.66 62.5547 145.466 62.5781 145.255 62.5781ZM145.142 58.9492C145.012 58.9492 144.891 58.9727 144.779 59.0195C144.667 59.0664 144.567 59.1354 144.478 59.2266C144.389 59.3151 144.314 59.4245 144.251 59.5547C144.192 59.6823 144.149 59.8281 144.123 59.9922H146.103V59.9219C146.095 59.7969 146.07 59.6771 146.029 59.5625C145.99 59.4453 145.931 59.3411 145.853 59.25C145.775 59.1589 145.676 59.0859 145.556 59.0312C145.439 58.9766 145.301 58.9492 145.142 58.9492ZM149.38 61.9414C149.38 61.8503 149.395 61.7643 149.423 61.6836C149.455 61.6029 149.499 61.5339 149.556 61.4766C149.613 61.4167 149.684 61.3698 149.767 61.3359C149.853 61.3021 149.951 61.2852 150.06 61.2852C150.169 61.2852 150.266 61.3021 150.349 61.3359C150.435 61.3698 150.507 61.4167 150.564 61.4766C150.624 61.5339 150.668 61.6029 150.697 61.6836C150.728 61.7643 150.744 61.8503 150.744 61.9414C150.744 62.0326 150.728 62.1172 150.697 62.1953C150.668 62.2708 150.624 62.3372 150.564 62.3945C150.507 62.4518 150.435 62.4961 150.349 62.5273C150.266 62.5612 150.169 62.5781 150.06 62.5781C149.951 62.5781 149.853 62.5612 149.767 62.5273C149.684 62.4961 149.613 62.4518 149.556 62.3945C149.499 62.3372 149.455 62.2708 149.423 62.1953C149.395 62.1172 149.38 62.0326 149.38 61.9414ZM149.38 58.6172C149.38 58.526 149.395 58.4401 149.423 58.3594C149.455 58.2786 149.499 58.2096 149.556 58.1523C149.613 58.0924 149.684 58.0456 149.767 58.0117C149.853 57.9779 149.951 57.9609 150.06 57.9609C150.169 57.9609 150.266 57.9779 150.349 58.0117C150.435 58.0456 150.507 58.0924 150.564 58.1523C150.624 58.2096 150.668 58.2786 150.697 58.3594C150.728 58.4401 150.744 58.526 150.744 58.6172C150.744 58.7083 150.728 58.793 150.697 58.8711C150.668 58.9466 150.624 59.013 150.564 59.0703C150.507 59.1276 150.435 59.1732 150.349 59.207C150.266 59.2383 150.169 59.2539 150.06 59.2539C149.951 59.2539 149.853 59.2383 149.767 59.207C149.684 59.1732 149.613 59.1276 149.556 59.0703C149.499 59.013 149.455 58.9466 149.423 58.8711C149.395 58.793 149.38 58.7083 149.38 58.6172ZM154.607 57.0391C154.607 57.1693 154.59 57.3047 154.556 57.4453C154.522 57.5833 154.474 57.7201 154.412 57.8555C154.349 57.9883 154.274 58.1159 154.185 58.2383C154.097 58.3607 153.999 58.4688 153.892 58.5625L153.435 58.2578C153.547 58.0781 153.634 57.8919 153.697 57.6992C153.759 57.5039 153.791 57.2852 153.791 57.043V56.4062H154.607V57.0391ZM155.966 57.0391C155.966 57.1693 155.949 57.3047 155.916 57.4453C155.882 57.5833 155.833 57.7201 155.771 57.8555C155.708 57.9883 155.633 58.1159 155.544 58.2383C155.456 58.3607 155.358 58.4688 155.251 58.5625L154.794 58.2578C154.906 58.0781 154.994 57.8919 155.056 57.6992C155.119 57.5039 155.15 57.2852 155.15 57.043V56.4062H155.966V57.0391ZM157.58 60.3555C157.58 60.0352 157.619 59.7422 157.697 59.4766C157.778 59.2109 157.892 58.9831 158.041 58.793C158.189 58.6029 158.367 58.4557 158.576 58.3516C158.787 58.2474 159.022 58.1953 159.283 58.1953C159.535 58.1953 159.754 58.2383 159.939 58.3242C160.124 58.4102 160.283 58.5339 160.416 58.6953L160.455 58.2734H161.302V62.3867C161.302 62.6706 161.255 62.9219 161.162 63.1406C161.068 63.362 160.936 63.5482 160.767 63.6992C160.6 63.8503 160.4 63.9648 160.166 64.043C159.931 64.1237 159.673 64.1641 159.392 64.1641C159.278 64.1641 159.147 64.151 159.001 64.125C158.858 64.1016 158.714 64.0612 158.568 64.0039C158.422 63.9492 158.283 63.8763 158.15 63.7852C158.017 63.6966 157.904 63.5885 157.81 63.4609L158.255 62.9023C158.414 63.0898 158.585 63.224 158.767 63.3047C158.952 63.3854 159.142 63.4258 159.337 63.4258C159.494 63.4258 159.636 63.4036 159.763 63.3594C159.891 63.3151 159.999 63.25 160.087 63.1641C160.176 63.0781 160.244 62.9714 160.291 62.8438C160.34 62.7188 160.365 62.5742 160.365 62.4102V62.125C160.232 62.2708 160.076 62.3828 159.896 62.4609C159.719 62.5391 159.512 62.5781 159.275 62.5781C159.017 62.5781 158.784 62.5247 158.576 62.418C158.367 62.3086 158.189 62.1589 158.041 61.9688C157.892 61.7786 157.778 61.5534 157.697 61.293C157.619 61.0299 157.58 60.7448 157.58 60.4375V60.3555ZM158.517 60.4375C158.517 60.6276 158.537 60.806 158.576 60.9727C158.615 61.1393 158.675 61.2852 158.755 61.4102C158.836 61.5352 158.939 61.6341 159.064 61.707C159.192 61.7773 159.341 61.8125 159.513 61.8125C159.729 61.8125 159.905 61.7682 160.041 61.6797C160.176 61.5885 160.284 61.4674 160.365 61.3164V59.4492C160.281 59.3008 160.172 59.1823 160.037 59.0938C159.901 59.0052 159.729 58.9609 159.521 58.9609C159.349 58.9609 159.199 58.9974 159.072 59.0703C158.947 59.1432 158.843 59.2435 158.759 59.3711C158.679 59.4987 158.617 59.6471 158.576 59.8164C158.537 59.9857 158.517 60.1654 158.517 60.3555V60.4375ZM164.474 62.5781C164.162 62.5781 163.876 62.526 163.619 62.4219C163.361 62.3177 163.139 62.1745 162.955 61.9922C162.772 61.8099 162.63 61.5951 162.529 61.3477C162.427 61.0977 162.376 60.8281 162.376 60.5391V60.3789C162.376 60.043 162.43 59.7409 162.537 59.4727C162.646 59.2044 162.791 58.9753 162.97 58.7852C163.153 58.5951 163.363 58.4492 163.603 58.3477C163.845 58.2461 164.099 58.1953 164.365 58.1953C164.672 58.1953 164.943 58.2474 165.177 58.3516C165.412 58.4531 165.607 58.5977 165.763 58.7852C165.922 58.9701 166.042 59.1901 166.123 59.4453C166.203 59.7005 166.244 59.9805 166.244 60.2852V60.6797H163.314C163.33 60.8438 163.37 60.9961 163.435 61.1367C163.5 61.2773 163.585 61.3997 163.689 61.5039C163.796 61.6055 163.919 61.6862 164.06 61.7461C164.203 61.8034 164.36 61.832 164.529 61.832C164.766 61.832 164.983 61.7852 165.181 61.6914C165.382 61.5977 165.544 61.4688 165.669 61.3047L166.177 61.7812C166.11 61.8828 166.022 61.9818 165.916 62.0781C165.809 62.1719 165.684 62.2565 165.541 62.332C165.397 62.4049 165.236 62.4635 165.056 62.5078C164.879 62.5547 164.685 62.5781 164.474 62.5781ZM164.361 58.9492C164.231 58.9492 164.11 58.9727 163.998 59.0195C163.886 59.0664 163.785 59.1354 163.697 59.2266C163.608 59.3151 163.533 59.4245 163.47 59.5547C163.41 59.6823 163.367 59.8281 163.341 59.9922H165.322V59.9219C165.314 59.7969 165.289 59.6771 165.248 59.5625C165.208 59.4453 165.15 59.3411 165.072 59.25C164.994 59.1589 164.895 59.0859 164.775 59.0312C164.658 58.9766 164.52 58.9492 164.361 58.9492ZM169.181 57.25V58.2734H170.779V58.9688H169.181V60.9961C169.181 61.1549 169.199 61.2865 169.236 61.3906C169.275 61.4948 169.328 61.5781 169.396 61.6406C169.464 61.7031 169.543 61.7474 169.634 61.7734C169.725 61.7969 169.826 61.8086 169.935 61.8086C170.016 61.8086 170.099 61.8047 170.185 61.7969C170.274 61.7865 170.358 61.776 170.439 61.7656C170.522 61.7526 170.598 61.7396 170.666 61.7266C170.736 61.7109 170.794 61.6966 170.841 61.6836L170.947 62.3281C170.879 62.3672 170.797 62.4036 170.701 62.4375C170.607 62.4688 170.504 62.4948 170.392 62.5156C170.28 62.5365 170.163 62.5521 170.041 62.5625C169.921 62.5755 169.802 62.582 169.685 62.582C169.474 62.582 169.28 62.5534 169.103 62.4961C168.929 62.4362 168.778 62.3451 168.65 62.2227C168.525 62.0977 168.426 61.9388 168.353 61.7461C168.283 61.5508 168.248 61.3177 168.248 61.0469V58.9688H167.216V58.2734H168.248V57.25H169.181ZM175.681 63.2344H172.095V62.5H175.681V63.2344ZM177.72 61.1094L177.748 61.3789L177.791 61.1094L178.396 58.2734H179.009L179.623 61.1406L179.666 61.4219L179.701 61.1133L180.111 58.2734H180.955L180.13 62.5H179.345L178.705 59.6719L178.697 59.6211L178.689 59.668L178.06 62.5H177.279L176.455 58.2734H177.294L177.72 61.1094ZM183.693 62.5781C183.38 62.5781 183.095 62.526 182.837 62.4219C182.58 62.3177 182.358 62.1745 182.173 61.9922C181.991 61.8099 181.849 61.5951 181.748 61.3477C181.646 61.0977 181.595 60.8281 181.595 60.5391V60.3789C181.595 60.043 181.649 59.7409 181.755 59.4727C181.865 59.2044 182.009 58.9753 182.189 58.7852C182.371 58.5951 182.582 58.4492 182.822 58.3477C183.064 58.2461 183.318 58.1953 183.583 58.1953C183.891 58.1953 184.162 58.2474 184.396 58.3516C184.63 58.4531 184.826 58.5977 184.982 58.7852C185.141 58.9701 185.261 59.1901 185.341 59.4453C185.422 59.7005 185.462 59.9805 185.462 60.2852V60.6797H182.533C182.548 60.8438 182.589 60.9961 182.654 61.1367C182.719 61.2773 182.804 61.3997 182.908 61.5039C183.014 61.6055 183.138 61.6862 183.279 61.7461C183.422 61.8034 183.578 61.832 183.748 61.832C183.985 61.832 184.202 61.7852 184.4 61.6914C184.6 61.5977 184.763 61.4688 184.888 61.3047L185.396 61.7812C185.328 61.8828 185.241 61.9818 185.134 62.0781C185.028 62.1719 184.903 62.2565 184.759 62.332C184.616 62.4049 184.455 62.4635 184.275 62.5078C184.098 62.5547 183.904 62.5781 183.693 62.5781ZM183.58 58.9492C183.449 58.9492 183.328 58.9727 183.216 59.0195C183.104 59.0664 183.004 59.1354 182.916 59.2266C182.827 59.3151 182.751 59.4245 182.689 59.5547C182.629 59.6823 182.586 59.8281 182.56 59.9922H184.541V59.9219C184.533 59.7969 184.508 59.6771 184.466 59.5625C184.427 59.4453 184.369 59.3411 184.291 59.25C184.212 59.1589 184.113 59.0859 183.994 59.0312C183.876 58.9766 183.738 58.9492 183.58 58.9492ZM189.224 62.5C189.198 62.4479 189.176 62.3867 189.158 62.3164C189.142 62.2461 189.128 62.1706 189.115 62.0898C189.05 62.1576 188.975 62.2214 188.892 62.2812C188.811 62.3385 188.72 62.3893 188.619 62.4336C188.52 62.4779 188.412 62.513 188.294 62.5391C188.18 62.5651 188.056 62.5781 187.923 62.5781C187.699 62.5781 187.496 62.5469 187.314 62.4844C187.134 62.4193 186.979 62.3307 186.849 62.2188C186.722 62.1042 186.623 61.9701 186.552 61.8164C186.482 61.6628 186.447 61.4961 186.447 61.3164C186.447 60.8633 186.615 60.5169 186.951 60.2773C187.289 60.0378 187.774 59.918 188.404 59.918H189.087V59.6406C189.087 59.4167 189.012 59.2396 188.861 59.1094C188.71 58.9766 188.496 58.9102 188.22 58.9102C188.095 58.9102 187.986 58.9258 187.892 58.957C187.798 58.9857 187.72 59.026 187.658 59.0781C187.595 59.1302 187.548 59.1914 187.517 59.2617C187.486 59.332 187.47 59.4076 187.47 59.4883H186.537C186.537 59.3242 186.574 59.1654 186.65 59.0117C186.728 58.8555 186.841 58.7174 186.99 58.5977C187.138 58.4753 187.319 58.3776 187.533 58.3047C187.749 58.2318 187.995 58.1953 188.271 58.1953C188.521 58.1953 188.753 58.2266 188.966 58.2891C189.18 58.349 189.365 58.4401 189.521 58.5625C189.677 58.6823 189.8 58.8333 189.888 59.0156C189.977 59.1953 190.021 59.4062 190.021 59.6484V61.5312C190.021 61.7161 190.034 61.8854 190.06 62.0391C190.089 62.1901 190.129 62.3216 190.181 62.4336V62.5H189.224ZM188.099 61.8242C188.219 61.8242 188.331 61.8099 188.435 61.7812C188.542 61.75 188.637 61.7109 188.72 61.6641C188.806 61.6146 188.879 61.5586 188.939 61.4961C189.001 61.4336 189.051 61.3698 189.087 61.3047V60.5117H188.494C188.113 60.5117 187.832 60.5729 187.65 60.6953C187.47 60.8177 187.38 60.9922 187.38 61.2188C187.38 61.3047 187.395 61.3854 187.423 61.4609C187.452 61.5339 187.495 61.5977 187.552 61.6523C187.612 61.7044 187.686 61.7461 187.775 61.7773C187.866 61.8086 187.974 61.8242 188.099 61.8242ZM193.205 57.25V58.2734H194.802V58.9688H193.205V60.9961C193.205 61.1549 193.223 61.2865 193.259 61.3906C193.298 61.4948 193.352 61.5781 193.419 61.6406C193.487 61.7031 193.567 61.7474 193.658 61.7734C193.749 61.7969 193.849 61.8086 193.958 61.8086C194.039 61.8086 194.123 61.8047 194.208 61.7969C194.297 61.7865 194.382 61.776 194.462 61.7656C194.546 61.7526 194.621 61.7396 194.689 61.7266C194.759 61.7109 194.818 61.6966 194.865 61.6836L194.97 62.3281C194.903 62.3672 194.82 62.4036 194.724 62.4375C194.63 62.4688 194.528 62.4948 194.416 62.5156C194.304 62.5365 194.186 62.5521 194.064 62.5625C193.944 62.5755 193.826 62.582 193.708 62.582C193.498 62.582 193.304 62.5534 193.126 62.4961C192.952 62.4362 192.801 62.3451 192.673 62.2227C192.548 62.0977 192.449 61.9388 192.376 61.7461C192.306 61.5508 192.271 61.3177 192.271 61.0469V58.9688H191.24V58.2734H192.271V57.25H193.205ZM197.072 58.8594C197.218 58.651 197.395 58.4883 197.603 58.3711C197.814 58.2539 198.048 58.1953 198.306 58.1953C198.525 58.1953 198.725 58.2279 198.908 58.293C199.093 58.3581 199.25 58.4596 199.38 58.5977C199.511 58.7331 199.612 58.9089 199.685 59.125C199.758 59.3385 199.794 59.5951 199.794 59.8945V62.5H198.861V59.8867C198.861 59.7253 198.84 59.5872 198.798 59.4727C198.759 59.3555 198.702 59.2591 198.626 59.1836C198.554 59.1081 198.464 59.0521 198.357 59.0156C198.25 58.9792 198.129 58.9609 197.994 58.9609C197.791 58.9609 197.611 59.0039 197.455 59.0898C197.298 59.1732 197.171 59.2865 197.072 59.4297V62.5H196.138V56.5H197.072V58.8594ZM202.912 62.5781C202.599 62.5781 202.314 62.526 202.056 62.4219C201.798 62.3177 201.577 62.1745 201.392 61.9922C201.21 61.8099 201.068 61.5951 200.966 61.3477C200.865 61.0977 200.814 60.8281 200.814 60.5391V60.3789C200.814 60.043 200.867 59.7409 200.974 59.4727C201.083 59.2044 201.228 58.9753 201.408 58.7852C201.59 58.5951 201.801 58.4492 202.041 58.3477C202.283 58.2461 202.537 58.1953 202.802 58.1953C203.11 58.1953 203.38 58.2474 203.615 58.3516C203.849 58.4531 204.044 58.5977 204.201 58.7852C204.36 58.9701 204.479 59.1901 204.56 59.4453C204.641 59.7005 204.681 59.9805 204.681 60.2852V60.6797H201.751C201.767 60.8438 201.807 60.9961 201.873 61.1367C201.938 61.2773 202.022 61.3997 202.126 61.5039C202.233 61.6055 202.357 61.6862 202.498 61.7461C202.641 61.8034 202.797 61.832 202.966 61.832C203.203 61.832 203.421 61.7852 203.619 61.6914C203.819 61.5977 203.982 61.4688 204.107 61.3047L204.615 61.7812C204.547 61.8828 204.46 61.9818 204.353 62.0781C204.246 62.1719 204.121 62.2565 203.978 62.332C203.835 62.4049 203.673 62.4635 203.494 62.5078C203.317 62.5547 203.123 62.5781 202.912 62.5781ZM202.798 58.9492C202.668 58.9492 202.547 58.9727 202.435 59.0195C202.323 59.0664 202.223 59.1354 202.134 59.2266C202.046 59.3151 201.97 59.4245 201.908 59.5547C201.848 59.6823 201.805 59.8281 201.779 59.9922H203.759V59.9219C203.751 59.7969 203.727 59.6771 203.685 59.5625C203.646 59.4453 203.587 59.3411 203.509 59.25C203.431 59.1589 203.332 59.0859 203.212 59.0312C203.095 58.9766 202.957 58.9492 202.798 58.9492ZM208.65 58.1953C208.725 58.1953 208.801 58.1979 208.876 58.2031C208.952 58.2083 209.024 58.2161 209.091 58.2266C209.162 58.237 209.225 58.2487 209.283 58.2617C209.34 58.2721 209.388 58.2852 209.427 58.3008L209.294 59.2188C209.008 59.1536 208.725 59.1211 208.447 59.1211C208.134 59.1211 207.882 59.1862 207.689 59.3164C207.499 59.4466 207.358 59.6276 207.267 59.8594V62.5H206.333V58.2734H207.208L207.251 58.9336C207.423 58.7044 207.626 58.5247 207.861 58.3945C208.098 58.2617 208.361 58.1953 208.65 58.1953ZM212.263 57.0391C212.263 57.1693 212.246 57.3047 212.212 57.4453C212.179 57.5833 212.13 57.7201 212.068 57.8555C212.005 57.9883 211.93 58.1159 211.841 58.2383C211.753 58.3607 211.655 58.4688 211.548 58.5625L211.091 58.2578C211.203 58.0781 211.291 57.8919 211.353 57.6992C211.416 57.5039 211.447 57.2852 211.447 57.043V56.4062H212.263V57.0391ZM213.623 57.0391C213.623 57.1693 213.606 57.3047 213.572 57.4453C213.538 57.5833 213.49 57.7201 213.427 57.8555C213.365 57.9883 213.289 58.1159 213.201 58.2383C213.112 58.3607 213.014 58.4688 212.908 58.5625L212.451 58.2578C212.563 58.0781 212.65 57.8919 212.712 57.6992C212.775 57.5039 212.806 57.2852 212.806 57.043V56.4062H213.623V57.0391ZM216.029 63.3594C216.172 63.362 216.289 63.3242 216.38 63.2461C216.472 63.1706 216.543 63.0716 216.595 62.9492C216.647 62.8268 216.684 62.6888 216.705 62.5352C216.725 62.3841 216.736 62.2344 216.736 62.0859V61.4492C216.736 61.1445 216.807 60.8737 216.951 60.6367C217.094 60.3971 217.318 60.2135 217.623 60.0859C217.318 59.9583 217.094 59.7747 216.951 59.5352C216.807 59.2956 216.736 59.0221 216.736 58.7148V58.0781C216.736 57.9297 216.731 57.7799 216.72 57.6289C216.712 57.4753 216.686 57.3372 216.642 57.2148C216.598 57.0924 216.528 56.9935 216.431 56.918C216.335 56.8398 216.201 56.8021 216.029 56.8047L216.134 56.2617C216.317 56.2617 216.479 56.2878 216.623 56.3398C216.768 56.3919 216.896 56.4622 217.005 56.5508C217.117 56.6393 217.211 56.7435 217.287 56.8633C217.365 56.9805 217.429 57.1068 217.478 57.2422C217.528 57.3776 217.563 57.5169 217.583 57.6602C217.607 57.8034 217.619 57.9427 217.619 58.0781V58.7148C217.619 59.0794 217.703 59.3424 217.873 59.5039C218.042 59.6628 218.302 59.7422 218.654 59.7422V60.4297C218.302 60.4297 218.042 60.5091 217.873 60.668C217.703 60.8268 217.619 61.0872 217.619 61.4492V62.0859C217.619 62.2214 217.606 62.3607 217.58 62.5039C217.556 62.6471 217.517 62.7865 217.462 62.9219C217.41 63.0573 217.344 63.1849 217.263 63.3047C217.185 63.4245 217.09 63.5286 216.978 63.6172C216.869 63.7057 216.744 63.776 216.603 63.8281C216.462 63.8802 216.306 63.9062 216.134 63.9062L216.029 63.3594Z" fill="#303136"/>
<rect x="0.00927734" y="94" width="25" height="25" rx="3" fill="#E9EAEC"/>
<path d="M9.79346 113H7.49072L10.8921 103.842L10.5229 102.901C10.4468 102.702 10.356 102.503 10.2505 102.304C10.145 102.104 10.0249 101.929 9.89014 101.776C9.75537 101.618 9.60303 101.492 9.43311 101.398C9.26904 101.299 9.0874 101.249 8.88818 101.249C8.80029 101.249 8.69482 101.255 8.57178 101.267C8.45459 101.278 8.34619 101.287 8.24658 101.293L8.22021 99.7197C8.29639 99.7021 8.38135 99.6846 8.4751 99.667C8.57471 99.6436 8.67725 99.623 8.78271 99.6055C8.88818 99.5879 8.99365 99.5762 9.09912 99.5703C9.21045 99.5586 9.31299 99.5527 9.40674 99.5527C9.83447 99.5527 10.2095 99.6348 10.5317 99.7988C10.8599 99.957 11.1411 100.156 11.3755 100.396C11.6099 100.637 11.8032 100.897 11.9556 101.179C12.1138 101.46 12.2397 101.718 12.3335 101.952L15.436 109.985C15.4946 110.173 15.5649 110.354 15.647 110.53C15.7349 110.7 15.8315 110.853 15.937 110.987C16.0425 111.116 16.1567 111.222 16.2798 111.304C16.4028 111.38 16.5347 111.418 16.6753 111.418C16.7222 111.418 16.7603 111.418 16.7896 111.418C16.8188 111.418 16.8452 111.418 16.8687 111.418C16.8921 111.412 16.9185 111.406 16.9478 111.4C16.9771 111.395 17.0181 111.389 17.0708 111.383L17.0356 113.044C16.9478 113.079 16.8423 113.105 16.7192 113.123C16.5962 113.146 16.4907 113.158 16.4028 113.158C16.0044 113.158 15.6499 113.1 15.3394 112.982C15.0347 112.859 14.7622 112.689 14.522 112.473C14.2876 112.256 14.0825 111.995 13.9067 111.69C13.731 111.386 13.5757 111.052 13.4409 110.688L11.8589 106.399L11.5864 107.586L9.79346 113Z" fill="#7F7F82"/>
<path d="M167.009 112.571L31.8903 112.571" stroke="#7F7F82" stroke-width="2" stroke-linecap="round" stroke-linejoin="round"/>
<path d="M36.0151 117.143L31.89 112.571L36.0151 108" stroke="#7F7F82" stroke-width="2" stroke-linecap="round" stroke-linejoin="round"/>
<path d="M31.0093 101.429L166.128 101.429" stroke="#7F7F82" stroke-width="2" stroke-linecap="round" stroke-linejoin="round"/>
<path d="M162.003 96.8571L166.129 101.429L162.003 106" stroke="#7F7F82" stroke-width="2" stroke-linecap="round" stroke-linejoin="round"/>
<path d="M173.807 115.835C172.349 115.057 173.224 114.084 173.807 113.501C174.39 112.918 174.775 111.836 173.807 111.167C172.839 110.499 173.261 109.611 173.807 108.834C174.353 108.056 174.798 107.491 173.807 106.5C172.816 105.509 173.224 104.749 173.807 104.166C174.39 103.583 174.775 102.501 173.807 101.833C172.839 101.164 173.261 100.276 173.807 99.4988C174.353 98.7212 174.857 98.0986 173.807 97.1651" stroke="#7F7F82" stroke-width="2" stroke-linecap="round" stroke-linejoin="round"/>
<path d="M185.673 115.835C184.215 115.057 185.09 114.084 185.673 113.501C186.256 112.918 186.64 111.836 185.673 111.167C184.705 110.499 185.126 109.611 185.673 108.834C186.219 108.056 186.664 107.491 185.673 106.5C184.682 105.509 185.09 104.749 185.673 104.166C186.256 103.583 186.64 102.501 185.673 101.833C184.705 101.164 185.126 100.276 185.673 99.4988C186.219 98.7212 186.723 98.0986 185.673 97.1651" stroke="#7F7F82" stroke-width="2" stroke-linecap="round" stroke-linejoin="round"/>
<path d="M198.397 96.7222H200.841M199.619 112.611V112.623M192.286 97.9444C192.286 97.2961 192.543 96.6744 193.002 96.216C193.46 95.7575 194.082 95.5 194.73 95.5H204.508C205.156 95.5 205.778 95.7575 206.236 96.216C206.695 96.6744 206.952 97.2961 206.952 97.9444V115.056C206.952 115.704 206.695 116.326 206.236 116.784C205.778 117.242 205.156 117.5 204.508 117.5H194.73C194.082 117.5 193.46 117.242 193.002 116.784C192.543 116.326 192.286 115.704 192.286 115.056V97.9444Z" stroke="#7F7F82" stroke-width="2" stroke-linecap="round" stroke-linejoin="round"/>
<rect x="0.00927734" y="142" width="25" height="25" rx="3" fill="#E9EAEC"/>
<path d="M9.79346 161H7.49072L10.8921 151.842L10.5229 150.901C10.4468 150.702 10.356 150.503 10.2505 150.304C10.145 150.104 10.0249 149.929 9.89014 149.776C9.75537 149.618 9.60303 149.492 9.43311 149.398C9.26904 149.299 9.0874 149.249 8.88818 149.249C8.80029 149.249 8.69482 149.255 8.57178 149.267C8.45459 149.278 8.34619 149.287 8.24658 149.293L8.22021 147.72C8.29639 147.702 8.38135 147.685 8.4751 147.667C8.57471 147.644 8.67725 147.623 8.78271 147.605C8.88818 147.588 8.99365 147.576 9.09912 147.57C9.21045 147.559 9.31299 147.553 9.40674 147.553C9.83447 147.553 10.2095 147.635 10.5317 147.799C10.8599 147.957 11.1411 148.156 11.3755 148.396C11.6099 148.637 11.8032 148.897 11.9556 149.179C12.1138 149.46 12.2397 149.718 12.3335 149.952L15.436 157.985C15.4946 158.173 15.5649 158.354 15.647 158.53C15.7349 158.7 15.8315 158.853 15.937 158.987C16.0425 159.116 16.1567 159.222 16.2798 159.304C16.4028 159.38 16.5347 159.418 16.6753 159.418C16.7222 159.418 16.7603 159.418 16.7896 159.418C16.8188 159.418 16.8452 159.418 16.8687 159.418C16.8921 159.412 16.9185 159.406 16.9478 159.4C16.9771 159.395 17.0181 159.389 17.0708 159.383L17.0356 161.044C16.9478 161.079 16.8423 161.105 16.7192 161.123C16.5962 161.146 16.4907 161.158 16.4028 161.158C16.0044 161.158 15.6499 161.1 15.3394 160.982C15.0347 160.859 14.7622 160.689 14.522 160.473C14.2876 160.256 14.0825 159.995 13.9067 159.69C13.731 159.386 13.5757 159.052 13.4409 158.688L11.8589 154.399L11.5864 155.586L9.79346 161Z" fill="#7F7F82"/>
<path d="M167.009 160.571L31.8903 160.571" stroke="#7F7F82" stroke-width="2" stroke-linecap="round" stroke-linejoin="round"/>
<path d="M36.0151 165.143L31.89 160.571L36.0151 156" stroke="#7F7F82" stroke-width="2" stroke-linecap="round" stroke-linejoin="round"/>
<path d="M31.0093 149.429L166.128 149.429" stroke="#7F7F82" stroke-width="2" stroke-linecap="round" stroke-linejoin="round"/>
<path d="M162.003 144.857L166.129 149.429L162.003 154" stroke="#7F7F82" stroke-width="2" stroke-linecap="round" stroke-linejoin="round"/>
<path d="M185.278 156.455H184.592V154.551H183.142V156.455H182.459V152.189H183.142V153.974H184.592V152.189H185.278V156.455ZM189.139 152.769H187.83V156.455H187.129V152.769H185.829V152.189H189.139V152.769ZM192.743 152.769H191.433V156.455H190.733V152.769H189.432V152.189H192.743V152.769ZM194.082 154.82V156.455H193.378V152.189H194.805C195.018 152.191 195.214 152.224 195.394 152.286C195.576 152.347 195.732 152.435 195.863 152.55C195.994 152.663 196.095 152.802 196.167 152.966C196.242 153.128 196.279 153.311 196.279 153.517C196.279 153.716 196.242 153.895 196.167 154.056C196.095 154.216 195.994 154.352 195.863 154.466C195.732 154.579 195.576 154.666 195.394 154.727C195.214 154.787 195.018 154.818 194.805 154.82H194.082ZM194.082 154.252H194.805C194.924 154.252 195.031 154.234 195.125 154.199C195.218 154.162 195.298 154.111 195.365 154.047C195.431 153.982 195.482 153.905 195.517 153.815C195.552 153.726 195.57 153.628 195.57 153.522C195.57 153.411 195.552 153.309 195.517 153.215C195.482 153.121 195.431 153.041 195.365 152.975C195.298 152.906 195.218 152.853 195.125 152.816C195.031 152.779 194.924 152.76 194.805 152.758H194.082V154.252Z" fill="#7F7F82"/>
<path d="M181.246 163.448C176.895 163.448 173.368 160.053 173.368 155.864C173.368 151.677 176.895 148.281 181.246 148.281C181.911 145.3 184.281 142.867 187.464 141.898C190.644 140.93 194.157 141.572 196.674 143.59C199.191 145.603 200.332 148.677 199.668 151.658H201.343C204.58 151.658 207.204 154.297 207.204 157.556C207.204 160.816 204.58 163.455 201.342 163.455H181.246" stroke="#7F7F82" stroke-width="2" stroke-linecap="round" stroke-linejoin="round"/>
</g>
<defs>
<clipPath id="clip0_35_826">
<rect width="220" height="168" fill="white" transform="translate(0.00927734)"/>
</clipPath>
</defs>
</svg>
