<svg width="136" height="254" viewBox="0 0 136 254" fill="none" xmlns="http://www.w3.org/2000/svg">
<rect x="3" y="13" width="130" height="71.6836" rx="3" stroke="#E9EAEC" stroke-width="2" stroke-linecap="round" stroke-linejoin="round" stroke-dasharray="8 8"/>
<rect x="3" y="165.315" width="130" height="71.6836" rx="3" stroke="#E9EAEC" stroke-width="2" stroke-linecap="round" stroke-linejoin="round" stroke-dasharray="8 8"/>
<path d="M33.2383 115.202H32.4238V113.354H31.2168V115.202H30.3994V110.937H31.2168V112.686H32.4238V110.937H33.2383V115.202ZM37.1611 111.608H35.8457V115.202H35.0195V111.608H33.7217V110.937H37.1611V111.608ZM40.7646 111.608H39.4492V115.202H38.623V111.608H37.3252V110.937H40.7646V111.608ZM42.1094 113.638V115.202H41.2861V110.937H42.7451C42.9775 110.937 43.1875 110.971 43.375 111.039C43.5625 111.106 43.7217 111.199 43.8525 111.32C43.9854 111.44 44.0869 111.583 44.1572 111.751C44.2295 111.919 44.2656 112.106 44.2656 112.311C44.2656 112.502 44.2295 112.679 44.1572 112.841C44.0869 113.003 43.9854 113.144 43.8525 113.263C43.7217 113.38 43.5625 113.472 43.375 113.538C43.1875 113.605 42.9775 113.638 42.7451 113.638H42.1094ZM42.1094 112.97H42.7451C42.8623 112.97 42.9639 112.952 43.0498 112.917C43.1357 112.882 43.207 112.834 43.2637 112.774C43.3223 112.713 43.3652 112.644 43.3926 112.566C43.4219 112.486 43.4365 112.403 43.4365 112.317C43.4365 112.217 43.4219 112.124 43.3926 112.038C43.3652 111.952 43.3223 111.877 43.2637 111.813C43.207 111.748 43.1357 111.697 43.0498 111.66C42.9639 111.623 42.8623 111.605 42.7451 111.605H42.1094V112.97ZM26.2891 119.517H24.9795V123.202H24.2793V119.517H22.9785V118.937H26.2891V119.517ZM28.3662 123.261C28.1318 123.261 27.918 123.222 27.7246 123.144C27.5312 123.066 27.3652 122.958 27.2266 122.821C27.0898 122.685 26.9834 122.524 26.9072 122.338C26.8311 122.151 26.793 121.948 26.793 121.732V121.611C26.793 121.36 26.833 121.133 26.9131 120.932C26.9951 120.731 27.1035 120.559 27.2383 120.416C27.375 120.274 27.5332 120.164 27.7129 120.088C27.8945 120.012 28.085 119.974 28.2842 119.974C28.5146 119.974 28.7178 120.013 28.8936 120.091C29.0693 120.167 29.2158 120.276 29.333 120.416C29.4521 120.555 29.542 120.72 29.6025 120.911C29.6631 121.103 29.6934 121.313 29.6934 121.541V121.837H27.4961C27.5078 121.96 27.5381 122.074 27.5869 122.18C27.6357 122.285 27.6992 122.377 27.7773 122.455C27.8574 122.531 27.9502 122.592 28.0557 122.637C28.1631 122.68 28.2803 122.701 28.4072 122.701C28.585 122.701 28.748 122.666 28.8965 122.596C29.0469 122.526 29.1689 122.429 29.2627 122.306L29.6436 122.663C29.5928 122.739 29.5273 122.814 29.4473 122.886C29.3672 122.956 29.2734 123.02 29.166 123.076C29.0586 123.131 28.9375 123.175 28.8027 123.208C28.6699 123.243 28.5244 123.261 28.3662 123.261ZM28.2812 120.539C28.1836 120.539 28.0928 120.557 28.0088 120.592C27.9248 120.627 27.8496 120.679 27.7832 120.747C27.7168 120.814 27.6602 120.896 27.6133 120.993C27.5684 121.089 27.5361 121.198 27.5166 121.321H29.002V121.269C28.9961 121.175 28.9775 121.085 28.9463 120.999C28.917 120.911 28.873 120.833 28.8145 120.765C28.7559 120.696 28.6816 120.642 28.5918 120.601C28.5039 120.56 28.4004 120.539 28.2812 120.539ZM31.8789 121.105L32.6348 120.032H33.4141L32.2949 121.594L33.4492 123.202H32.6729L31.8877 122.092L31.1055 123.202H30.3232L31.4775 121.594L30.3584 120.032H31.1348L31.8789 121.105ZM35.5 119.265V120.032H36.6982V120.554H35.5V122.074C35.5 122.194 35.5137 122.292 35.541 122.37C35.5703 122.448 35.6104 122.511 35.6611 122.558C35.7119 122.605 35.7715 122.638 35.8398 122.657C35.9082 122.675 35.9834 122.684 36.0654 122.684C36.126 122.684 36.1885 122.681 36.2529 122.675C36.3193 122.667 36.3828 122.659 36.4434 122.652C36.5059 122.642 36.5625 122.632 36.6133 122.622C36.666 122.611 36.71 122.6 36.7451 122.59L36.8242 123.073C36.7734 123.103 36.7119 123.13 36.6396 123.155C36.5693 123.179 36.4922 123.198 36.4082 123.214C36.3242 123.23 36.2363 123.241 36.1445 123.249C36.0547 123.259 35.9658 123.264 35.8779 123.264C35.7197 123.264 35.5742 123.242 35.4414 123.199C35.3105 123.154 35.1973 123.086 35.1016 122.994C35.0078 122.901 34.9336 122.781 34.8789 122.637C34.8262 122.49 34.7998 122.316 34.7998 122.112V120.554H34.0264V120.032H34.7998V119.265H35.5ZM41.1074 122.11C41.1074 121.979 41.126 121.86 41.1631 121.752C41.2002 121.643 41.252 121.541 41.3184 121.447C41.3867 121.354 41.4688 121.265 41.5645 121.181C41.6602 121.097 41.7666 121.014 41.8838 120.932C41.7607 120.756 41.6641 120.59 41.5938 120.434C41.5254 120.278 41.4912 120.115 41.4912 119.947C41.4912 119.778 41.5166 119.626 41.5674 119.493C41.6201 119.361 41.6943 119.248 41.79 119.156C41.8877 119.065 42.0049 118.995 42.1416 118.948C42.2783 118.9 42.4307 118.875 42.5986 118.875C42.7432 118.875 42.874 118.902 42.9912 118.954C43.1104 119.005 43.2109 119.074 43.293 119.162C43.377 119.248 43.4414 119.349 43.4863 119.464C43.5312 119.579 43.5537 119.7 43.5537 119.827C43.5537 119.929 43.5381 120.024 43.5068 120.111C43.4756 120.197 43.4326 120.278 43.3779 120.355C43.3232 120.431 43.2588 120.503 43.1846 120.571C43.1104 120.638 43.0303 120.702 42.9443 120.765L42.6953 120.973L43.4893 122.004C43.5518 121.887 43.6006 121.759 43.6357 121.62C43.6729 121.482 43.6914 121.333 43.6914 121.175H44.3037C44.3037 121.437 44.2676 121.679 44.1953 121.902C44.125 122.122 44.0166 122.321 43.8701 122.499L44.4121 123.202H43.5947L43.3896 122.933C43.2432 123.04 43.0869 123.122 42.9209 123.179C42.7568 123.236 42.5771 123.264 42.3818 123.264C42.1846 123.264 42.0068 123.236 41.8486 123.179C41.6924 123.12 41.5586 123.04 41.4473 122.939C41.3379 122.835 41.2539 122.713 41.1953 122.572C41.1367 122.432 41.1074 122.278 41.1074 122.11ZM42.3994 122.704C42.5166 122.704 42.6309 122.686 42.7422 122.649C42.8535 122.611 42.959 122.559 43.0586 122.49L42.2148 121.374L42.168 121.412C42.0879 121.481 42.0234 121.548 41.9746 121.614C41.9277 121.679 41.8916 121.74 41.8662 121.799C41.8428 121.858 41.8271 121.911 41.8193 121.96C41.8115 122.009 41.8076 122.051 41.8076 122.086C41.8076 122.172 41.8203 122.253 41.8457 122.329C41.873 122.403 41.9111 122.469 41.96 122.526C42.0107 122.58 42.0723 122.624 42.1445 122.657C42.2188 122.689 42.3037 122.704 42.3994 122.704ZM42.1533 119.945C42.1533 120.04 42.1738 120.138 42.2148 120.237C42.2559 120.337 42.3135 120.443 42.3877 120.554L42.6895 120.32C42.75 120.278 42.7969 120.237 42.8301 120.196C42.8652 120.153 42.8906 120.111 42.9062 120.07C42.9219 120.029 42.9316 119.99 42.9355 119.953C42.9395 119.914 42.9414 119.88 42.9414 119.851C42.9414 119.8 42.9336 119.75 42.918 119.701C42.9023 119.651 42.8799 119.607 42.8506 119.57C42.8213 119.53 42.7852 119.499 42.7422 119.476C42.6992 119.452 42.6514 119.441 42.5986 119.441C42.5244 119.441 42.459 119.454 42.4023 119.482C42.3477 119.509 42.3018 119.546 42.2646 119.593C42.2275 119.638 42.1992 119.691 42.1797 119.751C42.1621 119.812 42.1533 119.876 42.1533 119.945ZM23.3623 126.937H25.8994V127.52H24.9766V130.622H25.8994V131.202H23.3623V130.622H24.2646V127.52H23.3623V126.937ZM27.2939 128.032L27.3115 128.366C27.374 128.243 27.458 128.148 27.5635 128.079C27.6689 128.009 27.7959 127.974 27.9443 127.974C28.0791 127.974 28.1904 128.001 28.2783 128.056C28.3682 128.109 28.4355 128.192 28.4805 128.305C28.543 128.203 28.623 128.123 28.7207 128.065C28.8184 128.004 28.9365 127.974 29.0752 127.974C29.1787 127.974 29.2734 127.991 29.3594 128.027C29.4473 128.06 29.5215 128.113 29.582 128.188C29.6445 128.262 29.6924 128.357 29.7256 128.472C29.7607 128.587 29.7783 128.726 29.7783 128.888V131.202H29.1279V128.882C29.1279 128.755 29.1006 128.668 29.0459 128.621C28.9932 128.572 28.9248 128.548 28.8408 128.548C28.7607 128.548 28.6973 128.568 28.6504 128.607C28.6035 128.644 28.5693 128.694 28.5479 128.756V131.202H27.9121V128.882C27.9121 128.759 27.8867 128.673 27.8359 128.624C27.7871 128.573 27.7197 128.548 27.6338 128.548C27.5518 128.548 27.4873 128.566 27.4404 128.601C27.3936 128.636 27.3574 128.684 27.332 128.744V131.202H26.6816V128.032H27.2939ZM32.5146 131.202C32.4951 131.163 32.4785 131.117 32.4648 131.065C32.4531 131.012 32.4424 130.955 32.4326 130.895C32.3838 130.945 32.3281 130.993 32.2656 131.038C32.2051 131.081 32.1367 131.119 32.0605 131.153C31.9863 131.186 31.9053 131.212 31.8174 131.232C31.7314 131.251 31.6387 131.261 31.5391 131.261C31.3711 131.261 31.2188 131.237 31.082 131.191C30.9473 131.142 30.8311 131.075 30.7334 130.991C30.6377 130.905 30.5635 130.805 30.5107 130.69C30.458 130.574 30.4316 130.449 30.4316 130.315C30.4316 129.975 30.5576 129.715 30.8096 129.535C31.0635 129.356 31.4268 129.266 31.8994 129.266H32.4121V129.058C32.4121 128.89 32.3555 128.757 32.2422 128.659C32.1289 128.56 31.9688 128.51 31.7617 128.51C31.668 128.51 31.5859 128.522 31.5156 128.545C31.4453 128.567 31.3867 128.597 31.3398 128.636C31.293 128.675 31.2578 128.721 31.2344 128.774C31.2109 128.826 31.1992 128.883 31.1992 128.944H30.499C30.499 128.82 30.5273 128.701 30.584 128.586C30.6426 128.469 30.7275 128.365 30.8389 128.276C30.9502 128.184 31.0859 128.111 31.2461 128.056C31.4082 128.001 31.5928 127.974 31.7998 127.974C31.9873 127.974 32.1611 127.997 32.3213 128.044C32.4814 128.089 32.6201 128.157 32.7373 128.249C32.8545 128.339 32.9463 128.452 33.0127 128.589C33.0791 128.724 33.1123 128.882 33.1123 129.064V130.476C33.1123 130.614 33.1221 130.741 33.1416 130.857C33.1631 130.97 33.1934 131.069 33.2324 131.153V131.202H32.5146ZM31.6709 130.695C31.7607 130.695 31.8447 130.685 31.9229 130.663C32.0029 130.64 32.0742 130.611 32.1367 130.575C32.2012 130.538 32.2559 130.496 32.3008 130.449C32.3477 130.403 32.3848 130.355 32.4121 130.306V129.711H31.9668C31.6816 129.711 31.4707 129.757 31.334 129.849C31.1992 129.941 31.1318 130.071 31.1318 130.241C31.1318 130.306 31.1426 130.366 31.1641 130.423C31.1855 130.478 31.2178 130.526 31.2607 130.567C31.3057 130.606 31.3613 130.637 31.4277 130.66C31.4961 130.684 31.5771 130.695 31.6709 130.695ZM34.0059 129.594C34.0059 129.354 34.0352 129.134 34.0938 128.935C34.1543 128.736 34.2402 128.565 34.3516 128.422C34.4629 128.279 34.5967 128.169 34.7529 128.091C34.9111 128.013 35.0879 127.974 35.2832 127.974C35.4727 127.974 35.6367 128.006 35.7754 128.07C35.9141 128.135 36.0332 128.228 36.1328 128.349L36.1621 128.032H36.7979V131.117C36.7979 131.33 36.7627 131.519 36.6924 131.683C36.6221 131.849 36.5234 131.988 36.3965 132.102C36.2715 132.215 36.1211 132.301 35.9453 132.36C35.7695 132.42 35.5762 132.45 35.3652 132.45C35.2793 132.45 35.1816 132.441 35.0723 132.421C34.9648 132.403 34.8564 132.373 34.7471 132.33C34.6377 132.289 34.5332 132.235 34.4336 132.166C34.334 132.1 34.249 132.019 34.1787 131.923L34.5127 131.504C34.6318 131.645 34.7598 131.745 34.8965 131.806C35.0352 131.866 35.1777 131.897 35.3242 131.897C35.4414 131.897 35.5479 131.88 35.6436 131.847C35.7393 131.814 35.8203 131.765 35.8867 131.7C35.9531 131.636 36.0039 131.556 36.0391 131.46C36.0762 131.366 36.0947 131.258 36.0947 131.135V130.921C35.9951 131.03 35.8779 131.114 35.7432 131.173C35.6104 131.232 35.4551 131.261 35.2773 131.261C35.084 131.261 34.9092 131.221 34.7529 131.141C34.5967 131.059 34.4629 130.946 34.3516 130.804C34.2402 130.661 34.1543 130.492 34.0938 130.297C34.0352 130.1 34.0059 129.886 34.0059 129.655V129.594ZM34.709 129.655C34.709 129.798 34.7236 129.932 34.7529 130.057C34.7822 130.182 34.8271 130.291 34.8877 130.385C34.9482 130.479 35.0254 130.553 35.1191 130.608C35.2148 130.66 35.3271 130.687 35.4561 130.687C35.6182 130.687 35.75 130.653 35.8516 130.587C35.9531 130.519 36.0342 130.428 36.0947 130.315V128.914C36.0322 128.803 35.9502 128.714 35.8486 128.648C35.7471 128.581 35.6182 128.548 35.4619 128.548C35.333 128.548 35.2207 128.575 35.125 128.63C35.0312 128.685 34.9531 128.76 34.8906 128.856C34.8301 128.951 34.7842 129.063 34.7529 129.19C34.7236 129.317 34.709 129.451 34.709 129.594V129.655ZM39.1768 131.261C38.9424 131.261 38.7285 131.222 38.5352 131.144C38.3418 131.066 38.1758 130.958 38.0371 130.821C37.9004 130.685 37.7939 130.524 37.7178 130.338C37.6416 130.151 37.6035 129.948 37.6035 129.732V129.611C37.6035 129.36 37.6436 129.133 37.7236 128.932C37.8057 128.731 37.9141 128.559 38.0488 128.416C38.1855 128.274 38.3438 128.164 38.5234 128.088C38.7051 128.012 38.8955 127.974 39.0947 127.974C39.3252 127.974 39.5283 128.013 39.7041 128.091C39.8799 128.167 40.0264 128.276 40.1436 128.416C40.2627 128.555 40.3525 128.72 40.4131 128.911C40.4736 129.103 40.5039 129.313 40.5039 129.541V129.837H38.3066C38.3184 129.96 38.3486 130.074 38.3975 130.18C38.4463 130.285 38.5098 130.377 38.5879 130.455C38.668 130.531 38.7607 130.592 38.8662 130.637C38.9736 130.68 39.0908 130.701 39.2178 130.701C39.3955 130.701 39.5586 130.666 39.707 130.596C39.8574 130.526 39.9795 130.429 40.0732 130.306L40.4541 130.663C40.4033 130.739 40.3379 130.814 40.2578 130.886C40.1777 130.956 40.084 131.02 39.9766 131.076C39.8691 131.131 39.748 131.175 39.6133 131.208C39.4805 131.243 39.335 131.261 39.1768 131.261ZM39.0918 128.539C38.9941 128.539 38.9033 128.557 38.8193 128.592C38.7354 128.627 38.6602 128.679 38.5938 128.747C38.5273 128.814 38.4707 128.896 38.4238 128.993C38.3789 129.089 38.3467 129.198 38.3271 129.321H39.8125V129.269C39.8066 129.175 39.7881 129.085 39.7568 128.999C39.7275 128.911 39.6836 128.833 39.625 128.765C39.5664 128.696 39.4922 128.642 39.4023 128.601C39.3145 128.56 39.2109 128.539 39.0918 128.539ZM43.3691 130.344C43.3691 130.291 43.3584 130.243 43.3369 130.2C43.3154 130.155 43.2764 130.115 43.2197 130.08C43.165 130.043 43.0889 130.009 42.9912 129.978C42.8955 129.946 42.7725 129.916 42.6221 129.887C42.4346 129.848 42.2646 129.801 42.1123 129.746C41.9619 129.692 41.832 129.626 41.7227 129.55C41.6152 129.474 41.5322 129.386 41.4736 129.286C41.415 129.185 41.3857 129.068 41.3857 128.935C41.3857 128.806 41.416 128.684 41.4766 128.569C41.5371 128.451 41.623 128.349 41.7344 128.261C41.8477 128.173 41.9844 128.104 42.1445 128.053C42.3066 128 42.4873 127.974 42.6865 127.974C42.8975 127.974 43.0859 128 43.252 128.053C43.4199 128.106 43.5615 128.178 43.6768 128.27C43.792 128.36 43.8799 128.466 43.9404 128.589C44.0029 128.712 44.0342 128.844 44.0342 128.985H43.334C43.334 128.922 43.3203 128.862 43.293 128.806C43.2656 128.747 43.2246 128.695 43.1699 128.651C43.1152 128.606 43.0469 128.57 42.9648 128.545C42.8848 128.518 42.792 128.504 42.6865 128.504C42.5811 128.504 42.4893 128.516 42.4111 128.539C42.335 128.561 42.2715 128.59 42.2207 128.627C42.1699 128.662 42.1318 128.704 42.1064 128.753C42.083 128.802 42.0713 128.853 42.0713 128.905C42.0713 128.958 42.0801 129.006 42.0977 129.049C42.1172 129.092 42.1523 129.131 42.2031 129.166C42.2539 129.201 42.3242 129.234 42.4141 129.263C42.5039 129.29 42.6201 129.317 42.7627 129.342C42.9619 129.377 43.1406 129.421 43.2988 129.474C43.459 129.527 43.5947 129.591 43.7061 129.667C43.8193 129.743 43.9062 129.834 43.9668 129.94C44.0273 130.043 44.0576 130.165 44.0576 130.306C44.0576 130.446 44.0254 130.575 43.9609 130.693C43.8965 130.81 43.8047 130.911 43.6855 130.997C43.5664 131.081 43.4229 131.147 43.2549 131.194C43.0889 131.24 42.9023 131.264 42.6953 131.264C42.4648 131.264 42.2617 131.234 42.0859 131.173C41.9102 131.111 41.7627 131.029 41.6436 130.93C41.5244 130.83 41.4336 130.717 41.3711 130.59C41.3105 130.463 41.2803 130.334 41.2803 130.203H41.96C41.9658 130.301 41.9912 130.384 42.0361 130.452C42.0811 130.521 42.1387 130.576 42.209 130.619C42.2793 130.66 42.3574 130.691 42.4434 130.71C42.5293 130.728 42.6162 130.736 42.7041 130.736C42.9209 130.736 43.0859 130.7 43.1992 130.628C43.3125 130.554 43.3691 130.459 43.3691 130.344Z" fill="#303136"/>
<path d="M53.0244 96.7023L53.0244 145.702" stroke="#303136" stroke-width="2" stroke-linecap="round" stroke-linejoin="round"/>
<path d="M57.596 141.131L53.0246 145.702L48.4531 141.131" stroke="#303136" stroke-width="2" stroke-linecap="round" stroke-linejoin="round"/>
<path d="M48.4531 101.274L53.0245 96.7023L57.5959 101.274" stroke="#303136" stroke-width="2" stroke-linecap="round" stroke-linejoin="round"/>
<path d="M79.1182 96.7023V145.702" stroke="#303136" stroke-width="2" stroke-linecap="round" stroke-linejoin="round"/>
<path d="M83.6895 141.131L79.1181 145.702L74.5466 141.131" stroke="#303136" stroke-width="2" stroke-linecap="round" stroke-linejoin="round"/>
<path d="M74.5466 101.274L79.118 96.7023L83.6895 101.274" stroke="#303136" stroke-width="2" stroke-linecap="round" stroke-linejoin="round"/>
<path d="M90.0164 113.506L90.3269 110.937H91.0828L90.491 115.202H89.7468L89.3425 112.683L88.9529 115.202H88.2087L87.6228 110.937H88.3757L88.6804 113.488L89.0437 110.937H89.6326L90.0164 113.506ZM93.1013 115.261C92.8572 115.261 92.6355 115.221 92.4363 115.141C92.2371 115.061 92.0662 114.952 91.9236 114.816C91.781 114.677 91.6707 114.515 91.5925 114.329C91.5164 114.142 91.4783 113.942 91.4783 113.729V113.611C91.4783 113.369 91.5164 113.149 91.5925 112.949C91.6687 112.748 91.7751 112.575 91.9119 112.431C92.0486 112.286 92.2107 112.174 92.3982 112.094C92.5857 112.014 92.7898 111.974 93.0105 111.974C93.239 111.974 93.4421 112.012 93.6199 112.088C93.7996 112.162 93.9509 112.268 94.074 112.404C94.199 112.541 94.2937 112.706 94.3582 112.9C94.4226 113.091 94.4548 113.303 94.4548 113.535V113.881H92.3044C92.3201 113.988 92.3513 114.087 92.3982 114.177C92.447 114.265 92.5085 114.341 92.5828 114.405C92.657 114.47 92.7419 114.52 92.8376 114.555C92.9333 114.59 93.0378 114.608 93.1511 114.608C93.2312 114.608 93.3103 114.6 93.3884 114.584C93.4685 114.569 93.5447 114.546 93.6169 114.517C93.6892 114.486 93.7566 114.447 93.8191 114.403C93.8816 114.358 93.9363 114.305 93.9832 114.244L94.3904 114.684C94.3396 114.756 94.2732 114.827 94.1912 114.898C94.1111 114.966 94.0154 115.028 93.9041 115.082C93.7947 115.135 93.6726 115.178 93.5378 115.211C93.4031 115.244 93.2576 115.261 93.1013 115.261ZM93.0046 112.633C92.9128 112.633 92.8289 112.65 92.7527 112.683C92.6765 112.714 92.6091 112.76 92.5505 112.82C92.4939 112.881 92.446 112.953 92.407 113.037C92.3679 113.121 92.3386 113.215 92.3191 113.319H93.655V113.254C93.6511 113.168 93.6345 113.087 93.6052 113.011C93.5759 112.935 93.5339 112.869 93.4792 112.815C93.4246 112.758 93.3572 112.714 93.2771 112.683C93.199 112.65 93.1082 112.633 93.0046 112.633ZM98.0232 113.65C98.0232 113.886 97.9968 114.103 97.9441 114.3C97.8933 114.497 97.8162 114.667 97.7126 114.81C97.6091 114.952 97.4802 115.064 97.3259 115.144C97.1716 115.222 96.9919 115.261 96.7869 115.261C96.6013 115.261 96.4402 115.227 96.3035 115.158C96.1687 115.088 96.0525 114.99 95.9548 114.865L95.9167 115.202H95.1843V110.702H95.9988V112.32C96.0925 112.21 96.2029 112.125 96.3298 112.065C96.4587 112.004 96.6091 111.974 96.781 111.974C96.988 111.974 97.1687 112.014 97.323 112.094C97.4792 112.174 97.6091 112.285 97.7126 112.428C97.8162 112.57 97.8933 112.741 97.9441 112.941C97.9968 113.138 98.0232 113.354 98.0232 113.588V113.65ZM97.2087 113.588C97.2087 113.459 97.199 113.337 97.1794 113.222C97.1599 113.107 97.1257 113.006 97.0769 112.92C97.03 112.832 96.9656 112.763 96.8835 112.712C96.8015 112.661 96.699 112.636 96.5759 112.636C96.4275 112.636 96.3064 112.667 96.2126 112.73C96.1208 112.792 96.0496 112.878 95.9988 112.987V114.25C96.0496 114.36 96.1208 114.445 96.2126 114.508C96.3064 114.57 96.4294 114.602 96.5818 114.602C96.7048 114.602 96.8064 114.578 96.8865 114.531C96.9666 114.483 97.03 114.416 97.0769 114.332C97.1257 114.246 97.1599 114.146 97.1794 114.03C97.199 113.913 97.2087 113.786 97.2087 113.65V113.588ZM100.188 113.609H99.5642V115.202H98.741V110.937H100.171C100.407 110.937 100.621 110.965 100.812 111.022C101.004 111.076 101.167 111.157 101.302 111.265C101.438 111.372 101.543 111.506 101.615 111.666C101.689 111.826 101.726 112.012 101.726 112.223C101.726 112.375 101.708 112.513 101.671 112.636C101.635 112.757 101.584 112.866 101.515 112.964C101.449 113.06 101.368 113.144 101.272 113.216C101.178 113.288 101.073 113.351 100.956 113.403L101.873 115.164V115.202H100.991L100.188 113.609ZM99.5642 112.941H100.174C100.406 112.941 100.585 112.882 100.71 112.765C100.837 112.646 100.9 112.484 100.9 112.278C100.9 112.066 100.839 111.901 100.716 111.783C100.593 111.664 100.411 111.605 100.171 111.605H99.5642V112.941ZM105.479 111.608H104.164V115.202H103.338V111.608H102.04V110.937H105.479V111.608ZM108.91 113.866C108.896 114.081 108.849 114.275 108.769 114.446C108.691 114.618 108.586 114.765 108.453 114.886C108.32 115.007 108.162 115.101 107.978 115.167C107.795 115.232 107.592 115.264 107.369 115.264C107.117 115.264 106.893 115.218 106.698 115.126C106.503 115.032 106.339 114.903 106.206 114.736C106.073 114.569 105.971 114.367 105.901 114.133C105.831 113.899 105.796 113.641 105.796 113.36V112.785C105.796 112.502 105.833 112.243 105.907 112.009C105.981 111.775 106.087 111.573 106.223 111.405C106.36 111.237 106.525 111.108 106.719 111.016C106.914 110.922 107.133 110.875 107.375 110.875C107.609 110.875 107.817 110.908 107.999 110.975C108.182 111.041 108.339 111.136 108.468 111.259C108.596 111.382 108.698 111.532 108.772 111.71C108.846 111.888 108.893 112.088 108.913 112.311H108.093C108.085 112.184 108.065 112.072 108.034 111.977C108.005 111.881 107.961 111.802 107.902 111.739C107.845 111.675 107.773 111.627 107.685 111.596C107.599 111.563 107.496 111.546 107.375 111.546C107.248 111.546 107.137 111.573 107.044 111.628C106.95 111.683 106.872 111.763 106.809 111.868C106.749 111.974 106.704 112.104 106.675 112.258C106.645 112.41 106.631 112.584 106.631 112.779V113.36C106.631 113.779 106.689 114.09 106.806 114.291C106.926 114.492 107.113 114.593 107.369 114.593C107.584 114.593 107.754 114.536 107.879 114.423C108.004 114.308 108.073 114.122 108.087 113.866H108.91ZM89.3396 122.133L90.2273 118.937H90.9949L89.6765 123.202H89.0056L87.6902 118.937H88.4578L89.3396 122.133ZM91.4753 121.588C91.4753 121.36 91.5085 121.147 91.575 120.949C91.6433 120.752 91.74 120.581 91.865 120.437C91.9919 120.292 92.1462 120.179 92.3279 120.097C92.5095 120.015 92.7156 119.974 92.946 119.974C93.1785 119.974 93.3855 120.015 93.5671 120.097C93.7507 120.179 93.905 120.292 94.03 120.437C94.157 120.581 94.2537 120.752 94.3201 120.949C94.3865 121.147 94.4197 121.36 94.4197 121.588V121.65C94.4197 121.88 94.3865 122.094 94.3201 122.291C94.2537 122.488 94.157 122.659 94.03 122.804C93.905 122.946 93.7517 123.059 93.5701 123.141C93.3884 123.223 93.1824 123.264 92.9519 123.264C92.7195 123.264 92.5115 123.223 92.3279 123.141C92.1462 123.059 91.9919 122.946 91.865 122.804C91.74 122.659 91.6433 122.488 91.575 122.291C91.5085 122.094 91.4753 121.88 91.4753 121.65V121.588ZM92.1755 121.65C92.1755 121.794 92.1902 121.93 92.2195 122.057C92.2507 122.184 92.2976 122.296 92.3601 122.394C92.4246 122.489 92.5056 122.566 92.6033 122.622C92.7009 122.677 92.8171 122.704 92.9519 122.704C93.0828 122.704 93.196 122.677 93.2917 122.622C93.3894 122.566 93.4695 122.489 93.532 122.394C93.5964 122.296 93.6433 122.184 93.6726 122.057C93.7039 121.93 93.7195 121.794 93.7195 121.65V121.588C93.7195 121.447 93.7039 121.314 93.6726 121.187C93.6433 121.06 93.5964 120.948 93.532 120.853C93.4695 120.757 93.3894 120.681 93.2917 120.624C93.196 120.568 93.0808 120.539 92.946 120.539C92.8132 120.539 92.698 120.568 92.6003 120.624C92.5027 120.681 92.4226 120.757 92.3601 120.853C92.2976 120.948 92.2507 121.06 92.2195 121.187C92.1902 121.314 92.1755 121.447 92.1755 121.588V121.65ZM95.3601 120.032H97.0505V122.622H97.991V123.202H95.3601V122.622H96.3445V120.615H95.3601V120.032ZM96.2859 119.212C96.2859 119.103 96.321 119.013 96.3914 118.943C96.4617 118.87 96.5603 118.834 96.6873 118.834C96.8162 118.834 96.9158 118.87 96.9861 118.943C97.0583 119.013 97.0945 119.103 97.0945 119.212C97.0945 119.321 97.0583 119.412 96.9861 119.485C96.9158 119.555 96.8162 119.59 96.6873 119.59C96.5603 119.59 96.4617 119.555 96.3914 119.485C96.321 119.412 96.2859 119.321 96.2859 119.212ZM100.197 122.704C100.283 122.704 100.366 122.691 100.446 122.663C100.528 122.636 100.6 122.598 100.663 122.549C100.725 122.5 100.774 122.443 100.809 122.376C100.846 122.31 100.864 122.237 100.862 122.159H101.524C101.526 122.312 101.491 122.455 101.419 122.59C101.348 122.723 101.252 122.839 101.129 122.939C101.008 123.038 100.867 123.117 100.707 123.176C100.547 123.235 100.379 123.264 100.203 123.264C99.9587 123.264 99.7449 123.222 99.5613 123.138C99.3777 123.054 99.2244 122.94 99.1013 122.795C98.9783 122.649 98.8855 122.48 98.823 122.288C98.7625 122.095 98.7322 121.89 98.7322 121.673V121.568C98.7322 121.351 98.7625 121.146 98.823 120.952C98.8855 120.759 98.9783 120.59 99.1013 120.445C99.2244 120.301 99.3777 120.187 99.5613 120.103C99.7449 120.017 99.9578 119.974 100.2 119.974C100.391 119.974 100.568 120.003 100.73 120.062C100.894 120.12 101.035 120.202 101.152 120.308C101.271 120.413 101.363 120.539 101.427 120.686C101.494 120.832 101.526 120.992 101.524 121.166H100.862C100.864 121.08 100.848 120.999 100.815 120.923C100.784 120.847 100.738 120.78 100.677 120.724C100.617 120.667 100.546 120.622 100.464 120.589C100.382 120.556 100.292 120.539 100.194 120.539C100.048 120.539 99.9255 120.57 99.8279 120.63C99.7302 120.689 99.6521 120.767 99.5935 120.864C99.5349 120.96 99.4929 121.07 99.4675 121.193C99.4441 121.316 99.4324 121.441 99.4324 121.568V121.673C99.4324 121.802 99.4441 121.928 99.4675 122.051C99.4929 122.174 99.5349 122.284 99.5935 122.382C99.6521 122.478 99.7302 122.556 99.8279 122.616C99.9255 122.675 100.049 122.704 100.197 122.704ZM103.891 123.261C103.657 123.261 103.443 123.222 103.25 123.144C103.056 123.066 102.89 122.958 102.752 122.821C102.615 122.685 102.509 122.524 102.432 122.338C102.356 122.151 102.318 121.948 102.318 121.732V121.611C102.318 121.36 102.358 121.133 102.438 120.932C102.52 120.731 102.629 120.559 102.763 120.416C102.9 120.274 103.058 120.164 103.238 120.088C103.42 120.012 103.61 119.974 103.809 119.974C104.04 119.974 104.243 120.013 104.419 120.091C104.594 120.167 104.741 120.276 104.858 120.416C104.977 120.555 105.067 120.72 105.128 120.911C105.188 121.103 105.219 121.313 105.219 121.541V121.837H103.021C103.033 121.96 103.063 122.074 103.112 122.18C103.161 122.285 103.224 122.377 103.302 122.455C103.383 122.531 103.475 122.592 103.581 122.637C103.688 122.68 103.805 122.701 103.932 122.701C104.11 122.701 104.273 122.666 104.422 122.596C104.572 122.526 104.694 122.429 104.788 122.306L105.169 122.663C105.118 122.739 105.052 122.814 104.972 122.886C104.892 122.956 104.799 123.02 104.691 123.076C104.584 123.131 104.463 123.175 104.328 123.208C104.195 123.243 104.05 123.261 103.891 123.261ZM103.806 120.539C103.709 120.539 103.618 120.557 103.534 120.592C103.45 120.627 103.375 120.679 103.308 120.747C103.242 120.814 103.185 120.896 103.138 120.993C103.094 121.089 103.061 121.198 103.042 121.321H104.527V121.269C104.521 121.175 104.503 121.085 104.471 120.999C104.442 120.911 104.398 120.833 104.34 120.765C104.281 120.696 104.207 120.642 104.117 120.601C104.029 120.56 103.926 120.539 103.806 120.539ZM109.426 122.11C109.426 121.979 109.444 121.86 109.481 121.752C109.518 121.643 109.57 121.541 109.636 121.447C109.705 121.354 109.787 121.265 109.883 121.181C109.978 121.097 110.085 121.014 110.202 120.932C110.079 120.756 109.982 120.59 109.912 120.434C109.844 120.278 109.809 120.115 109.809 119.947C109.809 119.778 109.835 119.626 109.885 119.493C109.938 119.361 110.012 119.248 110.108 119.156C110.206 119.065 110.323 118.995 110.46 118.948C110.596 118.9 110.749 118.875 110.917 118.875C111.061 118.875 111.192 118.902 111.309 118.954C111.428 119.005 111.529 119.074 111.611 119.162C111.695 119.248 111.76 119.349 111.804 119.464C111.849 119.579 111.872 119.7 111.872 119.827C111.872 119.929 111.856 120.024 111.825 120.111C111.794 120.197 111.751 120.278 111.696 120.355C111.641 120.431 111.577 120.503 111.503 120.571C111.428 120.638 111.348 120.702 111.262 120.765L111.013 120.973L111.807 122.004C111.87 121.887 111.919 121.759 111.954 121.62C111.991 121.482 112.01 121.333 112.01 121.175H112.622C112.622 121.437 112.586 121.679 112.513 121.902C112.443 122.122 112.335 122.321 112.188 122.499L112.73 123.202H111.913L111.708 122.933C111.561 123.04 111.405 123.122 111.239 123.179C111.075 123.236 110.895 123.264 110.7 123.264C110.503 123.264 110.325 123.236 110.167 123.179C110.01 123.12 109.877 123.04 109.765 122.939C109.656 122.835 109.572 122.713 109.513 122.572C109.455 122.432 109.426 122.278 109.426 122.11ZM110.718 122.704C110.835 122.704 110.949 122.686 111.06 122.649C111.172 122.611 111.277 122.559 111.377 122.49L110.533 121.374L110.486 121.412C110.406 121.481 110.342 121.548 110.293 121.614C110.246 121.679 110.21 121.74 110.184 121.799C110.161 121.858 110.145 121.911 110.137 121.96C110.13 122.009 110.126 122.051 110.126 122.086C110.126 122.172 110.138 122.253 110.164 122.329C110.191 122.403 110.229 122.469 110.278 122.526C110.329 122.58 110.39 122.624 110.463 122.657C110.537 122.689 110.622 122.704 110.718 122.704ZM110.471 119.945C110.471 120.04 110.492 120.138 110.533 120.237C110.574 120.337 110.632 120.443 110.706 120.554L111.008 120.32C111.068 120.278 111.115 120.237 111.148 120.196C111.183 120.153 111.209 120.111 111.224 120.07C111.24 120.029 111.25 119.99 111.254 119.953C111.258 119.914 111.26 119.88 111.26 119.851C111.26 119.8 111.252 119.75 111.236 119.701C111.22 119.651 111.198 119.607 111.169 119.57C111.139 119.53 111.103 119.499 111.06 119.476C111.017 119.452 110.969 119.441 110.917 119.441C110.843 119.441 110.777 119.454 110.72 119.482C110.666 119.509 110.62 119.546 110.583 119.593C110.546 119.638 110.517 119.691 110.498 119.751C110.48 119.812 110.471 119.876 110.471 119.945ZM89.3396 130.133L90.2273 126.937H90.9949L89.6765 131.202H89.0056L87.6902 126.937H88.4578L89.3396 130.133ZM91.7566 128.032H93.447V130.622H94.3875V131.202H91.7566V130.622H92.741V128.615H91.7566V128.032ZM92.6824 127.212C92.6824 127.103 92.7175 127.013 92.7878 126.943C92.8582 126.87 92.9568 126.834 93.0837 126.834C93.2126 126.834 93.3123 126.87 93.3826 126.943C93.4548 127.013 93.491 127.103 93.491 127.212C93.491 127.321 93.4548 127.412 93.3826 127.485C93.3123 127.555 93.2126 127.59 93.0837 127.59C92.9568 127.59 92.8582 127.555 92.7878 127.485C92.7175 127.412 92.6824 127.321 92.6824 127.212ZM95.114 129.594C95.114 129.354 95.1433 129.134 95.2019 128.935C95.2605 128.736 95.3445 128.565 95.4539 128.422C95.5632 128.279 95.6951 128.169 95.8494 128.091C96.0056 128.013 96.1804 127.974 96.3738 127.974C96.5476 127.974 96.7009 128.004 96.8337 128.065C96.9666 128.123 97.0828 128.208 97.1824 128.32V126.702H97.8855V131.202H97.2498L97.2146 130.88C97.115 131.003 96.9949 131.098 96.8542 131.164C96.7156 131.229 96.5535 131.261 96.3679 131.261C96.1765 131.261 96.0037 131.221 95.8494 131.141C95.6951 131.059 95.5632 130.946 95.4539 130.804C95.3464 130.661 95.2625 130.492 95.2019 130.297C95.1433 130.1 95.114 129.886 95.114 129.655V129.594ZM95.8142 129.655C95.8142 129.798 95.8279 129.932 95.8552 130.057C95.8826 130.182 95.9255 130.291 95.9841 130.385C96.0447 130.479 96.1208 130.553 96.2126 130.608C96.3064 130.66 96.4177 130.687 96.5466 130.687C96.7068 130.687 96.8376 130.653 96.9392 130.584C97.0408 130.514 97.1218 130.42 97.1824 130.303V128.926C97.1218 128.811 97.0398 128.719 96.9363 128.651C96.8347 128.582 96.7068 128.548 96.5525 128.548C96.4216 128.548 96.3093 128.575 96.2156 128.63C96.1238 128.685 96.0476 128.76 95.9871 128.856C95.9285 128.951 95.8845 129.063 95.8552 129.19C95.8279 129.317 95.8142 129.451 95.8142 129.594V129.655ZM100.288 131.261C100.053 131.261 99.8396 131.222 99.6462 131.144C99.4529 131.066 99.2869 130.958 99.1482 130.821C99.0115 130.685 98.905 130.524 98.8289 130.338C98.7527 130.151 98.7146 129.948 98.7146 129.732V129.611C98.7146 129.36 98.7546 129.133 98.8347 128.932C98.9167 128.731 99.0251 128.559 99.1599 128.416C99.2966 128.274 99.4548 128.164 99.6345 128.088C99.8162 128.012 100.007 127.974 100.206 127.974C100.436 127.974 100.639 128.013 100.815 128.091C100.991 128.167 101.137 128.276 101.255 128.416C101.374 128.555 101.464 128.72 101.524 128.911C101.585 129.103 101.615 129.313 101.615 129.541V129.837H99.4177C99.4294 129.96 99.4597 130.074 99.5085 130.18C99.5574 130.285 99.6208 130.377 99.699 130.455C99.7791 130.531 99.8718 130.592 99.9773 130.637C100.085 130.68 100.202 130.701 100.329 130.701C100.507 130.701 100.67 130.666 100.818 130.596C100.969 130.526 101.091 130.429 101.184 130.306L101.565 130.663C101.514 130.739 101.449 130.814 101.369 130.886C101.289 130.956 101.195 131.02 101.088 131.076C100.98 131.131 100.859 131.175 100.724 131.208C100.592 131.243 100.446 131.261 100.288 131.261ZM100.203 128.539C100.105 128.539 100.014 128.557 99.9304 128.592C99.8464 128.627 99.7712 128.679 99.7048 128.747C99.6384 128.814 99.5818 128.896 99.5349 128.993C99.49 129.089 99.4578 129.198 99.4382 129.321H100.924V129.269C100.918 129.175 100.899 129.085 100.868 128.999C100.839 128.911 100.795 128.833 100.736 128.765C100.677 128.696 100.603 128.642 100.513 128.601C100.426 128.56 100.322 128.539 100.203 128.539ZM102.286 129.588C102.286 129.36 102.319 129.147 102.385 128.949C102.454 128.752 102.551 128.581 102.676 128.437C102.802 128.292 102.957 128.179 103.138 128.097C103.32 128.015 103.526 127.974 103.757 127.974C103.989 127.974 104.196 128.015 104.378 128.097C104.561 128.179 104.716 128.292 104.841 128.437C104.968 128.581 105.064 128.752 105.131 128.949C105.197 129.147 105.23 129.36 105.23 129.588V129.65C105.23 129.88 105.197 130.094 105.131 130.291C105.064 130.488 104.968 130.659 104.841 130.804C104.716 130.946 104.562 131.059 104.381 131.141C104.199 131.223 103.993 131.264 103.762 131.264C103.53 131.264 103.322 131.223 103.138 131.141C102.957 131.059 102.802 130.946 102.676 130.804C102.551 130.659 102.454 130.488 102.385 130.291C102.319 130.094 102.286 129.88 102.286 129.65V129.588ZM102.986 129.65C102.986 129.794 103.001 129.93 103.03 130.057C103.061 130.184 103.108 130.296 103.171 130.394C103.235 130.489 103.316 130.566 103.414 130.622C103.511 130.677 103.628 130.704 103.762 130.704C103.893 130.704 104.007 130.677 104.102 130.622C104.2 130.566 104.28 130.489 104.343 130.394C104.407 130.296 104.454 130.184 104.483 130.057C104.514 129.93 104.53 129.794 104.53 129.65V129.588C104.53 129.447 104.514 129.314 104.483 129.187C104.454 129.06 104.407 128.948 104.343 128.853C104.28 128.757 104.2 128.681 104.102 128.624C104.007 128.568 103.891 128.539 103.757 128.539C103.624 128.539 103.509 128.568 103.411 128.624C103.313 128.681 103.233 128.757 103.171 128.853C103.108 128.948 103.061 129.06 103.03 129.187C103.001 129.314 102.986 129.447 102.986 129.588V129.65Z" fill="#303136"/>
<path d="M31.2483 8.51538H29.968L29.7161 9.40601H28.8489L30.2463 5.14038H30.9934L32.3645 9.40601H31.4973L31.2483 8.51538ZM30.1702 7.81519H31.0549L30.6184 6.24487L30.1702 7.81519ZM35.6311 7.85034C35.6311 8.08081 35.6038 8.29468 35.5491 8.49194C35.4963 8.68921 35.4172 8.86011 35.3118 9.00464C35.2083 9.14722 35.0793 9.25952 34.925 9.34155C34.7708 9.42358 34.594 9.4646 34.3948 9.4646C34.2249 9.4646 34.0754 9.4353 33.9465 9.37671C33.8176 9.31812 33.7053 9.23608 33.6096 9.13062V10.6248H32.7952V6.23608H33.5481L33.5774 6.54663C33.675 6.42944 33.7903 6.33862 33.9231 6.27417C34.0559 6.20972 34.2112 6.17749 34.3889 6.17749C34.5901 6.17749 34.7678 6.21655 34.9221 6.29468C35.0764 6.37085 35.2063 6.48022 35.3118 6.6228C35.4172 6.76343 35.4963 6.93335 35.5491 7.13257C35.6038 7.32983 35.6311 7.54858 35.6311 7.78882V7.85034ZM34.8167 7.78882C34.8167 7.65601 34.804 7.53198 34.7786 7.41675C34.7551 7.29956 34.717 7.19897 34.6643 7.11499C34.6135 7.02905 34.5471 6.96167 34.4651 6.91284C34.385 6.86401 34.2874 6.8396 34.1721 6.8396C34.0295 6.8396 33.9124 6.86792 33.8206 6.92456C33.7307 6.97925 33.6604 7.05737 33.6096 7.15894V8.48315C33.6604 8.58276 33.7307 8.66284 33.8206 8.72339C33.9124 8.78198 34.0315 8.81128 34.178 8.81128C34.2932 8.81128 34.3909 8.78589 34.4709 8.73511C34.553 8.68433 34.6194 8.61499 34.6702 8.5271C34.7209 8.43921 34.7581 8.33765 34.7815 8.22241C34.8049 8.10522 34.8167 7.9812 34.8167 7.85034V7.78882ZM39.2346 7.85034C39.2346 8.08081 39.2073 8.29468 39.1526 8.49194C39.0999 8.68921 39.0208 8.86011 38.9153 9.00464C38.8118 9.14722 38.6829 9.25952 38.5286 9.34155C38.3743 9.42358 38.1975 9.4646 37.9983 9.4646C37.8284 9.4646 37.679 9.4353 37.55 9.37671C37.4211 9.31812 37.3088 9.23608 37.2131 9.13062V10.6248H36.3987V6.23608H37.1516L37.1809 6.54663C37.2786 6.42944 37.3938 6.33862 37.5266 6.27417C37.6594 6.20972 37.8147 6.17749 37.9924 6.17749C38.1936 6.17749 38.3713 6.21655 38.5256 6.29468C38.6799 6.37085 38.8098 6.48022 38.9153 6.6228C39.0208 6.76343 39.0999 6.93335 39.1526 7.13257C39.2073 7.32983 39.2346 7.54858 39.2346 7.78882V7.85034ZM38.4202 7.78882C38.4202 7.65601 38.4075 7.53198 38.3821 7.41675C38.3586 7.29956 38.3206 7.19897 38.2678 7.11499C38.217 7.02905 38.1506 6.96167 38.0686 6.91284C37.9885 6.86401 37.8909 6.8396 37.7756 6.8396C37.6331 6.8396 37.5159 6.86792 37.4241 6.92456C37.3342 6.97925 37.2639 7.05737 37.2131 7.15894V8.48315C37.2639 8.58276 37.3342 8.66284 37.4241 8.72339C37.5159 8.78198 37.635 8.81128 37.7815 8.81128C37.8967 8.81128 37.9944 8.78589 38.0745 8.73511C38.1565 8.68433 38.2229 8.61499 38.2737 8.5271C38.3245 8.43921 38.3616 8.33765 38.385 8.22241C38.4084 8.10522 38.4202 7.9812 38.4202 7.85034V7.78882Z" fill="#303136"/>
<path d="M29.1448 161.721V157.455H30.5774C30.8098 157.455 31.0208 157.479 31.2102 157.526C31.4016 157.573 31.5647 157.644 31.6995 157.74C31.8342 157.835 31.9377 157.956 32.01 158.103C32.0842 158.249 32.1213 158.422 32.1213 158.621C32.1194 158.821 32.0657 158.999 31.9602 159.158C31.8567 159.316 31.7034 159.436 31.5002 159.518C31.6233 159.549 31.7297 159.596 31.8196 159.659C31.9094 159.721 31.9836 159.795 32.0422 159.881C32.1028 159.965 32.1467 160.058 32.1741 160.159C32.2034 160.259 32.218 160.363 32.218 160.47C32.218 160.675 32.1829 160.856 32.1125 161.012C32.0422 161.168 31.9417 161.299 31.8108 161.405C31.6799 161.51 31.5208 161.589 31.3333 161.642C31.1458 161.695 30.9348 161.721 30.7004 161.721H29.1448ZM29.9709 159.84V161.056H30.7034C30.928 161.054 31.0989 160.999 31.2161 160.892C31.3352 160.783 31.3948 160.64 31.3948 160.464C31.3967 160.269 31.344 160.117 31.2366 160.007C31.1292 159.898 30.9631 159.842 30.7385 159.84H29.9709ZM29.9709 159.245H30.5833C30.8118 159.243 30.9875 159.196 31.1106 159.102C31.2336 159.008 31.2961 158.87 31.2981 158.689C31.2981 158.49 31.2366 158.347 31.1135 158.261C30.9905 158.173 30.8127 158.128 30.5803 158.126H29.9709V159.245ZM34.7639 161.721C34.7444 161.682 34.7278 161.637 34.7141 161.586C34.7004 161.535 34.6887 161.482 34.679 161.425C34.634 161.474 34.5823 161.52 34.5237 161.563C34.4651 161.606 34.3997 161.644 34.3274 161.677C34.2571 161.708 34.179 161.733 34.093 161.75C34.0071 161.77 33.9143 161.78 33.8147 161.78C33.6526 161.78 33.5032 161.756 33.3665 161.709C33.2317 161.662 33.1155 161.597 33.0178 161.513C32.9202 161.429 32.844 161.329 32.7893 161.214C32.7346 161.097 32.7073 160.97 32.7073 160.833C32.7073 160.499 32.8313 160.242 33.0793 160.06C33.3293 159.876 33.7014 159.784 34.1956 159.784H34.6497V159.597C34.6497 159.445 34.5999 159.325 34.5002 159.237C34.4006 159.147 34.2571 159.102 34.0696 159.102C33.9036 159.102 33.7825 159.138 33.7063 159.21C33.6301 159.281 33.592 159.375 33.592 159.494H32.7776C32.7776 159.36 32.8069 159.232 32.8655 159.111C32.926 158.99 33.0129 158.883 33.1262 158.791C33.2415 158.7 33.3811 158.627 33.5452 158.575C33.7112 158.52 33.9006 158.492 34.1135 158.492C34.3049 158.492 34.4827 158.516 34.6467 158.563C34.8127 158.61 34.9563 158.679 35.0774 158.771C35.1985 158.863 35.2932 158.979 35.3616 159.119C35.4299 159.258 35.4641 159.419 35.4641 159.603V160.962C35.4641 161.132 35.4749 161.273 35.4963 161.384C35.5178 161.495 35.5491 161.591 35.5901 161.671V161.721H34.7639ZM33.9875 161.15C34.0696 161.15 34.1458 161.14 34.2161 161.12C34.2864 161.101 34.3499 161.076 34.4065 161.044C34.4631 161.013 34.512 160.978 34.553 160.939C34.594 160.898 34.6262 160.857 34.6497 160.816V160.271H34.2336C34.1067 160.271 33.9983 160.284 33.9084 160.309C33.8186 160.332 33.7454 160.367 33.6887 160.411C33.6321 160.454 33.5901 160.507 33.5627 160.57C33.5354 160.63 33.5217 160.697 33.5217 160.769C33.5217 160.878 33.5598 160.969 33.636 161.041C33.7141 161.114 33.8313 161.15 33.9875 161.15ZM37.7903 161.129C37.8704 161.129 37.9465 161.117 38.0188 161.094C38.0911 161.071 38.1545 161.037 38.2092 160.994C38.2639 160.951 38.3059 160.9 38.3352 160.839C38.3665 160.779 38.3801 160.711 38.3762 160.637H39.1438C39.1477 160.801 39.1135 160.953 39.0413 161.094C38.9709 161.235 38.8743 161.356 38.7512 161.457C38.6282 161.559 38.4846 161.639 38.3206 161.698C38.1584 161.754 37.9866 161.783 37.8049 161.783C37.5588 161.783 37.343 161.742 37.1575 161.659C36.9719 161.576 36.8167 161.461 36.6917 161.317C36.5686 161.172 36.4749 161.003 36.4104 160.81C36.3479 160.615 36.3167 160.406 36.3167 160.183V160.095C36.3167 159.872 36.3479 159.664 36.4104 159.471C36.4729 159.276 36.5667 159.106 36.6917 158.961C36.8167 158.817 36.9709 158.702 37.1545 158.618C37.3401 158.534 37.5549 158.492 37.7991 158.492C37.9944 158.492 38.175 158.522 38.3411 158.58C38.5071 158.639 38.6497 158.722 38.7688 158.829C38.8899 158.935 38.9836 159.064 39.05 159.216C39.1165 159.367 39.1477 159.535 39.1438 159.723H38.3762C38.3801 159.645 38.3684 159.571 38.3411 159.5C38.3137 159.43 38.2737 159.369 38.2209 159.319C38.1682 159.268 38.1047 159.228 38.0305 159.199C37.9563 159.167 37.8752 159.152 37.7874 159.152C37.6584 159.152 37.552 159.178 37.468 159.231C37.384 159.284 37.3167 159.354 37.2659 159.442C37.217 159.53 37.1819 159.63 37.1604 159.743C37.1409 159.857 37.1311 159.974 37.1311 160.095V160.183C37.1311 160.306 37.1409 160.425 37.1604 160.54C37.1799 160.654 37.2141 160.754 37.2629 160.842C37.3137 160.928 37.3811 160.997 37.4651 161.05C37.551 161.103 37.6594 161.129 37.7903 161.129ZM41.1829 160.411L40.8137 160.754V161.721H39.9993V157.221H40.8137V159.793L41.0598 159.512L41.9358 158.551H42.9143L41.719 159.872L43.0813 161.721H42.0823L41.1829 160.411ZM45.1321 161.78C44.8879 161.78 44.6663 161.74 44.467 161.659C44.2678 161.579 44.0969 161.471 43.9543 161.334C43.8118 161.196 43.7014 161.034 43.6233 160.848C43.5471 160.66 43.509 160.46 43.509 160.247V160.13C43.509 159.888 43.5471 159.667 43.6233 159.468C43.6995 159.267 43.8059 159.094 43.9426 158.95C44.0793 158.805 44.2415 158.693 44.429 158.613C44.6165 158.533 44.8206 158.492 45.0413 158.492C45.2698 158.492 45.4729 158.531 45.6506 158.607C45.8303 158.681 45.9817 158.786 46.1047 158.923C46.2297 159.06 46.3245 159.225 46.3889 159.418C46.4534 159.61 46.4856 159.822 46.4856 160.054V160.4H44.3352C44.3508 160.507 44.3821 160.606 44.429 160.696C44.4778 160.784 44.5393 160.86 44.6135 160.924C44.6877 160.989 44.7727 161.038 44.8684 161.074C44.9641 161.109 45.0686 161.126 45.1819 161.126C45.262 161.126 45.3411 161.118 45.4192 161.103C45.4993 161.087 45.5754 161.065 45.6477 161.035C45.72 161.004 45.7874 160.966 45.8499 160.921C45.9124 160.876 45.967 160.824 46.0139 160.763L46.4211 161.202C46.3704 161.275 46.304 161.346 46.2219 161.416C46.1418 161.485 46.0461 161.546 45.9348 161.601C45.8254 161.654 45.7034 161.697 45.5686 161.73C45.4338 161.763 45.2883 161.78 45.1321 161.78ZM45.0354 159.152C44.9436 159.152 44.8596 159.168 44.7834 159.201C44.7073 159.233 44.6399 159.279 44.5813 159.339C44.5247 159.4 44.4768 159.472 44.4377 159.556C44.3987 159.64 44.3694 159.734 44.3499 159.837H45.6858V159.773C45.6819 159.687 45.6653 159.606 45.636 159.53C45.6067 159.453 45.5647 159.388 45.51 159.333C45.4553 159.277 45.3879 159.233 45.3079 159.201C45.2297 159.168 45.1389 159.152 45.0354 159.152ZM47.9358 158.551L47.9856 158.991C48.0989 158.832 48.2366 158.71 48.3987 158.624C48.5608 158.536 48.7405 158.492 48.9377 158.492C49.0979 158.492 49.2444 158.516 49.3772 158.563C49.51 158.61 49.6243 158.685 49.72 158.788C49.8176 158.89 49.8928 159.022 49.9456 159.184C50.0002 159.344 50.0276 159.539 50.0276 159.77V161.721H49.2131V159.782C49.2131 159.657 49.1985 159.554 49.1692 159.474C49.1418 159.392 49.1018 159.327 49.0491 159.281C48.9963 159.234 48.9329 159.201 48.8586 159.184C48.7844 159.164 48.7004 159.155 48.6067 159.155C48.468 159.155 48.3499 159.183 48.2522 159.24C48.1545 159.294 48.0754 159.37 48.0149 159.468V161.721H47.1975V158.551H47.9358ZM50.7161 160.113C50.7161 159.872 50.7434 159.653 50.7981 159.453C50.8547 159.254 50.9368 159.083 51.0442 158.941C51.1516 158.798 51.2815 158.688 51.4338 158.61C51.5881 158.532 51.7639 158.492 51.9612 158.492C52.1272 158.492 52.2727 158.523 52.3977 158.583C52.5247 158.642 52.637 158.726 52.7346 158.835V157.221H53.552V161.721H52.8167L52.7756 161.39C52.676 161.513 52.5588 161.609 52.4241 161.677C52.2893 161.745 52.1331 161.78 51.9553 161.78C51.762 161.78 51.5881 161.74 51.4338 161.659C51.2815 161.577 51.1516 161.465 51.0442 161.323C50.9387 161.18 50.8577 161.011 50.801 160.816C50.7444 160.618 50.7161 160.405 50.7161 160.174V160.113ZM51.5305 160.174C51.5305 160.307 51.5413 160.431 51.5627 160.546C51.5862 160.659 51.6233 160.759 51.6741 160.845C51.7249 160.929 51.7903 160.995 51.8704 161.044C51.9504 161.093 52.0481 161.117 52.1633 161.117C52.304 161.117 52.4202 161.087 52.512 161.027C52.6057 160.966 52.6799 160.883 52.7346 160.778V159.494C52.6799 159.387 52.6067 159.304 52.5149 159.245C52.4231 159.185 52.3079 159.155 52.1692 159.155C52.054 159.155 51.9553 159.18 51.8733 159.231C51.7932 159.28 51.7278 159.348 51.677 159.436C51.6262 159.522 51.5891 159.623 51.5657 159.741C51.5422 159.856 51.5305 159.98 51.5305 160.113V160.174Z" fill="#303136"/>
<path d="M11.2668 6C11.2668 5.46957 11.4776 4.96086 11.8526 4.58579C12.2277 4.21071 12.7364 4 13.2668 4H21.2668C21.7973 4 22.306 4.21071 22.6811 4.58579C23.0561 4.96086 23.2668 5.46957 23.2668 6V20C23.2668 20.5304 23.0561 21.0391 22.6811 21.4142C22.306 21.7893 21.7973 22 21.2668 22H13.2668C12.7364 22 12.2277 21.7893 11.8526 21.4142C11.4776 21.0391 11.2668 20.5304 11.2668 20V6Z" fill="white"/>
<path d="M16.2668 5H18.2668H16.2668Z" fill="white"/>
<path d="M17.2668 18V18.01V18Z" fill="white"/>
<path d="M16.2668 5H18.2668M17.2668 18V18.01M11.2668 6C11.2668 5.46957 11.4776 4.96086 11.8526 4.58579C12.2277 4.21071 12.7364 4 13.2668 4H21.2668C21.7973 4 22.306 4.21071 22.6811 4.58579C23.0561 4.96086 23.2668 5.46957 23.2668 6V20C23.2668 20.5304 23.0561 21.0391 22.6811 21.4142C22.306 21.7893 21.7973 22 21.2668 22H13.2668C12.7364 22 12.2277 21.7893 11.8526 21.4142C11.4776 21.0391 11.2668 20.5304 11.2668 20V6Z" stroke="#A5A8AB" stroke-width="2" stroke-linecap="round" stroke-linejoin="round"/>
<path d="M37.2852 214.106H35.9697V217.701H35.1436V214.106H33.8457V213.435H37.2852V214.106ZM39.3213 217.76C39.0771 217.76 38.8555 217.72 38.6562 217.64C38.457 217.56 38.2861 217.451 38.1436 217.314C38.001 217.176 37.8906 217.014 37.8125 216.828C37.7363 216.641 37.6982 216.44 37.6982 216.227V216.11C37.6982 215.868 37.7363 215.647 37.8125 215.448C37.8887 215.247 37.9951 215.074 38.1318 214.93C38.2686 214.785 38.4307 214.673 38.6182 214.593C38.8057 214.513 39.0098 214.473 39.2305 214.473C39.459 214.473 39.6621 214.511 39.8398 214.587C40.0195 214.661 40.1709 214.767 40.2939 214.903C40.4189 215.04 40.5137 215.205 40.5781 215.398C40.6426 215.59 40.6748 215.802 40.6748 216.034V216.38H38.5244C38.54 216.487 38.5713 216.586 38.6182 216.676C38.667 216.764 38.7285 216.84 38.8027 216.904C38.877 216.969 38.9619 217.018 39.0576 217.054C39.1533 217.089 39.2578 217.106 39.3711 217.106C39.4512 217.106 39.5303 217.099 39.6084 217.083C39.6885 217.067 39.7646 217.045 39.8369 217.016C39.9092 216.984 39.9766 216.946 40.0391 216.901C40.1016 216.856 40.1562 216.804 40.2031 216.743L40.6104 217.183C40.5596 217.255 40.4932 217.326 40.4111 217.396C40.3311 217.465 40.2354 217.526 40.124 217.581C40.0146 217.634 39.8926 217.677 39.7578 217.71C39.623 217.743 39.4775 217.76 39.3213 217.76ZM39.2246 215.132C39.1328 215.132 39.0488 215.148 38.9727 215.182C38.8965 215.213 38.8291 215.259 38.7705 215.319C38.7139 215.38 38.666 215.452 38.627 215.536C38.5879 215.62 38.5586 215.714 38.5391 215.817H39.875V215.753C39.8711 215.667 39.8545 215.586 39.8252 215.51C39.7959 215.434 39.7539 215.368 39.6992 215.313C39.6445 215.257 39.5771 215.213 39.4971 215.182C39.4189 215.148 39.3281 215.132 39.2246 215.132ZM42.8369 215.521L43.5342 214.531H44.4102L43.3467 216.087L44.4482 217.701H43.5693L42.8398 216.664L42.1162 217.701H41.2344L42.3359 216.087L41.2754 214.531H42.1514L42.8369 215.521ZM46.4844 213.755V214.531H47.668V215.132H46.4844V216.494C46.4844 216.609 46.4971 216.706 46.5225 216.784C46.5498 216.86 46.5879 216.922 46.6367 216.969C46.6855 217.014 46.7441 217.046 46.8125 217.065C46.8828 217.085 46.9609 217.095 47.0469 217.095C47.1094 217.095 47.1729 217.092 47.2373 217.086C47.3037 217.08 47.3662 217.073 47.4248 217.065C47.4854 217.056 47.541 217.046 47.5918 217.036C47.6445 217.026 47.6895 217.017 47.7266 217.007L47.8057 217.566C47.749 217.6 47.6826 217.629 47.6064 217.654C47.5303 217.678 47.4492 217.697 47.3633 217.713C47.2773 217.728 47.1875 217.74 47.0938 217.748C47.002 217.758 46.9111 217.763 46.8213 217.763C46.6475 217.763 46.4893 217.74 46.3467 217.695C46.2061 217.648 46.085 217.577 45.9834 217.481C45.8838 217.384 45.8066 217.261 45.752 217.112C45.6973 216.962 45.6699 216.782 45.6699 216.573V215.132H44.9463V214.531H45.6699V213.755H46.4844ZM50.2607 217.637C50.2607 217.748 50.2451 217.862 50.2139 217.979C50.1846 218.097 50.1436 218.21 50.0908 218.319C50.0381 218.429 49.9746 218.532 49.9004 218.63C49.8281 218.727 49.75 218.814 49.666 218.891L49.2354 218.668C49.2725 218.598 49.3066 218.526 49.3379 218.454C49.3711 218.382 49.3994 218.306 49.4229 218.226C49.4463 218.145 49.4648 218.06 49.4785 217.971C49.4922 217.881 49.499 217.782 49.499 217.675V216.989H50.2637L50.2607 217.637ZM57.1836 216.509L57.9893 213.435H58.8975L57.6055 217.701H56.7676L55.4785 213.435H56.3867L57.1836 216.509ZM59.6211 214.531H61.3467V217.039H62.2051V217.701H59.6211V217.039H60.5234V215.196H59.6211V214.531ZM60.4648 213.72C60.4648 213.657 60.4756 213.6 60.4971 213.547C60.5205 213.492 60.5527 213.446 60.5938 213.409C60.6348 213.37 60.6836 213.34 60.7402 213.318C60.7988 213.297 60.8633 213.286 60.9336 213.286C61.0781 213.286 61.1924 213.327 61.2764 213.409C61.3623 213.489 61.4053 213.593 61.4053 213.72C61.4053 213.847 61.3623 213.951 61.2764 214.033C61.1924 214.113 61.0781 214.153 60.9336 214.153C60.8633 214.153 60.7988 214.143 60.7402 214.121C60.6836 214.1 60.6348 214.07 60.5938 214.033C60.5527 213.994 60.5205 213.948 60.4971 213.895C60.4756 213.841 60.4648 213.782 60.4648 213.72ZM65.0527 216.831C65.0527 216.782 65.041 216.739 65.0176 216.702C64.9961 216.665 64.9561 216.631 64.8975 216.6C64.8408 216.566 64.7646 216.536 64.6689 216.509C64.5732 216.481 64.4521 216.454 64.3057 216.427C64.1201 216.39 63.9502 216.344 63.7959 216.289C63.6436 216.232 63.5127 216.165 63.4033 216.087C63.2939 216.007 63.208 215.915 63.1455 215.811C63.085 215.708 63.0547 215.589 63.0547 215.454C63.0547 215.323 63.0859 215.198 63.1484 215.079C63.2109 214.96 63.3008 214.855 63.418 214.766C63.5352 214.676 63.6777 214.604 63.8457 214.552C64.0137 214.499 64.2031 214.473 64.4141 214.473C64.6348 214.473 64.833 214.499 65.0088 214.552C65.1846 214.602 65.333 214.674 65.4541 214.766C65.5771 214.855 65.6709 214.963 65.7354 215.088C65.7998 215.213 65.832 215.349 65.832 215.495H65.0176C65.0176 215.372 64.9678 215.269 64.8682 215.187C64.7686 215.103 64.6172 215.061 64.4141 215.061C64.2246 215.061 64.0811 215.096 63.9834 215.164C63.8877 215.232 63.8398 215.316 63.8398 215.416C63.8398 215.463 63.8496 215.507 63.8691 215.548C63.8887 215.587 63.9229 215.623 63.9717 215.656C64.0225 215.687 64.0908 215.717 64.1768 215.744C64.2627 215.769 64.3721 215.792 64.5049 215.811C64.6963 215.843 64.874 215.883 65.0381 215.932C65.2021 215.98 65.3438 216.044 65.4629 216.122C65.582 216.198 65.6748 216.292 65.7412 216.403C65.8096 216.513 65.8438 216.643 65.8438 216.796C65.8438 216.936 65.8096 217.066 65.7412 217.185C65.6748 217.303 65.5791 217.404 65.4541 217.49C65.3311 217.576 65.1816 217.643 65.0059 217.692C64.8301 217.739 64.6338 217.763 64.417 217.763C64.1787 217.763 63.9678 217.731 63.7842 217.669C63.6025 217.606 63.4502 217.525 63.3271 217.426C63.2041 217.324 63.1104 217.21 63.0459 217.083C62.9834 216.954 62.9521 216.825 62.9521 216.696H63.7285C63.7344 216.782 63.7578 216.856 63.7988 216.919C63.8398 216.979 63.8926 217.029 63.957 217.068C64.0215 217.105 64.0947 217.133 64.1768 217.15C64.2607 217.168 64.3467 217.177 64.4346 217.177C64.6357 217.177 64.7891 217.144 64.8945 217.08C65 217.016 65.0527 216.933 65.0527 216.831ZM66.8281 214.531H68.5537V217.039H69.4121V217.701H66.8281V217.039H67.7305V215.196H66.8281V214.531ZM67.6719 213.72C67.6719 213.657 67.6826 213.6 67.7041 213.547C67.7275 213.492 67.7598 213.446 67.8008 213.409C67.8418 213.37 67.8906 213.34 67.9473 213.318C68.0059 213.297 68.0703 213.286 68.1406 213.286C68.2852 213.286 68.3994 213.327 68.4834 213.409C68.5693 213.489 68.6123 213.593 68.6123 213.72C68.6123 213.847 68.5693 213.951 68.4834 214.033C68.3994 214.113 68.2852 214.153 68.1406 214.153C68.0703 214.153 68.0059 214.143 67.9473 214.121C67.8906 214.1 67.8418 214.07 67.8008 214.033C67.7598 213.994 67.7275 213.948 67.7041 213.895C67.6826 213.841 67.6719 213.782 67.6719 213.72ZM70.1035 216.087C70.1035 215.856 70.1367 215.643 70.2031 215.448C70.2695 215.251 70.3662 215.08 70.4932 214.935C70.6221 214.791 70.7783 214.678 70.9619 214.596C71.1475 214.514 71.3594 214.473 71.5977 214.473C71.8359 214.473 72.0479 214.514 72.2334 214.596C72.4189 214.678 72.5752 214.791 72.7021 214.935C72.8311 215.08 72.9287 215.251 72.9951 215.448C73.0615 215.643 73.0947 215.856 73.0947 216.087V216.148C73.0947 216.381 73.0615 216.596 72.9951 216.793C72.9287 216.988 72.832 217.158 72.7051 217.303C72.5781 217.447 72.4219 217.56 72.2363 217.643C72.0508 217.723 71.8398 217.763 71.6035 217.763C71.3652 217.763 71.1523 217.723 70.9648 217.643C70.7793 217.56 70.6221 217.447 70.4932 217.303C70.3662 217.158 70.2695 216.988 70.2031 216.793C70.1367 216.596 70.1035 216.381 70.1035 216.148V216.087ZM70.918 216.148C70.918 216.281 70.9307 216.406 70.9561 216.523C70.9814 216.639 71.0215 216.74 71.0762 216.828C71.1309 216.914 71.2012 216.982 71.2871 217.033C71.375 217.084 71.4805 217.109 71.6035 217.109C71.7227 217.109 71.8252 217.084 71.9111 217.033C71.9971 216.982 72.0664 216.914 72.1191 216.828C72.1738 216.74 72.2139 216.639 72.2393 216.523C72.2646 216.406 72.2773 216.281 72.2773 216.148V216.087C72.2773 215.958 72.2646 215.836 72.2393 215.721C72.2139 215.605 72.1738 215.504 72.1191 215.416C72.0664 215.328 71.9971 215.259 71.9111 215.208C71.8252 215.157 71.7207 215.132 71.5977 215.132C71.4766 215.132 71.373 215.157 71.2871 215.208C71.2012 215.259 71.1309 215.328 71.0762 215.416C71.0215 215.504 70.9814 215.605 70.9561 215.721C70.9307 215.836 70.918 215.958 70.918 216.087V216.148ZM74.5566 214.531L74.6064 214.971C74.7197 214.812 74.8574 214.69 75.0195 214.604C75.1816 214.517 75.3613 214.473 75.5586 214.473C75.7188 214.473 75.8652 214.496 75.998 214.543C76.1309 214.59 76.2451 214.665 76.3408 214.768C76.4385 214.87 76.5137 215.002 76.5664 215.164C76.6211 215.324 76.6484 215.519 76.6484 215.75V217.701H75.834V215.762C75.834 215.637 75.8193 215.534 75.79 215.454C75.7627 215.372 75.7227 215.308 75.6699 215.261C75.6172 215.214 75.5537 215.182 75.4795 215.164C75.4053 215.144 75.3213 215.135 75.2275 215.135C75.0889 215.135 74.9707 215.163 74.873 215.22C74.7754 215.274 74.6963 215.351 74.6357 215.448V217.701H73.8184V214.531H74.5566ZM79.0889 217.637C79.0889 217.748 79.0732 217.862 79.042 217.979C79.0127 218.097 78.9717 218.21 78.9189 218.319C78.8662 218.429 78.8027 218.532 78.7285 218.63C78.6562 218.727 78.5781 218.814 78.4941 218.891L78.0635 218.668C78.1006 218.598 78.1348 218.526 78.166 218.454C78.1992 218.382 78.2275 218.306 78.251 218.226C78.2744 218.145 78.293 218.06 78.3066 217.971C78.3203 217.881 78.3271 217.782 78.3271 217.675V216.989H79.0918L79.0889 217.637ZM86.0117 216.509L86.8174 213.435H87.7256L86.4336 217.701H85.5957L84.3066 213.435H85.2148L86.0117 216.509ZM88.1211 216.087C88.1211 215.856 88.1543 215.643 88.2207 215.448C88.2871 215.251 88.3838 215.08 88.5107 214.935C88.6396 214.791 88.7959 214.678 88.9795 214.596C89.165 214.514 89.377 214.473 89.6152 214.473C89.8535 214.473 90.0654 214.514 90.251 214.596C90.4365 214.678 90.5928 214.791 90.7197 214.935C90.8486 215.08 90.9463 215.251 91.0127 215.448C91.0791 215.643 91.1123 215.856 91.1123 216.087V216.148C91.1123 216.381 91.0791 216.596 91.0127 216.793C90.9463 216.988 90.8496 217.158 90.7227 217.303C90.5957 217.447 90.4395 217.56 90.2539 217.643C90.0684 217.723 89.8574 217.763 89.6211 217.763C89.3828 217.763 89.1699 217.723 88.9824 217.643C88.7969 217.56 88.6396 217.447 88.5107 217.303C88.3838 217.158 88.2871 216.988 88.2207 216.793C88.1543 216.596 88.1211 216.381 88.1211 216.148V216.087ZM88.9355 216.148C88.9355 216.281 88.9482 216.406 88.9736 216.523C88.999 216.639 89.0391 216.74 89.0938 216.828C89.1484 216.914 89.2188 216.982 89.3047 217.033C89.3926 217.084 89.498 217.109 89.6211 217.109C89.7402 217.109 89.8428 217.084 89.9287 217.033C90.0146 216.982 90.084 216.914 90.1367 216.828C90.1914 216.74 90.2314 216.639 90.2568 216.523C90.2822 216.406 90.2949 216.281 90.2949 216.148V216.087C90.2949 215.958 90.2822 215.836 90.2568 215.721C90.2314 215.605 90.1914 215.504 90.1367 215.416C90.084 215.328 90.0146 215.259 89.9287 215.208C89.8428 215.157 89.7383 215.132 89.6152 215.132C89.4941 215.132 89.3906 215.157 89.3047 215.208C89.2188 215.259 89.1484 215.328 89.0938 215.416C89.0391 215.504 88.999 215.605 88.9736 215.721C88.9482 215.836 88.9355 215.958 88.9355 216.087V216.148ZM92.0527 214.531H93.7783V217.039H94.6367V217.701H92.0527V217.039H92.9551V215.196H92.0527V214.531ZM92.8965 213.72C92.8965 213.657 92.9072 213.6 92.9287 213.547C92.9521 213.492 92.9844 213.446 93.0254 213.409C93.0664 213.37 93.1152 213.34 93.1719 213.318C93.2305 213.297 93.2949 213.286 93.3652 213.286C93.5098 213.286 93.624 213.327 93.708 213.409C93.7939 213.489 93.8369 213.593 93.8369 213.72C93.8369 213.847 93.7939 213.951 93.708 214.033C93.624 214.113 93.5098 214.153 93.3652 214.153C93.2949 214.153 93.2305 214.143 93.1719 214.121C93.1152 214.1 93.0664 214.07 93.0254 214.033C92.9844 213.994 92.9521 213.948 92.9287 213.895C92.9072 213.841 92.8965 213.782 92.8965 213.72ZM96.8428 217.109C96.9229 217.109 96.999 217.098 97.0713 217.074C97.1436 217.051 97.207 217.018 97.2617 216.975C97.3164 216.932 97.3584 216.88 97.3877 216.819C97.4189 216.759 97.4326 216.691 97.4287 216.617H98.1963C98.2002 216.781 98.166 216.934 98.0938 217.074C98.0234 217.215 97.9268 217.336 97.8037 217.437C97.6807 217.539 97.5371 217.619 97.373 217.678C97.2109 217.734 97.0391 217.763 96.8574 217.763C96.6113 217.763 96.3955 217.722 96.21 217.64C96.0244 217.556 95.8691 217.441 95.7441 217.297C95.6211 217.152 95.5273 216.983 95.4629 216.79C95.4004 216.595 95.3691 216.386 95.3691 216.163V216.075C95.3691 215.852 95.4004 215.644 95.4629 215.451C95.5254 215.256 95.6191 215.086 95.7441 214.941C95.8691 214.797 96.0234 214.683 96.207 214.599C96.3926 214.515 96.6074 214.473 96.8516 214.473C97.0469 214.473 97.2275 214.502 97.3936 214.56C97.5596 214.619 97.7021 214.702 97.8213 214.81C97.9424 214.915 98.0361 215.044 98.1025 215.196C98.1689 215.347 98.2002 215.516 98.1963 215.703H97.4287C97.4326 215.625 97.4209 215.551 97.3936 215.48C97.3662 215.41 97.3262 215.35 97.2734 215.299C97.2207 215.248 97.1572 215.208 97.083 215.179C97.0088 215.147 96.9277 215.132 96.8398 215.132C96.7109 215.132 96.6045 215.158 96.5205 215.211C96.4365 215.264 96.3691 215.334 96.3184 215.422C96.2695 215.51 96.2344 215.61 96.2129 215.724C96.1934 215.837 96.1836 215.954 96.1836 216.075V216.163C96.1836 216.286 96.1934 216.405 96.2129 216.52C96.2324 216.634 96.2666 216.734 96.3154 216.822C96.3662 216.908 96.4336 216.977 96.5176 217.03C96.6035 217.083 96.7119 217.109 96.8428 217.109ZM100.581 217.76C100.337 217.76 100.115 217.72 99.916 217.64C99.7168 217.56 99.5459 217.451 99.4033 217.314C99.2607 217.176 99.1504 217.014 99.0723 216.828C98.9961 216.641 98.958 216.44 98.958 216.227V216.11C98.958 215.868 98.9961 215.647 99.0723 215.448C99.1484 215.247 99.2549 215.074 99.3916 214.93C99.5283 214.785 99.6904 214.673 99.8779 214.593C100.065 214.513 100.27 214.473 100.49 214.473C100.719 214.473 100.922 214.511 101.1 214.587C101.279 214.661 101.431 214.767 101.554 214.903C101.679 215.04 101.773 215.205 101.838 215.398C101.902 215.59 101.935 215.802 101.935 216.034V216.38H99.7842C99.7998 216.487 99.8311 216.586 99.8779 216.676C99.9268 216.764 99.9883 216.84 100.062 216.904C100.137 216.969 100.222 217.018 100.317 217.054C100.413 217.089 100.518 217.106 100.631 217.106C100.711 217.106 100.79 217.099 100.868 217.083C100.948 217.067 101.024 217.045 101.097 217.016C101.169 216.984 101.236 216.946 101.299 216.901C101.361 216.856 101.416 216.804 101.463 216.743L101.87 217.183C101.819 217.255 101.753 217.326 101.671 217.396C101.591 217.465 101.495 217.526 101.384 217.581C101.274 217.634 101.152 217.677 101.018 217.71C100.883 217.743 100.737 217.76 100.581 217.76ZM100.484 215.132C100.393 215.132 100.309 215.148 100.232 215.182C100.156 215.213 100.089 215.259 100.03 215.319C99.9736 215.38 99.9258 215.452 99.8867 215.536C99.8477 215.62 99.8184 215.714 99.7988 215.817H101.135V215.753C101.131 215.667 101.114 215.586 101.085 215.51C101.056 215.434 101.014 215.368 100.959 215.313C100.904 215.257 100.837 215.213 100.757 215.182C100.679 215.148 100.588 215.132 100.484 215.132Z" fill="#303136"/>
<path d="M58.6338 57.9624H58.6438" stroke="#303136" stroke-width="2" stroke-linecap="round" stroke-linejoin="round"/>
<path d="M47.5125 53.8411C46.9499 54.4037 46.6338 55.1667 46.6338 55.9624V67.9624C46.6338 68.758 46.9499 69.5211 47.5125 70.0837C48.0751 70.6463 48.8381 70.9624 49.6338 70.9624H51.0915V73.9624L56.0915 70.9624H61.6338C62.4294 70.9624 63.1925 70.6463 63.7551 70.0837C64.3177 69.5211 64.6338 68.758 64.6338 67.9624V55.9624C64.6338 55.1667 64.3177 54.4037 63.7551 53.8411C63.1925 53.2784 62.4294 52.9624 61.6338 52.9624H49.6338C48.8381 52.9624 48.0751 53.2784 47.5125 53.8411Z" stroke="#303136" stroke-width="2" stroke-linecap="round" stroke-linejoin="round"/>
<path d="M46.6338 65.9624L51.6338 60.9624C52.5618 60.0694 53.7058 60.0694 54.6338 60.9624L59.6338 65.9624" stroke="#303136" stroke-width="2" stroke-linecap="round" stroke-linejoin="round"/>
<path d="M57.6338 63.9624L58.6338 62.9624C59.5618 62.0694 60.7058 62.0694 61.6338 62.9624L64.6338 65.9624" stroke="#303136" stroke-width="2" stroke-linecap="round" stroke-linejoin="round"/>
<path d="M47.5125 24.5999C46.9499 25.1625 46.6338 25.9256 46.6338 26.7213V38.7213C46.6338 39.5169 46.9499 40.28 47.5125 40.8426C48.0751 41.4052 48.8381 41.7213 49.6338 41.7213H51.0915V44.7213L56.0915 41.7213H61.6338C62.4294 41.7213 63.1925 41.4052 63.7551 40.8426C64.3177 40.28 64.6338 39.5169 64.6338 38.7213V26.7213C64.6338 25.9256 64.3177 25.1625 63.7551 24.5999C63.1925 24.0373 62.4294 23.7213 61.6338 23.7213H49.6338C48.8381 23.7213 48.0751 24.0373 47.5125 24.5999Z" stroke="#303136" stroke-width="2" stroke-linecap="round" stroke-linejoin="round"/>
<path d="M50.3645 32.6788H60.9031" stroke="#303136" stroke-width="2" stroke-linecap="round" stroke-linejoin="round"/>
<path d="M50.3645 28.7637H60.9031" stroke="#303136" stroke-width="2" stroke-linecap="round" stroke-linejoin="round"/>
<path d="M50.3645 36.6788H58.2684" stroke="#303136" stroke-width="2" stroke-linecap="round" stroke-linejoin="round"/>
<path d="M72.2449 39.2697C71.6823 39.8323 71.3662 40.5954 71.3662 41.391V53.391C71.3662 54.1867 71.6823 54.9497 72.2449 55.5123C72.8075 56.0749 73.5706 56.391 74.3662 56.391H79.7583L84.7583 59.391V56.391H86.3662C87.1619 56.391 87.9249 56.0749 88.4875 55.5123C89.0501 54.9497 89.3662 54.1867 89.3662 53.391V41.391C89.3662 40.5954 89.0501 39.8323 88.4875 39.2697C87.9249 38.7071 87.1619 38.391 86.3662 38.391H74.3662C73.5706 38.391 72.8075 38.7071 72.2449 39.2697Z" stroke="#303136" stroke-width="2" stroke-linecap="round" stroke-linejoin="round"/>
<path d="M80.3662 42.4627V52.4743M83.0009 44.5704V50.3666M85.6355 46.1512V48.7858M77.7316 44.5704V50.3666M75.0969 46.1512V48.7858" stroke="#303136" stroke-width="2" stroke-linecap="round"/>
<path d="M11.9238 170.721C9.35185 170.721 7.26685 168.714 7.26685 166.238C7.26685 163.763 9.35185 161.756 11.9238 161.756C12.3168 159.994 13.7178 158.556 15.5988 157.983C17.4788 157.411 19.5548 157.79 21.0428 158.983C22.5308 160.173 23.2048 161.99 22.8128 163.752H23.8028C25.7158 163.752 27.2668 165.312 27.2668 167.238C27.2668 169.165 25.7158 170.725 23.8018 170.725H11.9238" fill="white"/>
<path d="M11.9238 170.721C9.35185 170.721 7.26685 168.714 7.26685 166.238C7.26685 163.763 9.35185 161.756 11.9238 161.756C12.3168 159.994 13.7178 158.556 15.5988 157.983C17.4788 157.411 19.5548 157.79 21.0428 158.983C22.5308 160.173 23.2048 161.99 22.8128 163.752H23.8028C25.7158 163.752 27.2668 165.312 27.2668 167.238C27.2668 169.165 25.7158 170.725 23.8018 170.725H11.9238" stroke="#A5A8AB" stroke-width="2" stroke-linecap="round" stroke-linejoin="round"/>
<g clip-path="url(#clip0_24_164)">
<path d="M31 191V189C31 188.47 31.2107 187.961 31.5858 187.586C31.9609 187.211 32.4696 187 33 187H35" stroke="black" stroke-width="2" stroke-linecap="round" stroke-linejoin="round"/>
<path d="M31 199V201C31 201.53 31.2107 202.039 31.5858 202.414C31.9609 202.789 32.4696 203 33 203H35" stroke="black" stroke-width="2" stroke-linecap="round" stroke-linejoin="round"/>
<path d="M43 187H45C45.5304 187 46.0391 187.211 46.4142 187.586C46.7893 187.961 47 188.47 47 189V191" stroke="black" stroke-width="2" stroke-linecap="round" stroke-linejoin="round"/>
<path d="M43 203H45C45.5304 203 46.0391 202.789 46.4142 202.414C46.7893 202.039 47 201.53 47 201V199" stroke="black" stroke-width="2" stroke-linecap="round" stroke-linejoin="round"/>
<path d="M35 195H43" stroke="black" stroke-width="2" stroke-linecap="round" stroke-linejoin="round"/>
<path d="M35 192H41" stroke="black" stroke-width="2" stroke-linecap="round" stroke-linejoin="round"/>
<path d="M35 198H39" stroke="black" stroke-width="2" stroke-linecap="round" stroke-linejoin="round"/>
</g>
<g clip-path="url(#clip1_24_164)">
<path d="M71 191H71.01" stroke="black" stroke-width="2" stroke-linecap="round" stroke-linejoin="round"/>
<path d="M62 196L64.644 193.356C64.7564 193.244 64.8898 193.154 65.0367 193.093C65.1836 193.033 65.341 193.001 65.5 193.001C65.659 193.001 65.8164 193.033 65.9633 193.093C66.1102 193.154 66.2436 193.244 66.356 193.356L70 197" stroke="black" stroke-width="2" stroke-linecap="round" stroke-linejoin="round"/>
<path d="M69 196L70.644 194.356C70.7564 194.244 70.8898 194.154 71.0367 194.093C71.1836 194.033 71.341 194.001 71.5 194.001C71.659 194.001 71.8164 194.033 71.9633 194.093C72.1102 194.154 72.2436 194.244 72.356 194.356L74 196" stroke="black" stroke-width="2" stroke-linecap="round" stroke-linejoin="round"/>
<path d="M60 191V189C60 188.47 60.2107 187.961 60.5858 187.586C60.9609 187.211 61.4696 187 62 187H64" stroke="black" stroke-width="2" stroke-linecap="round" stroke-linejoin="round"/>
<path d="M60 199V201C60 201.53 60.2107 202.039 60.5858 202.414C60.9609 202.789 61.4696 203 62 203H64" stroke="black" stroke-width="2" stroke-linecap="round" stroke-linejoin="round"/>
<path d="M72 187H74C74.5304 187 75.0391 187.211 75.4142 187.586C75.7893 187.961 76 188.47 76 189V191" stroke="black" stroke-width="2" stroke-linecap="round" stroke-linejoin="round"/>
<path d="M72 203H74C74.5304 203 75.0391 202.789 75.4142 202.414C75.7893 202.039 76 201.53 76 201V199" stroke="black" stroke-width="2" stroke-linecap="round" stroke-linejoin="round"/>
</g>
<g clip-path="url(#clip2_24_164)">
<path d="M89 191V189C89 188.47 89.2107 187.961 89.5858 187.586C89.9609 187.211 90.4696 187 91 187H93" stroke="black" stroke-width="2" stroke-linecap="round" stroke-linejoin="round"/>
<path d="M89 199V201C89 201.53 89.2107 202.039 89.5858 202.414C89.9609 202.789 90.4696 203 91 203H93" stroke="black" stroke-width="2" stroke-linecap="round" stroke-linejoin="round"/>
<path d="M101 187H103C103.53 187 104.039 187.211 104.414 187.586C104.789 187.961 105 188.47 105 189V191" stroke="black" stroke-width="2" stroke-linecap="round" stroke-linejoin="round"/>
<path d="M101 203H103C103.53 203 104.039 202.789 104.414 202.414C104.789 202.039 105 201.53 105 201V199" stroke="black" stroke-width="2" stroke-linecap="round" stroke-linejoin="round"/>
<path d="M97 199L97 191" stroke="black" stroke-width="2" stroke-linecap="round" stroke-linejoin="round"/>
<path d="M94 197L94 193" stroke="black" stroke-width="2" stroke-linecap="round" stroke-linejoin="round"/>
<path d="M91 196L91 194" stroke="black" stroke-width="2" stroke-linecap="round" stroke-linejoin="round"/>
<path d="M103 196L103 194" stroke="black" stroke-width="2" stroke-linecap="round" stroke-linejoin="round"/>
<path d="M100 197L100 193" stroke="black" stroke-width="2" stroke-linecap="round" stroke-linejoin="round"/>
</g>
<defs>
<clipPath id="clip0_24_164">
<rect width="24" height="24" fill="white" transform="translate(27 183)"/>
</clipPath>
<clipPath id="clip1_24_164">
<rect width="24" height="24" fill="white" transform="translate(56 183)"/>
</clipPath>
<clipPath id="clip2_24_164">
<rect width="24" height="24" fill="white" transform="translate(85 183)"/>
</clipPath>
</defs>
</svg>
